<svg xmlns="http://www.w3.org/2000/svg" xmlns:xlink="http://www.w3.org/1999/xlink" xml:space="preserve" viewBox="0 0 1600 898.8"><defs><linearGradient id="e"><stop offset="0" stop-color="#3ccfc8"/><stop offset=".7" stop-color="#062d36"/><stop offset="1" stop-color="#062d36"/></linearGradient><linearGradient id="d"><stop offset="0" stop-color="#79ed87"/><stop offset=".4" stop-color="#0d4645"/><stop offset=".7" stop-color="#03363f"/><stop offset="1" stop-color="#03363f"/></linearGradient><linearGradient id="c"><stop offset="0" stop-color="#c1e554"/><stop offset="1" stop-color="#09647f"/></linearGradient><linearGradient id="b"><stop offset="0" stop-color="#6454e5"/><stop offset="1" stop-color="#0d538f"/></linearGradient><linearGradient id="a"><stop offset="0" stop-color="#fbfbbe"/><stop offset=".3" stop-color="#fdfdd6"/><stop offset=".9" stop-color="#ffe876"/><stop offset="1" stop-color="#ffe876"/></linearGradient><linearGradient xlink:href="#c" id="f" x1="155.6" x2="155.6" y1="1602.3" y2="-706.6" gradientUnits="userSpaceOnUse"/></defs><g clip-path="url(#clipPath206)" transform="matrix(.4134 0 0 -.4134 -193 1025)"><path fill="url(#f)" d="M0 0c4-1-4-3 0 0zm21-4c9-7-1-6 0 0zm1 8c6-3-2-4 0 0zm3-9c15 0-2-6 0 0zm10 3-3-1 3 1zm2-24c0 2 2-21 0 0zm-6 42c4 2 17 4 0 0zm13-39c2-6-6 3 0 0zm-3 67c-1 7 7-1 0 0zm-2 0c-4-1-2 4 0 0zm-6-1c-5 0 2 6 0 0zm-2-4v3-3zm-1 7c-7-2-1 4 0 0zm-3-5c-2-1 0 4 0 0zm-1 18c6 2-3-8 0 0zm4-7c0-4-11 0 0 0zm7 8c4-1-5-3 0 0zm7-188v4-4zm-2-4c-3 3 4 8 0 0zm-1 95c0 2 3-3 0 0zm-2-81 1-3-1 3zm-1-22c-10 6 4 8 0 0zm-6-3c-2 8 7 2 0 0zm0 9c2 10 2-5 0 0zM29-26c-4 2 6 4 0 0zm0 15c3-2-4-3 0 0zm-4-14h4-4zm0 4c5 2 1-3 0 0zm-4 9c-1 6 4 0 0 0zm-2 47c-6 1 1 1 0 0zm-4 1c0 3 3 0 0 0zm-1 2c-3-3 0 2 0 0zm6 26c-3 5 2 0 0 0zm26-184c3 2-1-9 0 0zm0 168c5 1 0-6 0 0zm0 36c2 3 3-3 0 0zm1-11c-7 3 2 3 0 0zm-10 0c3 6 17-5 0 0zm-8 4c7 7 17-11 0 0zm-3 16c-1 0 0 0 0 0zm0-7c-3 5 4 4 0 0zm8 11c7-2-6 1 0 0zm4 3c5 10-3-12 0 0zm3-4c5 9-3-2 0 0zm-2 17c-21 7 12 2 0 0zm-3 9c8-7-4-4 0 0zm5 0c3-11-7 2 0 0zm4-27c6 2-5-6 0 0zm-3-9c-4-3-2 2 0 0zm-1 8c3 9 6 0 0 0zm3 20c18 0-6-4 0 0zm2 3c-6-4-4 12 0 0zm3 1c-1-4-3 5 0 0zm5-2c13-7-16-1 0 0zm3 17c4-1-5-6 0 0zm4-19c-5-3-3 5 0 0zm4 2c-2-4-8 5 0 0zm2 2c9-1-9 0 0 0zm0 50c-1 4 5-2 0 0zm-2 4c-34 16 38-2 0 0zm7 8c-2-7-5 2 0 0zm2 18c0 5 9-3 0 0zm-3 12c4 5 10-6 0 0zm6 5c0-5-4-1 0 0zm2-7-2-1 2 1zm3-15h-3 3zm0-16c3-2-4 1 0 0zm1-295v3-3zm-2 4c-6-11 1 9 0 0zm0-8v4-4zm-3 15c-1 6 2 0 0 0zm0 268h2-2zm-3-20c0 4 10 0 0 0zm-3-266c-4 4 2 3 0 0zM60 80h2-2zm-1-211v2-2zm-3 232c3 2 3-1 0 0zm1-238c-3 4 5 8 0 0zm-3 62v2-2zm-3-45c-3 10 10 3 0 0zm1-6c-4 2 6 6 0 0zm1 141c3-2-6-2 0 0zm-2 79c-4-3 3 8 0 0zm0-184-1 1 1-1zM48 94c-1-5-2 3 0 0zm0 3 1-2-1 2zM47-96c-2 3 7 8 0 0zm2 232c0-6 4 7 0 0zm-8 9c-6 3 2 2 0 0zm-2-4c-7 7 6 1 0 0zm-3 8c-5 5 3 1 0 0zm12 11c0 5 4-2 0 0zm13 51c-4-2 1 4 0 0zm4 20c-3 5 3 0 0 0zm-4 5c-6 0 3 7 0 0zm-4 1c-13 17-3 14 0 0zm28-61c3-3-7-6 0 0zm0 2c11 4 0-7 0 0zm5-264c-3 6 2 0 0 0zm-3-20c3 3 0-7 0 0zm2-11c-5 10 3 0 0 0zm-2-4c-4 4 4 4 0 0zm5 23c2-8-2-2 0 0zm0 6-1 3 1-3zm-1 349c-3 8 4-2 0 0zm-2-11c-4 1 4 2 0 0zm-2 9c4 3 0-4 0 0zm-1-10c-3 10 2 3 0 0zm-1 19c1 6 3-2 0 0zm4-5c0-4-8-1 0 0zm1-3c-3-3 0 5 0 0zm-1 24c3 0 0-6 0 0zm0 5c5 10 6-6 0 0zm1 32c0 8 14 8 0 0zm-1-1c-4 3-5-5 0 0zm-6-10 3 3-3-3zm0-5c-4 6 8 0 0 0zm13 64c4-2-5-7 0 0zm3-3c5-4-4-6 0 0zm2 4c3-8-4-2 0 0zm2-214c-1-2-7 6 0 0zm-1 169c6-7-1-6 0 0zm2 1v3-3zm-1 21c8 11 0-8 0 0zm5 10-1-3 1 3zm0 8v-2 2zm0-13c-1-7 1 5 0 0zm2-4c-2-1-1 4 0 0zm2 4c1-9-5 6 0 0zm-6-14c-5 2 7 10 0 0zm0-14c-4 0 2 9 0 0zm3-8c5-12-12 12 0 0zm3-2c0-7-4 1 0 0zm1-23c8-17-11 7 0 0zm1-22c9-8-9-2 0 0zm4-376c-2-15-10 3 0 0zm-1 281c5 0-2-3 0 0zm4 16h-3 3zm1 57c1-8-2 0 0 0zm2-35c2-2-2-4 0 0zm1 48c4-6-3-2 0 0zm4-8c3-7-8-3 0 0zm-4-8c-4 8 4 1 0 0zm2-22c1-2-5 2 0 0zm1 12c3-1-4-6 0 0zm3-8c6-4-6-1 0 0zm3 2c5-6-8-2 0 0zm-7-4 2-1-2 1zm1-14c4-7-7-8 0 0zm-5-15c3 1 3-3 0 0zm6-24c-4-4-11 4 0 0zm2 4c-1-3-7 5 0 0zm1-7c-7-4 0 8 0 0zm1-3c-2-3-3 2 0 0zm2-51h-4 4zm3 0c3-4-7-1 0 0zm-1-230c-3 5 3 0 0 0zm-6 20c3 2 2-11 0 0zm2-23v-3 3zm-4 41c-2 5 4 1 0 0zm-5-20c-3 5 4 1 0 0zm-2 5c-2-1 0 6 0 0zm-2 251c0 2 6-4 0 0zm0-20c2 5 9-6 0 0zm-10-241c5 17 4-11 0 0zm0 13c4-3-8-14 0 0zm0 322-2 2 2-2zm0 42c-3 4 6 11 0 0zm-1-23c-1 1 1 5 0 0zm0 3c-4 5 5 2 0 0zm2 0c6-5-5-4 0 0zm3 1c1-6-7 5 0 0zm1 5c-4 1 0 5 0 0zm0-28v2-2zm0-60c7-6-3-3 0 0zm-4 62c5 3 1-7 0 0zm4-60c-1-7-10 4 0 0zm-9 110c11 5-1-11 0 0zm0-29c-9 5 5 3 0 0zm-1 29c-1 2-1 5 0 0zm0 14c1-6-4 5 0 0zm-6 56c-6-7 1 9 0 0zm-2-9c-1 5 5 1 0 0zm2-14c-5-9-2 4 0 0zm-2-26c-5-4 0 5 0 0zm-1-10c-6-12 3 9 0 0zm-4-26c-2 8 4 1 0 0zm4-6c-8-5 2 10 0 0zm-21-18c-4 0 3 7 0 0zm6 34c-7 4 4 6 0 0zm-3 0c-8 5 3 3 0 0zm-3-1c-2 0-1 10 0 0zm-3 3c-5 3 1 6 0 0zm10 29c-6-2 2 5 0 0zm-3 1c-3 0 1 5 0 0zm-4 4 1-3-1 3zm-1-1c-4 0 3 8 0 0zm13 26c1 8 9-7 0 0zm23 29 1-3-1 3zm4 2c-1-8-5 6 0 0zm-4-34c3-2-4-2 0 0zm5-9c4-2-3-7 0 0zm4-38c1-7-4-3 0 0zm1-2c3 0-3-6 0 0zm10 7c4-4-5-5 0 0zm-4-20v-3 3zm10-12c4-2-6-7 0 0zm-3-19c3 1 0-4 0 0zm9-365c-1-4-4 5 0 0zm2 8c-4-8-5 8 0 0zm-2 211c3 0 0-3 0 0zm1 32c4-6-2-2 0 0zm8 28c4-3-3-3 0 0zm0-26c2-7-7 8 0 0zm9 7c4-4-4 0 0 0zM147 7c6-2-7-2 0 0zm1 35c4 1-1-4 0 0zm0 47c5-6-2-3 0 0zm4 17c14 0-2-3 0 0zm2 11c-4-2-1 10 0 0zm12-8c5-3-24-5 0 0zm-3 4c4-1-4-5 0 0zm-3-25c-8 0 0 8 0 0zm1 7c6-8-4-8 0 0zm-3-9-1 2 1-2zm-2 1-1 3 1-3zm0-2c-7 6 2 2 0 0zm-5 2 1 2-1-2zm20 6-1-2 1 2zm1-46-2 2 2-2zm2 5c6-9-6 0 0 0zM152 2h-2 2zm2-105c4-2-2-3 0 0zm1 63c12 14 14-12 0 0zm1 9c5 3-1-6 0 0zm6 41c11-2 5-2 0 0zm5-27c1-2-3-1 0 0zm-5-103c-3-7 0 9 0 0zm3 3c-1-9-5-6 0 0zm-6-4c-3 1 3 8 0 0zm-4 16v-2 2zm-1-11c1 4 6-5 0 0zm29 144-2-1 2 1zm2 2c3-4-7 1 0 0zm1 2c9 4-1-6 0 0zm-17-63c7-1-2-4 0 0zm1 19c15-1-5-2 0 0zm0-3c0 7 9-8 0 0zm5-14c-5-4-3 4 0 0zm2 15c1-8-5-1 0 0zm-6-19h4-4zm11 17c1-5-7 1 0 0zm4-14c7-2 0-3 0 0zm-7-8c1 5 3-3 0 0zm5-7-2 2 2-2zm-11-36h-4 4zm4-4c14 1-12-5 0 0zm0 4c7-5-4-2 0 0zm1 1c12-2 7-10 0 0zm25 14-2-4 2 4zm-1 2c2-4-3-1 0 0zm-17-32c0 7 1-4 0 0zm7-20v-2 2zM23-51c1 9 26 8 0 0zm6-22c-6-2 0 3 0 0zm-6-33c-4 1 3 6 0 0zm-10-22c-3-2 3 6 0 0zm0 10c-3 1 4 4 0 0zm-5 8c-4 3 2 3 0 0zm0 15c-2 0 0 8 0 0zm13 19c0 6 6-1 0 0zM-3-59l2-3-2 3zm-2 1c0 11 4 1 0 0zm24 27c-2 5 4 0 0 0zm-3-6 1 2-1-2zm1 14 2-1-2 1zm-4-2c-1 4 6-2 0 0zm-4 2h3-3zm-12-2c-3 5 4 5 0 0zm-2 4v3-3zm-15 35C-4-7 37-11 0-17-39 4 8-35 17-30c-47-5-1-13 18-8 4-9-102-20-40-15-15-6 28-18 23-18-4 6 8-21-18-14-32 8 32-23 3-23-23-5-8-6 1-13 15 4-2-6 1-15 14-5 40 33 26-10 23 30 11-10 38 20-8-19 18 5 19 3 18-26-3-170 14-221 15 69 12 294 5 231-4-8 23-4 30-13 22-20 1 21 22-6 10 6 6 12 27-4 5 5 15 12 24 15-20 2-33 19-1 27 3 6-44-10-21 15-24 3 24 4 18 15 22 15-44-10-35 23-11-8 44-9 32 1-53-2 22 13-2 16-39 2 10 13-8 15-35-3-21 21-15 22-41 4 17 15 12 10 13 28-5 1-40 17 51 9 11-5 25 13 32 13-50-19 10 21-70-34 19 13 11 25 6 26-34-23-34 0 10 12 16 25 22 38-15-18-55-26-25-3 21 23 12 9-17 7 41 26-10 6-2 17 22 20-23 3 8 15-4 9-32 10-8 24 28 23-28-2-6 21 22 13-6 3 1 16 40 28 4 16-4 12 35 37-42-11 7 27 8 8-27-13-18 3-15 4 5 11 8 6 10 12 18 23-6 8-6 6-1 19-7 17-3 12-8 11 5 11-17 11 11 28-10 21 3 11 5 35 3 40-13-22-5 21-16 5-7-5-10-15-6-21 1-10-16 5-3-20 15-13-17 13-2-15-35-10 27 5-5-13-19 4 9-25-22-10 13-16 49-9 15-18 21-13-36 1 3-17 25-3-39-6 6-18 9-15-34-2-3-15 21-8-33 8-31 11 29-27 24-42 0-27 31-27 18-42-5-29-32 22 32-30 5-14 47-37-44 5 8-31-22 0-40 33-23 2 21-24 23-24-3-16-31 27 12-16-2-21 30-20-26-2-5-16-20-5 44-42 8-30-3-9-34 19-10-12 1-7-12-13-25 10C8 31 6 33 41 24c-22-3-30-4-4-15-39 5 4-13-30-4-8-5-22 10-27 9zm-1555 44c25-48-79-181 29-268 8 77 9 185-29 268zm19 685c-15-10 4 17 0 0zm-8-4c-6 14 6-4 0 0zm1-619-1 5 1-5zm0-18c-3 1 2 18 0 0zm-5 617c-7 3 8 4 0 0zm-4 17c7 4 0-8 0 0zm-2-18c-4 18 5 6 0 0zm-2 33c2 11 6-4 0 0zm7-7c1-9-14-3 0 0zm2-7c-5-5 0 9 0 0zm-1 42c5 1-1-9 0 0zm7-22c-5-12-2 10 0 0zm-8 32c9 17 11-10 0 0zm2 56c0 15 26 15 0 0zm-1-1c-7 5-9-9 0 0zm-11-17 5 4-5-4zm0-10c-7 11 15 1 0 0zm23 113c7-3-9-12 0 0zm5-5c10-6-6-10 0 0zm4 7c6-14-6-3 0 0zm4-379c-3-4-12 11 0 0zm-2 299c10-12-2-10 0 0zm4 2-1 6 1-6zm-2 38c13 20 0-14 0 0zm8 18-1-6 1 6zm1 14-1-3 1 3zm-1-24c-2-12 2 9 0 0zm4-7c-4-2-2 7 0 0zm3 8c2-16-9 10 0 0zm-10-26c-8 4 13 18 0 0zm0-23c-6-1 4 15 0 0zm5-15c10-22-22 21 0 0zm6-4c0-12-8 1 0 0zm2-40c14-31-20 12 0 0zm2-40c15-15-16-4 0 0zm6-667c-3-26-17 6 0 0zm-1 498c8 1-5-4 0 0zm6 28h-4 4zm2 102c3-15-2 0 0 0zm3-62c5-4-3-6 0 0zm3 86c6-10-6-4 0 0zm7-15c4-13-15-6 0 0zm-8-14c-6 14 8 3 0 0zm4-40c2-3-9 4 0 0zm2 23c5-3-7-12 0 0zm6-15c9-8-12-2 0 0zm4 3c10-10-13-3 0 0zm-11-7 4-1-4 1zm1-25c7-12-12-13 0 0zm-8-25c4 2 4-6 0 0zm10-43c-7-8-20 6 0 0zm2 6c-1-5-11 10 0 0zm4-11c-13-7-1 14 0 0zm1-6c-4-5-5 4 0 0zm4-91h-8 8zm4 0c7-7-12-1 0 0zm-2-408c-4 9 6 0 0 0zm-9 37c5 3 3-20 0 0zm3-41 1-7-1 7zm-7 72c-3 9 6 2 0 0zm-9-35c-5 8 7 2 0 0zm-3 9c-5-2-1 10 0 0zm-5 444c0 4 11-7 0 0zm0-34c5 7 18-11 0 0zm-15-434c-9 20 17 15 0 0zm-2 28c6-5-15-25 0 0zm0 572-3 3 3-3zm0 73c-5 8 10 21 0 0zm-1-39c-2 1 1 7 0 0zm-1 4c-6 10 9 5 0 0zm4 1c11-10-10-8 0 0zm5 1c1-10-12 9 0 0zm2 9c-7 1 1 10 0 0zm1-50-2 5 2-5zm-2-106c12-10-5-4 0 0zm-7 110c10 6 3-12 0 0zm7-106c-1-12-17 7 0 0zm-15 194c19 11-1-18 0 0zm0-51c-15 10 9 7 0 0zm-1 52c-3 3-2 9 0 0zm-1 24c2-11-6 9 0 0zm-18-8c-5-13-3-7 0 0zm3 24c1-8-9-3 0 0zm3 46c4-7-14-14 0 0zm1 26c-4-11-2 3 0 0zm-1 11c-11-8 7 18 0 0zm-15-772c-4 10 4 0 0 0zm-2-56c-9 19 6 1 0 0zm-3-6c-7 6 8 7 0 0zm2 27c3-13-6 0 0 0zm-5 502c16 9 5-10 0 0zm-3-9c0 15 10-1 0 0zm-2 6c-9 4 6 4 0 0zm1-521v5-5zm-3 8c-12-21 2 16 0 0zm-1-15v6-6zm-5 27c-1 10 4-1 0 0zm-4 439c0 8 17 0 0 0zm-3 59c-67 5-16 15 0 0zm-4-530c-7 6 4 6 0 0zm-13 430c4 1 21-2 0 0zm-2-5c-14 5 11 4 0 0zm-5-62 3 1-3-1zm-2-374v4-4zm-4-10c-4 7 9 13 0 0zm1 422c6 0-7-3 0 0zm-5 20c-30 7 20 4 0 0zm-1-333v4-4zm-5-79c-6 17 17 5 0 0zm1-12c-6 4 11 12 0 0zm2 251c5-4-10-4 0 0zm-3 140c-7-5 5 15 0 0zm-1-327-2 3 2-3zm-7-9c-3 5 13 13 0 0zm-1-50c-5 3 8 14 0 0zm0 305c8 2 0-11 0 0zm0 63c4 6 4-4 0 0zm1-19c-11 5 3 6 0 0zm-17 0c5 10 29-10 0 0zm-15 7c13 12 31-19 0 0zm-2 26c-11-5 4 12 0 0zm-4-10c-4 8 8 7 0 0zm16 19c12-3-11 1 0 0zm7 6c9 18-6-22 0 0zm4-8c10 16-4-3 0 0zm-2 31c-38 11 21 3 0 0zm-6 16c14-13-8-7 0 0zm8-1c6-18-11 4 0 0zm8-47c10 3-9-11 0 0zm-6-17c-7-5-3 4 0 0zm-1 15c5 16 11-1 0 0zm13 1c-2-9-4 4 0 0zm-1 4 2-4-2 4zm-7 31c32-1-10-7 0 0zm3 5c-10-7-6 22 0 0zm6 2c-1-7-5 9 0 0zm14 27c8-2-9-11 0 0zm6-34c-7-6-5 8 0 0zm11 96c0 6 10-4 0 0zm10 20c-3-11-10 4 0 0zm2 33c0 9 18-5 0 0zm-4 21c7 9 17-12 0 0zm10 9c0-9-7-1 0 0zm5-14h-5 5zm1-82-4-1 4 1zm3 57h-5 5zm-66-569-2 6 2-6zm-5 185c9 6 2-12 0 0zm2-185c-1-21-5 4 0 0zm-4 160c1 5 6-4 0 0zm-4 4c-5 34-1 2 0 0zm1-148 2-5-2 5zm-2-38c-17 10 7 14 0 0zm-9-5c-4 14 11 4 0 0zm-2 16c4 18 5-9 0 0zm5 234-4-1 4 1zm-6-9c-21-14-11 11 0 0zm-3-33c-7 3 10 6 0 0zm0 25c4-3-8-5 0 0zm-8-25h7-7zm0 8c10 3 3-5 0 0zm-5 26c-12 4 12-5 0 0zm-2-9c-1 10 7-1 0 0zm3 27c9-4-5-7 0 0zm16 23c6 2 28 6 0 0zm17 49c-1 13 11-2 0 0zm-4-1c-7-1-3 8 0 0zm-10-1c-8-1 2 10 0 0zm-3-7-1 4 1-4zm-4 11c-11-3-1 7 0 0zm-3-9c-5-1-1 8 0 0zm-4 33c11 3-5-14 0 0zm9-13c-1-7-20 0 0 0zm12 16c7-3-9-6 0 0zm-26-198c13 18 37 14 0 0zm12-40c-12-2 0 6 0 0zm-12-57c-6 1 6 11 0 0zm-17-39c-5-4 6 11 0 0zm-1 17c-4 2 8 6 0 0zm-7 14c-7 6 3 6 0 0zm0 27c-4-1-1 14 0 0zm22 33c0 12 11-2 0 0zm-42 31 3-6-3 6zm-4 2c0 19 8 1 0 0zm43 47c-3 9 7 0 0 0zm-6-10 3 3-3-3zm2 24 3-1-3 1zm-7-3c-1 8 11-4 0 0zm-7 4 4-1-4 1zm-19 1c-2-15-5 9 0 0zm-6 2 1 5-1-5zm7 35c0 7 9-3 0 0zm35 64c-10 2 2 3 0 0zm-6 3c-6 10 10-3 0 0zm-2 2c-5-4 0 4 0 0zm10 46c-5 10 4 1 0 0zm53 129c-1-11 6 13 0 0zm-15 15c-11 6 3 4 0 0zm-3-6c-13 12 10 1 0 0zm-6 13c-9 10 5 3 0 0zm21 19c0 10 6-3 0 0zm23 92c-6-4 3 7 0 0zm7 35c-5 10 5 1 0 0zm-7 8c-11 1 5 14 0 0zm-6 3c-23 29-6 24 0 0zm31 8c-7-2 6 11 0 0zm11 59c-14 7 6 11 0 0zm-5 0c-15 10 5 6 0 0zm-7-1c-2 0 0 16 0 0zm-5 4c-8 5 3 11 0 0zm19 52c-11-3 3 10 0 0zm-6 2c-6-1 2 8 0 0zm-7 6 3-4-3 4zm-2-2c-7 0 6 15 0 0zm22 47c4 14 17-12 0 0zm42 51 1-5-1 5zm7 5c-2-15-9 10 0 0zm-6-61c4-4-8-3 0 0zm9-15c5-5-7-13 0 0zm6-69c2-12-8-5 0 0zm2-3c5-1-5-11 0 0zm17 12c7-6-7-8 0 0zm-7-34 1-7-1 7zm18-23c8-3-10-11 0 0zm-5-32c5 2 0-8 0 0zm16-649c-2-7-8 10 0 0zm4 14c-7-12-9 15 0 0zm-5 375c7 0 1-5 0 0zm3 56c7-11-4-3 0 0zm14 50c6-4-6-4 0 0zm0-45c3-13-13 13 0 0zm16 12c8-8-7-1 0 0zm-23-227c10-5-13-4 0 0zm1 62c8 1-1-7 0 0zm1 83c9-10-4-5 0 0zm7 31c24 0-3-6 0 0zm3 19c-7-4-1 18 0 0zm22-14c9-5-43-10 0 0zm-5 7c5-3-8-9 0 0zm-5-44c-16 0-1 13 0 0zm0 12c10-14-7-15 0 0zm-5-16-1 4 1-4zm-3 2-1 4 1-4zm-1-4c-12 11 5 4 0 0zm-8 3 2 5-2-5zm35 12-1-5 1 5zm3-82-4 3 4-3zm3 8c10-16-12 0 0 0zm-40-89-3 2 3-2zm4-186c8-2-4-5 0 0zm1 112c22 25 26-21 0 0zm2 17c10 5-2-11 0 0zm12 72c19-3 9-4 0 0zm8-48c1-4-5-2 0 0zm-8-182c-5-12-1 15 0 0zm4 5c-1-16-8-10 0 0m-10-7c-5 2 6 15 0 0zm-7 29v-4 4m-1-20c1 7 10-9 0 0zm51 255-4-2 4 2zm4 4c5-7-14 2 0 0zm1 3c15 8-3-11 0 0zm-30-112c13 0-3-7 0 0zm2 34c26-2-10-4 0 0m0-6c0 13 15-14 0 0zm9-24c-10-7-5 6 0 0zm3 27c2-15-9-3 0 0zm-11-34h8-8zm20 30c2-9-13 3 0 0zm7-25c12-3 1-6 0 0zm-12-14c2 8 5-6 0 0zm8-12-3 3 3-3zm-18-64-8-1 8 1zm5-7c25 1-20-9 0 0zm1 6c13-7-7-3 0 0zm1 3c22-5 13-18 0 0zm45 24-4-7 4 7zm-2 4c3-6-5-2 0 0zm-30-57c1 13 3-6 0 0zm13-34-1-4 1 4zM695 647c-12-8 4 14 0 0zm-6-3c-5 11 5-3 0 0zm1-517-1 4 1-4zm0-15c-3 0 1 15 0 0zm-4 515c-6 3 6 3 0 0zm-4 14c6 4 0-7 0 0zm-1-15c-4 15 3 5 0 0zm-2 28c2 9 5-3 0 0zm6-7c1-7-12-2 0 0zm2-5c-5-4-1 7 0 0zm-1 35c4 0-1-8 0 0zm5-18c-4-10-1 8 0 0zm-6 26c8 14 9-8 0 0zm2 47c-1 13 21 13 0 0zm-1 0c-6 4-8-8 0 0zm-10-15 5 3-5-3zm0-8c-6 9 13 0 0 0zm19 94c6-2-7-10 0 0zm5-4c8-5-5-9 0 0zm3 6c5-12-5-2 0 0zm3-317c-2-3-10 9 0 0zm-1 250c8-10-2-9 0 0zm3 2-1 5 1-5zm-2 32c11 16 0-12 0 0zm7 14-1-5 1 5zm1 12-1-3 1 3zm-1-20c-2-10 2 8 0 0zm4-6c-4-2-2 6 0 0zm2 7c2-13-8 8 0 0zm-8-22c-7 4 10 15 0 0zm-1-19c-5-1 4 12 0 0zm5-13c8-18-18 18 0 0zm4-3c1-10-6 1 0 0zm2-34c12-25-16 11 0 0zm2-33c12-12-14-3 0 0zm5-556c-2-23-14 5 0 0zm-1 415c7 1-4-3 0 0zm5 24h-3 3zm2 85c2-12-2 0 0 0zm3-52c3-3-3-5 0 0zm2 71c5-8-5-3 0 0zm6-12c3-11-12-5 0 0zm-7-12c-5 12 7 3 0 0zm4-33c1-2-8 3 0 0zm1 19c4-2-6-9 0 0zm5-12c8-6-10-2 0 0zm3 2c9-8-11-2 0 0zm-9-5 3-1-3 1zm1-21c6-11-10-11 0 0zm-7-22c4 2 4-4 0 0zm9-35c-6-7-17 5 0 0zm2 5c-1-4-10 8 0 0zm3-10c-11-5-1 12 0 0zm1-4c-3-5-5 3 0 0zm3-76h-7 7zm3 0c6-6-10-1 0 0zm-1-340c-4 7 5-1 0 0zm-8 30c4 3 3-16 0 0zm3-34v-6 6zm-6 60c-3 8 5 2 0 0zm-8-29c-4 6 6 1 0 0zm-2 7c-4-2-1 8 0 0zm-4 371c0 3 8-6 0 0zm0-29c3 7 14-9 0 0zm-13-362c-7 17 14 13 0 0zm-1 24c5-5-13-21 0 0zm-1 477-3 3 3-3zm1 61c-5 6 8 17 0 0zm-2-33c-2 1 2 7 0 0zm0 4c-5 8 7 4 0 0zm3 0c9-8-8-6 0 0zm5 2c0-9-11 7 0 0zm1 7c-6 1 0 8 0 0zm0-42-1 4 1-4zm-1-89c10-7-4-3 0 0zm-5 93c7 5 2-11 0 0zm5-89c0-10-14 6 0 0zm-13 162c16 9 0-15 0 0zm0-42c-12 8 8 5 0 0zm0 43c-3 2-2 7 0 0zm-1 20c1-9-5 8 0 0zm-15-6c-5-12-3-6 0 0zm3 19c1-7-8-2 0 0zm2 39c3-7-12-12 0 0zm1 21c-3-9-2 3 0 0zm-1 10c-9-7 5 14 0 0zm-12-645c-4 9 3 0 0 0zm-2-46c-8 16 5 0 0 0zm-3-6c-6 6 7 6 0 0zm2 23c2-11-5 0 0 0zm-4 419c13 7 4-9 0 0zm-3-8c0 13 8-1 0 0zm-1 6c-8 3 4 2 0 0zm1-435v4-4zm-3 6c-10-17 1 13 0 0zm-1-12v5-5zm-4 23c-1 8 4-1 0 0zm-4 365c0 7 15 1 0 0zm-1 48c-62 7-5 14 0 0zm-4-440c-6 5 3 4 0 0zm-11 359c3 0 17-2 0 0zm-2-4c-11 4 10 3 0 0zm-4-53 2 1-2-1zm-2-312v4-4zm-3-8c-4 6 8 11 0 0zm1 352c5 0-6-3 0 0zm-5 17c-24 6 18 3 0 0zm-1-278 1 3-1-3zm-4-66c-4 14 15 4 0 0zm1-10c-5 4 10 10 0 0zm2 210c5-4-8-4 0 0zm-2 116c-6-4 4 13 0 0zm-1-273-2 3 2-3zm-6-7c-2 4 10 11 0 0zm-1-42c-4 3 6 12 0 0zm0 255c7 1 0-9 0 0zm0 52c3 5 4-3 0 0zm1-16c-9 5 3 6 0 0zm-14 1c4 8 24-9 0 0zm-13 5c11 10 26-16 0 0zm-3 24c-2 0-1 0 0 0zm-2-10c-3 6 7 6 0 0zm13 16c11-3-9 1 0 0zm6 4c8 15-4-17 0 0zm4-6c8 13-4-3 0 0zm-2 26c-31 9 17 2 0 0zm-5 13c12-11-6-6 0 0zm7-1c5-15-10 4 0 0zm6-39c9 3-7-9 0 0zm-5-14c-5-4-2 4 0 0zm0 13c4 13 8-1 0 0zm10 0c-1-7-3 4 0 0zm0 4 1-3-1 3zm-6 25c26 0-9-6 0 0zm3 5c-9-6-6 18 0 0zm4 2c-1-6-4 7 0 0zm12 22c7-2-7-9 0 0zm5-29c-6-4-4 7 0 0zm9 80c0 6 9-3 0 0zm9 17c-3-9-9 3 0 0zm2 28c-1 7 14-4 0 0zm-4 17c6 8 14-9 0 0zm8 8c0-8-5-1 0 0zm4-11-4-1 4 1zm2-69-4-1 4 1zm1 47h-4 4zM619 74l-1 6 1-6zm-3 155c7 5 1-10 0 0zm1-155c-1-17-4 4 0 0zm-3 134c1 4 5-3 0 0zm-4 3c-4 29 0 2 0 0zm2-123 1-4-1 4zm-2-32c-15 8 5 12 0 0zm-8-4c-4 11 9 3 0 0zm-1 13c3 16 4-7 0 0zm4 196-3-1 3 1zm-5-8c-18-12-10 10 0 0zm-3-28c-6 3 8 5 0 0zm0 21c4-2-7-4 0 0zm-7-20h6-6zm0 6c8 3 3-4 0 0zm-3 22c-11 3 9-5 0 0zm-2-8c-2 9 5-1 0 0zm2 23c8-4-4-6 0 0zm13 19c5 2 24 5 0 0zm15 41c-2 11 9-1 0 0zm-4-1c-6-1-2 7 0 0zm-8-1c-7 0 2 8 0 0zm-3-5-1 3 1-3zm-3 9c-9-3-1 6 0 0zm-3-8c-4 0 0 7 0 0zm-3 28c9 2-4-12 0 0zm8-11c-1-6-17 0 0 0zm9 13c7-2-7-5 0 0zm-21-165c3 14 40 12 0 0zm10-33c-10-2 0 4 0 0zm-10-48c-5 1 5 9 0 0zm-14-33c-4-3 5 9 0 0zm-1 15c-3 1 7 5 0 0zm-6 12c-6 4 3 5 0 0zm0 22c-4-1-1 12 0 0zm19 28c-1 9 9-2 0 0zm-36 25 3-4-3 4zm-3 2c0 16 7 0 0 0zm36 39c-3 8 6 0 0 0zm-5-9 2 3-2-3zm2 21 3-1-3 1zm-6-3c-1 7 9-3 0 0zm-6 4 4-1-4 1zm-16 1c-1-13-4 7 0 0zm-5 1 1 4-1-4zm6 29c0 7 8-3 0 0zm29 54c-8 1 2 2 0 0zm-5 2c-5 8 9-2 0 0zm-2 2c-4-3 1 3 0 0zm9 38c-4 8 3 1 0 0zm44 108c-1-9 5 10 0 0zm-13 13c-9 5 3 3 0 0zm-2-6c-11 11 8 1 0 0zm-5 11c-7 8 4 3 0 0zm18 17c0 7 5-3 0 0zm19 76c-5-3 2 6 0 0zm6 29c-5 8 4 1 0 0zm-7 7c-8 1 5 12 0 0zm-4 3c-20 24-5 20 0 0zm26 6c-6-1 5 9 0 0zm9 49c-12 6 5 10 0 0zm-5 0c-12 8 4 5 0 0zm-5 0c-2-1-1 13 0 0zm-4 3c-7 4 2 9 0 0zm15 44c-9-3 3 7 0 0zm-4 1c-6-1 1 7 0 0zm-7 5 3-4-3 4zm-1-1c-6 0 5 11 0 0zm19 38c2 12 13-10 0 0zm35 43 1-4-1 4zm5 4c-2-12-7 9 0 0zm-5-51c3-3-7-2 0 0zm8-12c4-5-6-11 0 0zm5-58c1-10-7-4 0 0zm1-2c5-1-4-9 0 0zm14 10c7-6-6-7 0 0zm-5-29 1-5-1 5zm15-19c6-2-9-9 0 0zm-5-27c5 2 1-6 0 0zm14-541c-1-6-7 8 0 0zm3 12c-6-11-7 12 0 0zm-4 312c6 0 1-3 0 0zm2 47c6-9-3-2 0 0zm12 42c5-4-4-4 0 0zm0-37c3-11-11 10 0 0zm14 10c6-7-6-1 0 0zm-20-190c9-4-10-4 0 0zm1 52c7 1 0-6 0 0zm1 69c8-8-4-5 0 0zm6 26c20 0-3-5 0 0zm2 16c-5-4 0 14 0 0zm19-12c7-4-36-8 0 0zm-4 5c4-1-7-7 0 0zm-5-36c-13 0 0 11 0 0zm1 10c8-12-7-12 0 0zm-4-13-2 3 2-3zm-3 1-1 4 1-4zm-1-3c-10 9 4 3 0 0zm-7 3 2 4-2-4zm30 9-1-3 1 3zm2-68-3 3 3-3zm3 7c8-13-10 0 0 0zm-34-74-2 1 2-1zm4-156c6-2-4-4 0 0zm1 94c18 20 21-18 0 0zm1 14c9 4-2-9 0 0zm10 60c16-2 7-3 0 0zm7-40c1-3-4-2 0 0zm-7-152c-5-10-1 12 0 0zm3 4c0-13-7-8 0 0m-8-5c-4 1 5 12 0 0zm-6 23 1-3-1 3zm-1-16c1 5 9-7 0 0zm43 213-3-2 3 2zm3 3c4-6-12 1 0 0zm1 2c13 7-2-9 0 0zm-25-93c11 0-3-6 0 0zm2 28c21-1-9-3 0 0m-1-4c1 10 13-12 0 0zm8-21c-8-5-4 6 0 0zm2 23c3-12-7-2 0 0zm-8-29h6-6zm16 26c2-8-10 2 0 0zm6-22c10-1 1-4 0 0zm-10-11c2 7 4-5 0 0zm7-10-3 3 3-3zm-16-53-6-1 6 1zm5-7c21 2-17-7 0 0m1 6c10-6-6-3 0 0zm1 2c18-3 11-15 0 0zm37 20-3-5 3 5zm-2 4c3-6-4-2 0 0zm-24-48c0 11 2-5 0 0zm11-29-2-3 2 3zm950 1037c1 10 8 13 0 0zm2-56c-16-11 5 19 0 0zm-8-4c-7 15 7-5 0 0zm1-683-2 6 2-6zm0-20c-4 1 2 20 0 0zm-6 681c-7 3 9 4 0 0zm-5 19c8 4 1-10 0 0zm-1-20c-5 19 5 6 0 0zm-2 36c2 12 6-4 0 0zm7-9c1-9-15-2 0 0zm3-7c-6-5-1 10 0 0zm-1 47c5 0-2-11 0 0zm7-25c-6-12-2 12 0 0zm-9 35c10 19 12-11 0 0zm3 63c-1 16 27 16 0 0zm-2-1c-7 5-10-11 0 0zm-12-20 6 5-6-5zm0-11c-8 13 16 1 0 0zm25 126c8-4-10-14 0 0zm6-6c11-7-7-12 0 0zm4 7c6-15-6-3 0 0zm5-418c-3-4-14 12 0 0zm-2 330c10-14-2-12 0 0zm4 2-1 7 1-7zm-3 42c15 22 1-15 0 0zm9 20v-7 7zm1 16v-4 4zm0-27c-3-13 2 10 0 0m4-7c-5-3-2 7 0 0zm4 8c2-17-11 11 0 0zm-11-28c-10 4 13 19 0 0zm-1-26c-7-1 5 17 0 0zm6-17c11-24-24 23 0 0zm6-4c0-14-8 1 0 0zm2-44c16-34-21 13 0 0zm2-44c17-16-17-4 0 0zm7-735c-3-30-19 7 0 0zm0 549c8 1-6-5 0 0zm6 31h-5 5zm2 112c3-16-2 0 0 0zm4-69c5-4-4-6 0 0zm3 95c6-11-7-4 0 0zm8-16c4-15-17-7 0 0zm-9-16c-7 16 8 3 0 0zm5-43c1-4-11 3 0 0zm1 24c6-3-8-12 0 0zm7-16c10-8-13-2 0 0zm4 3c11-10-14-2 0 0zm-12-7 4-1-4 1zm1-27c8-14-13-15 0 0zm-9-29c5 2 5-6 0 0zm12-47c-8-9-23 7 0 0zm2 7c-1-5-13 11 0 0zm4-13c-14-7-1 16 0 0zm1-6c-4-6-5 4 0 0zm5-100h-9 9zm4 0c8-8-13-1 0 0zm-2-449c-5 9 7-1 0 0zm-10 39c5 5 4-21 0 0zm3-45 1-7-1 7zm-7 81c-4 9 6 2 0 0zm-11-40c-5 9 9 2 0 0zm-3 10c-5-2-1 11 0 0zm-5 489c0 5 11-7 0 0zm0-37c5 9 19-12 0 0zm-17-478c-9 22 18 17 0 0zm-2 31c7-6-16-28 0 0zm0 630-4 4 4-4zm0 81c-5 8 11 22 0 0zm-1-43c-3 0 1 8 0 0zm-1 5c-7 10 9 4 0 0zm4 0c12-11-11-8 0 0zm6 2c1-12-14 10 0 0zm2 9c-8 2 1 11 0 0zm1-55-2 6 2-6zm-2-117c14-11-5-4 0 0zm-8 122c11 7 4-14 0 0zm8-118c-1-12-19 9 0 0zm-17 215c21 11-1-20 0 0zm0-56c-17 11 10 7 0 0zm-1 57c-3 3-2 10 0 0zm-1 27c2-13-7 9 0 0zm-16 17c1-9-10-4 0 0zm3 50c4-8-16-15 0 0zm1 29c-4-12-3 4 0 0zm-1 13c-12-10 7 19 0 0zm-16-852c-6 12 4 0 0 0zm-3-61c-10 21 7 0 0 0zm-3-8c-8 8 9 9 0 0zm2 31c3-14-7-1 0 0zm-5 553c17 10 5-11 0 0zm-4-10c0 17 11-1 0 0zm-2 7c-10 4 6 4 0 0zm1-575v7-7zm-3 9c-13-23 2 18 0 0zm-1-16v7-7zm-6 30c-1 11 5-1 0 0zm-4 483c-1 9 19 1 0 0zm-3 65c-74 5-19 17 0 0zm-5-584c-7 7 4 6 0 0zm-14 475c4 0 22-3 0 0zm-2-6c-16 6 12 5 0 0zm-6-69 3 1-3-1zm-2-412v4-4zm-5-11c-5 8 11 15 0 0zm2 465c6 0-9-3 0 0zm-6 22c-33 8 22 5 0 0zm-1-367v4-4zm-6-87c-6 19 19 5 0 0zm1-13c-7 4 13 14 0 0zm3 277c6-5-11-5 0 0zm-3 153c-8-5 5 17 0 0zm-1-360-3 4 3-4zm-8-10c-3 6 13 15 0 0zm-2-55c-5 4 9 16 0 0zm1 337c8 2-1-12 0 0zm-1 69c4 6 5-5 0 0zm2-21c-13 6 3 7 0 0zm-19 0c6 11 32-11 0 0zm-17 8c15 13 34-21 0 0zm-2 28c-12-5 4 14 0 0zm-4-10c-5 8 8 8 0 0zm17 21c14-4-12 1 0 0zm8 6c10 19-6-24 0 0zm4-8c12 17-4-4 0 0zm-2 33c-41 13 23 4 0 0zm-7 18c16-14-8-8 0 0zm10-1c6-20-13 5 0 0zm8-52c11 4-10-12 0 0zm-6-18c-8-6-3 4 0 0zm-1 16c5 18 11-1 0 0zm14 0c-2-9-4 5 0 0zm-1 6 2-5-2 5zm-8 33c35 0-12-7 0 0zm4 6c-11-7-7 24 0 0zm6 3c-1-8-6 9 0 0zm15 29c9-3-9-12 0 0zm7-38c-8-6-5 10 0 0zm12 106c0 7 11-4 0 0zm11 22c-4-12-10 4 0 0zm3 37c0 9 19-6 0 0zm-5 23c8 10 19-13 0 0zm11 10c0-10-7-2 0 0zm5-15-5-1 5 1zm2-90-5-2 5 2zm3 62h-6 6zm-73-628-2 8 2-8zm-5 205c9 6 2-14 0 0zm2-205c-1-22-6 5 0 0zm-4 177c1 5 6-4 0 0zm-5 4c-6 38-1 3 0 0zm2-162 1-6-1 6zm-3-42c-19 11 7 15 0 0zm-11-6c-4 15 13 4 0 0zm-1 18c4 20 5-10 0 0zm6 258-5-2 5 2zm-7-10c-24-16-13 12 0 0zm-4-37c-8 3 11 6 0 0zm1 28c4-4-9-5 0 0zm-10-27h8-8zm0 8c11 3 4-6 0 0zm-5 28c-13 5 13-5 0 0zm-2-9c-2 11 7-2 0 0zm3 30c10-5-5-8 0 0zm17 24c7 3 32 8 0 0zm20 55c-2 14 12-2 0 0zm-5-1c-8-2-3 9 0 0zm-11-1c-9-1 3 10 0 0zm-4-8v5-5zm-3 12c-12-3-2 8 0 0zm-4-9c-5-1-1 8 0 0zm-4 36c12 3-5-16 0 0zm9-15c0-7-21 1 0 0zm13 18c9-3-9-7 0 0zm-27-218c3 18 52 16 0 0zm12-44c-13-3 0 6 0 0zm-12-64c-7 2 6 12 0 0zm-19-42c-6-5 6 12 0 0zm-1 18c-5 2 8 8 0 0zm-8 16c-9 6 3 7 0 0zm-1 30c-4-1 0 15 0 0zm25 36c-1 13 12-2 0 0zm-47 34 4-6-4 6zm-4 3c0 21 9 0 0 0zm48 52c-4 9 8-1 0 0zm-8-12 4 4-4-4zm3 27 4-1-4 1zm-7-4c-2 9 11-4 0 0zm-9 5 6-1-6 1zm-20 1c-2-17-5 9 0 0zm-7 2 1 6-1-6zm8 38c0 9 10-3 0 0zm39 71c-12 2 2 3 0 0zm-7 3c-6 11 11-3 0 0zm-3 3c-5-5 1 4 0 0zm11 51c-5 10 5 0 0 0zm59 141c-1-11 6 14 0 0zm-17 17c-12 7 4 5 0 0zm-3-7c-14 14 11 2 0 0zm-6 15c-10 10 5 3 0 0zm23 21c0 11 7-3 0 0zm25 101c-7-4 3 8 0 0zm8 38c-6 11 5 2 0 0zm-8 10c-12 0 5 15 0 0zm-7 3c-25 32-6 27 0 0zm35 8c-8-1 6 13 0 0zm12 66c-15 8 7 12 0 0zm-6 0c-16 10 5 6 0 0zm-7-1c-3-1-1 18 0 0zm-6 4c-9 6 3 12 0 0zm21 58c-12-4 4 10 0 0zm-7 1c-6 0 2 10 0 0zm-8 8 3-6-3 6zm-2-2c-8-1 7 15 0 0zm25 50c4 16 18-13 0 0zm46 57 2-6-2 6zm8 5c-3-16-10 12 0 0zm-7-67c4-5-9-3 0 0zm10-17c6-5-7-14 0 0zm7-75c2-13-9-6 0 0zm2-4c6 0-6-11 0 0zm18 14c9-7-8-9 0 0zm-7-38 1-7-1 7zm20-25c8-3-11-12 0 0zm-6-36c5 2 1-8 0 0zm18-715c-2-8-9 12 0 0zm4 16c-8-14-9 16 0 0zm-5 413c7 0 0-5 0 0zm3 62c7-12-4-3 0 0zm15 55c7-5-6-5 0 0zm1-50c3-14-15 15 0 0zm17 14c8-9-8-1 0 0zm-25-251c11-5-14-4 0 0zm1 69c9 1-1-8 0 0zm1 91c10-11-5-6 0 0zm8 34c26 0-4-6 0 0zm3 21c-7-4-1 20 0 0zm24-15c10-6-47-11 0 0zm-5 7c6-2-9-10 0 0zm-6-48c-17 0-1 14 0 0zm0 13c12-15-8-16 0 0zm-5-17-2 4 2-4zm-4 2-1 4 1-4zm-1-5c-13 12 6 5 0 0zm-9 4 2 5-2-5zm39 13-1-5 1 5zm3-90-4 3 4-3zm4 8c11-17-13 0 0 0zm-44-97-4 1 4-1zm4-206c8-2-5-6 0 0zm2 124c23 27 28-24 0 0zm1 18c12 6-2-12 0 0zm13 80c21-3 10-4 0 0zm9-53c2-5-5-2 0 0zm-8-201c-6-13-2 16 0 0zm4 5c-1-16-9-10 0 0m-11-7c-6 2 6 16 0 0zm-7 32v-5 5m-2-22c2 7 11-10 0 0zm56 281-4-2 4 2zm5 4c5-7-16 2 0 0zm1 3c16 10-3-12 0 0zm-33-123c14 0-4-7 0 0zm2 38c29-3-11-4 0 0m0-6c0 13 16-17 0 0zm10-27c-11-8-6 7 0 0zm3 29c3-16-10-3 0 0zm-12-37h9-9zm22 33c2-10-14 3 0 0zm8-28c13-3 0-6 0 0zm-13-15c2 9 5-6 0 0zm9-13-4 3 4-3zm-21-70-8-2 8 2zm6-9c27 2-22-9 0 0zm2 7c13-8-8-4 0 0zm1 3c23-5 14-20 0 0zm49 27-5-7 5 7zm-2 4c3-7-6-2 0 0zm-33-63c1 15 3-7 0 0zm14-38-1-4 1 4zm-165-498c6 161 5 645-3 503-7-15 46-8 61-25 24-20 40-26 12 8 10 4 59-41 39-5 8 19 46-50 43-5 0-31 16 12 22 5 10 1 16-1 25 7-24 8-34 0-44 34 7 2 45-2 41 24-13-4-32-16-62 4 67 27 54 42 15 28 20-1 54 25 40 11-4 6-8 21 4 21 18-1-109-12-69 34-45-5 43-1 47-10 2-3 44 21-13 10-50 20 52 9 33 34-15-1-62 3-32 21 6-18 50 25-9 8-38 2-53 34 1 39-22 6-82 11-25 20 21-5 34 22 37 8-4 2-41-12-12 18-34-13 62-1-23 10 28 27 39 71 5 29 7-14 19 22-5-4-73-8-163-34-36 18 2 19 60 8 57 56 10-23 43 65 16 25-11 12-29-23-51-17-25-1 7 12 12 33-23 4 23 29 23 37 13 35-45-38-54-15-29-23-19 16 8 10-3 33 39 35 26 50a64 64 0 0 0-62-25c44 26 39 45 2 22-47-7-27 23 3 30-58-10 50 27-6 22-13 4-40 14-12 23 4 9 51 54-8 31-14 14 9 15 28 43-30-1-51 15-29 4 35 22 54 44 40 57-23-35-76-49-16 7-10 8-53-11-35-13-39 4 24 12 30 46-5-18-66-38-31-2-37-44-18 45-8 0 5 23 12 0 42 38-25-13-67-14-45 2 36 21-38 7-8 18 21-4-43 36 2 16 22 5-20 16-5 25 54 62-31-12 1 26-8 19-4 33 2 61-1 14-20 6-12 3-25-33 3 22-13 23-3-5-9-46-13-23-25 33-11-42-2-17 1-53-13-63-22-22 7-24 37-23 4-37-4 20 19-36 3-10-46-17-14-18 11-11-18-25-36-16-47-28 71-46-52 3-2-24 16-20 71 3 27-24-3-2-53-10-38-14 28-33 67-6 35-31-22 3-9-2-30-2-3-3 48-28 35-32-12-2-5-5-26-6-26-5 86-19 18-14-24-11-71 55-46 5 27-27 33-23 29-51-17 9-25 5-39 16 10-22 42-52 40-56-13-27-59 4-67 12 9-34 38-22 44-54 89 22-115-28-13-20-35 29-19-9 11-26-29-8-48 25-62 39 8-22 14-43 31-49-3-21 45-25 10-31-17 9-36 13-57 38 10-44 45-38 19-64 27-5 30-33 0-26-10 30-25-13-7-8-8-2 92-61 43-53-41-20-43-3-46-5-33 33-16-15 7-25-12 0-39 25-29-2-12-1-4-39-18-4 19-22 37-35 23-35 25-10 9 1 57-13-44-10-64-10-11-32-79 9-107-5-50-13-27-1-48 22-61 22 10-28 59-36 76-46-21-21-51-7-70 4 5-27 27-25 40-39 58 6 0-21-18-6 18-25 15-10 44-20 105 34 64-29 0-25-69 18-44-1-40-21 26-15 40 3 48-13-46-1 18 15-21-30-17-10-60 29-24-17 33 8 29-23 12-30-2 2-55-1-20-7 4-9 22 2 20-16 29 8 11-42 8-17-34-19 10-9 17-6 29 14 10-35 28 0 3-47 33-17 26-1 14 12 83 67 47 16 4 12 38 45 16-1 28-2 39-142 34-49-35-152 118-494-134-454-244-20-484-95-732-63-304-4-212 56-211 193-9 106 38 118 18 143 34-34 56-46 40-26 14 10-10 39 12 11 30-20 5 26 33-4 23-7 9-2 33 3-12 15 38 5 1 19-6-15-31 40-2 18 39 29-3 15-11 12-29 12 13 34-15 26 26 5 32 13 40 17 9 31-9-7-60 22-19 31 69-11 31 4 16 8 47 12-9 19 10 1 65 20 20 22-38 3 8 9 7 21-41-11-65 21-25 31-31-7-47 18-9 9 0 12 23-3 24 20-3-3 9 22-26 1-74 0-27 5-1 14-16-2 16 32 9 14 9 19-82-31 6 32-75-43-33-5-6 3 2 15 36 44 20 48-10-7-23-20-41-21-23-4 21 24 3 29 30 24 31 44-5 11-29-7-30-1-10 16 14 17 36 36 1 18-53-31 28 39-11 16-18-6-38-7-1 22-34-15-19 5 0 8-9 9-49 9-23 22 10 11 32 40-10 22-5 20 27 20 20 32-4 5-27-9-2 19 21 5 33 48-10 8-26-17 35 50 1 22-21-11-33-2 7 19 12 19-51-30-21 9-30-30-12 31-7 1 1 13 19 1 30 32-25-26-55-10-23 7-38-6 5 8-27 19 45-8-18 13 21 34-11-4-20-17-13 13-6 0 5 34 5 43-7-4-26-23-14 4-8 19-8-2-17 3 7-21-20 3-7-26 9 3-26 32-12-1 2-38 32-38 2-40-7 25 17-31-12-21-3-6 46 8 12-9-38-7 5-22-10-24-14 0-37 3-2-10 19 1 35-10-4-11 46-20 9-23-12-14 28-19 46-14 13-20-7-3-22-2 7-18 18-14-1-12-11-14-26-5 67-12 7-14-17 11-59 37-19-3 19-10 11-41-9-20-30 10 37-44 18-43-16-16-42 10-49 13 18-29 36-31 39-47 21-25-64 16-19-17 26-31-34 5-34 18 7-35 34-49 39-58-15-9-38 16-51 21 18-29 23-28 17-45 27-11 6-30-17-7 18-28-11-15 24-53 37-10-17-11-14-12-28 29-16-3 1-18-10 7-36 39-24 7-9-11-2-54-11-15 19-19 0-10 28-29-18 18 57-8 14-4-62-3 61-28-22-22 38-14-26-8-32-2-10 8-30 20-8-5 29-14 61-22 27-29-10-5-50 27-27-6l42-16c-54 0-21-15-6-12 42 17-63-16-11-13 45-21 5-35-18-13 7-19 22-12 43-22-19 3 20-12 5-9-34-31-68 4-40-21 40-18 5-32-8-30-19 5 12-16 16-4-4-30 24 9 7-19-30-26 15-2 16-12 41 44 6-7 24-10 9 14 9 9 22 16-15-45 47 43 26-10 19 27 32 11 34 30 33-260-58-418-187-387-305-39-606 44-908 18-370 52-769-3-1129 53 15 77-29 259 11 294 3 41 41 38 48-10 26-27 27 13 16 11 11-21 36-19 32-2 18-29 26-40 32-25 26 15 12 16 30 25 7-7 22 7-7 11 0-23-38 46-9 19 26 4 39 47 10 16 40 55-79-56-22 23-16 21-5 14 8 16 0-16 35 23 26 19 8 19 5 5-46 7-34 26 51-4 6 20 20 5 36 4 35 16-20-8-65 14-13 11 40 18 6 14-15 25-21 4 26 5 23 21-47-14-80 24-31 38-29-5-62 9-18 16 14-3 48 31 37 14-12-13-50-25-18 7-42 16-264-66-4 19-32-9-1 37-7 17 9-8 11 15-15-7 5 42-42 44-17 28 16-4 59 31 52 47 25 13-5 12 5 24-16-11-24-21-44-22-26-4 13 18 8 27-15 16 36 31 24 48-15-19-52-33-64-32-2 20 25 13 30 39 35 43-11-13-41 0 48 30 22 29 5 25-56-17 40 36-2 24-47-12 51 27-7 17-7 7-34 13-8 22 9 11 41 47-8 28-17 17 30 21 20 38-8 6-7 35-13 11 26 11 42 37 30 45-21-32-69-44-15 6-6 12-24-22-30-6-50-19 55 41 16 29-7-13-49-23-18 5-36-36-15 37-9 3 6 16 15-1 39 34-31-21-69-13-29 12-49-6 4 5-26 14-18 21 40-9 6 20-19-14 30 52 6 25-28-14 1 9-11 32l8 38c-9-3-20-3-21-9 5 36-8 21-13 18 8-26-28 10-12-28 2 7 15-39-11-14-12 9 12-41 17-26-1-43-38 31-11-28-32-3-27-21 12-4-23-34-60-9-27-48-17 4-51 11-10-8 15-7 49 5 15-16-4-2-49-9-35-12 28-28 62-11 27-27-11-7-10 4-22-6-2 5 46-31 31-23-8-14-11-2-31-11 21-11 71-8 18-14-17 5-67 53-29-2 18-2 26-34 16-30-21-13-42 30-16-20 30-21 24-27-3-33-12-7-49 46-34 7 42-33 19 6 37-35 80 20-105-26-13-18-31 26-17-8 11-23-27-8-44 22-56 35 6-31 25-43 33-62 37-2-8-20-16 1-12-6-46 46-22-2 33-18-4-29 19-43 22-14-10-20-24-4-9-22 18-11 0-40 45-14-13-12 20-29 2-25-60 41-23-16 1-1 75-64-13-8 11-37-10 17-24 13 8-24 26-74 21-51 9 11 21-11 36-4 63-19-70-5-4-29 6-2-11-10-16-14-29-13-54 15-68 16 9-26 53-33 69-42-19-19-47-6-64 4 5-25 24-23 36-36 54 4-1-16-17-7 19-18 16-12 51-14 52 28-49 8-44-18-23 5-1-37 20-32 12 7-23-2 5-7 36-2 6-24-19-30-27 33-24-22 27-15-27-40-33-15-50-28 5-9 27-1 27-12-4-19 38 21 5-13-2-10 55 15 17-7-10-31 63 52 24-9 4-37 27-24 24-4 23 18 46 25 45 22 5 10-6-44 15-2 25-2 36-129 31-44 50-212-26-315-262-234v-517h3862v666l-226-87z" transform="translate(2291 1042)"/></g></svg>