<svg xmlns="http://www.w3.org/2000/svg" xmlns:xlink="http://www.w3.org/1999/xlink" xml:space="preserve" viewBox="0 0 1600 899">
  <defs>
    <linearGradient id="a">
      <stop offset="0" stop-color="#c1e554"/>
      <stop offset="1" stop-color="#09647f"/>
    </linearGradient>
    <linearGradient xlink:href="#a" id="b" x1="155.6" x2="155.6" y1="1602.3" y2="-706.6" gradientUnits="userSpaceOnUse"/>
  </defs>
  <g clip-path="url(#clipPath206)" transform="matrix(.4134 0 0 -.4134 -193 1025)">
    <path fill="url(#b)" d="M0 0c4-1-4-3 0 0zm81-122c-1270 1040-635 520 0 0zM48 160c0 5 4-2 0 0zm13 51c-4-2 1 4 0 0zm49 133c-2-1-1 4 0 0zM75 241c-4 0 3 7 0 0zm0 70c-1266 751-633 375 0 0zm35 54c-1289 715-645 357 0 0zm5-41c4-2-3-7 0 0zm11-53c-1300 778-650 389 0 0zm7-31c3 1 0-4 0 0zm15-198c4 1-1-4 0 0zm23 51c-1330 896-665 448 0 0zm1-46-2 2zm29-117c-1350 1005-675 502 0 0zm-16-26c0 7 1-4 0 0zM-1-62c-1215 1000-608 500 0 0zm-4 41v3zm-15 35C-4-7 37-11 0-17-39 4 8-35 17-30c-47-5-1-13 18-8 4-9-102-20-40-15-15-6 28-18 23-18-4 6 8-21-18-14-32 8 32-23 3-23-23-5-8-6 1-13 15 4-2-6 1-15 14-5 40 33 26-10 23 30 11-10 38 20-8-19 18 5 19 3 18-26-3-170 14-221 15 69 12 294 5 231-4-8 23-4 30-13 22-20 1 21 22-6 10 6 6 12 27-4 5 5 15 12 24 15-20 2-33 19-1 27 3 6-44-10-21 15-24 3 24 4 18 15 22 15-44-10-35 23-11-8 44-9 32 1-53-2 22 13-2 16-39 2 10 13-8 15-35-3-21 21-15 22-41 4 17 15 12 10 13 28-5 1-40 17 51 9 11-5 25 13 32 13-50-19 10 21-70-34 19 13 11 25 6 26-34-23-34 0 10 12 16 25 22 38-15-18-55-26-25-3 21 23 12 9-17 7 41 26-10 6-2 17 22 20-23 3 8 15-4 9-32 10-8 24 28 23-28-2-6 21 22 13-6 3 1 16 40 28 4 16-4 12 35 37-42-11 7 27 8 8-27-13-18 3-15 4 5 11 8 6 10 12 18 23-6 8-6 6-1 19-7 17-3 12-8 11 5 11-17 11 11 28-10 21 3 11 5 35 3 40-13-22-5 21-16 5-7-5-10-15-6-21 1-10-16 5-3-20 15-13-17 13-2-15-35-10 27 5-5-13-19 4 9-25-22-10 13-16 49-9 15-18 21-13-36 1 3-17 25-3-39-6 6-18 9-15-34-2-3-15 21-8-33 8-31 11 29-27 24-42 0-27 31-27 18-42-5-29-32 22 32-30 5-14 47-37-44 5 8-31-22 0-40 33-23 2 21-24 23-24-3-16-31 27 12-16-2-21 30-20-26-2-5-16-20-5 44-42 8-30-3-9-34 19-10-12 1-7-12-13-25 10C8 31 6 33 41 24c-22-3-30-4-4-15-39 5 4-13-30-4-8-5-22 10-27 9Zm-1526-224c-185 1098-93 549 0 0zm-40 836c-159 541-79 270 0 0zm-85-269c-102 720-51 360 0 0zm-32-300c-5-4 6 11 0 0zm-32 189 1 5zm233 512c-215 453-107 226 0 0zm79-309-1-5zm-1-79c-267 712-133 356 0 0zm2020 7c11 10 26-16 0 0zm-9-189c3 14 40 12 0 0zm-38-12 3-4zm118 543c-1661 479-830 239 0 0zm73-54 1-5zm111-505c-1783 852-892 426 0 0zm1013 166c-2459 741-1229 370 0 0zm-185 171c-6 38-1 3 0 0zm-30-30c3 18 52 16 0 0zm-55 58c-2279 608-1139 304 0 0zm8 38c0 9 10-3 0 0zm29 77c-5-5 1 4 0 0zm219 457 1-7zm32-776c-2-8-9 12 0 0zm35 510c8-9-8-1 0 0zm21-82c-2508 459-1254 229 0 0zm29-124c5-7-16 2 0 0zm1 3c16 10-3-12 0 0zm-4-149-4 3zm37-42-5-7zm-186-595c6 161 5 645-3 503-7-15 46-8 61-25 24-20 40-26 12 8 10 4 59-41 39-5 8 19 46-50 43-5 0-31 16 12 22 5 10 1 16-1 25 7-24 8-34 0-44 34 7 2 45-2 41 24-13-4-32-16-62 4 67 27 54 42 15 28 20-1 54 25 40 11-4 6-8 21 4 21 18-1-109-12-69 34-45-5 43-1 47-10 2-3 44 21-13 10-50 20 52 9 33 34-15-1-62 3-32 21 6-18 50 25-9 8-38 2-53 34 1 39-22 6-82 11-25 20 21-5 34 22 37 8-4 2-41-12-12 18-34-13 62-1-23 10 28 27 39 71 5 29 7-14 19 22-5-4-73-8-163-34-36 18 2 19 60 8 57 56 10-23 43 65 16 25-11 12-29-23-51-17-25-1 7 12 12 33-23 4 23 29 23 37 13 35-45-38-54-15-29-23-19 16 8 10-3 33 39 35 26 50a64 64 0 0 0-62-25c44 26 39 45 2 22-47-7-27 23 3 30-58-10 50 27-6 22-13 4-40 14-12 23 4 9 51 54-8 31-14 14 9 15 28 43-30-1-51 15-29 4 35 22 54 44 40 57-23-35-76-49-16 7-81 13-20-31-5 33-5-18-66-38-31-2-37-44-18 45-8 0 5 23 12 0 42 38-25-13-67-14-45 2 36 21-38 7-8 18 21-4-43 36 2 16 22 5-20 16-5 25 54 62-31-12 1 26-8 19-4 33 2 61-1 14-20 6-12 3-25-33 3 22-13 23-3-5-9-46-13-23-25 33-11-42-2-17 1-53-13-63-22-22 7-24 37-23 4-37-4 20 19-36 3-10-46-17-14-18 11-11-18-25-36-16-47-28 71-46-52 3-2-24 16-20 71 3 27-24-3-2-53-10-38-14 28-33 67-6 35-31-22 3-9-2-30-2-3-3 48-28 35-32-12-2-5-5-26-6-26-5 86-19 18-14-24-11-71 55-46 5 27-27 33-23 29-51-17 9-25 5-39 16 10-22 42-52 40-56-13-27-59 4-67 12 9-34 38-22 44-54 89 22-115-28-13-20-35 29-19-9 11-26-29-8-48 25-62 39 8-22 14-43 31-49-3-21 45-25 10-31-17 9-36 13-57 38 10-44 45-38 19-64 27-5 30-33 0-26-10 30-25-13-7-8-8-2 92-61 43-53-41-20-43-3-46-5-33 33-16-15 7-25-12 0-39 25-29-2-12-1-4-39-18-4 19-22 37-35 23-35 25-10 9 1 57-13-44-10-64-10-11-32-79 9-107-5-50-13-27-1-48 22-61 22 10-28 59-36 76-46-21-21-51-7-70 4 5-27 27-25 40-39 58 6 0-21-18-6 18-25 15-10 44-20 105 34 64-29 0-25-69 18-44-1-40-21 26-15 40 3 48-13-46-1 18 15-21-30-17-10-60 29-24-17 33 8 29-23 12-30-2 2-55-1-20-7 4-9 22 2 20-16 29 8 11-42 8-17-34-19 10-9 17-6 29 14 10-35 28 0 3-47 33-17 26-1 75 60 85 32 81 23 11-10 21-150 16-57-35-152 118-494-134-454-244-20-484-95-732-63-304-4-212 56-211 193-9 106 38 118 18 143 34-34 56-46 40-26 14 10-10 39 12 11 30-20 5 26 33-4 23-7 9-2 33 3-12 15 38 5 1 19-6-15-31 40-2 18 39 29-3 15-11 12-29 31-9 25 25 43 9 31-9-7-60 22-19 31 69-11 31 4 16 8 47 12-9 19 10 1 65 20 20 22-38 3 8 9 7 21-41-11-65 21-25 31-31-7-47 18-9 9 0 12 23-3 24 20-3-3 9 22-26 1-74 0-27 5-1 14-16-2 16 32 9 14 9 19-82-31 6 32-75-43-33-5-6 3 2 15 36 44 20 48-10-7-23-20-41-21-23-4 21 24 3 29 30 24 31 44-5 11-29-7-30-1-10 16 14 17 36 36 1 18-53-31 28 39-11 16-18-6-38-7-1 22-34-15-19 5 0 8-9 9-49 9-23 22 10 11 32 40-10 22-5 20 27 20 20 32-4 5-27-9-2 19 21 5 33 48-10 8-26-17 35 50 1 22-21-11-33-2 7 19 12 19-51-30-21 9-30-30-12 31-7 1 1 13 19 1 30 32-25-26-55-10-23 7-38-6 5 8-27 19 45-8-18 13 21 34-11-4-20-17-13 13-6 0 5 34 5 43-7-4-26-23-14 4-8 19-8-2-17 3 3-42-29-1-19-27 2-38 32-38 2-40-7 25 17-31-12-21-3-6 46 8 12-9-38-7 5-22-10-24-14 0-37 3-2-10 19 1 35-10-4-11 46-20 9-23-12-14 28-19 46-14 13-20-7-3-22-2 7-18 18-14-1-12-11-14-26-5 67-12 7-14-17 11-59 37-19-3 19-10 11-41-9-20-30 10 37-44 18-43-16-16-42 10-49 13 18-29 36-31 39-47 21-25-64 16-19-17 26-31-34 5-34 18 7-35 34-49 39-58-15-9-38 16-51 21 18-29 23-28 17-45 27-11 6-30-17-7 18-28-11-15 24-53 37-10-17-11-14-12-28 29-16-3 1-18-10 7-36 39-24 7-9-11-2-54-11-15 19-19 0-10 28-29-18 18 57-8 14-4-62-3 61-28-22-22 38-14-26-8-32-2-10 8-30 20-8-5 29-14 61-22 27-29-10-5-50 27-27-6l42-16c-20-8-20-25-17-25 45-21 5-35-18-13 7-19 22-12 43-22-19 3 20-12 5-9-34-31-68 4-40-21 40-18 5-32-8-30-19 5 12-16 16-4-4-30 24 9 7-19-30-26 15-2 16-12 41 44 6-7 24-10 9 14 9 9 22 16-15-45 47 43 26-10 19 27 32 11 34 30 33-260-58-418-187-387-305-39-606 44-908 18-370 52-769-3-1129 53 15 77-29 259 11 294 3 41 41 38 48-10 11-4 49 3 48 9 18-29 26-40 32-25 26 15 12 16 30 25 7-7 22 7-7 11 0-23-38 46-9 19 26 4 39 47 10 16 40 55-79-56-22 23-16 21-5 14 8 16 0-16 35 23 26 19 8 19 5 5-46 7-34 26 51-4 6 20 20 5 36 4 35 16-20-8-65 14-13 11 40 18 6 14-15 25-21 4 26 5 23 21-47-14-80 24-31 38-29-5-53 4-18 16 63 16 0 0 19 21 117 58-75-2-4 19-32 2 15 40-22 10 5 42-42 44-17 28 16-4 59 31 52 47 25 13-5 12 5 24-16-11-24-21-44-22-26-4 13 18 8 27-15 16 36 31 24 48-15-19-52-33-64-32-2 20 25 13 30 39 35 43-11-13-41 0 48 30 22 29 5 25-56-17 40 36-2 24-47-12 51 27-7 17-7 7-34 13-8 22 9 11 41 47-8 28-17 17 30 21 20 38-8 6-7 35-13 11 26 11 42 37 30 45-21-32-69-44-15 6-6 12-24-22-30-6-50-19 55 41 16 29-7-13-49-23-18 5-36-36-15 37-9 3 6 16 15-1 39 34-31-21-69-13-29 12-49-6 4 5-26 14-18 21 40-9 6 20-19-14 30 52 6 25-28-14 1 9-11 32l8 38c-9-3-20-3-21-9 5 36-8 21-13 18 8-26-28 10-12-28 2 7 15-39-11-14-12 9 12-41 17-26-1-43-38 31-11-28-32-3-27-21 12-4-23-34-60-9-27-48-17 4-51 11-10-8 15-7 49 5 15-16-4-2-49-9-35-12 28-28 62-11 27-27-11-7-10 4-22-6-2 5 46-31 31-23-8-14-11-2-31-11 21-11 71-8 18-14-17 5-67 53-29-2 18-2 26-34 16-30-21-13-42 30-16-20 30-21 24-27-3-33-91 43-19-57 1-69-27-8-44 22-56 35 6-31 25-43 33-62 37-2-8-20-16 1-12-6-46 46-22-2 33-18-4-29 19-43 22-14-10-20-24-4-9-22 18-11 0-40 45-14-13-12 20-29 2-25-60 41-23-16 1-1 75-64-13-8 11-37-10 17-24 13 8-24 26-74 21-51 9 11 21-11 36-4 63-19-70-5-4-29 6-2-11-10-16-14-29-13-54 15-68 16 9-26 53-33 69-42-19-19-47-6-64 4 5-25 24-23 36-36 54 4-1-16-17-7 103-54 4 35 7-32-23 5-1-37 20-32 7-2-24-4 5-7 36-2 6-24-19-30-27 33-24-22 27-15-27-40-33-15-50-28 5-9 27-1 27-12-4-19 38 21 5-13-2-10 55 15 17-7-10-31 63 52 24-9 4-37 27-24 24-4 23 18 46 25 45 22 5 10-6-44 15-2 6-274 28-361-231-278v-517h3862v666z" transform="translate(2291 1042)"/>
  </g>
</svg>
