<svg xmlns="http://www.w3.org/2000/svg" xmlns:xlink="http://www.w3.org/1999/xlink" xml:space="preserve" viewBox="0 0 1600 898.8"><defs><linearGradient id="e"><stop offset="0" stop-color="#3ccfc8"/><stop offset=".7" stop-color="#062d36"/><stop offset="1" stop-color="#062d36"/></linearGradient><linearGradient id="d"><stop offset="0" stop-color="#79ed87"/><stop offset=".4" stop-color="#0d4645"/><stop offset=".7" stop-color="#03363f"/><stop offset="1" stop-color="#03363f"/></linearGradient><linearGradient id="c"><stop offset="0" stop-color="#c1e554"/><stop offset="1" stop-color="#09647f"/></linearGradient><linearGradient id="b"><stop offset="0" stop-color="#6454e5"/><stop offset="1" stop-color="#0d538f"/></linearGradient><linearGradient id="a"><stop offset="0" stop-color="#fbfbbe"/><stop offset=".3" stop-color="#fdfdd6"/><stop offset=".9" stop-color="#ffe876"/><stop offset="1" stop-color="#ffe876"/></linearGradient><linearGradient xlink:href="#e" id="f" x1="-1909.6" x2="-1909.6" y1="1438.1" y2="-745.6" gradientUnits="userSpaceOnUse"/></defs><g clip-path="url(#clipPath2382)" transform="matrix(.4134 0 0 -.4134 -193 1025)"><path fill="url(#f)" d="M0 0c4 8 8-12 0 0zm-21-18c-4 0-6 22 0 0zm5-45c32 3-17-11 0 0zm3 24c-8-5-1 23 0 0zm11-57c-2 0 1 1 0 0zm6 7-1-5 1 5zm4-8c-13 1 2 21 0 0zm-8-81c1-1-3 0 0 0zm-1-42c-12 1 7 16 0 0zm5-46c-1 3 3-2 0 0zm1-133c-18-1-18 17 9 11-23-11 11-4-9-11zM-3823 818c-11 26 2 4 4-2l-4 2zm-9-41c-16 6 18 8 0 0zm-11 35c16 6 3-14 0 0zm10 8c12-10-12-11 0 0zm1 83c12 0-2-19 0 0zm-3 20c27 42 30-20 0 0zm6 119c9 33 47 23 0 0zm25 179c17-16-22-19 0 0zm13-10c-3-33 16 13 1-19 8 15-31 5-1 19zm9 13c13-28-14-5 0 0zm10-798c-7-8-30 24 0 0zm-5 630c27-31-10-16 0 0zm10 4c-14 3 6 29 0 0zm-6 81c32 41 1-30 0 0zm20 37c9-24-16-9 0 0zm2 30c14-3-11-16 0 0zm-1-51c-8-29 6 21 0 0m10-14c-8-8-8 16 0 0zm7 16c4-33-22 22 0 0zm-24-54c-18 10 20 27 0 0zm-2-50c-12 2 4 29 0 0zm13-31c20-40-46 37 0 0zm14-8c-1-27-18 4 0 0zm5-85c35-63-52 31 0 0zm4-84c60-30-53-5 0 0zm14-355c19 0-12-10 0 0zm14 60c-16-5-9 8 0 0zm5 213c15-27-12-4 0 0zm7-131c12-7-9-12 0 0zm8 181c13-22-18-7 0 0zm16-31c4-6-32-23 0 0zm-20-30c-14 34 21 2 0 0zm11-83c0-11-20 10 0 0zm4 47c14-10-15-20 0 0zm6-41c-22-5 1 13 0 0zm8 11c20-18-27-6 0 0zm10 6c24-24-33 0 0 0zm-25-67c17-27-28-28 0 0zm-19-54c16 0 4-10 0 0zm26-89c-8-10-52-3-17 4l9-2 8-2zm5 12c-25 3-7 11 0 0zm8-24c-31-16-2 31 0 0zm3-11c-4-9-18 5 0 0zm10-192c-24-6-29 3 0 0zm10 0c19-12-32-7 0 0zm16-60c15 0 2-9 0 0zm7 119c15-21-10-7 0 0zm17-442c25-11-30-9 0 0zm3 131c19 3-2-16 0 0zm2 174c20-23-11-9 0 0zm32-182c36-6 126-17 54-30-10 12-125 31-54 30zm-14 247c34-5 12 0-10-8l10 8zm6 40c-15-10-3 38 0 0zm18-94c27-18-12-21 0 0zm34 65c7-14-74-19 0 0zm-11 13c15-5-18-18 0 0zm12 7c12-32 4 30 29 3-7 7 10 46 21 18-9 44 23-9 12 35 9-29 19 34 17-3 19 13-8-26 16-8-14-3 43-62 24-68-15-48-10 11-25-18-28 17-62 43-56 45 14-46 50-69 16-66-16 2-25-14-52-24-20 53 34-9-23 17-25 11 29 6 9 21 29-8 13 22 41 12 13 40-26 4-29 36zm73 82c6-9-4-16 0 0zm38-58c19-5 1-17 0 0zm24-33c-10-17-21 33 0 0zm-6 18c24-12-5-8 0 0zm13-26c-8 2-17-13-5 8h2l3-8zm5-13c2-29 11 13 22-20 6 19 2-20 20 8 7-39-23-11-29-24 14 26-25-18-26 19-22-27 17 38 13 17zm35 5c-5-21-32 2 0 0zm19-15c19-5-19-22 0 0zm16-69c-8-5-23 11 0 0zm17 8c-13-17-28 19 0 0zm9 5c38-4-37-1 0 0zm-1 182c17 5 1 0 0 0zm-7 13c-50-10-24 46-28 23 32-2 105-40 78-17-13-1-27-8-50-6zm30 27c-22-19-9 6 0 0zm5 67c27 13 14-6 0 0zm-10 42c24-17 21 43 16-1-1-9-5-13-16 1zm23 19c4-8 5 14-2 2l2-2zm11-28c-4-7-22 4 0 0zm9-51c-12-3-16 6 0 0zm4-57c11-9-19 0 0 0zm11-6c6-15-18-12 0 0zm0 7c28 7 11-18 0 0zm25 285c-10 25 2 4 4-2l-4 2zm-8-40c-16 6 16 8 0 0zm-11 34c15 5 3-14 0 0zm-4-36c-10 28 9 20 0 0zm-4 66c5 23 13-8 0 0zm16-15c1-17-30-4 0 0zm5-13c-12-9-2 17 0 0zm-2 85c11 0-2-18 0 0zm-3 20c25 40 29-19 0 0zm5 114c9 32 45 22 0 0zm-3-2c-22-14-16 10 0 0zm-26-36c16 21 18-6 0 0zm0-20c-7 23 26 2 0 0zm54 231c14-15-18-16 0 0zm11-11c-2-31 16 13 2-18 8 15-30 6-2 18zm9 13c13-27-13-4 0 0zm10-768c-11-2-22 16 0 0zm-5 607c26-30-9-16 0 0zm10 4c-13 2 6 28 0 0zm-6 77c31 40 1-29 0 0zm19 36c9-23-15-9 0 0zm2 29c14-4-10-15 0 0zm-1-49c-7-28 6 20 0 0m10-14c-8-8-8 15 0 0zm7 16c3-32-21 21 0 0zm-23-52c-17 10 19 26 0 0zm-2-48c-11 1-4-14 0 4v-4zm12-30c19-39-44 36 0 0zm13-8c0-26-17 4 0 0zm5-82c34-60-50 31 0 0zm5-80c57-30-52-5 0 0zm13-342c18 1-12-9 0 0zm14 57c-17-5-9 9 0 0zm4 206c14-26-11-4 0 0zm7-126c11-7-9-12 0 0zm7 174c13-21-16-6 0 0zm16-30c4-6-31-22 0 0zm-19-29c-14 32 20 2 0 0zm11-79c-1-11-20 9 0 0zm3 45c13-10-14-20 0 0zm6-40c-21-4 1 13 0 0zm7 10c20-16-25-5 0 0zm10 6c23-23-32 0 0 0zm-23-64c15-26-28-27 0 0zm-19-52c16 1 4-9 0 0zm25-86c-8-10-50-3-17 5l17-5zm5 12c-24 3-7 11 0 0zm7-23c-29-16-2 29 0 0zm3-11c-4-8-17 5 0 0zm10-184c-24-6-26 3 0 0zm9-1c19-11-31-6 0 0zm16-57c15 0 2-9 0 0zm2 169c28 16 77 41 49 19-3-33-14 16-16-20-9 3-32-18-33 1zm37 46c14-8-12-9 0 0zm37 56c16 3-3-12 0 0zm9 5c7-7-14-6 0 0zm2 10c24 12-11-18 0 0zm22 189c34 47 2-50 0 0zm9 25c24-6 6-21 0 0zm4 21c6 9 21-18 0 0zm3 54c14 3 9-14 0 0zm5 12c27 20-12-28 0 0zm23-310c-4-10-21 10 0 0zm-4 55c11 50 14-16 0 0zm16-43c-4-17-19 11 0 0zm3-115c-5-12-9 17 0 0zm7 55c5-14-11 1 0 0zm-1 321c11 17 1-25 0 0zm13-40c28 4-29-10 0 0zm-2 7c29-4-15-7 0 0zm15-15c1-15-36 2 0 0zm7-39c-9-10-13 14 0 0zm9-17c-23-5-5 23 0 0zm4-3c-5-13-11-2 0 0zm-20-4c23-10-43 6 2 7-28 13 33-2-2-7zm-4-88c15 4 0-12 0 0zm1-26c2 21 22-19 0 0zm9-114c23-16-26 8 0 0zm-2 61c14 21 8-8 0 0zm14 2c15-20-14-10 0 0zm7-75c-17 7 6 9 0 0zm0 17c12 2 0-11 0 0zm10-45c-30 15 1 10 0 0zm5-190c-13 2 8 15 0 0zm16 131c-4-37-27-3 0 0zm1-61c18-11-13-6 0 0zm3 50c15-4-8-14 0 0zm10 8c-8-14-18 18 0 0zm1-80c-4-12-11 11 0 0zm4-58c3-13-14 6 0 0zm-4 68c9-3-4-15 0 0zm6-23c-8-11-1 16 0 0zm-2-45c14-3 28-20 0 0zm13-17c-4 7 18 0 0 0zm11 23c4-12-8-4 0 0zm3-19c13-13-13-4 0 0zm-2-41c-13-53-24 37-9 6l9-6zm-8-19c9 10 13-10 0 0zm6-37c0-12-10 0 0 0zm-11 7c-8 13 20-14 0 0zm8-62c39-51-21-12 0 0zm14-28c-1-41-23-11 0 0zm-2-27c-12-6-9 13 0 0zm-21 13c-6-1-12 29 9 16-31-5 28-20-9-16zm9-21c-17 7 10 8 0 0zm-11-40c5 9 13-5 0 0zm-5-15c-11 6 16 10 0 0zm0-5c7-14-7-16 0 0zm-5 74c8 8 5-14 0 0zm5-99c-6-9-1 6 0 0zm6 2c-1-2-1 3 0 0zm-16-24c-5 15 27-26 0 0zm14-33c22 3-19-15-4 3l4-3zm5 21c21 0-17-24 0 0zm0-12c21-7-4-8 0 0zm16-28c5-24-29 29 0 0zm-4-15c3 16 7-5 0 0zm-18-2c14 3 5-7 0 0zm-4 21c-2 11 26 4 0 0zm-4-19c-7 35 18 2 0 0zm-2-1c-11 1 8 3 0 0zm-42-50c-5 4 8 0 0 0zm35-7c-13-48-19-9-54-28-30 11 30 9 30 13 5-10 13 27 24 15zm21-19c23-45-12-26 0 0zm46-87c-23-10-20 17 0 0zm123 159c6 37 44-12 0 0zm56-119c33-39-61 4-6 3l6-3zm31 130c6-37-38 1 0 0zm13-36c-14-57-22-23-16 18l8-9 8-9zm9-4c40-19 8-86-1-25 3 5-21 42 1 25zm56-2c-18-42-93 37-32-2h16l16 2zm21 0c27-46-60 2 0 0zm12 4c45 13 64-31 11-8l-12 4 1 4zm66-63c-47-15-20 21 0 0zm-46-16c-33 13-8 39 17 14-2-5-40-3-17-14zm101 122c43-28-35-76-2-12l2 12zm17-26c20-29-18-53 0 0zm10 4c34-51 1-30 0 0zm58-42c36 6 8-24 0 0zm57 76c45-29-26-57-9-30 27 3-52 44 9 30zm6 5c40-2 1-21 0 0zm14-72c-35 17 28 24 0 0zm107-169c4-28-32-16 0 0zm-6 211c45 60 11-28 0 0zm63-73c23-66-59 65 0 0zm-4 50c-6-33-41-9 0 0zm19-165c38-14-4-20 0 0zm89 1c27 11 67 16 26-14 15 40-30-34-26 14zm19 44c28 4 28-32 0 0zm24-1c50-20 3-29 0 0zm30 44c9-20-49-5 0 0zm23 19c22-43-54-20 0 0zm-11-72c-31 9-36 63 0 18-22 3-3-8 0-18zm-80-71c-8-2 18 30 0 0zm18-9c1 10 26-10 0 0zm-125-4 4-1-4 1zm-485 127c-11 14-40 44-14 43 39 0 22-16 14-43zM-3809 939c20 27-2 0-2-5l2 5zm9 50c2-19-22-6 0 0zm7 96c1-21-24-21 0 0zm3 81c-26-23 7 30 0 0zm-7-33c4 22 11-2 0 0zm32-184c-21 15 9 11 0 0zm3-44c-8 4-7 20 0 0zm1-100c18-27-28 10 0 0zm17 95c-12-32-25 28 0 0zm1-35c-8 22 18 33 0 0zm-5-74c-14 21 21 9 0 0zm10 1c23-17-18-17 0 0zm13 4c1-23-31 19 0 0zm4 17c-18 3 1 22 0 0zm1-105c-18 21 12 8 0 0zm-6-227c4 17 22-29 0 0zm31-976c1 1 1-1 0 0zm-45 1212c24 9 7-21 0 0zm17-224c-18-19-28 9 0 0zm-24 296c9-14-9-3 0 0zm4-78c-14 0-9 14 0 0zm172-843c5 9 14-14 0 0zm106 68c3-12-10 11 0 0zm4 9c3-3-1-1 0 0zm-35 78c21 0 2-12 0 0zm20 27c21 8 15-32 0 0zm-5-25c7 4 0-3 0 0zm-4 17c15 0 9-18 0 0zm22 95c42-25-15-21 0 0zm9 4c7-6-21-2 0 0zm73 88c-4 10 9 3 0 0zm13-38c-33 16 21 23 0 0zm-10 0c-21 2-5 26 0 0zm-25 12c13-18-19 5 0 0zm-21-11c11-58-7 18 0 0zm51-18c-44 13-15 15 11 3l-6-2-5-1zm14-50c-5-26-24-11 0 0zm48 48c-73 16 54 12 0 0zm17-41c-12-8-6 6 0 0zm7-76c-1 10 19-3 0 0zm-365-568c7 3 3-6 0 0zm138 433c41-5-68 0-5 12l5-12zm82 31c0-1 0 0 0 0zm-23 46c-10 18 12 1 0 0zm53-14c-3-14-6 4 0 0zm15 10c-10-6-8 3 0 0zm2-14c-7 14 19 0 0 0zm9-53c-2 2-31 3 6 8l-6-8zm18-65c-48-16-44-17-99-17-12-13-98 23-37 32 6-7 23 27 7-10 10 34 40-24 15 18 16 5 29-44 17-1 21 0 0-36 19-4-9-15 51 0 78-18zm-6 66c-6 25 27 0 0 0zm27 15c13-10-22-8 0 0zm1 165c-4-18-8 9 0 0zm2 1c-15 14 7 7 0 0zm11-3c-18-9 12 27 0 0zm-225-361c21 12-2-21 0 0zm83 69c-17-19-38 12 0 0m-5 23 8-1-8 1zm16-7c-4 7 18-4 0 0zm64-2c-22 7 43 10 0 0zm67-11c2 20 19-7 0 0zm8-314c7 7 2-13 0 0zm-228 212c0 2 9-7 0 0zm74 82c-23-2-20 30 0 0zm34 4c1-1-3 0 0 0zm44 0c-21-11 6 21 0 0zm10 3c-7-9-11 5 0 0zm-103-68c-23 12 19 4 0 0zm3 0c29 8 13-16 0 0zm20 61c4 1-1-7 0 0zm34-7c27 0-13-12 0 0m4 10c-13 2 27 17 0 0zm17 0c-18-7 18 30 0 0zm54-114c5-21-23 9 0 0zm-104-28c-6 18 17-3 0 0zm-9 28c21 2-4-12 0 0zm-16-6c-2 15 24-10 0 0zm0-26c-46 19-4 8 10 14-12-14 36-2-10-14zm48 89c0-10-13 5 0 0zm16 4c8-11-29-9 0 0zm10-3c-4-2 6 5 0 0zm29-102c-62 23 43 57-11 22-24-15 62 0 11-22zm-52 2c29 30 69-29 12 6 40-29-50-21-12-6zm0 34c30 3-8-12 0 0zm-6 58c-4 3 3 2 0 0zm25-52c8 3-4-11 0 0zm-6-3c13-7-7-1 0 0zm-9 11c-5 2 2 3 0 0zm14 33c-8-14-11 11 0 0zm1 18c-8 1 7 8 0 0zm-19-8c-4-5-1 4 0 0zm-66-49c13 8 5-12 0 0zm80 103c16 7-8-14 0 0zm-84-68c-16-20-27-6-28 14 13 4 17-11 28-14zm-30-2c12 6 0-14 0 0zm-4-9c11 2-6-6 0 0zm114-204c0 6 6-3 0 0zm-37 302c11-10-17-2 0 0zm-47-15c9 13 5-10 0 0zm-1 104c-5-13-35 12 0 0zm4 18c4-7-10-5 0 0zm24-9c-3 0-8 3 0 0zm-19-12c1 1 0-2 0 0zm68 79c2-8-7 3 0 0zm14-22c14 3-35-2 0 0zm8-40c-10 16 9 3 0 0zm-15 38c-1 4 2-1 0 0zm-3-17c-18 12 42-2 0 0zm-2-10c13-10-8-11 0 0zm28 3c-19 1 4 16 0 0zm-38 38c6-1-7-4 0 0zm1-19c4-11-16-14 0 0zm-8 6c5-50-21 4 0 0zm-32-43c4 0-1-2 0 0zm129 163c9 12 11-9 0 0zm-17 8c-3-12-19 4 0 0zm13 33c20 11-17-24 0 0zm-4 0c-36-20 18 27 0 0zm-11-74c46-12-50-7 0 0zm-20 83c9 34-14-9 6-3l-6 3zm-16-2c14 3 20-10 0 0zm-9-70c69 13 10-41 0 0zm-16 54c-19-11 19 22 5-5l-5 5zm-7-21c3 27 21-15 0 0zm91-49c-23 3 4 16 0 0zm-46-26c11-19-12-4 0 0zm-98-64c14-3-2-20 0 0zm272 404c1 10 24-2 0 0zm69 462c18 26-2 1-2-4l2 4zm8 48c2-18-21-6 0 0zm7 93c1-21-23-21 0 0zm2 53c-1-19-14 0 0 0zm0 24c-24-22 7 29 0 0zm25-209c-20 15 8 11 0 0zm2-42c-7 5-6 19 0 0zm2-96c17-26-27 9 0 0zm16 92c-11-31-24 27 0 0zm1-34c-7 21 18 31 0 0zm-5-71c-13 20 20 9 0 0zm10 1c22-17-18-17 0 0zm12 3c1-22-29 19 0 0zm4 17c-17 3 1 21 0 0zm1-101c-17 20 12 7 0 0zm-5-219c3 17 21-27 0 0zm-14 228c23 8 7-20 0 0zm16-216c-17-18-27 9 0 0zm-22 285c8-14-10-3 0 0zm3-76c-14 1-9 14 0 0zm134-371c6 15 4-21 0 0zm22 49c-7-6 1 6 0 0zm40 54c28 0-23-32 0 0zm9 9c-6-8-3 2 0 0zm7 2c-18-2 1 6 0 0zm-3-44c0 5 13 3 0 0zm39 233c-1 11 12 4 0 0zm5-92c-1 8 13-2 0 0zm6-9c-17 3 2 15 0 0zm3 161c3 14 7-11 0 0zm17-339c4-9-6-6 0 0zm5 6c-2-7-7-5 0 0zm24 358c-8 4 13 8 0 0zm4-19c15 12 4-11 0 0zm13-285c-14 8 11 6 0 0zm10 2c-4 16 26-4 0 0zm4-25c-7-12-10 23 0 0zm23-399c19-5-2-8 0 0zm15 264c11 4 13-28 0 0zm14-80c-15 3 5 7 0 0zm-13 19c16 1-5-15 0 0zm17-33c-18-4-18 32 0 0zm-3 46c14 14 5-8 0 0zm12-113c-18-9-21-2 0 0zm1 19c-8-7-4 11 0 0zm-2-83c6 11 8-11 0 0zm1-15c-11 12 9 5 0 0zm-12-25c3 13 9-7 0 0zm10-85c-13-7 1 20 0 0zm-5 121c5 10 11-13 0 0zm5-44c-6-20-16-4 0 0zm-19-180c-11-1 18 6 0 0zm-50-83c17 0-17-14 0 0zm36-49c-5-2 4 3 0 0zm-222 656c20 5 15-11 35 14 4-22 17 24 29-7-11-10-27-24-19-24 16 46-66-83-23 3-13-24 3 7-27 3l4 5 1 6zm9 22c26-11 11-18 0 0zm199-285c-5 11 21 2 0 0zm23-255c12-1-21-16 0 0zm-6 0c-3-23-8 11 0 0zm-9 14c21 11 12-21 0 0zm21-167c-1 18 10-14 0 0zm-5-4c7-8-13-8 0 0zm-183 704c14 12 3-12 0 0zm1 4c-1-1-1 1 0 0zm5 1c-3-2 0 2 0 0zm4 7c9-8-5-2 0 0zm11-2c22 3-2-9 0 0zm-8-5zm-2 1c-10 4 5 0 0 0zm18-20c-12 22 8 13 0 0zm28-1c7-7-3-7 0 0zm14-39c15-12-10-9 0 0zm4-22c-12-10-4 8 0 0zm3-677c5-12-24 5 0 0zm-31 86c19 12 5-13 0 0zm-31 45c9 21 15-24 0 0zm-24 9c19-5 23-10 0 0zm-42 160c1-1-3-1 0 0zm49 354c-8-2 0 6 0 0zm60-138c-1 10 18 2 0 0zm55-112c-21-5 10 9 0 0zm34-32c-7 4 12 5 0 0zm-24-218c1 0 0 0 0 0zm-10-9c-15 17 24 0 0 0zm-11-2c1 6 14-3 0 0zm35-149c-15 8 12 4 0 0zm-23 10c7 0-1-3 0 0zm-49 85c18-16-19-10 0 0zm-42 58c19 14-15-17 0 0zm-64 284c8-1-2-3 0 0zm58 228c-9-8 2 14 0 0zm49-149c-2 2 4 4 0 0zm35-50c-9 24 16-3 0 0zm45-185c-9 9 10 4 0 0zm-50-109c30 15 18-13 0 0zm-36-6c6-14-15 6 0 0zm-13 7c29-1-8-14 0 0zm-9-23c-7 4 4 2 0 0zm-65 145c5-3-14-1 0 0zm40 342c7-4-15-1 0 0zm15 6c6-19-11 0 0 0zm17-4c-14 7 2 18 0 0zm27-473c-3-8-12 5 0 0zm-2 17c12-8-34 0 0 0zm-96 242c-6-6-4 12 0 0zm12 177c0-1-2 0 0 0zm25 1c0-2-2 1 0 0zm23 11c-4-7-7 9 0 0zm-2 20c8-8-9-2 0 0zm6 0c-15-1 4 14 0 0zm2-22c-3-1 0 5 0 0zm-30-6c9-1-2-4 0 0zm8 9c-3 4 2 0 0 0zm3-5c-12-4-1 9 0 0zm-4-83c1-1 0-1 0 0zm-8-27c-29 13 7 14 0 0zm-17-70c23-9-7-5 0 0zm131-98c-17-5-4 10 0 0zm-90-51c2 5 2-3 0 0zm-2 126c4 13 10 1 0 0zm-20-63c-7 2 12 1 0 0zm9 169c-31-5 37 19 0 2v-2zm9 134c-9 2 11 6 0 0zm-9-15c7-24-16 10 0 0zm-44-26c1 1 0-1 0 0zm127-443c-12 5 3 6 0 0zm-66-46c35 48-5-11-16 11 37 55 78-59 16-11zm81-126c-3 24 33-3 0 0zm-71 694c-1 12 12-7 0 0zm-88-83c12-2 3-18 0 0zm232-533c1-1-1 0 0 0zm-28 155c17 3-23-12 1-3l-1 3zm-110 551c13 18 6-6 0 0zm10-2c-1-14-21 5 0 0zm-54-22c16 10 15-25 0 0zm2-26 1-5-1 5zm-33-7c26-13-16-21 0 0zm205-647zm4 217c2 18 9-3 0 0zm-53 325c10-21-15 13 0 0zm-18 54c21 1-17-33 0 0zm-7 36c20 7-3-13 0 0zm9 19c-3-12-13 8 0 0zm2-35c-8-8-6 9 0 0zm-7 355c9 14 6-8 0 0zm79-833c-16 4 11 3 0 0zm18 0c-16 0 7 11 0 0zm6 209c13-15-10-4 0 0zm-4 113c9 12 7-28 0 0zm-7 49c11 2-4-18 0 0zm3-18c39-4-18-10 0 0zm-58 254c10 9 0-13 0 0zm6-26c-17-4 0 10 0 0zm-28 96c-19 3 1 20 0 0zm0 228c-29-25-17 7 0 0zm0-14c-11-14 9 39 0 0zm-119-238c19-11-17-5 0 0zm-10-65c-4 10 10-1 0 0zm-23-8c8-2-1-11 0 0zm-133 48c3 9 22-14 0 0zm5-66c34-13-7 2-6-2l6 2zm-121 467c-6 28 16 1 0 0zm8-17c32 20-12-28 0 0zm-67-422c30-5-23-13 0 0zm-122-84c13-2-1-17 0 0zm-21 5c26-11 0-29 0 0zm7-25c73-6-23-14 0 0zm-79-20c7-1 11 33 26 12-5-15-11-21 11-16 59 13-19-62 7-7-22-45-36-16-42 1l-15-6c-1 6 9 4 13 16zm-53 40c-5 23 16-1 0 0zm-43 5c13 38 6-44 0 0zm-14-14c16 2-1-23 0 0zm-7 5c12-8-3-17 0 0zm3-16c-22-5-3 27 0 0zm-22 5c-6 8 18 16 0 0zm4-98c14 28 57 11 44 34 20-17 24 14 54 3 3-25-98-66-98-37zm52-35c-61 20 69 51 64 62 21 21-16-51 13 1 22-32-26-39-17-36-21-14-28-39-67-17l7-10zm77-15c-46-24-44-19-22 8-21 51 26-31 1 25 15 20 5-42 20-2 5-34 56-49 95-51-9 10-24-34-21 3-9-49-7 2-18-2-31-10-37-31-54-15-29 26-52-14-1 34zm-225-481c-6 13 10 8 0 0zm-41 878c3 10 22-14 0 0zm5-68c35-13-8 2-6-2l6 2zm-126 485c-7 30 17 1 0 0zm8-17c34 21-12-29 0 0zm-18-1288c10-11-2-6 0 0zm2247-3c-52 30-2 31 0 0zm-21 30c52-2 22-16 0 0zm73-52c49-28-14-29 0 0zm25-106c29-36-35-22 0 0zm20 56c28-33-23-26 0 0zm55-37c-16-37-31-59-24-6-47 14 11 17 24 6zm26-10c-3-1 2 5 0 0zm30-24c-28-26-40 12-17 5l8-3 9-2zm1-2c0-1-2 0 0 0zm40 73c30-30-36-74-1-13l1 13zm13 75c44 9-30-81-5-22l2 11 3 11zm-4-82c-24 40 46 41 0 0zm32 8c49-16 22-42-16-33l16 33zm-27 166c34 12 51-25 0 0zm15-30c-35 4-51 53-10 24 6-4 16-15 10-24zm14 50c3-11-59-18-16-5l16 5zm-15 83c16 51-75-23-27 25 22 21 69-4 27-25zm-23 47c13-19-22-24 0 0zm30 112c40-8 18-54 0 0zm25-120c40-10-23-25 0 0zm9-87c-16 23 28 24 0 0zm11-140c5-48-25-14 0 0zm6-47c-20-29-41 0-11 19 5-3-5-39 11-19zm12 400c-33 12 0 41 0 0zm-108-502c55-21 1-33 0 0zm-2 14c24 33 74-41 27-6-6 5-30-12-27 6zm-148-30c3 35 32-6 0 0zm296 533c71 9-77-43 0 0zm134-308c-59-10-16 34 0 0zm-2 313c10-15-30-22 0 0zm8-106c-36 33 16 21 0 0zm11-140c-7-33 34-111-8-42-25 41 5 9 8 42zm30 214c-5-45-20-46-13 0l5 1 8-1zm2-288c-30-29-10 45 0 0zm23 177c41-55-41-7 0 0zm22-69c-6-44-26-29-15 8l8-4 7-4zm99-124c63-6 20-24-19-6l8 6h11zm-7 71c34-37-19-54 0 0zm37-30c-11-43-50-27 0 0zm54 2c17-22 57-57 5-28-19 10-46 4-22 23-70-13-9 35 17 5zm11 25c-41-21-69 1 0 0zm18 36c7-20-33-15 0 0zm43-21c-24-37-29-13-39 23l39-23zm32-8c17 26 77-14 71 3 4-23-21-10-8-29-12-28-2 8-17-20-1-1 27-72-14-42-5-21-46-15-29 13-19 43-86 42-24-1 42-29-68 44-22-16-49 17 6 59-19 61 29-7 99-2 34 6-57-4 26 6 28 25zm71 5c-4-7-21 14 0 0zm-1 14c9-4-13-8 0 0zm-3 6c-5 17 8-2 0 0zm7 6c7-8-14-16 0 0zm3-11c23-5-4-7 0 0zm-1 34c13-11 1-24 0 0zm10-37c-6-5-7 16 0 0zm1 2c9-3-5-8 0 0zm11-39c-6-9-13 7 0 0zm-5 21c9-2-9-10 0 0zm5 54c14-10-9-9 0 0zm2-41c-7 6 12 4 0 0zm3 55c25 13 5-13 0 0zm-1 46c9 7 13-23 0 0zm1 88c10 13 5-31 0 0zm8 16c22-20-1-28 0 0zm5 24c4-6-13-15 0 0zm8-14c-17 3 1 7 0 0zm-6 91c1 6 17-6 0 0zm-3 22c22 15 0-34 0 0zm-5-21c-36 34 16 5 0 0zm-8 26c10-2-4-6 0 0zm7 37c4 5 11-3 0 0zm1 12c16-8-14-5 0 0zm0 24c13 2-2-9 0 0zm8-69c-6-9-10 2 0 0zm-1 73c5-5-11-4 0 0zm2 8c19 10-9-14 0 0zm8-121c5-17-14-4 0 0zm5-83c-9-6-10 20 0 0zm8-10c-23 4 7 15 0 0zm-4 365c29 36 1-39 0 0zm8 19c16-3 6-18 0 0zm2 17c6 8 17-14 0 0zm3 43c10 3 9-12 0 0zm4 10c22 16-10-22 0 0zm6-401c11-10-9-7 0 0zm-2-19c0 7 12-2 0 0zm14-46c-9 3-11 14 0 0zm0 219c-3-8-16 8 0 0zm2-108c-1-14-13-9 0 0zm-5 152c9 39 11-13 0 0zm13-34c-3-14-15 8 0 0zm3-92c-4-10-8 14 0 0zm4-264c-12-4-3 32 0 0zm1 308c3-11-9 1 0 0zm-1 256c8 13 1-20 0 0zm10-32c23 3-23-8 0 0zm-1 5c23-3-12-5 0 0zm12-12c0-13-29 3 0 0zm5-31c-7-8-10 11 0 0zm8-13c-19-5-4 18 0 0zm2-3c-3-10-8-2 0 0zm-15-3c-5-10-17 22 12 4h-7l-5-4zm-3-70c11 3-1-9 0 0zm0-21c2 17 18-15 0 0zm7-91c19-12-20 7 0 0zm-1 50c11 16 7-7 0 0zm11 0c12-15-11-7 0 0zm6-59c-14 6 5 7 0 0zm0 13c9 2-1-8 0 0zm7-36c-23 13 2 9 0 0zm4-147c11 6-8-9 0 0zm13 101c-3-30-21-1 0 0zm1-49c14-9-11-5 0 0zm3 40c12-3-7-11 0 0zm8 7c-7-12-15 14 0 0zm0-64c-3-10-9 9 0 0zm3-46c3-11-11 4 0 0zm-2 54c7-3-5-12 0 0zm4-19c-7-8-1 13 0 0zm-2-35c11-3 23-17 0 0zm11-14c-3 6 13 0 0 0zm9 19c3-10-7-4 0 0zm4-21c-10-3 2 12 0 0zm7-18c0-15 42-34 3-22-22-15 9 21-12-4 6 12-13 62 13 30-16 30-9 2-4-4zm93-71c-30-12-19-1 0 0zm-69 37c6-1 18-12 25-13-1 0 36 4 49-10-15-10-71-7-56-14 21-11 76-31 8-21-54 9 62-20 3-9-21-13-35 3-57-2-18 7 6 23-5 18 4-4 28 27-4 12 34 31-22 40 26 50 2-11 15-39 11-11zm8 7c-2-8-9 3 0 0zm6-2c-1-12-12 11 0 0zm5-5c-9-3-4 7 0 0zm19 17c8-6-4-7 0 0zm-1 11c26-7-3-8 0 0zm-2 27c14 2-6-15 0 0zm12-17c-5-11-18 3 0 0zm3-28c-7 10 5 3 0 0zm3 14c8-6-9-5 0 0zm18 1c-1-7-21-3 0 0zm-8 32c11-3-11-7 0 0zm15-29c10-8-13-7 0 0zm3-158c2-13-11 7 0 0zm6 160c11 0-2-11 0 0zm-1 80c5 7 6-6 0 0zm2-24c-16 0 9 12-4 1l4-1zm-24 0c22 9 26-8 0 0zm-20 8c21 18 41-26 0 0zm-4 33c-14-6 6 15 0 0zm-5-12c-9 17 15 2 0 0zm22 24c16-5-14 3 0 0zm9 7c13 23-8-28 0 0zm6-9c14 20-5-10 0 0zm-3 38c-47 14 23 6 0 0zm-8 20c19-16-10-9 0 0zm12-1c8-23-16 6 0 0zm10-59c12 7-10-15 0 0zm-8-21c-9-6-4 5 0 0zm-1 19c9 21 13-3 0 0zm7 44c39-1-13-8 0 0zm4 7c-13-3-7 18 0 0zm8 3c-2-7-5 9 0 0zm13-6c29-11-38-4 0 0zm6 39c11-2-11-13 0 0zm9-42c-4-4-13 6 0 0zm11 5c-8-11-17 11 0 0zm5 3c22-3-22-1 0 0zm-1 113c1 7 13-4 0 0zm-4 8c-48 30 10 6 33 5-12-2-17-5-33-5zm18 17c-12-11-6 3 0 0zm3 42c16 8 9-4 0 0zm-6 26c9 25 19-18 0 0zm14 12c6-14-12 1 0 0zm6-17c-2-5-14 2 0 0zm6-32c-12-2-6 3 0 0zm2-36c7-6-11 0 0 0zm7-4c3-9-11-8 0 0zm0 5c25 9 0-15 0 0zm14 177c-13 31 10-10 0 0zm-5-24c-9 3 10 4 0 0zm-6 21c9 5 1-11 0 0zm-2-23c-6 22 6 7 0 0zm-3 42c3 14 8-5 0 0zm10-10c1-11-19-3 0 0zm3-8c-8-6-1 11 0 0zm-2 53c7 0-1-11 0 0zm-1 12c14 24 16-11 0 0zm3 72c3 19 27 12 0 0zm-2-1c-12-8-11 4 0 0zm-16-23c8 11 12-3 0 0zm1-12c-4 13 15 1 0 0zm31 143c9-9-10-10 0 0zm7-6c17-8-12-14 0 0zm6 8c7-17-8-3 0 0zm5-479c-13 5-5 2 0 0zm-2 378c15-19-6-10 0 0zm5 3c-8 1 4 17 0 0zm-3 48c19 25 0-18 0 0zm11 22c5-14-9-5 0 0zm2 18c8-2-7-9 0 0zm-1-30c-4-17 3 12 0 0zm5-9c-4-5-4 10 0 0zm5 10c2-20-13 13 0 0zm-14-32c-9 7 11 15 0 0zm-1-31c-6 4 3 13 0 0zm7-18c16-29-30 26 0 0zm8-5c0-16-10 2 0 0zm3-51c20-38-29 19 0 0zm2-50c22-18-21-5 0 0zm8-213c11 0-6-6 0 0zm9 35c-10-2-5 5 0 0zm2 129c8-17-6-3 0 0zm4-79c7-4-5-7 0 0zm5 109c7-13-10-5 0 0zm9-19c2-4-18-14 0 0zm-11-18c-9 20 12 1 0 0zm6-50c0-7-12 6 0 0zm2 29c8-6-8-13 0 0zm8-19c12-10-15-3 0 0zm6 4c13-15-19 0 0 0zm-16-9c4 7 10-8 0 0zm2-31c10-15-17-19 0 0zm-11-33c5 3 6-7 0 0zm14-53c-4-6-29-2-9 3l9-3zm3 7c-14 2-4 7 0 0zm5-14c-18-9-1 18 0 0zm2-7c-6-7-7 5 0 0zm5-115c-16-4-13 2 0 0zm6 0c9-9-17-2 0 0zm43-162c-22-1-5 12 0 0zm5-44c-2-2 1 3 0 0zm-18-35c3 6 8-8 0 0zm-582-62c3 6 12-2 0 0zm6-15c-13 16 12 9 0 0zm7 2c-15-18 1 15 0 0zm-1-23c-14-2 6 10 0 0zm22 42c0-8-13 2 0 0zm10 227c-6 17 7 23 0 0zm5 0c-8-6-3 9 0 0zm5 1c-14-5 0 18 0 0zm4-19c-11-1-4 12 0 0zm-8-191c12-1-5-11 0 0zm0 20c-9 4 1 8 0 0zm1 15c-5-10-7-1 0 0zm-3 151c-6-3-1 12 0 0zm0 8c-11 3 9 7 0 0zm-4-165c5 10 11-14 0 0zm-5-9c15 2-2-9 0 0zm44 157c16 1-3-12 0 0zm26-143c15 2-14-10 0 0zm5 204c12 5-6-38 0 0zm0 29c4-9-16 2 0 0zm-4 331c-6 4 10 7 0 0zm4-14c11 9 2-9 0 0zm3-331c-6-6-5 7 0 0zm-5 283c7 11 5-6 0 0zm3-255c-1-10-10 7 0 0zm9 76c-12 6 8 5 0 0zm6-168c-14-2 3 26 0 0zm5 150c-5-10-8 18 0 0zm-4 19c-3 13 22-3 0 0zm11-348c-1-8-9 0 0 0zm-6-76c7 2 1-10 0 0zm-1 118c5 2 6-12 0 0zm-22-80c4 6 12-9 0 0zm-3-140c35-19-12-10 0 0zm-13 2c-2 11 12-5 0 0zm56 187c16-4-1-7 0 0zm11-136c0-6-6 5 0 0zm1 346c9 3 10-22 0 0zm11-63c-10 2 3 5 0 0zm4-12c-15-3-15 26 0 0zm-3 37c11 11 4-7 0 0zm10-91c-15-7-17-1 0 0zm12 20c-17 22 14 42 0 0zm2-1c7 7 10-8 0 0zm16-90c-6-8-3 7 0 0zm64-45c9-4-19 1 0 0zm4-10c-9-10-15 4 0 0zm5 4c4-11-16 1 0 0zm-6 24c-2 8 10 0 0 0zm16-48c-25 10 11-30-30-10 6 12 18 21 30 10zm-6 71c11 8 4-4 0 0zm14-59c-24-19 8 22 0 0zm2-13c-7 10 26 7 0 0zm5-6c6 6 4-7 0 0zm-130 168c-8 8 9 1 0 0zm4-64c-1 1 1 1 0 0zm2 76c7 10 5-22 0 0zm22-126c-8-4-9 10 0 0zm2-8c-2 11 10-2 0 0zm8-15c6-2-2-4 0 0zm73-48c-7 3 6 3 0 0zm-43 18c2 9 9 3 0 0zm3-31c-21 9-90 33-48 34 18 0 2-8 26-7-4-4 47 3 22-27zm0-6c-33 1 24-9 6 2l-6-2zm8-36c-2 2 2 1 0 0zm-24-38c-4 9 15-2 0 0zm-19-25c4 8 11-5 0 0zm-51-5c45-12-20-9 0 0zm4 63c5-6-10 0 0 0zm9 175s1 1 0 0zm11-8c10-12-8-3 0 0zm5-9c12-21-17-17 0-1v1zm16-53c9 2-6-6 0 0zm-10-16c4-6-2 1 0 0zm-8 7c15-4-10-5 0 0zm-7-14c-3 8 12 3 0 0zm-1-14c-1 13 8 6 0 0zm62-62c-20 2-26 17 0 0zm3 4c2 1 3-4 0 0zm8-7c-12 6 5 3 0 0zm-30-38c2 12 15 2 0 0zm-52 33c11 20 19-29 0 0zm-1 3c-10-4-12 8 0 0zm-5 68c6-7-12-8 0 0zm3 79c3 9 9-8 0 0zm8-8c-10-6-4 8 0 0zm5-7c-11 3 6 7 0 0zm-7-93c-5 13 22-22 0 0zm2-28c-5 9 16 3 0 0zm20 36c-7-1 0 16 0 0zm26-80-2-2 2 2zm-35 51c1 0 0 0 0 0zm15 6c6-5-2-2 0 0zm-2 3s-1 2 0 0zm-6-8c-17 7 23-6 0 0zm-6 0c3 7 7-10 0 0zm1 10c9 0-7-16 0 0zm-8-28c2 0-1-2 0 0zm-5 78c-10-5 0 16 0 0zm2 92c3-9-4-2 0 0zm-7-185c-8 8 16-3 0 0zm54-36c-7 9 6 1 0 0zm-34 111c0-25-24 7 0 0zm12 26c6-3-7-9 0 0zm97 4c8 3-3-13 0 0zm-43 43c-2 13 9-2 0 0zm-4-43c-4 11 10-2 0 0zm4-15c9-6-10 0 0 0zm-10 32c13 1-2-7 0 0zm-9-4c-1 10 15-6 0 0zm-10 5c10 4 6-9 0 0zm4-11c20 4 27-17-22-11-17 20 6 11 22 11zm-26 29c2 2 0-1 0 0zm-1 24c3-26-16-7 0 0zm-48 158c13 1-4-11 0 0zm179-115c7-6-14-6 0 0zm-4 176c-11-5 8 13 0 0zm21-31c-1 6 12-2 0 0zm-32-393c1-1-1 1 0 0zm117 862c-8-18-4-9 0 0zm4 30c2-11-12-4 0 0zm4 58c5-10-19-18 0 0zm2 33c-1-12-9 0 0 0zm0 15c-15-14 4 18 0 0zm14-130c-12 9 5 7 0 0zm2-27c-4 3-3 12 0 0zm1-59c10-17-16 5 0 0zm10 57c-11-18-9 15 0 0zm0-21c-6 9 13 24 0 0zm-3-45c-8 13 12 6 0 0zm6 1c17-13-15-9 0 0zm7 2c1-14-17 11 0 0zm2 10c-10 2 1 13 0 0zm1-62c-10 12 7 4 0 0zm-3-137c2 10 13-17 0 0zm76-361c3 13 18-8 0 0zm-39-190c8 0-4-12 0 0zm45 272c1 2 1-1 0 0zm-90 421c13 6 4-15 0 0zm10-135c-7-11-21 6 0 0zm-14 178c5-9-5-2 0 0zm2-47c-8 0-5 8 0 0zm24-167c2 6 13-8 0 0zm3-41c24-4-15-6 0 0zm-72 291c-4 17 10 1 0 0zm5-10c19 12-7-18 0 0zm-39-225c1 7 15-1 0 0zm-1-38c20-3-15-12 0 0zm-51-96c7 6 7-2 0 0zm-20-14c-2-11-5 6 0 0zm-1 6c6 1 1-13 0 0zm-56-228c37 2-4-15 0 0zm-6 14c-4 13 10-3 0 0zm6-19c-2-21-20 12 0 0zm-44 6c12-1 47-12 17-22-6 11-24-21-31 10-13-17 9 24 14 12zm-26 68c0-10-8 0 0 0zm-3 2c-13 6-6 11 0 0zm-18 75c9 2-3-14 0 0zm2-14c30-3-13-9 0 0zm-40-74c12 11 3-7 0 0zm-6 276c8 7 0-10 0 0zm5-21c-13-3 0 9 0 0zm-22 77c-16-2 0-10-1 3l1-3zm0 181c-24-21-12 7 0 0zm-1-11c-8-11 8 31 0 0zm-60-330c-7-7-4 10 0 0zm-1 279c0 9 10 3 0 0zm5-73c-2 7 10-2 0 0zm4-7c-14 2 1 11 0 0zm-7-127c10 13 5-6 0 0zm7-6c-17-3 2 11 0 0zm-6-20c8-2 0-10 0 0zm2-150c-11-3-5 13 0 0zm6 431c3 11 6-9 0 0zm2-461c-11-10-5 21 0 0zm-40 8c38-14-21-24 0 0zm-1 67c7 10 6-9 0 0zm-5-5c7 5 3-15 0 0zm3-5c24 14-11-34 0 0zm-34-240c18-12 4-48-8 2l8-2zm-1 24c12-20-26-3 0 0zm-7 35c-6 12 13-6 0 0zm5-27c8-7-11-5 0 0zm-23-21c1 2 1-1 0 0zm-16-122c15 23 32-18 0 0zm-57 16c-35-8-55 56 8 39 50-14 15-22-15-23l3-8 4-8zm15 65v-1 1zm-106-88c-18 51 21 23 0 0zm-33 92c27 31 101-17 29-6-10-2-20 2-29 6zm19-29c65-25-26-25-25 17l13-9 12-8zm-49-41c-22-47-28-2 0 0zm-224 57c45 26 17-50 0 0zM-39-19c9-13-5-5 0 0zm50-29c8-3-10-11 0 0zm-3855 1160c15 28 37-25 0 0zm102 109c15-23-11-7 0 0zm16 9c-6-31-22 23 0 0zm-15-128c9-9-19-6 0 0zm22-32c13-11-15-27 0 0zm15-144c-4-30-14-8 0 0zm4-7c13-7-12-18 0 0zm41 25c6-21-6-6 0 0zm-15-72c17-26-17-7 0 0zm42-47c18-6-23-24 0 0zm-13-69c11 5 3-17 0 0zm78-323c14-9-13-10 0 0zm0-94c7-28-31 25 0 0zm39 25c17-17-18-2 0 0zm190-23c1 20 15-7 0 0zm55 185c-15-8 5 16 0 0zm16 71c-10 15 8 8 0 0zm-18 17c-24 0 11 29 0 0zm-11 15c-20-16-44 75-15 11 4 20 8-9 15-11zm70 6c-16-3 13 24 0 0zm26 121c-31 9 11 24 0 0zm-13 0c-32 19 10 12 0 0zm-15-2c-6 1-1 32 0 0zm-12 8c-2 17-29 12 5 6l-5-6zm43 106c-23-5 8 17 0 0zm-13 2c-13-1 4 19 0 0zm-17 14c22-16-5-9 0 0zm-5-4c-8 2 8 27 0 0zm53 94c14 27 36-24 0 0zm98 104c15-21-10-6 0 0zm15 9c-5-29-20 22 0 0zm-14-123c9-9-19-6 0 0zm21-31c12-11-14-26 0 0zm14-139c-3-29-12-7 0 0zm5-6c12-7-13-17 0 0zm39 24c6-20-6-6 0 0zm-15-69c17-25-16-7 0 0zm41-46c17-5-22-22 0 0zm-12-66c10 5 2-16 0 0zm119-166c8 12 22 9 0 0zm5-39c-17-8 12 27 0 0zm133 75c-6-10-18 3 0 0zm-7-37c12 10 4-9 0 0zm18-149c14-3-10-12 0 0zm55-95c-7-20-19 16 0 0zm0-19c9-16-18-5 0 0zm-8 7c15-4-5-8 0 0zm35-375c16-12-29-22 0 0zm5-162c-1-13-12-3 0 0zm106-41c-31-20 4 55 0 0zm-25 100c33-21-2-60 0 0zm853-97zm715 328c22-9 49-53 5-32 28 12-22 11-5 32zm396-101c-45-18 8 27 0 0zm-7-9c-9 8 9 7 0 0zm-5 3c-21 1 6 8 0 0zm-9-1c-15 5 12 5 0 0zm10 46c8-11-8-2 0 0zm5-14c7-10-6-4 0 0zm2 22c9-1-6-5 0 0zm7-7c2-10-12-6 0 0zm-19-142c-8 4 8 16 0 0zm-5-8c-5 8 18 6 0 0zm-3 0c-9 12 6 2 0 0zm15 241c-11-7 2 11 0 0zm-5 1c-2 11 5 11 0 0zm-10-5c2 9 21-2 0 0zm43 167c5 8 14 6 0 0zm3-31c-13-7 10 22 0 0zm106 60c-5-8-14 2 0 0zm-5-29c10 7 2-8 0 0zm14-119c11-3-8-10 0 0zm44-76c-6-16-16 13 0 0zm0-15c7-13-15-4 0 0zm-6 6c12-3-5-7 0 0zm71-109c-7 12 7 1 0 0zm73 162c1-10 7 15 0 0zm-20 20c-11 5-1 9 0 0zm-5-8c-17 16 14 2 0 0zm-7 17c-12 9 5 7 0 0zm28 24c0 12 9-4 0 0zm33 116c-9-5 3 9 0 0zm9 44c-7 12 6 1 0 0zm-11 11c-14 0 7 17 0 0zm-8 3c-26 34-12 26 2 6l-2-6zm44 10c-10-2 7 14 0 0zm15 75c-18 9 6 13 0 0zm-8 0c-19 12 7 7 0 0zm-8-1c-4 0-1 20 0 0zm-8 5c-14 8 7 12 0 0zm26 66c-14-3 4 10 0 0zm-8 1c-8 0 3 12 0 0zm-10 9c13-11-3-6 0 0zm-3-3c-4 2 5 17 0 0zm32 59c7 17 21-15 0 0zm58 65c9-14-7-4 0 0zm9 5c-3-18-13 14 0 0zm-9-77c6-5-11-3 0 0zm13-18c7-7-9-17 0 0zm8-87c3-15-11-7 0 0zm3-4c4-6-5-8 0 0zm23 15c4-12-3-5 0 0zm-9-43c11-16-9-5 0 0zm25-29c10-3-14-14 0 0zm-8-41c7 3 1-10 0 0zm44-194c9-5-7-5 0 0zm34-25c-1 21-41-25-49-8-8 16 50 20 29 45 15 7-46-14-33-16 5 16-43-20-6 15 47 43 3 10-17 17 15 14 23 9 38 24 13 12-35 18-32 8-3 5-35 22-12 20 15-1 36 23 22 18 3-24-2 9 10 15 8 5 8 18-2 11-12-9-46-18-33 5 11 20 9 4 37 28-1 18-26-2-21 13 4-25-26 8 2 14 26 6 22 25 41 29 3 28 0 31-20 5-12-1-38-29-46-17 7 8 58 53 26 37 19 25-24-21-20-12 4 12-47 1-21 15 6-3 35 13 43 26 12 22-19-7-17-5-13 2-53-17-16 18-46-36-22 25-21 18 7-39 14-3 18-1 9-10 23-5 40 24 10 16-38-7-27-8-19-1-36-8-33 16 16-5 42 25 4 6-15 10-15 10 4 12-11 5-50 35-13 19 39-16-18 30 2 18-19-10 7 12 24 44-21-15-11-10-36-19 6-2 26 48 10 39-16-8-3 26 8 42-20-17 0 38-10 11-15-37-6 28-24-22-2 11 6 60-1 41-5-13-6 24-11-10-17 31 10-40-13-1-13-3-18-12-2-29-27-25 28 16-5-20 22 10 23-29-4 0-19 21-19-8-5-22 8 1 18 6 18-9 0-31-23 7-26-3-20 6 33-44 1-35-25-7-31-5-11-14 16 5 56 19 21 2-10-21-19-16-35-20-20 8-8-20 23-23-13-15-56 5-43 0-32 16 13-25 16-15 11-8 23-6 42-2 22 4-17-32-39-17 44-13 37-25-5-17-21 4 2-12-24 1 25-21 38-25 61-23 12 1-18-20-20-15-19 9-3-23-27 7-6-25-1-2 8-20 13-23 35 0 35-32-13 21 0-7-15 10 2-29-5 2-20-10-33 6 24-4 18-12 21-2 53-8 4-10-16-1-16 9-37 8-11 11-46 18-34 24-17-17 67-51 41-43-7-6 17-14 11-35-5 5-40 9-34 4-8 13-30 13-6-2 6-29 44-36 37-39 13-16-14-12-17-26-15 8-19 1-32 6-5 2-29 11-33 31-10-26 28-38 45-56-3 22 22-46-14 2 20-29 76-44 13-34 8-23-45 24-31 6-19-22 67-39 22-42-5 5-37 4-39 27-10 1-19 42-15 3 2-11 16-30 28-48 2 3 17-24 35-17-8-21-54 16-41 4-8-6-19 14-42 25-25 12 22-46 20-38 21-23 2-5-4-33 22 2 37-28 21-24-9-12-20 0-40 10 3-7-5-37 11-24-16-23 14 16-1-20-23-1 67-35 55-41-15 8-11-28-25-2 2-28-14 16-10-20-2 26-43 9-41 31-20-1 3-17 9-33 10 5 24-19 1-9 37-20-5-20-10-8-12 6 2-28-14 13-7-36-1 15-13 0-34 20 33 18-14 22 21 10 8 24-1 15-11-12-30 16-7 28-13 5-18-7-2 28-31-29-8 24 2 7 20 36 1 34-24 47 24 12-6 17 12 37-25-4-25 32-32 18 2 15-6 22 19 28-28 11-1 26-24 24-33 30 26 3-6 19 24 18-38-1-11 35-3 0 22 28 9 25-24 34 26-12 0 23 5 18-16 27 4 44-4-10-36 48-7 32-18 36-3 15-25 30 26 13-13-3-2 23 19 3-27 2 0 27-25-12-6 53-14 35 3 4-16 20-9 21 4 1-7 33-6 11 1-12-4-22-1-40 3-23-19-12-13-27-18-11 6-44-12-37 25-33-32-14 4-41-40 6 20 1-19-11 19-22-1-25 2-31-7-8-20-5-7-25-10-24-24-18-6-38 10-10-42-2 4-8-21-6-6-42-2-25 17-32-20-30-27-51 32-15-20-35 10-30 25 4-14-36-21-29-5-20-31-25-4-32 14 8 10-4 28-1 15 2-7-8 19-13-22 4-2-31-19-18 10-22-17-26-35-41 4-24 28 5 7-21 21-25-32-33 1-43 16-5 10-31 8-30 12 0-17-26-5-29 0-15-15-2-11-22-8-1 18-16-12-8 32-8 3-12 30-11 25 1 29-15-5-23 1 19-12 3-13-11-2-26-6-9-10-28-14 10-101-4-45 44-7 53 6 13 36 1 10 33-53 40-6 61-25 15-77-20-22-16-13-18-91-48-34-33 5 15 3-84-22-24 38 17-46-1-15 42 61-10 42 27-8 18 7-12-32-44-25-80-14 42-64 53-28 1 38 2-45-74-17-28 22 38-40 68-24 15 19-63-12-17-43-3 9 18 40-11 12 28 30 36 29 46-18 22-21-11-31-55-20-6 12 48 7 14-31 43-21 17 34 23-5 23-55 0-28-16 1 20s-51 8-54-20c13 35-18 82-27 26-4 30 31 71 48 46 36 22 4 86 60 54-38 37 62 34-10 50-25 6-91-11-30 15 61 27-18 20-32-9 38 16-1 111-7 39-3-36-50 47-33-15-40 38 6-66-51-39 39-82-100 62-57 15 20-22 53-46 5-31-51-37-17 8-15 27-26-1-87-32-56 17-37-7-11-70-40-15-30 57-45-28-34-21-10 18-8-71-41-28-17-33 50-47-13-41-73 7 16-54 42-34-25-61-37 1-36-12-35-6-10-98-25-33-13 57-71 19-27-13 47-33 22-28-17-25-77-15 50-28 48-31-24-57 58 8 34-41-18-36-13-63-36-13-45 99-16-96-15-48-77-22 78-32 49-31 44-53-46 43-31-43 4-27 25-72-3-23-29 50-81 8-29-17 39-19 47-34-2-29-51-11-29-22 10-31 0-87-23 22-74-1-70-31 53 51-15 19-33-76 16 87-33 10 18 41-68 74-40 78-42-16-48 25-9 39-40 37-78-75-76 6 1 84-44-66-53 23-15-65-46 79-32 6-46 29-37-19 9-18-23-29-45 25-39-32-61 19 28-54-20-52 9-25 41 9 6-21-25-20-33-87-50-22-75-53 42 110 3 58-17-22-35-60-30-11-47 43 5 17 24 20-6 25-49 77 6 57-16 34-73-1-23 36 62 46-47 10-22 32-17-3-68-2-42 29-36 11-37-58-44 4-8 71-51-26-26-47-67 12-6 36-19 32-14 32-101-10-38 17 37 16 31 72-5 33-27-28-18-63-39-7-35 92-21-57-25-44-62 6 18-30-28-43-37 14-78-2-26 35 90 64-102-6-52 4-38 70-16-82-21-53-43-53 32 52-49 21-26-10-68-40-24-2s-9 80-24 24c-10-40-7-47-28-4-31 62-12-10-41-18-64-18-11 9-4 44-44-28 1 39-42 7-34-25-19 26-40-2 27 60-61-37-40 29-37-11 27 31-18 21-33-7-34-51-57-6-43-28 31-89-28-88 23-48 57-44 67-112 7-42 69 40 31-14-32-44-21 15-66-10 3 33 26 58-23 33-54-28-36 6 3 31 20 12-67 31-76-5-11 33-6 43-29 40-40-6-18 27-14 19 23 11 44 3 34 12 26 15 4-19 26 4 8-17 44 25 12 23-20-1-40 35-18 36-3 19 33 50 6 51-25 0 13-16-10-16-12-13 3 21-23-1 20 12-19 15 21 12-25 12-17 32-1 31 6-14 4 21 10 18 37 8-20 36 11 36-14 11-9-1-3 30 21 8-16-5-16 24-20 1 5 28 2 19 5-6 36 35-4 15 44 25-16 37 8 45 0 17-4 5 24 19-29-4-19 15-20 7-3-29-27 68 8 32-38 36 46 26-14 33 37 25-20-17 6 23-31-40-24 11-29 14 37 44 0-20 8 39 4 37-16-30-24 10 25-13-3 28 22 9-3 20 22-1 9 29 43 1-32 16 4 22-18 3-57 5-24 13 0 30-12 14 2 44-27-6-67 14-43 6-7 17 21 8 2 21 3 16-8 12 14 25-22 5 25 4-6 15 10 7 1-4-3 15-20 7-38 45-1 21-30 10 6 32-27 19-34 9 18 44 0 47 37 22-6 12 1 40 25-45 14 16 7 21-28 20 17 27-3 45 6-12-30 51-11 40 16-10-9 27-2 31-20 5 3-21-19 4 48 19-29-8 2 17-20 10 26 15-10 22-3-30-1 9-2 21-13-1 4 48-4 46-10 12-17 24-12 26-13 0 4 22-14 24 3-22-14-35 2-54 13-18-44-32-11-34-37-16-2-49-17-49 17-20-9 9 1-20 11-31-49-5-8-29 16-10-41 3 6-8-52 2 18-44-30-37 29-17-13-24-3-25-28 25 9-17 0-37-41-15-2-4-17-20 17-5 24-28-13-15 15-13 43 0 12-16 35-4-24-29 17-31-14 24 33-30-10-19-7-11 5-38-18-22 1-16-10-19 16-15-13-13-32-43-49-36-34-21 7 19-38 3-80-29 83 70 39 48-21-10-10 11-45-12-36 15 41 21 26 27 5 10 12-8 25 17 19-21-4 43-9 0-20 21-47-8-52 25-21-21 3 12-35 10 28 10 48-2 32 27 28-28 2 23 28-2-15 15 44 35 20 38-13-8 8 13 6 16-14 28-29-24-65-8-3-12-31 15-1 22 4 33 8-16 13 20 2-22 34 20 52 34-17 14-54-42-41 3 14 47-18-60-8 8-41-5 17 23 36 28 1 31 25-8 13 27 28-39 9 43 31 11 1 36-20 36-6 31 10 23-59-34-49-36-22-7-74-42-44-2-3 3 90 75 31 46 36 44-29-15-27-13-11-25-15 34-15-8 2 27-14 12-32 9-4 11-18-3 1 26 14-21 30 24 65 28 29 3 17 46 8 9-23 1-30-22-57-13-10-10-6 13-21-11-23 19 63 65 5 30-48-29-23-1-12 17-17 16-3 39 7-8 25 1 4 48 22 9 6 23-11 30 15 7-8 37-13 3 24 27 30 19 63 28 6 16-14-3-45-2-51-8 4 18-20-24-22 12-1-44-28 47 8 12 16 18 53 36-1 16-17 15-26-6-29 23 55-26 2 9-14 25-30 28 40-11 42-5 33 3-24 18-3 25-14 42-33-31-18 22-40-28 95 75 23 52 11-34-7 16-9-24-7 31-59-32-21 17 31 2-13 37 9 39 1 36-35-24-13 26 9 20 38 72 6 45 25 52 3 27-16-4 9 62-21-26-25 1 6 10 7 86 0 55-7-39-9 55-14-15-7 3-14 31-6-17 5-34-25 39-26 1-35 24-14-48-5-39-32-32 46 25 6-13-17-17 29-16 4-42-28 32-29 27-42 52-12-61 40-62 24-70-2-25 19 24 13-16 9 7 7 20 7-15 0-13-11 24-31-5 12 39-19-18-2 21-8-9-46 16-12-11 51-41 5-43-23-46-28-2-2 0 24-8 22-7 72 34 26-10 0 3-52-21-19-24-43-4-46 9-58-7-30 1 96-56 27-37-5-14-45-3-70 16 16-24 30-22 49-35s41-16 72-4c50 19-31-39-23-30-29 1-62 10-12-11 87-36-104 14-48-25-17 7-8 10-32 14 32-30 63-54 88-43 27 13 32 3 0-10 7-17-49-8-38-4 23-53-27 26-35-9 11-15 15 17 14-19 22-1 42-29 62-19 5-34 5-40-8-8-1-30-17 11-13-32 2 30-33 12-25 10-41 3-35-19 1-20 24-1 61 0 80-8-43-8-62-4-83-1 0 0-64 29-50 24-10 5-41 56-41 7 27-18 46-60 72-54-1-3-13-28 7-1-15-30 20-24 17-50-20 2-14-22-19 4-17-27-13 13-32-10 9 32-25-28-15 18-6-21-44 40-22-9 22 5 17-55 66-55-28-32 13-7 28-24-37-6-18-19-35-20-11 0-29-23-37 1-28-27-56 44-50 12-11 3-41 53-36 21 5-33 22-9 25-46 61-8-12 25 45-18 17-13 11 17 11-20 48-46-68 39-9-8 30-25 49-54 54-42-39 16-40-1-48-2-10 2-46 46-49 28-29 4 20-5-10-15 17-37 8-27 44-40 6-2 52-26 2-19-10 1-50 4-68 35-9-11-25 49-30 31-14 23-16-24-33-13-4-19-69-53-59-39-16 11-8 2-30-12-6 20-5 41-24 7-14-26 2 8-29 3 10 37 22-10 28 8 12 34 24-11 24 26 34-22-15 35 25 1-2 38 20 24 28 71 20-56 28 53 13-5-19 36-30-46-32-4-32-19-60-38-97-27 19 24 71 28 63 50 12 14-6 22 3 28 10-16-40-25-41-25-35-22 7 20-40 3-83-30 80 83 41 50-26-22 9 2-37-10-66-18 27 41 11 20 17 21 9-1 26 11 23-4 10 49-3 12-13 8-80 27-48 14-17 15-16-4-16 13-64 12 19 17 14 23-27 32 19-11 12 20 7-2 26 10 38 39-28-31-4 9-1 9-7 27-56-28-70-8-34 2 5 14 6 38 3-43 8 33 12-6 2 13 45 26 48 50-17 5-52-43-39 1 15 50-19-59-8 2-52 1 37 37 36 35 1 31 27-8 14 28 29-41 9 45 32 11 8 47-9 37-6 32 6 21-40-33-61-41-16-6-69-38-36 2-3 3 94 78 32 48 37 45-30-16-28-14-11-26-15 35-15-8 2 28-15 13-34 9-3 11-18-3 1 27 15-22 32 25 68 29 30 4 18 48 8 9-23 2-31-22-59-13-10-10-6 14-21-11-25 20 65 67 4 31-50-30-23-1-12 17-17 17-3 42 7-8 27 2 5 50 23 10 5 26-8 27 15 7-7 38-11 0 26 28 21 16 30 82 6 22-4-11-49-10-53-14 5 19-21-25-23 13-1-46-29 49 8 12 17 19 56 37 0 16-21 4-16 12-25 12-3-22-27 16 8 7 48-13-15 18-16 20-64 57 46-12 36 8 24 4-29 17-8 25-14 43-34-32-18 22-42-29 98 78 24 55 11-35-7 17-9-26-8 33-50-40-23 18 8 16 20-7 10 25-23 9 14 16-10 32-7-30-5-2 3 21 10 34 24 54 2 38 21 67 0 5-23-2 20 66-33-54-22 9 13 1 3 85-2 42-5-35-13 55-13-3 1-27-16 38-7-26 6-36-25 41-27 0-23 25-18-26 4-36-32-16-12-29 4 0 17-13-4-5-14-32 38 15 7-63-5 0-25-18-1-39-2-48-1-25 20 24 14-16 7-10-7 31 8-7 12-31-39 21-26-28 12-1-32-37 18-23 33 10-32-25-22-29 20-7 4-18 0-56-3-32-2-41 31-25-35-18-25-44-31-72-6-27 20-31 0-32-4-37-4-29 0-58 3-22-8-73 14-65 20 8-14-7-14-42V522c19 7 0-17 0-47V-736H17v336c-14-12-1 22 0 42 2 27-5 69 0 65-12 26-6 5 0 27 9 35-23 43 0 58-4 28 9 58-20 35-23 0 3 32 20 22 2 18 0 53-4 55-31 16 34 36-16 33C39-47 8-1-5-37c-5 23-29-21-27 16C9-28-12 4 7-3c0-7 19 43 7 21Z" transform="translate(4315 1041)"/></g></svg>