<svg xmlns="http://www.w3.org/2000/svg" xml:space="preserve" viewBox="0 0 1600 898.8"><defs><linearGradient id="e"><stop offset="0" stop-color="#3ccfc8"/><stop offset=".7" stop-color="#062d36"/><stop offset="1" stop-color="#062d36"/></linearGradient><linearGradient id="d"><stop offset="0" stop-color="#79ed87"/><stop offset=".4" stop-color="#0d4645"/><stop offset=".7" stop-color="#03363f"/><stop offset="1" stop-color="#03363f"/></linearGradient><linearGradient id="c"><stop offset="0" stop-color="#c1e554"/><stop offset="1" stop-color="#09647f"/></linearGradient><linearGradient id="b"><stop offset="0" stop-color="#6454e5"/><stop offset="1" stop-color="#0d538f"/></linearGradient><linearGradient id="a"><stop offset="0" stop-color="#fbfbbe"/><stop offset=".3" stop-color="#fdfdd6"/><stop offset=".9" stop-color="#ffe876"/><stop offset="1" stop-color="#ffe876"/></linearGradient><linearGradient id="f" x1=".1" x2=".8" y1="0" y2="-.1" gradientTransform="scale(2912.24746 -2912.24746) rotate(-82 0 0)" gradientUnits="userSpaceOnUse" spreadMethod="pad"><stop offset="0" stop-color="#3580a5"/><stop offset=".4" stop-color="#3580a5"/><stop offset="1" stop-color="#d373f3"/></linearGradient></defs><path fill="url(#f)" d="M470 305h3862v1674c-150 57-300 120-347 151-61 39-136-13-182-25s-278-44-278-44-169-74-212-104-359-113-359-113-440 74-546 108c-105 35-166 5-166 5l-132-54-106 39s-604-98-719-110c-114-13-639 554-690 593-47 37-116 52-125 54z" transform="matrix(.4134 0 0 -.4134 -193 1025)"/></svg>