<svg xmlns="http://www.w3.org/2000/svg" xmlns:xlink="http://www.w3.org/1999/xlink" xml:space="preserve" viewBox="0 0 1600 898.8"><defs><linearGradient id="a"><stop offset="0" stop-color="#79ed87"/><stop offset=".4" stop-color="#0d4645"/><stop offset=".7" stop-color="#03363f"/><stop offset="1" stop-color="#03363f"/></linearGradient><linearGradient xlink:href="#a" id="b" x1="618.3" x2="618.3" y1="2736.8" y2="2063.6" gradientUnits="userSpaceOnUse"/></defs><path fill="url(#b)" d="m1205 2565-3-1 1 3h1l2 1-1-3m-1-2-2-1 1 1 2 1-1-1m0-11v-1c-1-2-2 1 0 1m2-3-2-1 2 1m0-79v-4l-1 1m-2-151v1l1-2h-4v1l2 1 1-1m1-3v-2h-4v1c2-1 3 0 4 1m0 79 2-1c-2-1-2 0-2 1m-53-46h-2v2l2-2m3 0 1-3 1-1-3 1 1 3m-1 5-1-2-1 1 2 1 2 1-2-1m2-4h-2l1 1 1-1m0 4 1 1v-1h-1m-30-50c1 0 2 0 1-1l-1 1m-1 4h-2l1 1h1v-1m0 17-2 1h3l-1-1m5-10v-2c2 2 2 2 5 1l-4-1h1c-3 0-5-1-7 1l4 1v-2l1 2m-13-2-1-1-1 1v1l2-1m2 15-2 2-1-2-1 1 1 1 4-1-1-1m-3-1 1 2 2-3-3 1m4-15c-1-2-2-2-3 0zm0 15 1 1v-3l-1 2m0-11v-1h-2v1h2m22-30v1-2 1m1-1c1-1 0-2-2-3l2 3m63 27-1-10-1-4 1-7c0-4 1-7 3-10-5-8-10-15-17-16-13-2-29 1-41-2h-1v3l-1-2-1 1-1 1 1-3-2 2 1-2-3 1-1-2-1-1v2h-2l-1-2h-2l-1 2v-3h-1l-2 3v-3l-3 3v1l-2-2-4 3v-2l-2 3 12 6-2-1h-2l-1 2 2 1h4c-1 2-3 2-6 2l1-1-6-1-4 1h4v1h1v-1l3 2v1l3 1 2-1 1 1v-1l1 1 1-1-2-1h-2c1-1 3-3 5-2l-1 1 2 2h1l4 1 2 1-2 1 1 1v-1l1 4 1-3-1 4-1 2 1 1 2-5v3l1-2v2l1 2v4h-1l1-3h-1v2l-1-3v2l-1-3-1 2c2 1 2 2 2 3l-4-3 1 1v1l-3-1-1-1-2 1-4-1-5-1-4 1-11 6v1l2 1-3 1 2 2 2 3 1 2c-2 0-4-1-5-3l-1-1-2-1 1 3 1 1h2l3 2 5-4 1-2 1 1c2 0 3-1 4-3v2l3-2v2l1-2 2 4 2-4 2 3 2-2-1 2 1 2v-4c2 1 1 3 1 4l1 1v-4l5 6h-2l-1-2v2l-2-1 1 1v1l-1-1c-3-1-6-2-10-1l-1 1v-1c-2 0-3 1-3 2v-1c-2 0-2 1-2 2l4-1-3 4-1 1 1-1h1c1-2 2-2 4-2l-1 1h4l3 1 1 2c1-2 3-1 5-2v1l-2 1c1 2 2 2 3 2v-1 3l1-1v-1c1 0 1 3 2 2v2-1l-2 1 3 2c-2 1-3 1-6-1h1l-2-1h-3l-1 1v-2l-1 3-2-2-1 3-1-2v-1l-1 1-1 3v-3h-1v4l-1-3-1 2v2l2 2-2-4 3 2 2 3-1-4 3 3v-2l3 4 1-3 1 3h4v6c-1-1 0-3-2-2v-1h-1l-1 1-3-2h-1l-4 2-2-1-1-1h-3v1h-3l1 1h-2l-2 1-8 5-2 1 2 1h1l2 1 1 1h1v1h1l2 1h3v1l2 1 4 1-2 1v1l-3-1h-6l-2 1 1 2-4-2 1 1h-3l-2 1-2 1h-1v1h1l5 1 5 2v-2l1 2 1-1v1l3-2v3l2-4-1 4 3 1-2-5c2 1 2 2 2 4h1c0 2 2 2 3 3l1-2c1 1-1 2 1 3 0-1 2-1 1-2v-4 1l1 3 2 4v2h-1l-1-5v2l1 4v-1 2h1l-1 2 1 2h2l1-1-1-1 5-2-3-2 4 1 1-1h5v-1l1 1 1-1 2 1 2 1 4-7h-4l2-2-2-1 3-1-1-1h-2l-1 1c-2 2-4 2-6 1 2-2 5-2 7-3h-3l-3-1h-2l2-3-1 1h-1c-2 1-4 2-6 1 2-3 5-2 8-2l-3-1-2-2 4 1 1 2-2-3v-4c2 1 3 2 3 4h3l-3-4 6 1-3-2h2c0-1 1-3-1-4l-1 3v-4h3l1-2h-1l3-1-2-2c2-1 3 0 3 1l1 2v-2h1l1-1 3 1c-1-1-2-3-1-4h-2l2-2 2-1-1-1-1 1h-2l2-1h1-1l-1-2h4l-2-2h3l1 1v-3c1-1 2-2 4-1 0-2-1-2-2-3l4 1h2c2 0 3 0 4 2l-2-3c2 0 4-1 5 1l2-3 1 2 1 1 1 1 1-4h1l1 1 1 2 2 1v-1l1 1-1 1h2l1-2v-2h-3c1-2 2-3 4-3l1-3h-1c0 2-1 2-3 3 0-2 1-3 2-3l2-1-4-2c1 0 3-1 4 1l1-2 1 4-1-2v3l1-1 2-1c0 2-2 3 0 5l1-1m1 64v-2l-1 1 1 1m1 4c-2 0-1 1-1 2l1-2m-222-145c0-2-1-2-2-2-1 2 1 2 3 3l-1-2 1 1h-1m-12-39-29 4-19 1-1 11v40l3-1-2 4v1l-1 2h2c3-6 6-13 10-18l-3 10 2-4v7l2 2c-1-2-2-3-1-5l2 3 1 3 1 2 3-5 1-3 5-7c3-4 6-8 10-10l1-1-2 3-5 8 1 2 2 1 1-1 1-1v-4l4 4 2-1v-1l-1-5 3 3 4-2-3 4-1 2h1l1-1 1 2 1 1v-1l-1-3 2 2 2-3v1l-1 2v2l1-3 2-1v-1 1l1 1v-3l3 2v-1h-2l1-1-2-1 2-1 2 1-2-3 3 3 3 1 3 3 1-1-4-5-1 2c0-2-2-2-3-3l-1-1 1-1h2c1-1 1-2-1-3v1l-2-1-1-1-4-1-1-1v-1h5l1-1 1 2 1-1 2 2 2 1 2 1h1l-2-2-1-3 3 3h2v-1c1 1 0 2 2 3h3v2l3 3h2v2l1-1v2l1-1-1-2h1l2 1h1l-2-2-1 1v-1l-2-2-2-6 2 2 1-2-2-4 1-4 2 2 2 1 1 1 2-1-1 1 1 1 1 2v2l-1-1v3l1-2 2-4v1l1 3 3 3 1 1 1 2v-3l-4-7v-2l1 1 4 5v-2c1 2 2 2 3 1l1-1-1-3h1l8 12v-2l2 2v-2l1 3v2l1-1-1-4-1-2-1 1v-6l2 1h1l-1 1 2-1h1c-2 2-1 3 0 4l1 3h2l2-2c-11-11-29-24-29-24zm-85 7v1c1 3 2 6 1 9l-2 13-4 10 2 2v-5l2 1 1 1c1-1 2-2 1-3v-3 3c2-2 4-1 5 0-1 1-3 2-4 1l1 1 2 3h1v4c0 2 1 2 2 3l1-2h2v1l2-2 1 3v1l2-2 1 3v-1h3l1-1v1l2 1-2 1v1h4v-1l1-17v-9l1-16 1-3h-13zm-46-1c-9-3-16 0-20 0h-35l-44-3h-9v2l1 4v7l1 4-1 2v11l1 5v15l-1 3-1 8-1 1v6l1 4 2 4 4 4h1l1-3c0-1-1-3 1-4l-2-1 4-1-1-1c1-1 2 0 4 1v-3l1-1v1c1 1 1 2 2 1l-1 2h2c1 1 0 2-1 3l3-1v3l-1 1 2 1v1-2c2 0 2 1 2 3h-1l3 2 1-1v1l1 1 2 1 1-2 2 2v-1l-1-1-2-1 2-3-2-2c3 0 4 1 5 3h1l-2-5-3 1 4-6c-3 2-6 4-10 3 1-2 4-3 6-3h3l2-2h-6l4-3c-2-1-3-3-3-5l4 2c0-4 3-4 5-6l-1 2c0 2-1 4-3 5l2-1c1-2 3-2 5-2l-1 1 3 2v-3l4 5v-2l2 5 1-2-2-3 4 2-1-2h1l1 1 1-3 3-2v4c0 2-1 2-2 3 3-1 4-3 4-7l1 1c0-2 1-2 2-2v-1l1-2h3l-1-3 3 3v3h-4c2 0 3 2 5 3h-4l1 1 1-1c2 1 2 1 3-1h-1l1-1c-1-1-2-3-1-5h1l1 2 1-2-2-1s2 0 2-2h-1l2-1v-1l-2 1-2-1 2-1 3-1 1-1 2-2-3 2 1-2h-2l3-2c-2 0-3-2-4-4 2 0 4 1 5 3l1 1h3l-2-2h3l-1-4 4 2 1-3 2 5v-1l1-3v-3h2l1-1 2-1 2-2v3l1 1h2l1-1h-3c2-2 4-3 6-2l-2 1-1 1 3 2h2l1 1c-1-3 1-5 3-6 0 2 0 5-2 6h2l3-2-1-2 2 1-1-2 2 1-1-4c1 1 2 2 3 0v2l4-2 5-3 7-3 3-3 4-7v-1l-1-4-9 1s-13 0-22-3m-128-3-9-1v8l1 3-1 1v7l1 4-1 3 2 4 4 12 1 4v1h1v-3 1l2 1-1 1h2l-2 2h2l1 2h-1 1v1-1c1 0 2 1 1 2 0 0 0-1 0 0l2 1 1 2v1h1l1-3 1 2h1l1 1-1-3 2 2h1l-1-1 2 1 1-4v-27l-1-5v-3l-1-8-1-7-13-1m-14 46-1-1-3 11h2l-1 1h1v-1l1-1 1-2v-7m-11 62-1-1v3l1-1v1-2m-2 13v1l2-1v1-1h-1v-2l-1 2m-1 2-1 2 1 1v-3m1 6 1-2v-2l-1 1h1c-2 1-2 2-1 3m0 22v3h2l-2-3m-1-1-3 1 1 2h-1 3v-2h-1l2-1h-1m3 53 2 2 1 1-1-2v-1l-1-2-1 2m2 4 1-1h1l-2 1m7 22h3l-2-3 3 1 3 2 1-1v-1l1 2 2 1 3-1 1-1-4-1h3l2 1c-2-1-3-2-3-4l3 2-1-3h1v-2l-1-1 1-4c0 2-2 3-3 3-1-1 0-2 2-3l1-1-4-1 1-4-1 1-1 2-1-2v-3l-3 2v-1l-1 1 2 1-3 1 1-1h-1l-1 1 2 2-3-1 1 2h-1v2h2l-3 1 1-1-2 1v3l2 1-2-1-1 2v-1l1 1-2 1 2 1-1 1 1 1h-1v2h-1 1m0 2v-1h-1l1 1m7 0-3-1 3 1m0 1v2-2m2 0v-1h-2l1 1h1m2 3h4l1-4h-2l3-2h-2l-4 2 2 3-2 1m2 2h1v-1h-1v1m2 12h2zm0 3 1-1h-2l1 1m0 8 2-1h-1l-1 1m2 1c1-1 0-1-1-1l1 1m1 3h2l-2-1v-1 2m2-38h-1l2-1-1-2h-1v3h1m2-26c-2 0-2 0-2 2l2-2m2-3-2 2c2 1 2 1 2-2m-1 113 3 2 1 1v-3h-1l-1-3v-1l-2 4m2 6c2 0 2 0 3-2h1c-2-1-3 0-4 2m1 6h2l1-2-3 2m1 13c2 0 2 0 2-2l-2 2m1 3 3 1-1-1v-1l-1 1-1-3v3m6-77h-2 2m-11-199 1 1 1-1v1-1l1-1-3 1m0-3h2v-1h-1v-1l1-1h-2l-1 3 1 1h1l-1-1m-7 2v1h1v-1l-2-1v1h1m-11 146-1-1-1-1-1 1 2 1h1m5-3v1h1l-1-1m2-2-1-1 1 2v-1m-1-11v-1h-1l2 2-3 1h3c1-1 1-1-1-2m4-2h-1l-1 2v2l2 1zm2 13c1 0 2 0 2-2l-2 2m3-7-1 3c0 1 0 2 2 2-2-2-1-3-1-5m1 1v-1h-1v1h1m2 0h-2l1 2zm1-6h-1l-1 1 2-1m1 105c0 2 0 2 2 1l-2-1m2-22h1-1m1-3-2 2 1-1v1l1-2m-4-180h1v-2h-1l1 1h-2l1 1m-19-36h1l-1 2 2-1v-1h2l-4-4v4m3 148h-1l1 1v-1m1-14v1h1l-1-1m12 0-1 1 1-1m0 3h-1l1 1 1-1h-1m7-103 1-1-1-1v2m-1-1v1-1m0 89-2 1v1h1l1-2m-10 14 1 1v-1h-1m-2-1 1-2-1 2m1-2 2-2v2l1-2h-2v-2l-2 2 1 2m-6 10h-1 1m21-124-1-2v-1 1l-1 2v-1 1h-1v-1 1l-1-1 2-1-1-1v-1h-2v2h1v1h-1v-1h-1 1l-1-1h-2l1 2h-1l2 1v-2 1h2-1v2l-3 1 1 1 2 1v1l1-1v-1l1 2h1v1l-1 1 3 1h-1v2h1l-1 1-2 1v1l1-1h1l1-2v-10m-2 237v1h1v-2l-1 1m0-143-1 2-1-2v2h2v-2m-11 62h2zm-2 8c0 1 0 2 1 1l-1-1m2-1h-1c2 1 2 0 3-1l-2-3-1 3 1 1m-2-34 1 3-1-3m2-7-1-4v2l-1 1h1l-2 3 3-2m-12 13v-1 1m6-163v-4l-5-13v4l-1 1-1 6v1l-1 4 1 2 1 3 3 3 1-1 1-1h-1l1-3h-1l2-1v-1m16 13-2 3 2-2v-1m1 1-1 1-1 1v1h1l-1 1-2 1h3v2l1 2v1h1v-9h-1v-1m4 216v3h1l1 1 1-1v-1l-2-2v-1h-1v1m4-11-1-1h-1v2l2-1m2 65 2 1-1-3-1 2m3-10h2c-1 0-2 0-3-2l-1 2h2m0 2 2-1h-3l1 1m4-4c-1-2-2-2-4-1l4 1m1-10-2 1 2-1m3-4h-1l-2 1 1 1 2-2m0-1-1-2 1 2m-4-1h1v-1l-2 1-3 1 4 1-2 1 1 1v-1l4-1-3-2m-1-21 1-1h-1v1m0-7 1 2 1-3-2 1m2-13v1l2 1-1-2h-1m3 0 1-1v-1h-1v1l-1 1h1m2-18-1 1c1 1 1 0 1-1m0 4h1v-1l-1 1m3-57v1l1-2-2 1zm5 32c-2-2-2-3-2-5 0 1-2 1-2 3l4 2m0-15 1-2-2 1 1 1m1 12 1-1-1-1h-1l1 2m2 2c-2-1-2-1-2 1l2-1m1-10 1 2 2-2v3l3-4-2-1-4-4-2 4 3-1-2 2 2-1-1 1v1m3 11-2-1v2l2-1m-2-3 2-1-2 1m2-1 1-1-1-1h-1l1 1v1m4-10-1-1-1 2 2-1m-2-3 1 2 1-1-2-1m6 4-2-1 2-2-2 1-2 1 4 1m-1-20 2 1h-1l-1 1 2-2h-2m3 12h2l-2-4-1 1 1 3m4-4c0-2-2-2-2-2-1 1 0 1 2 2m0-6h1v-3l-1 3m4-10-1-2c2 1 3 2 5 1-2-1-4 0-6-2v2l2 1m1 16-1-3-1 3h2m1-15h-2v2l2-2m0 6 1-2-3-1c0 2 1 2 2 3m2 26-1-2h-2l3 2m-2 8h2l1-1-1 1v-2l-2 2m-3 0 1 2-1-2m-2 3 2 1h1v-1h-3m9-32 1-1h-3l2 1m2 26 2-1-3-2 1 3m1 7-1 1c1 1 1 1 1-1m3-10h1-1m0 9h2v-1l-2 1m2-12h-3 3m1 9 1-2-1-1-1 2 1 1m5 7-2-2h-3l5 2m-4 16 2-1v-1l-3 1 1 1m3-5 1 1-1-3h-1l1 2m3 25-1-1-3 1h4m-4-31 2-3-3 1h1v2m5-5 1-1h-2l-1-1h-2l3 3 1-1m2 33-2-1c1 2 1 2 2 1m-1 5 3-1v-1l-3 1zm0-7 2 1v-1h-2m4-34h1l-2-2h-1l-2 2h4m1-6v-2l-1-1-1-2-1-1 1 3-1-1-3 4h2c2-1 3 0 4 1l-2 1 2-1v-1m1-5v-1l-4-2h-1l5 3m1 50 1-2-2 1 1 1m1 17 2-1h-3l1 1m0 1 2-1h-1zm3 9 1 1v-6l-3 2 2 3m1 7 2 2 2-1v1l2-1-3-1-2 1v-3l-1 2m3 8v-2l-1 2h1m5-9 1-2v2h1l-1-2-1-1v1l-2-1c-1 2-1 2 1 4l-1-2 2 1m3-6v-1l-2 1v-1l2 1m2-18c-1-1-3 0-5-2v2h5m2 26h-3 3m-4 15-1 2 3-1v-1h-2m-3 6 2-1h2l1-3c-1 1-2 2-3 1l-2 3m0 3 2 2h1l-3-2m-2 9 1 1 1-2-2 1m-2-6h1l1-1-2 1m-1 3v1h1v-1h-1m7 5v-1l-2 1h2m3-8h-3v1h1l2-1m4 0 1-1c-1 0-2-1-2-4 1 1 3 2 3 4v-2l-1-1c-1 0-2-1-2-3l3 1-3-6v3c0 2-1 3-3 4h-1v-1l-3 1c2 1 4 3 7 2l-2 2-1 1h4m3-5-2-1 1 2 1-1m2-23h-2v2l2-2m-1 21 2-2v-1l-1-3-1-1v7m6-3-3-3-1 1 4 2m-2 4 1 1-1-2v1m2 1 1-4-2 1v3h1m2-5c-1 0-1-2-2-1 0 1 0 2 2 1m1-6 3 1h3-3v5l2 1-1-5 1 1v-1l2 2 1-6v1l2-3 1-1 1-4v-1l-1-2c2 0 3 2 4 4l1-2c-2-2-3-2-3-4l4 2v-1l1-4 1 3 3-5 1 3v-4h1l2 4 1-2 1-2 1-1-3-1v1l-2-1-1 1c1-2 0-2-1-3v4l-2-3 1 3-4-3-3 5-2-2-1 3v1l-1-2v-1l-1-1 1 4-3-3-1 4-1-2v2h1v1l-4 1 2 4-3-2h-1v7l-2-4v-4h-1l-1 3v2l-1-1v2h-1l1 1h4l-1 1 2 4m9 1 2-2-1-1c0 1-2 2-1 3m6-9-2-1-1 3 3-2m-2 5 2-2c-1 0-2 0-2 2zm12-9c0-2-2-1-2-2l1-1-1-1-1 3 3 1m5-4 1-1v-1l-2-1 1 3m9 33 1 1 1-1zm-1 4c-4 0-6 1-9 3l-1 1 3 2 2 2-2-2h4v-1l3-2v-1c3-1 6 1 9 2l-1-1c2-1 3 1 4-1-1-2-2 0-4-1l1-1h-9m6 7-2-2v1c1 0 1 2 2 1m2 18 3 1v-1h-3m-3 11 3-1-2 4h2l1-4h-1l1-1-1-1v1h-2l-1 2m6 5-1-1c2-1 2-1 1-2l-2 2c1 2 1 2 2 1m2-7c0-1-1-2-2-1l2 1m2-14h-2 2m1-15 1-1-1-1-1 2h1m3-2v-1l-2-2c0 2 1 2 2 3m0 2h4l-2-2-2 2m6 76-2 2 1 1 1-3 1 1v-1h-1m-2-11-1 1 1-1m-3 9h2l-1-1-1 1m-1-10v5h1l-1-1h1l-1-4m-1 18 1 2h1v-1zm4-4v-1l-2-2-1 2 3 1m1-4h-1v2l1-2m0 23h1l-1-2v2m-1 5v2l2 2h1l2-1-2-4v2l-1-2h-1l-1 1m1 31 1 2 3 3 1 1-1-3-4-3m-1-1v1c-1-1-1-2-3-2 1 2 3 3 4 1h-1m-6-9c2 0 2 2 3 2 0-3-1-3-3-2m0-6v3l3-1c0-1-1-2-3-2m13 61h1c0-2 0-3-2-3-1 1 0 3 1 3m3-2v-4l1 3v-4h-1l-1 3-1-1v2l2 1m2 3v-3l-1 2 1 1m1-43 1-2 1-2-2 1-1 1 1 2m1 22 2 3 1-1h-1v-3l-2-2v3m4 9v-3 3m1 8c1-1 1-1-1-2l1 2m-1-13 1-1-1-1v4l1-2h-1m2-4h-1v2l1-2m2 5v-3l-2 4 2-1m-5-14c-1 1-2 0-1 1l2 3-1-4m-1-13-1 1 1 2zm3-8c1-1 2-2 1-3l-4 3v3l3-3m3-2-1-3-1 2 2 1m1-22h1v-6l-2 5v-1l-3 2c1 2 2 2 2 1 2 1 3 0 2-1m1-21v-1c2 0 1-2 2-3l1 1-1-2c-1 1-2 1-2 3h-1c0-3 0-2-2 0l3 2m3-91h2l-2-1v1m4 16h-3 3m1 54v-1h1l-1-2v2l-1-1 1 2m1-33 2-1-2-1-1-1 1 1 1 1-1 1m2 46 1-3h-1v-1 3l-1-1v-1c-1 2 0 2 1 3m4-8-3-4v2l3 2m-5-8v4h1l1-2-1-1-1-1m3-21h-2 2m0 12 1-1-1 1m4-8 1-2-3 1 2 1m2 2h-1l2-3c-2 0-2 1-3 2 0 0 0 2 2 1m-6-4h2-2m0-13 1-3v-2h-2l-1 1 2 4m-4-14h1l1-1-2 1m6-23-2-2v2l-6-1 1 1h4l-1 1 4-1m1 3-3 2c2 1 2-1 3-2m2-6-3 1 1 2 2-3m0-3h-1l1 1v-1m8-64h1l1-1h-1l-1 1m2 31 1-3c-2 0-1 1-2 2l1 1m4-113 1-2h-3l2 2m0 33 2-1-2 1m1 45 1-3v-1l-1 1v3m7-47c3-2 7-2 11-2l6 2 5 4 1-1-1-2 1-1c1-3 3-4 5-5h-2l-4 1-2-2h-2l-3-1-1 2v-2l-1-1v4l-1-1v1h-1l-1-2-4 1-2 1h-1l-2 1-2 1-3 1-2 1c2 0 4 2 6 0m-3 63h2c2 0 2 0 2-2l-1 1v1l-5-2 2 2m1 11-1-1v4l1-3m12-8 1-2h-3l-3-2-3 1 8 3m-3 3 1-1-2-1 1 2m-3-23h-2l-1 3h1l1-3h1m1 6 2-4c-1 0-1-2-3-1v3l1 2m-4-6c2-1 2-2 1-2l-1 2m-1 1v-2 2m0-4-2 3h1l1-3m-5 2 1 2-1-2m13-18 2-2v4h1l5-1v2l2-1v4c1 0 3 2 4 0l1 2 2 3 2-1v2l1-2v-2l1 2h1l-1-2-1-1-3-1-1 1v-4l-12-7-10-7h-2l-2 2 1 3-3-1 4 2v2l3 2 3-2 1 1-2 3c1 0 2 1 3-1m6 24c2-1 1-2 0-3v3m4 2v1-1m12-8-1-2-2 4v-2 3l3-3m0 16h1l-1-1v1m5 0v-1h-1l1 1m2 4v-2l-1 1 1 1m5 4v-1l-1-1 1 2m1-7v-1l6-3v-1h-5v-1l-2 3v-3c-2 1-2 1-2 4l-1-2h-1l2 3 1 2v1h1l1-2m6-18-1-1v3l1-1v-1m2-14h-2v1l2-1m-1-203v2-2m-2-3v1l1 1h1l-2-4v2m-4 13 2 4v-1l-2-3m1-3-1-3-1 1 2 2m-8-1c1-1 2-2 1-3l-1 3m-41 12 1-1-1-1h-1l1 2m-4-4h1-1m-6 8v3c1-1 2 0 3-2l-3-1m-4 1 1-2h-1l-1 2h1m-4-5 1-3c-2 1-2 1-1 3m-18 13 1-4 3 2-2-6c-2 2-3 5-2 8m-2 7h1v-2l1 1c0-3 0-5-2-7l-1 3 1 5m-3 2-1-1 1 1m-15-21h-1 1m-1 2v1-1m-24-14 1 2v-5l-1 2v1m-2 4 1 1 2-2c-1-1-2 1-3 1m2-2-2-2 2 2m-4 0 4 1v-1l-4-1v1m-27-11 2 2h1l2-1v3l1 2 5-4h1l4-2c2-2 4-4 4-6l1-6-2-5-3 5-5 5-12 4-2 1 3 2m-4-1 1-1-1 2v-1m-1 9 1-1 1 2 1-1-1-1v-1 3l-2-2v1m0 9-1-3 3 2 1-1-1-2h-1l-3-2v4l2 2m-7-9c0-1 0-3-2-3l2 3m-3-2 1 1c0-2-1-3-2-3l1 2m-7-2 1 1h1l-2-3v2m-3 4h-1 1m-6 16 2-1 1-1-3-1 3-1 2 1-2-3 3 3v-3h-1l-1-1-3-1-2 2v3l-2-1-1 1 4 3m-5-1 1 1v1l1-1-1-1-1-1v1m-1-4v-3h-1v3h1m-7 5 1-1-1 1m-1 6 1-2h-2l1 2m-2 14-1 1 2-1c1-2 2-2 4-2l1-1 4-4-5-2 2 2-3 1h-1l-2 5-1 1m-1-15 1 3 1-2-2-1m-1-3c2 0 3-1 2-2l-2 2m2-7v-2l-2 1 2 1m-2 2h2l-2-2v2m-1 17 2-2 1-2-3 4m-4 20 2-2-2 2m-2-19h2l-1-1-1 1m-1 9-2 1 5 1-3-2m-3-7-1 1h1l4-2h-1l-3 1m2-10h1v-1h-2v1h1m-9 45h1l-2-2 1 2m0 7v-2 2m3-39-3-1v2h3v-1m0 23-2 2 3 3v-3h-1v-2m-8 23-2-3v1l1 1v4l3 1h2c0-1 0-2-2-3l-2-1m2-23v-1l-1 1-1 1v1l2-2m-3 19 2 1-1-2-1 1m-2-3v1l3-3-3 2m0-2h1-1m0-33v-1h-1l1 1m-1 2 1-1c-1-1-1 0-1 1m-1 16v1h1l-1-1m-5-31 3 2 2 2-1-3h-1l-3-2h-1l1 1m-4 1h2l-1-1h-1v1m-1-3-3-2 1 3 2-1m-14 29v-1l-2-1 2 2m-3-1v-1zm-6 19v-1l-1 1h1m8 92c2 0 2 0 2-2l-2 2m6 0v1l1-1h-1m10-3-2 1h-2v1l2 3h2v-2h-2c1-1 3-2 2-3m0-3v1h1l-1-1m7-20 1 2 2 2v-1l-3-3m3-21 1 1h1l-1-2-1 1m1-1v-3l-1 1h-1l2 2m0-20h2-2m-5-4v2h1l-1-1v-1m1-1h-2 2m0-60-2-1v1h2m0 5-3-1 2 1h1m-14 14v1-1m-2-2v2l1-1 1-1h-2m-2 5v-1 1m-5 4v-1 1m2 91-1-1v2l1-1m6 12v1-1m4-7v-2h-1l-1 2h2m1-8h1v-2h-1v2m-3-1h2-2m3-10c-1 1-2 2-4 1l1-1-1 2v2h1c0-2 2-3 3-4m2-4-1-1v1h1m-1-1 1 1h1l-2-1m6-8-1-1-1-1h-1v2h1l1 1-3 1 1 3 2-3h2l-1-2m-1-23h2-2m-3-4h-1 2-1m0-29h1v-1h-1zm-9-11h-1 1m-1 12v-1h-1v1h1m-2 59h1v-1l-1-1v-1 3m-2 20h2v-1l-2 1m2 7 2 1-2-1m3-4v-1h-1v1h1m1 8h-1v1l1-1m1-4 1 1-1-2v1m-2-4 1-1 2-1h1-1l-3 2m-1-3 1-1v-1l-1 2m2-7 1 1c-1 0-2-1-3 1h4l-1-2h-1m1-6h-1l1 1v-1m5-3h1-1m0-2v1-1m0-2-1-1 1 1m5-13-1 2v1h1l1-2-1-1m-2-29v1h1l-1-1m-10-18h1-2 1m-2 13v1h1v-1h-1m0 17h-1 1m2 12-2 1h1l1-1m-1 23 1-1h-1v1m9-7h-1 1m-1-26-1 2 2-1-1-1m0-1 1 1v-1h-1m-7-27h1-1m1 10v-1 1m-3 15h-1 1m4 8 1-1h1v1l1-1-2-2h1-1l-2 1 1 2m-2 3v1-1m1 4v-1l-1 1h1m3 13h-1v1l1-1m1 0v-1l-1 1h1m2-10h-1 1m1-9v1l1-1-1-1v1m1 8h-1 1m-3 9h-1l1 1v-1m-3-17c-2 1-2 1-1 2l1-2m0-21h-1 1m-2-5h1l-1 1h1v-1l1-1-2 1m0-1v1l1-2-1 1m7 25-2 2h-1l-2 2v1l2 1v-1l2-5 1 1v-1m-9 24 1-1h-1v1m-3-52-1-1 1 2v-1m14 38 2 1v-2l-2 1m-13-12h1v1-2l-1 1m14 29-1-2s-1 2 1 2m-7 5 1-1h-2v1h1m2 16h-1 1m-12-7v1h1l-1 1h2l2-3h-3l1 1h-2m20-82-2-1v-1l2 2m1 0-1 1h-1l1 2 1-2v-1m-3 57-1 1 1 1 3-1-3-1m3-1-1 1 2 1-1-2m3-1-1-1-1 4 2 1v-4m-9 31v-1h-1v1h1m-1 9v1-1m-2 4c1 0 2-1 1-2l-1-2-1 1 2 1-1 2m-11-105v-1 1m-1-2h1-1m3-3 1 1v-1h-1m22 11-2 2c2 0 2 0 2-2m-2 19v-1h-3v1h4c1 1 2 0 2-2v-1l-3 3m5 6-1 1-1-6-1 1v2c-1 1-1 2-3 2l-1 2v2l-2-3-1-1v1h-1v2h1l-1 1h-2l4 1-2 2v1l1 1h-1l-1 1h5c-2-1-2-3-2-5l1 1h2v-1c2 0 2-1 2-2v-2c1 1 3 2 2 4h1l1-2v-3m1 24h-1v-3l-3 1h-2l1 2-1 1-3-2c0 2 2 2 3 4h-2l-1 1-1 1h1v-2l2 2h1l-1-1h3l2-1c2 0 2 0 2-2l2 1-3-1 1-1m2 5v2-2m2 26h-2l-1-1h2l1-4v-1l1-4-1 1-1 1-1 2h-1v1l-3-3-2 6 5 2h3m-1 6v-5l-1 2-1 2 2 1m10 1-1-4-1-3h-1l1 2h-1c0 2 2 5 3 5m0 24v1h1l-1-1m2-75-2-3 1 3h1m2 90 3-3-1-1h-1l-1-1-1 6 1-1m0 1h4-4m3-6v2l2-1-2-1m1-5-1 4 3-3-2-1m3-8c0 1 0 3-2 4h1l2-3-1-1m2 4h2v-2l-2 2m4 12-1 3c2-2 2-2 1-3m2 5c0-2-1-1-1-1h-1l2 1m-1 31v2h2l-2-2m3-2-2-1 2 1m0 27h1l-1-1v1m0-14h1l-1-2v2m-1-40 2 2c0-2-1-2-2-2m3 58 1 1-1-1m3-3-4 1 1 2 3-2v-1m0-21c-1 2-1 2 1 3l-1-3m11-23c1-2 0-3-1-2l1 2m2 50-2-2v2h2m1 13-2 1 1 1h1v-2m0-9v3l2-1-2-2m3-2-1-1-1 1h2m0 7 2-2h-1l-1 1v1m2 4v1h1l-1-1m19-29v1l-2 1-2 1h-2l1 1 4-1 4-1v-1l-3-1m3 8c2 0 2-3 3-4h-2l-1 4m5-6v-2l-2 1-1 1h3m2 0h-1 1m2 1v-2h-1l1 2m3 0-1-1h-1v1h2m38 165 1 3v1-2l-1-3h-1l1 1m2 13v-1l-2-2v2l2 1m1 25v-2l-1-2-1-1v1l2 4m1 14c0-2-1-2-2-2l1 2h1m0 6h-1l-1-2v3l2 2v-3m6-66v1h-1v1l1-2m6-2c-1-1-1 0-2 1v-3l-2 2v-3l-2 4 2 1h1l3-2m-2-8v3h1v2h1l-2-5m5-14-1 1v2l1-2v-1m-1-84 1 1 2-3-3 2m-76-289 1 2 3-3v-2l-4 3m-1 6 1-1-1-3h-1l1 4m-21 8v-1 1m-15 25 2-1 1-1h-1l-1 1h-1v1m-1-5-2 1c1 1 2 0 2-1m-3 14v-1 1m-3 5 2 3c1-1 3-1 2-2l-2-1h-2m-2-11-1 1c1 1 3 0 4-1h-3m2-5-3 2c2 0 2 0 3-2m-4-4v-1h-1l1 1m-1 5v1h1v-1l-1-2-1-1 1 3m1 17 1 1v-1h-1m0-4v-2 2m-2-4 1 2c1-1 0-2-1-2m2-4-1 2 1-2m3 5h-1 1m-11 40v-2l-1 1 1 1m1 6-1-2-1 1 2 1m0 31-1-1v2l1-1m0 3 1-2c-1 0-2 1-1 2m2 42-2 1v1l2-1v-1m3-3h-4l2 2 1-1 1 2v-3m1-17 1 1-1-1m6 24c2 0 3 2 5 1 0-2-2-2-5-1m8 1v-1l-1-1 1 1c-2 0-3-2-4-1l4 2m0 7 3-2h-2l-2 2h1m6-8-1-2-1 2h2m9 19-3-1 3 1m1 54-1 1v1h-2l3 3 1-3-1-2m1-7-2-2v2c0 1 1 2 2 1v-1m1-43h1l1-1-1-3h-1v4m1 33 1-1-1-1v-1h-1l1 3m3 28v-1h-1l1 1m3-13v2l-2-1h-1l2 2c2-2 2-2 1-3m3 8h-1v1l1-1m4-11v2l1 1v-1h1l1 3v-3l-2-1-1-1m17-240v-1l-1 1h1m-14 11v-2h-1v2h1m-10 49-1 1h3l-2-1m-5-8v-1l-2 2 2-1m-3-38-1 1 2 1-1-2m-6 10v-1h-1v1l1 1v-1m-12 15 1-2-2 1 1 2v-1m-4 20v-2l1 1h2v-2h1l1-4-1 1-4 2v1l-3 3h3m-8 29 2-1-2 1m-1-24 2-1 1-2-4 2 1 1m-1 58 1 1 1-2h-1v1l-1-1v1m-2 42h2-2m6-35-3-1c0 2 2 3 3 4l-1-2 1-1m-4 6c1 0 2 0 1-1l-1 1m7-19-2 3 2-3m2 22 1-2h-1v2m2 29v1c-2 1-1 2-2 3 2-1 3-3 2-4m3 3h-3v1l3-1m1-33h-2v1l2-1m9 25h-3l1 2 2-2m4 16 1-1h-1v1m3 11 1-1v-2l-3 2 2 1m-1 3v-1l-1 1h1m-1 2v-2l-1 1 1 1m1 40-1 1h2l-1-1m1-34-2 1h2v-1m6 26h-1v1l1-1m1 6h-2v1l2-1m2-4-2 3h1l1-3m1 1v-1h-1v1h1m7 5h-2v-1h-1v1h3m3-2-3-1 1 1h2m12-60v2-2m-6-168h1v-2l-1 2m-33 21v1-1m-2 0h1-2 1m-1 11h1l-1-1v1m-11 51-1 1v1l1-1v-1m0-2c0 1-1 2 1 2h1c0-2-1-1-2-2m8 2 1-2-2-1 1 3m-7 43v-1 1m1 4v1zm9 16-1-1 1-2v-1l-3-1-1 4 4 1m5 9-1-1-2-1v-1l-3 2 1-2-3 2 5 1h3m5 0-1-1h-1l1 2v-1l1 1v-1m22 71h-1 1m3-2h-1v1l1-1m3-221h1v-1l-1 1m-6 5h1v-1l-2 1h1m-9 71 4 3h2l-6-4v1m-5 1 1-1-1-1v2m-12-24h-2l2 2v-2m-4-3h3l-1-1v1h-2m3 22v1h2v-2l-1-1-1 2m-14 49v1l1-1 1-1h-2l-1 1h1m10 5h-2 2m-1 1-1 3 1-3m4 15v2l1-1-1-1m1-6-1-3 4 2 3-1v-3l-3 3c-1-3 1-5 4-7l-3-2h4l-2-3 1 2-2-1-2 3h-4c2 3-1 6-2 8l-1-1-1 1-1 1 2 3 4-2m3 9-2 1h1v1l1-2m-1-7-1 2h3l-2-2m9 30-1-2 1 2m18 52-1-1 1 1m1-4-2 1 1 2 1-2v-1m-16-133 3 3 1 1-4-6-1 2h1m-4-4 1-1h1v-1h-2v2m-8-3v-2l-1 1 1 1m-4 0h2l-1-1-1 1m-3 0 1-2c-1 0-2 1-1 2m-7 22v-1h-1l1 1m2 18 1 1 3 1-2-2h1l-2-4-2 1-2 3h3m5 8-1 1 1 1 1-1-1-1m1-1-1 1 1 1v-2m14 1-1-1v1h1m-3 5 2-1c-1-1-2 0-2 1m0 3 1-1 2-1-2 1h-2l1 1m-1 5v-2 2m0-2-2 2 2-2m-1 7 1 1 1-2-2 1m6 2h-2v3l2-3m4 23h1l-1-1v1m-7-84h2-2m-2-8h-3 3m-2 2v-1c-1-1-2-1-3 1h3m-5 5h3l-2 2h1l2-3v1-2h-6l2 2m7 33-1-1h-1v1h2m2 20 2 3 1-1v-2l-4-2c-1 1 0 2 1 2m5 5v2l1-2h-1m-1 3v-1l-1-1 1 2m1 8h-1 1m3 15 4-2v-1h-1l-1 2-1-1 1 1h-2v1m-12-56h1-1m3-23 1 1v-2 1h-1m1 26v1h1l-1-2 2 1 1-1-1-1v1l-2-2h-3v1l3 2m6 29 1-1v-1l-2 1 1 1m0 0-3 3 3-3m-2 7v1h1l-1-1m14 14v-1 1m3-74v1l2-1h-2m4 76h-2 2m-3-21c-2 0-3 1-3 2l3-2h1-1m-12 25h-2 1l1 1 1-2-1 1m-1-19 1-1 1-1v1l1-2v2h2l1-3v-4l-2 1-1 1-3 3h-1l1-3-3 3 3 3m-3 0h1l-1-1v-2 3m-18-33 1-1h-2l1 1m12-44c-1 0-2 0-1 2l1-1v-1m0 9v-2l-2 3 1-1h1m-19 16v1-1m22 68v-1 1h1v-2l-1 2m-9-41v-1l-1-1 1 2m-3-69v2h1v-1 1h1v-2h-2m-1-1v-1l-2 1 1 1 1-1m-3-3-1 1 3 1-2-2m21 25v1l2 4 1 3 1-1 1-1 1 1v-2l-6-5m-11 73 1-1v-5h-1v6m-7-1v-5 5m-4-2c1 1 1 1 2-1l1-1 1-1h-1l-3 2 1 1h-1m-3-21h1-1m1-83h2v-1l-1-1-1 1v1m17 10 1 1v-1h-1m3 1v1-1m25 111 1 1v-1h-1m-15 58 2 1v-1h1-3v-2h-1v3l1-1m-3 10-1 1h1v-1m-10-57 1-1-1-1-1 2v-2c-2 0-1 1-2 2h3m-34-84 1 2-1-2m2-32-1-1h-1v1h2m-1 16h-1v1l2-1h-1m13 10-1-1-1 1 1 1 1-1m50-91-1 1 1 1 1-1-1-1m-23 241v2l3 1v1h1l1-1c-1-1-3-3-3-5h-1v-1l1-1-2-1h-1c2 2 2 3 1 5m3 8-1-3v1h-2l3 2m-30-86h3l-1 2v2l3-1-1-2 1 1 2-1-1-3c0 2-1 3-3 4l1-6h-3l1 1-3 2 2 1h-1m-8-45-1 1 1-4-1 2-1 1h-1l-1 2-1 1 1 2-2-1v3c2-1 3-2 5 0 0-3 2-4 1-7m-10-20h2l-1-1-1 1m0-35 1-2-1 1v1m0 25v-1l-1 1h1m-1 72v2l1-1v-1h-1m0 0 1-1h-1v1m10-74h-2l2 1-2 1v3l2-3v2l5 1c2 0 4-1 5-3v-1l-2-2c1 1 2 3 0 4v-3c-2 0-2 2-3 3l-2 1c0-2-2-3-3-4m1-30-2 1 1 1 1-2m-1 25-1 2v2c2-1 1-3 2-5l-1 1m11-48-2 2 1 1 1-1v1h1l-1-3m15 20-2-2v2h2m17-61 1 1 1-1h-2m-1 0h1l-1-1v1m35 11v1-1l1 2 1 1-1-3-1-2v2m44 285v-1h-4v1zm-73-50-2 1-1 1 1 2 2-4m2 4v-4l-2 4h2m-31-62-1 3h1l3-2-1-1h-2m-11 4v-2l-1-1 1 3m0 51 2 2-2-2m2-44-1-2v-2l-2 2 3 2m-5-11c2 0 3 0 4 2h-1 2l2-2v-2l-1 2h-1l-1 1 1-2h-8v1h3m-1 1h1l-3-1c1 1 1 2 2 1m1 12h2l-1-1-2 1h1m-2 1 1 1 1-1h-2m-15-137v1l-3 3h3c0-1 1-2 3-2l-2-2h-1m-9 25 1-2h-1v2m0 4h-3 3m3 48-4 1 1 1 4-2h-1m-1-39v-2l-1 1 1 1m1 1h2-2m1-20h1l-1-2v2m2-3-1-4v-1l-2 3h1c0 1 0 2 2 2m2-23-1-1 1 1m-1 3c-2 1-2 2-1 3l-1 3 3-1c-1-1-2-3-1-5m-1 46-2-2v1h-1l1 2-3 1h2l2-1-1-1h2m-8 35v-1c2-1 3-2 5-1v-1l-3-1-2 2v2m3-51h1v-1l1-1 1-2-1-1-1 1 1 1-2 3m3-44c1 2 1 2 2 1l-2-1m4-6h-3 3m-5 6h1l2-3-1-1-2 4m4 3-2-1 1 2-2-1 2 2c-2 1-1 2-1 3-1 0-1-2-2-1l2 2 4-5-3 1 1-2m4 11c0 2 2 1 2 2-2 1-1 3-1 4l3-1h4l-1-1 3-3-1-2v1c-2 1-3 2-6 1l1 1-4-2m12-37h1l-1-2h-2l2 2m0 2v-1h-1l1 1m-2 1h1-1m3 4v1h3v-2l-3 1m-1-5 1 2-1-2m19-10v1-1m-3-3v-1 1m36-8 2 1h-2l1 1 2-1-1-1h1v-1l-3 1m7-2v-2l-2 2 1 2 1-1v-1m13 9h-1l1 1v-1m80 124h2-2m19 19 1-2 1 2 1-1v1l2-2h1l1-1-1 2 1 1v-1l1-1v-1h1v-1h1l-1-1-6 3 1-1 4-4 1-1-1-1h-3l-3 3v-3l-1 3h-1l-3 2 1-3v1l-1 2-1 2 4 2m-2 11h-1 1m0-1 1 1-1-1m15-4v-1h-1v1h1m2 1v1h-1v-1l-1-1v1l-1 1h3v-1m-2 10h4l3-1h-3l1-1-2-1-4 2v1h1m-15 4 5 1 3 1-1-3h-8l1 1m5 3c-1 0-2 0-2 2l2-2m4 2-1 1 1 1 1-2 1-2h-2v2m-2 2v-4l-2 4h2m2 5h-1 1m0-1h1-1m-1-3-1 1v1h2l-1-2m2 2 1 1v-3l-1 2m1-7 1 3-1-3 1 1-1-1m2 4-1 1 1 1h1l-1-2m7 4h-1l-2 1h2l1-1m2 16 3-1-2-1-3 2h-3l1 1 4-1m0 2h-2v3l2-3m2 3v-3l-2 3h2m11-7-4 1 4 1c2 0 3 0 3-2h-3m4-10h-2 2m-46-40v-1l-1 2 1-1m19-4h1l-2-1 1 1m3 3c0-1 0-2-1-1h-2c0-1 0 0 0 0 1 1 2 2 3 1m-4 7 1-1-1-2v3m6 1-1-1v2h1v-1m10 8 2-1h-1v-1l-3-2v3h-1l-2-6v3l1 4h4m-4 21-3 1 2 2 1 3v-6m3 2-1-1-1-1 1 3 1-1m7-4h-1l1 3v-3m-32-47v1h1l-1-1m5-1v-1l-2 1h2m9 7h-1 1m8 2-1-2v1l-1-1-1-1-1 2 4 1m-7-6v2-2m2 3-1 2 1-2m7 1c-1 2-1 2 1 3l1-2-2-1m5 4v-2l1 1v-1l-2 1 1 1m0 38v-2l-1 1 1 1m1 0-1 2 1-2m-42-89h1l1-1-1-1h-1l1 1h-2l1 1m9 39v1-1m-1-2-3 1 2 1 2-2v-1l-1 1m3-17-1-1v1l1 1v-1m3 5h4l-1-1-3 2-1-2 1 1m-11-26v-2h-2l2 2m14 22-3 1v2l3-3m7 0h1l-1-1-2 1 1 1 1-1m3 0v-2l2 1 3-1v-1h-3v2l-1-2h-1l-1 1 1 2m-22-23-1-1v2l1-1m12 6h-2 2m10 2-3 1h1l2-1m5-17 2 1 1-2-4-2h-2l1-1h4l-1-2 3 1-3-3-1 1-4 4c2 0 3 2 4 3m-7 1 1 1v-1 1h1l-1-2-1 1m0 0c-2-2-2-2-3 0zm-3 3h2-2m-12-6 1 1v-1h2l2 2-2-3v-1l4 2-2-3v1l-5 2m2 3v1l2-1h-2m-1 1h-2l1 1 1-1m6 0h-2 2m1-6h-1l1 2v-2m8 20h-1l-1 1h1l1-1m-2-4h2v-1h-1l-1 1m13-9 1-1-1-1v2m-31 13 2-1 2-2 1-1-2-2v1l-1-2h-2l-1 1 1 2-3 3c1 1 1 2 3 1m24-26c-1 3-3 4-5 4l3-4h-1l-4 1-2 1 1 1 4 3 4-3 2-2-2-1m-10 45v-2l-1-2-1 3 2 1m-14 23 1-1h-1v1m-6-40h2l-2-1v1m39 73h1l1 1v-1h-2m-3 2v-1h-2l2 1m2 7-3-1v1l3 2v-2m0-2v2h2l-2-2m-4-16h2l-1 1 3-1h-4m6 0c-1-1-1 1-2 1l2 1-1-1 1-1m-9-7v-2h-1l1 2m-8-18 1-1v-1h-1v2m-4-14 2 4v-3l3 3v-1h1l1-2v2l5-2 6-1-1-1h-1l-1-1h-5v-1l-3 1 1-1-3-1v2l-3-1-1 1 1 1h-4l-5 3 1 3c1-2 1-4 3-4 1 2-1 3-3 5l-2-3h-1l1 4-1-1v1l1 1 1-3 1 2c1-1 3-1 3-3h1c0-2 0-3 2-4l-2 5 3-1-1-4m-6 10 2-1v-1l-1 2v-2l-1 2h1-1m28 68 1-2h-1v2m-5 1 3-4h-2l-1 4m2-6h4l1-3-5 2-1-1-1 1 2 1m-9-38 2 1h2l-2-2-1 1v-2h-1l-1 1h2l-1 1m-21-11h1v-4h-1l-2 1v-1c-1 2 1 2 1 3l1 1m35 66-1-1-1 3h3l-2-1 1-1m-12 4 1-2 2-2v1l1-1v1l2 1v-1l1-3 1 3 3-5 1 3v-3l3 1 1-2-2-1-2-1v1l-2-2 1 3-2-2 1 2-4-2-2 4-3-2v2l1-1-1 2-1 4-1 2h1m4 2-1-1v2l1-1m-1-2 1 2h1v-2l-2-2v2m-3-7-1-1 1 1m-7-15 2 1-1-2h4l-2-2h4l-2-2h4l-1-1h3v-1l-2 1v-2l-2-4h-2c2 2 2 4 2 6-1-2-3-3-2-5l-1-1v1l-2-1v1-1l-1 1v1l-2 1-1 1v2l-3-1-1 1-1 1 7 5m-16-18h-3v1l-2 2 13 9 2-2h-2l1-2h1l1-2v-1l-2-2-1-1v-1l-2 1v-1h1l-3-1h-2l-4 2 2-2m-42 97h2-2m-15 134v-2l-1 2v1l1-1m-12-28v4l1-2-1-2m2-4 1 2 1-2v-1l-3-1 1 2m-44-134 1-1v-1h-1v2m-25 26h-1l-2-1v1l1 1h1l1-1m1 3-1-2c-1 1 0 1 1 2m-2 1 2 2 1-1-3-1m-3-7h1v-2l-2-2c-1 1 1 2 1 4m-7-3-2 1 2 1 1-2h-1m-2-23c1 1 1 0 1-1l-1 1m1-14 2-2h-3v1l1 1m-3 0-1-3 1 3m1-2-2-1 2 2v-1m-1 6c-1 2-1 2 1 3l1-1-2-2m-2-34 1 1 3 1-2-2-1-3 2 1v-2l-2 1-2 2h1v1m-14-16v2h1l2-3 4-1-3-2h-4v4m-14-37v-2 2m1-44v-2l-1 1 1 1m-10 71 2 2c0-1 0-2-2-2m-6-17 2 1-2-1m1 0 2-1 3-2h1l4-2-1-1-1 1-5-2 8 1-5-3-2-3v4l-2 1 1 1c-1 0-2 0-1 1l-2 4v1m-9-14 2-2h-2v1h-5l4-1v-1h-1l1-1v1h4v-3l-3 1 1-3-2-1v3l-1-2c-2 0-2 1-2 3l-1 2c0-1 0-2-1-1l-1-3v3l-1-1-2 5 1 3 1 1 4-3-2 4 2-1 3 3v-1l1-3zm-1 9 2-1h-2v1m-10 19v-1l-2-3-1-1h-1v1l2 1h-1l1 1 2 2m-18 36h1l-1-1v1m1-7-1 1c1 1 1 1 1-1m-4-159-1-1 1 1m-5 184c1 0 0 2 2 2l-1-1c1-1 2-1 1-2l-2 1m-2 57 1 1-1-1m1-5 2 1-1-1h-1m3 3c-1 0-1-2-3-2l-1 2 3 1h2l-1-1m0-3v-1h-1l1 2h-1l2 2v1-1l-1-3m-7-224 3-2-1-1c1 0 2 1 2-1l-5-5v6l2-1-1 4m17 7-2-1h-1v1h2v1h1v-1m17-13-3-1 1 1h2m1-3 2-1-1-1-1 2m19 40v3c0-1 2-2 1-3h3c-1-2 1-4 2-5h-3l-2-2c1 1 2 3 1 4l-1-2-1 2v3m3-53-2 1h1l1-1m-1 5h-1l4 4 2-2-1-1h-2l-2-1m4-5v-2l-2 2h2m3-1h-2v1h2v-1m-3 5-2-2v1l3 3 2-3v-1l-3 2m8 8c1-2 1-3-1-4l1 2-1 2 1 3 2-1h-1l-1-2m12-35-1 1 1 1v-2m-1 3-1 1 1 3 3-2-1-1-2-1m13-12 1 2c1-1 1-2-1-2m63 2v1l1 1-1-2m13 14 1 1v-3 2h-1m59 1v1l2 3c1-1 3-1 3-3l-2 2 1-4h-1l-1 2 1-3v-1l-2 2v2l-1-1m41-22 1 1 2-2v-2l-3 3m-2 2 1 3-1-4v1m1-4 1-2-2-1v1l1 2m5 14v3-3m3-5-1-3-1 1 1 2h1m3 6-1-3v3l1-1v2zm16 239 1 1 1-1zm5-241v-1l-2 1v1l1-2 1 1m-6 244c-3 0-5 1-7 3l-1 1 2 1 2 2-1-2h3l3-3h-1c3-1 5 1 8 1v-1h3c-1-2-2 0-3-1v-1h-8m6 6-2-1s1 2 2 1m1 15v1h3l-3-1m-2 10 2-1-1 4h1l1-3-1-2 1 1h-2l-1 1m5 4h-1l1-2-2 2h2m2-6h-2 2m2-12h-2 2m0-13h1l-1-1-1 1h1m1-241v-3 3m-2-3v-3 3m0 6 1-2-3-3 2 5m-2 5v-2 2m6-12 1-2-5-6v1h1l1 4v1l2 2m0 244v-1l-2-2 2 3m0 1h3l-1-1-2 1m1-246v-1 3l1-2h-1m2 4v1h1l-1-2-2 4 2-3m-1 6-1 2h1v-2m2-8h1l-1-1-1 1h1m1 310-1 3 1-3 1 1v-1h-1m-2-9-1 1h2l-1-1m-2 8h1v-2l-1 2m-1-9v5-2h1l-1-3m-1 16 1 1h1v-1l-2-1v1m4-4-1-1-1-1-1 1 3 1m1-3h-2l1 1 1-1m-1 20 1-1v-1l-1 2m0 4v2l1 1h1l2-1-2-3v2l-1-2h-1v1m1 27v1l3 3 1 1-1-3-3-2m-1-1-1 1-2-2c1 2 2 2 3 1m-5-8 2 2c0-2-1-3-2-2m0-5v3l2-1-2-2m10 53h1l-1-3v3m3-2 1-4v3-3h-1l-1 2v-1l-1 2 2 1m2 3v-3l-1 2 1 1m1-37v-2l1-2h1l-2 1-1 1 1 2m1 1v2-2m-1 17 3 3v-1l-1-2-1-2-1 2m4 9v-3 3m1 6v-1 1m-1-11 1-1-1-1 1 3v-1h-1m2-3h-1v1l1-1m2 4-1-3-1 3h2m-5-12-1 1 2 2-1-3m0-12h-1v1l1 2zm2-6c1-1 2-2 1-3l-3 3h-1v2l3-2m3-2-1-2-1 1 2 1m1-19 1-1v-4l-3 4v-1l-2 2c1 1 1 2 2 1l2-1m1-19 1-3 1 1-1-2c0 1-2 1-2 3h-1l1-2-2 1 3 2m2-78h2l-2-1v1m3 13h-2 2m1 47 1-1-1-2v2l-1 1h1m1-29h1l1-1-2-1v1l1 1h-1m2 40 1-2h-1v-1 2h-1v-1c-1 1 0 2 1 2m3-7h1c-1 0-3-1-3-3v1l2 2m-4-6v3h1l1-2-1-1h-1m2-19s-1-1-1 1l1-1m1 11 1-1-1-2v3m3-7-2-1 2 1m2 1h-1l2-2-3 1c0 1 0 2 2 1m-5-3h1-1m0-11v-5h-2v1l2 4m-4-12h1l1-1-2 1m5-20-2-2 1 2c-2-1-3-2-5-1v1h3v1l3-1m1 3v-1l-2 2c1 1 1-1 2-1m2-6-3 1 1 2 2-3m0-2v-1h-1v1h1m9-29v-3l-1 2 1 1m3-69 2-1-1-1-1 1v1m1 38 1-2v-1l-1 1v2m6-101v2h2l-2-2m-42 259v1l-1 1h1v-2m5-1h-1v-2l-2 1 1-2-2 4 1 1h1l2-2m-1-8v4s1 0 0 0l1 1v1l1-1-2-5m4-11-1 1v1l2-2h-1m0-74v1l2-2-2 1m0 3h-3zm-8 102v-1l-1 2v1l1-2m-8-3 1 2v1-2l-2-2 1 1m1 11v-1l-1-1h-1l1 1 1 1m2 21v-1l-1-2-2-1v1l3 3m0 12-1-1 1 2v-1m0 6-1-2-1 1v2l2 1v-2m-4-74 1 2 1-2-1-1-2-1 1 2m75-295 1 2v-2h-1m-13 12 4 1-4-1m6-3h3v1l1-1-5-2v1l-1-1-1 1c1 1 2 2 3 1m1 4v1l1-1 3-1 2-2-1-1c-1 3-3 3-5 4m0-1 1-2-2 1 1 1m-10 53 1 1v-2l-1 1m-4 24 1-1 1 1 1-1 3-1c-2 0-4 0-6 2m-1-41h2v1l-2 2c0 1 1 2 2 1l2-1 2-2h1l-3-3-3-3-1-1h-1l1 3-3-1 1 2-2-1v2h1v1l1-1 4-1-2 2m-3 65c3-2 6-2 9-2l6 1 1 1h6l-1-4h-2l-1-1h-2v-1l-3-1h-3l-1 1-4 2h-2l-2 1-2 1-3 1-1 1h5m-3 54 2 1c2 0 2 0 2-2h-1v1l-4-2-1 1 2 1m1 9h-1v3l1-3m11-6 1-1h-3v-1l-3-1h-2l7 3m-3 3 1-1-2-1 1 2m42-45 3 2 1-1-2-1-3-1 1 1m1 4-2-3v3h2m-1 9 1-1-1 1m-7 3h1l1-1zm-2 18 2-5h-1v1l-1 3v1m-9 3v-1h-1v1h1m5-5-1-1h-1l-1 2 3-1m-5-4v2l1 1v-3h-1m1-9-1-1 1 1m-1 3-1 1 2 1v-2h-1m-2-3 2-2h-4l2 2m-2 10h1v-1l-1 1m-2-8h-1 1m-22 2-1 2 1-2m2 2h-2l-1 2h1l1-3 1 1m0 3v2l2-4-2-1v3m-4-2v-2 2m0-4-2 2h1l1-2m-4 1 1 2-1-2m45-40-1-1-1-1-1 1c1 1 1 2 3 1m-3-1v2-2m-1 8 1 1-1-1m0-5 2 2c0-2-1-2-2-2m-1 0 1-1h-2l1 1m-1 0-1 2c2-1 2-1 1-2m0 5h-1 1m-3 5v1l1 2 1-2-2-1m0-8v-1 1m1 0-1 1v-1l-2 1c1 1 2 1 3-1m1 5v2-2m0 8 1 1v-2l-4-1h1l2 2m2 2v-1h-1l1 1m-1 1h-1v1l1-1c1 0 0 0 0 0m-6-17h1-1m1-1h-1 1m-2-1h-1v1h2l-1-1m0 5h-3l1 1v-1h2m-7 0 1-2-2 1 1 1m-5 4h-1l-1 1h1l1-1m2 3v-2h-1l-1 1v2l2-1m1-2v1l1-1h-1m-3-3h-1v1h1v-1m5 4h1l-1-2v2c0 2 1 1 2 2l1-1-3-1m-1 5 1-1-1-1v2m-1-1v-2l-1 1 1 1m-7-7 2-1c-1-1-2 0-2 1m2-3 4 2v1h2l-1-3-1 1v-1l-2-2h-7l1 1 4 1m5-2-2-1 2 2v-1m5-7h-1l-1 1 2 4 1-1 1-2h-1l-1-2m-1-5-2-1 2 1m0 0-1 2h3l-1-2v1l-1-1m3 1h-1l1 1-1 1 2 1h2l-2-2-1 1v-2m16 14h1-1m1-8-2-2v1l2 1m3 22-1-4c1 2 0 3-1 4v-3l1-2h-4l4-2c0-2-1-2-3-2l-1 1h-2l-1 2-1-1-1 1v2h3l-2 3h-2v2l-2 1v-1l-2 1 2-4h-3 1l-4 1-1-1v4l-2-2-1-1-2 1 2-3-3 2-1-3h-1v-1l-3 1 1-3-2-1 1-1h-1l-2 1v-1h1l-2-1h-2l-4 2 2-2h-2l-1 1-1 2h-1l23 16h-1l-13-9-9-5h-2l-2 2 1 2-2-1 3 2v2l3 1 3-1 1 2 2-1v3h1l4-1v1h2v3c1 1 2 2 3 0l1 2 2 3 1-1v2h1c2-2 1-3-1-4 4-1 6-1 7 1l2-3c1 1 2 3 1 5l1 1h-3l3 1h1c0-2 2-2 3-3l1-2-4-3v-1h10v-2l2 3 2-1-3-2c2 0 3-1 3-3l-2 2c0-2 1-2 2-3h-4l1-1m-37 42 1-2v3l1-1v2l3-1-1 2h2l1 5 2-3v6l3-3v4l1-2h4c1-2-1-3-1-4l5 4 1-1c1-2 2-3 4-3h1l1-1c-3 0-3-2-5-3h8l2 2h1l1-1-1-1-3-1h5l-1-1-2-1 1-1 2-2v-1l3 3v-2c2 1 3 2 2 4l4-1 1 1c1 2 2 3 3 2l-1-1-1-3v-2l3 2 1-1v-2l-4-2c0 1 0 0 0 0v-1h-3l-4-1 2-1-3-3v2l-1-1-2 4-2-5-2 2h-1l2 2h-1v2l-4-3v-1l-1 3-1-1-1 1h1l1 1v2h-2l-1 2-1-3v1l-1-1-1-1v-2 1h-1v2l-1-2v1l-5-1 3-1v-1l-2-2-1 3-1-6v3l-2-1-1 2v-3 1c-1-2-2-1-4 0v-3l-2-1v1l-3-3h-1v3l-2 2c0-2 0-4 2-5h-2l-2 4h-1l1 2-2-1 3 1-1 1h3l-2 2 5-1-2 2 3 1-1 1 3-1v6l-1-2-4 2v2m15 13 1 2 1-1 1-3-4 2v1l1-1m6-1 4-1 2-2 1-2c-1 1-1 2-3 2l-4 1v1l-3-2c0 3 1 4 3 3m-2 2 1 1 2 2 1-2-4-3-1 1 1 1m9-5-2 3h1l1 2v-5m0 7h1v-1l-1 1m4 6-1 1h1l1-2-3-1h-2l1-3-2 1-1 3c2-1 4 1 6 1m-5 24 2-1-2 1m0-17-3 2 3-1v-1m-4 7 2 1h1l-3-1m3 7 1-1-2 2h1l-2 2 3-1-1-1 1-1h-1m1 4c1-1 2 0 3 1l1 1v-1l2-1-1-2h-1l-3 1h-1v1m3-21 3 2-3-2m0 0h2-2m-2 1 1 1v-3l-1 2m4-3-1-1h-3c1 2 3 3 4 1m2 12v-1h-2l2 1m2 10-2-1h1v-2l-1 1v1c0 1 1 2 2 1m-1-17h-2 2m2-20h-2v2l2-2m1 19-1 1c1 1 1 1 1-1m1-1 1-1h-2l1 1m1-5-1-1-1 1h2m1 0-1 1 1 1v-2m0-21-1-1v1l1 1-1-1h1m3 31c-1-1-2-2-3-1l3 1m0 20h-1 1m4-5-1-1 1-1h-3v1h-2v2l5-1m1-5 2-1v-1l-1-2-3 3 1 1h1m0 2h1v-1h-1zm4-5 2-2v-1h-4l-1 2 3 1m3-22-1-2-1 2h2m0 13h3l1-2-4 1v1m4 7h-1l-1 1v1l2-2m-1 8 2-2-2 1v1m2 0 3 1-1-2-1 1 1-2-2 1v1m3-16-1 1m-2-6 1 1v-1h-1m-2 9 2-1-2 1m-1-11-1-2 1 2m-2 4h2v-1l-2 1m9-12-2 1-1-1-2-1h-1l-1-1 1 3 2 2v1l-4-1-1 1 1 1 2 1h1l2-2 1 2 2-6m0-3-1 1v1l1-2m2 39h1v-1h-1v1m1 32 1-1v-1l-1 1v1m2 5 3-4v-1c1-1 0-2-1-2l-1 2-1 3h-1 1l-2 2h2m3 3 5-1v-1l-3 1h-3l-2-1v1l3 1m7 1-3 1 3-1m-5 11-2 1h5v-1h3v-2c0-2-1-3 1-4v-1l-3 2v1h1l-5 4m-2 2h1l2 1 1 1 3-1-1-1h-3l-3-1v1m6 4 1-1h-2l1 1m4-5 2-1v-1h-1l-1 1v1m0 9h2l-1-1zm2 4h1l-1-2h-1v1l1 1m2 1-1-2 1 2m0-34h-1l2 1-2 1c1 0 1 2 3 2l-1-3-1-1m0-202 3 2-3-2m-9 20v-2 2m-5-4v-2 1h-1l1 1m-2 2h2-2m0-3h-2 2m-3 11h-2l1 1 2 1 1-1-2-1m-5-21h-1l2 1h1l-2-1m2-1-1-1h-3c1 2 2 2 4 1m-4 3v-3l-3 3h3m-7 10v-1l-1-1 1 2m0 9c1-2 1-3-1-3l-1 2 2 1m-2 3 2-1-2 1m0 1 1 1 1-1-2-1v1m1 11v2l1 1v-3h-1m-1 53v-1l-1 1h1m0 15v-2l-1 2h1m5 3-2-2 1 2h1m2-12 3 1c-3-1-3-4-3-6h-1l-2 4 3 1m2 5-2-1 2 1m1 9v1l-2-2-2 3v1l4-2c-1 2-2 3-4 3h-1l2 1 2-1 2-2 1-2h-2m-1-3v2h1v-2h-1m1-1c-1 0 0 0 0 0l3-2c-2 0-3 0-3 2m17 95-1 1v1l-3-1 3 1h1v-2m6 2 1-3-1 2v1m-1-85c2 1 2 1 0 0m-2-15v1l2 3v-1l-2-3m1-5-2 3c2 0 2-1 3-2l-1-1m-5 0h2c0 1-2 2-1 3 1 0 2 0 2-2v-2l2-4v-2l-1 1-2 1-1 2v2l-1 1m-2-9 1 1 1-2-2 1m0-4v3l1-1-1-2m-1 22-1-1h-1l1 2 1-1m1-5v1h2-1 1v-1h-2m5 7-1 1-1-1c1 2 2 3 4 2l-2-2m2-8-2 1 2-1m-2 4c0 1 1 2 3 2l-3-2m3 4v-1h-3v1h3m-15-14h-1c0 1 2 3 4 3l-2-1h2v-2l-1 2-2-2m-1-17v2-2m0 20-1-2 1 2m-2 0 1-2-1 2m-1-2 2-2-2 2m-1-50-1-2 1 2m-3 4-1 2 2-2v-1l1-3h-1v1l-1 3m-2-35c2 0 1-1 2-2l-2 2m0 23 1 1-1-1v-1 1m1 32-2 1c-1 1 0 1 1 2l1-2v-1m1-3h-3l1 2 2-2m-2-6v1c2-1 4 1 5 1 1-1 2-4 0-4-1 2-3 2-5 2m-1-7 2-1-2 1m0 12 2-1-2 1m5 5 1-1-4 1c2 1 0 2 2 3l-1-2 2-1m-8-2 1 1v-2l-1 1m2-18-3-1 4 2h1l-2-1m1-14-1-2-1 1 2 1m-3 9-2 1h1s1 1 1-1m-1 4 3-2c-1 1-2 0-3 2m9-35v-2l-1 2zm0 28-1-1 1 2 1-2h-1v1m3-8v-1l-1 1h1m-4 21-1 2-2 1v2l1-1 2-1h2v-1c3 0 4-3-1-1m8-24h1l-1-1v1m2-6-2 1zm0-11v1-1m0 5v2-2m-1 56v3m0 14 2 1 1-1-2-1-1 1m15 111-1-3-1 3h2m1 1h-2l2 1v-1m-1 20 1-1v-1l-1 1zm0 9v2h1v-1l-1-1m1-5c2-3 0-2-2-2l2 2m-5-26c1 1 1 1 2-1l-2 1m-13-1h3l1-1-4 1m2-41h1l1-1h-1l-1 1m-6-56 2-2h-2l2-1v-2l1-1-1-1-1 3h-1l-1-1-1 1v1l1 1c0 2-1 2-3 2v1h3v-1h1m-12 5-1 3h1l1-1-1-3c-2 0-2 0-2 2l2-1m-3 5h1l-1-1v1m0 34 2-2c-1 0-2 0-2 2m2-6-1-1v1h-1 2m-6 8 4-5-3 2-2 1c0 1 0 2 1 1v1m0-7-3 1 1 1 1-1h5l-4-1m1-27-2 1c1 1 1 0 2-1m0 0-4 1 4-1m-5 25 1 1h1c-1-2-1-2-2-1m2-1h4l-2-1c-1-1-2 0-2 1m1-5-2 1 2-1m2-19v2h1l-1-2m-1 21 1-1h-1l-1 2 4 1c-1-2-2-2-3-2m-4-70 2-1h-1l-1 1m1 12v-1l-1 1h1m2 22v2h2l-2-2m3-21-1-2v2h1m0 12h1v-2l-1 2m-1-18 1 1v-1l1-1-2 1m-2 0-1-1 1 1m0-5-1 1 1 2 2-1h-2v-2m0 21-1-3 1 3m1-11-3 1 3-1m0-64-1 2 1-2m-1 12h1v-2l-1 1v1m4-12v-1l-1 1v1l1-1m0 25h-2v1l-3 5v1l2 1v-4c1 2 2 1 3 1l2-1h-2 4l-2-3-3 2-1-1 2-2m4-36v1-1m3 0c-1-1 0-1-1 2h1l-3 2v-2l-1 1-1 1 1 1 3 1v-1h-2l3-1-1 1 1 1 2 1-2-4h1c0-1 0-2 2-3h-3m10 1-1 1zm-1 4-2-1h-1l-2-3-1 3v1l1 2 2-2c-1 2 1 2 2 3v-1l1-2 1-2-1 2m2 3h-1l-1 2h3v-1h-2l1-1m5-16-1 1v2h2l-1-1v-2m3 17-2 1 1 1 1-2m-2 11h1v1c2 0 2-1 3-2h-1l1-1h-1l-3 2m6-25v-1l-1 1h1m8-7 1-2-1-2v3l-2 2c1 1 2 0 2-1m3 206-1 2 1 1 1-3h-1m3 10v-1l-2 1zm-3 2v1h2v-2c-1-1-1 1-2 1m1 12v-1m1-2c-4-2-4 0 0 0m-8 29h2c-1 1-1 2-3 2l-1 1 1 1 2-2c0 2 0 3-2 3l1 1 3 1v-1l-1-2c2 1 4-1 6-1l-2-2-1 2-1-1c-1-1-2-2-1-4v-1l-1-1-2 4m-2 1 1 1 1-1h-2m1-8-1 1v-1l-1 3-1 1 2 2c1-2 2-4 1-6m-1-6-2 1h-1l1 1h1l2-1-1-1m-3 2-1 1c1 0 2 0 1-1m-3 2 2 2 1-2h-3m-1 5c2 0 2 0 2-2l-2 2m1 4h1l1-2-2-2v4m5-6-1-1-3 3 4-2m-3 6v-1l-1 1h1m11 8h1v-1l-3-1c0 2 1 2 2 2m2 6-2-1v1zm2-9-3 1h1l2-1m-1 9-1-2 1 2m-2-160h2l-2-1zm3 25c-3-5-2-1 0 0m1-46h-2 2m-655-197-11-7h-5l1 1 1 4-2 8v7l-1 2v5l-1 7v4l1 5 1 5c4 10 6 21 6 32l1 1 2-2h1v3l2-1v-1h-1l2-1h-1l-1-2-1-1v1l-2 2v-2l1-1v-1l-1-1 4-1-2-2 3 2h3v-1h3v-1h-1l-1-2v-3h-2l4-2-2 2 2-1 1-1v-4l3-1 2-1v-2l2-10c1-7 3-14 7-20v-6l1-3-1-5v-4l-1-2v-3l-7 1zm-77 39h1v-2h-1v2m-5-7 1-2-1 2m0-10-1 2c3-1 5-2 4-4l-2 2-1 1v-1m32-27c-5 2-39-4-47-3l-9 1 1 16 1-1 4-2 1 5-3 4h1l1 1 1 2 3 5 1-2c2-1 2-1 1-2l1-1h3c2 0 1-2 2-3l1 1 1 1 5-3-1 2-4 2 2 1 2-1 3-2c1 1 2-1 3-2v2l3-2v1l4-1 3 1v1h-1l-6 2h-1l-2 2-1-1-1 3h4l1 1-1 1h-1c-2 1-4 1-4 3l-1-2-5 5 1 1c2-1 2-3 4-3v1h1-1l7-5-2 3 3-1h-1 1l3 1h-1l-1 2h-3l2 4 2-4 1 5v-5l3 3 1 2v-1l-1-3v-1l2 3h1l1-2h1l-1 3-1 2 2-2 1-2 2 1v1l2-1-1 2 1-1 3 3-1 1-1-2v3l-1-2-2 2 1-4-2 4-1-3-4 2v-1l-3 1v-1l-2 3v-2h-1l-1-3v5l-1-2-1 1v-2h-1v4l-1-1 2 2h-5l-2 3h1l-3 2-3 2h14l2 1 3 3v1l1-3 1 1v1l2 2h1l4-1c-1 1-2 1-2 3h2l2 1v4l2-1c0-1 2-2 3-1l-2 2 2 1 2-1h1v3h-3l2 1 2 2h-3l1 1h1l3-1-1-1c0-1 0-2 2-2v1h1l1-1h-1l1-3 2 1c-1-1-2-2-1-3h2l-1-2h2l1-1 2-10c3-10 6-19 11-27v-15l1-3 1-8h-13l-16 2m-114-4h-4l1 10 1 8v15l2 6h2c-2-1-2-3-3-5h1l3 3v-6l2 2 2-2-1 4v3l2-2 1-1 1-4h1v-3l5 3h1l2-3v-1c1-1 2-2 0-3h1l2 1v-2l1 1 2-2v7l-1-1-1 2c-1 1-2 2-1 4v1l1-2 1-3v2l2-2 1 2c3-4 5-9 10-12h1l-2 2 2 1c1 1 2 2 4 0v2l4-5 1-1v-1l-3-17-8-1h-36m-106 39-1 2 1-2m7 18h-1c-1 1 0 2 1 3v-3m58-57h-49s-25 26-40 32c-16 6-3-17-25 12l-25 33v9l1 13c0 2 0 4 2 5h1l-2-4 3 2v-5l2 2 2-2-2 4v2l3-2 1-4h1v-3l4 4 1-1 2-2v-4l2 1 1-1 2-1v5l-1-1-1 2-1 4v1l1-2 1-3v2h2c3-3 5-8 9-10h1l-1 2 1 1c1 0 2 1 3-1v2l4-5h1v1l-4 6v1l1 2v-2h1l3-3c2 0 2-1 2-2v-1l2 3 1 2v-1l1-2h-1l-1 1v-2l1-1 1-1-1-2 2 1h2l1-1 3-2 1 1-1-1h1l1 1-1-3h1l2 6 1-2-2-2v-3l1 2 1-4v1l1-1-2-1 2-1 6-1 3-2-1-1c3-1 5 1 7 3l-3-1-3 1 2 2 1-2 1 1 1-1c0 2 1 2 2 1l3-1h1l4-3-1 1h2v-1h4l-4-1-7 1v1c-3 0-6 0-7-2h5l3-1-2-2h-2l-2 1h-1l15-6-2-3h-1v2l-4-4-3 3v-2l-4-2v3l-4-4 1 3-3-3-2 3-2-3-1 4-1-2-2 2-3-1 1 3h-1l-2-2 1 3-1-1-1-1-1 1v-4l-1-1 2 1 2-3h1l4-4 1 3v-1l3-2 1-1v-1l2 3 2-3 1 2v3h1l2-4 2-1-1 3h1l1-1 1-2h1v1l1-1c0-1-1-2-3-2l-3-2h2l-3-2h-1l-3-1 1-1-1-4v3l-1-2-2 2v-3l1-1h-1l-1 3v-1 2h-1l-1-3v2l-3-2v2l-4-2-1 2-2-3-1-1v-1h1l1-1c1 1 1 0 1-1l2 2 1 3 1-1-1-2-1-3 2 2 1-1 2-1-1 3v2c0-3 2-5 3-5v3l1-1 1-2 1 2v1l3-3-3-1 1-1-3-1 3-1v1l2 1-2-3 8 3-1-3h-1l4-4-1 3 1 6 1-1v-7l1 1 2-2v3l1-1 2 2v3l4-2v1c0 1 1 2 2 1l2 3 2-2v3l3 1 1-2 1 4 1-1v-3l-1 2v-2l-1-3-1-1v1l-3 1c1-2 3-5 6-5l-1 2-1 1c1 1 1 1 4-2v2l3-2 1 3 2 1 1 2 2-3h1v4l1 1 1-2c2 1 4 2 4 5l-2-2c0 2 2 2 3 3l3-3-1-1-1 1v-2l-3-3-1 2v-1l-1-4-2-2v-1l3 2 3-3v5l2 2 4-4h1l-1 4 2 1h3l1-2-6-8-2-2h1c5 3 8 6 11 10l5 6 2 3 3 4 2-2 1-2c0-2 1-2 2-3l-2 4 3-1v-6l3 3-5-9c5 5 9 10 12 16h2l-1-2-2-4h3v-37h-27m-158 96 8 12h1v-2l-2-4 2 1v-15l-9 8m-9 7 1 1 2 3 1-1 2-2 1-3c1 2 0 3-1 4l2-1v-5l3 2-2-4-8 5-1 1m-73 66v2l2 1-1-3h1c1 1 2 0 3-1l-2-1v-1l6 1 1-1h-1l3-1h4v-1c2 0 3 0 5 2h1-1l-3-3 4 1 1-1c-1 0-1-2-3-1l-3-1v1l-2-2-10 2-6 9 1-2m17-2-1 1 2-1v1l4-1h-7 1l-4 1c3 1 3 1 5-1m5 12 2-1-2-1-1 2h1m1-17v2l1-1-1-1m3-6v2l6 4 4-2 2-1 2-3-3 1-1 1-5 3 1-2 3-3 1-1-3-1v-1l3-1-13-6h-4l-5 1-4 10 1-2 2 3 3-4v2h1v-2c1 2 2 2 3 2v-1l4 2 2-1m0 24 2-1-1-2-1 2v1m2-10 2-1h-3l1 1m0 11h5v-1l-1 2-3-2zm1-3 3 3v-2l-3-1m2-12c-1-2-2-2-3 0zm2 1-1-1-1 1 2 1v-1m2-4 3 2 2 1 2-1-2-2h2l-2-2 4 1h2-1l1-1 1-1-2-1-3 1 1-3h-1l-2 1-2 2-3 3m0 15 1-1h-1v1m-1 19h4l1 1h2c-2-2-5-1-7-1m11-29v-2l-2 2h2m7 53-1-1v1h1m0 34v-2h-1l1 2m5 27v-1l-1-1 1 2m9 26h1-1m2 4 1-2h-3l2 2m3 4-3-1c1 0 1 2 3 1m2-3h-1 3l1-1h-5v-1l-2 1 4 1m-1 24h-2v4l2-3v-1m-2 20v1l1-2c-2 0-2 0-1 1m-1-7c1 1 1 2 2 1l-2-1m-3 1 1 1 2-1h-3m-2 1 2 1-1 1 2-1c-1-1-1-2-3-1m7 16c0 2-1 2-2 3l3-2-1-1m2 9 1-2-1 1v-1h-1l1 2m-1-11v1l1 1h1l-1-3-1 1m2-36-1-1v1h1m0 12v-1h1v-1h-1l-1 1zm1 24v1h2l-1-1v-1c-1 0-2 0-1 1m-1-250-1 1 1 1v-2m-6 16 1 1v-2l-1 1m-1-14-1-3c-1 1 0 2 1 3m-38 13h4-4m-23 28v1-1m17-25h2v-1h4-4l-2 1m-15 23-1 1 1 1v-2m69-36-1-1h-1l1 1h1m2 205h-2 2m3-219 1 4c1-3 1-5-1-6l-2 4 2-2m-2 274h1c1 0 0 2 2 2v1l3-2-2-1v1h-1l-2-2-1 1m3 14v4l1 1h4l-3-2v1l-2-4m2 21h1v-1l-1 1m3 2 3 3v-3h-1l-4-2 2 2m2 6v3l1-2v-1h-1m0 10c0 1-2 2-1 3l2-2c1-1-1 0-1-1m-2 9v2h1v-2h-1m0-2h-2l1 1h1v-1m-3 1v3h2l-2-3m4 6v-2 2m-1 6v-1 1m5-13v-2l-2 1-1 3v-1 1l3-2m-1-16v3-3m1-2 1 1v-1l-1-1-2-1h1l1 2m2 34 1-1-1-1v2m2-3h1v-2l-1 1-1-2-1 2 1 1v-3l1 3m2 2v1c1-1 2-2 1-3-1 0-2 1-1 2m2-30 3-3 1-1-4 2-1 2h1m8-6c-2 0-3 1-3 2l-1-1c1 1 3 1 4-1m2-6c-2-1-2 0-3 2 2 0 2-2 3-2m0-4-2 1 2 1zm-8-9h1l1-1 1-2h-1l-1-1-1 2v-2l-2 3 2 1m2-8-1 1h1v-1m0-15 1-1h-1v1m1 2 2-1v-1l-2 1h-1l1 1m2 4 1-1h-1v1m0-15-1 3h1v1h1l-1-4m-1 7-1 1h2l-1-1m-2-6h-1v1l2-1h-1m-3 15 1 1v-2l-1 1m-3-5 1 2 1-1 1-2-3 1m0 65-1-1-1 1v1l-1 2 2-1 1-2m-2-4 1-2-1 2m1-13-1 1v1l2-3 1-1-2 2m3-27-1-1-1 3v2-2l1-2h1m0 9-1-1-1 1v1l1-1h1m-10-13h1v-1l-1-1v2m0 8 1 1 1-1-2-2v2m-5-286v2l2-4-2 2m-2-5v2c2 0 2-2 2-4l-1-2-2 5 1-1m-1 264-1-1 1 2v-1m2 14h1v-2h1l-1-3-1 4v1m2 0v2h-2l2 1h1l2-1-2-3 1 2-2-1m15-14v1l1-1 1 2h1l-2-2h-1m2-261h-1v1-2 3l1-2m-1 8v-2 2m2 4v-2l-1 1 1 1m2-18-1 2h1v-2m0-7v-2zm-1 1-2 1 1 1v-1h1l1 2c1-1-1-2-1-3m5-1v2-2m4 227h-3 3m1 11h-2 2m1 5h1l-1-1v1m2-1h2l-2-3 2 1 1-1-1-1h-2v-1l-1 1 1 1h-1l1 3m0-11h-3v1l3-1m-4-221 1-1h-1v1m-2-12v2-2m-1 5c-1 1 1 1 1 2l2-4-3 2m10-6-1-2v2-1l1 1m5 216-1 1 4 2-1 1h4l-2 1h1l2-1 2-2h-1c-2-2-5-3-8-3h-9l1 1h-4c1 2 3 1 4 1v1l8-2m-4 3-2 1c1 1 1 0 2-1m3-7h-2l1 1 1-1m-1-37h3-3m6 0-2-2-2 1 4 1m1-180v-1 1m2 178h-3 3m0 13v1l1-3-2 1 1 1m1-197h-1l-1 3v1l1-1 1-1v-2m2 185 4-1-4-2-3 1c0 1 1 2 3 2m5 2 1 1v-2h-1v1m-3-18v2l1-3-1 1m1-160-1-1-1 3 2-2m-3 7 3-3zm9 168 1-2h-1v1l-6-2 1 3h5m1 5v-3h-3l3 3m1-5h3l4 2 1-2h-2l-4-1-2 1m3 5-2-3v3h2m2 0 1-2h-1l-2-1 2 3m-3-19c-1-1-2 0-2 1l-1 2h1l1-3h1m0 6 1-3 2-1-3-1v5m5-5h1-3 2m3-14h2c-2-2-5-3-8-3l-2 3h8m2 12h3l-1-2v1l-1-1-2 1 1 1m3-6h-2l1 3 1-2h-1l1-1m-18-9 4 1 3-1h-7m-2 0h2l-2 2 3-1c-1-1-1-2-3-1m3 14-2 2h1l1-2m4-5v-1l-2 1h2m-1 6c-1-1-2 0-3 1v2l3-3m-6-8v1h1l-1-1m1-25v-2h-2v1l1-1-1 2h2m-1 34v-2l-1 1 1 1m-1-1c-1 2-1 2 1 2l-1-2m2-159-1 3 1-1v1-3m2 0v-3 3m0 73h2l-2-1v1m1 52c1 0 2 0 1-2l-2 1 1 1m8-1-2-2-1 1v-1l-1 2v-2l-1 2h5m-3 10 1-1-2 1h1m4-10 1-1-1-1v2m6 1 1-1h-2v-1l-2-1-1 1v1l4 1m0 2s0-1 0 0h-2c-1-1-1-1-1 1h-1c2 1 3 0 4-1m-1 6 2 1c-1-1 1-2-1-3l-1 2m3-3c1 0 2 1 1 2h1v-2l1 1v-1h1l-5-3v2l1 1m4 4v-2h-1l1 2m0 4v-1 1m2-11-3-3v1-2l-4 2 1 1 4 3h1l1-2m6 0-1-1v1l1 2zm-5-11h-2 2m0 1s-1 0 0 0l2 1-1-1v1l-1-1m4 1-1-1-1 1h2m4 1-2-3v1l1 1 1 1m-8 6-1-1 1 1m-9-5h-1v1h1v-1m-4 1v-2 2m-8-17 2-1v1h1l1-1 4-1c-3 0-6 0-8 2m37 1h1v-2c2 2 4 1 5 0v-3h2v-1l4 1v-2l-3 1 1-2h-1v1l-1-1v1l-1-1-11 6h-2l11-7v-1l-1 1v-1 1l-2-2v1l-2-1v1-2h-1l-1 2-1-1-2-2v3l-3-3 1 2-3-2h-1v2l-3-2-2 1 1-2-3 3-1-1v-1l-3 2-3-2-4 2h2l11 2 1 1 1 1h-2c-6-1-12-2-18-1h-1l3 2h2l4 1 1 1 4 1 3 2h4l-3 1v1h-1l-1-1h-4l-6 1 1 2-4-2 1 1h-3l-3 1h-1l-2 1 6 1 6 2v-1l1 1 1-1v2l4-3-1 2v1l2-4v4l2 1 1-1c-2-1-2-2-2-4 2 1 2 2 2 4h1c0 2 2 2 3 2l1-1 1 2h1v-1 1c-1-2-1-4 1-5v2c3 1 5 2 6 4l-1-6h1v-4l2 1 2-3m10 14 1-2c-2 1-2 1-1 2m4-19h-1 1m7 21v-5 5m1-6 2 3v-3h-3 1m-1 15-4 1v1h-3l1 1 9-3h-3m-4 5 1 1 1-2-2 1m10-4 3-1 2-1v-1l-6 2v-1l1 2m2 12v-4l-1 1 1 3m-2-201 1-1c-2-2-2-2-3-1l2 2m-8-5v1l1 2c1-1 2-2 0-4l-1 1m-50 58 1-2-1-1v3m0-6 1-2-1-1-2 2 2 1m-2 3 1-1-3-3-1 2 3 2m46 55c2 1 3 2 4 1l2 1v-1l2 1c-3-2-5-2-8-2m-11 4v-1 1m-2-6 1 3c1-1 1-1-1-3m10-33h-1l3 1-2-1m-9-4v-1 1m-4-6h-1l2 1-1-1m-4-3h-1v1h1zm-4 2 1-1-1 1m-20 57h1l8-5-9 5m15-29v1-1m11-3-1 2 2-1-1-1m15 4-2-2v1h3l1-1h-1l-1 2m-3-5 1 1v1l2 1 1-1-4-2m2-10h-4l1 1 3-1m-14-10v2l1-1-1-1m-6-3v-2l-1 1 1 1m-4 18v-1h-1v1h1m2 0h1-1m5 1h-1l1 2v-2m1-9 1 1h1l-1 1 5-1-6-1m5-1-2-1 1 1 1 1h1l-1-1m-6 2v1-1m-1 1h-1zm-4-9h-1l1 1 1-1h-1m9 2v1-1m-21 30h-2zm23-31v1-1m10 4-1 1v-1l-1 1-1 1h5l-2-2m-17 19 1-3-1 1v2m-14 7 1 1 2-2-3 1m3-2h1l-1-1h-1l-2 1h3m7-37-1 1v1c3-1 4-1 3-3l-2 2h-1l1-1m28 27h-1v1l1-1m-8 11-2-1h-3l1-1h-4l1-1h-4l-2 1-3 1-4-2h-2l-2 1h1c-1 3-3 3-6 4l1 1 1-1 2-1 5-1-2 2 2 1h4c-1 2-4 2-6 2l1-1-3-1h-3l-4 1h3l2 1v-1l3 2 3 1c1 1 2 1 2-1l1 2 1-2v2l2-1c-1-1-1-2-3-1h-2c2-1 3-3 6-2l-1 1h1l4 2 4 1-1 1v1l1-1v3h1v-1h6l2-1v-1h3l2-1 1-1 3-1-3-1-10-5m19-22-1-1-1 1h2m-54 54 4-2c1-1 3-2 2-4l2 2c2 0 3-1 4-3v2l3-2v2h1v-2l1 1 1-2v-2c2 2 2 4 1 6l-1-2 1 2 1-1 1-2 1 2h1l2-1 1-2 1 1 2-5c1 2 0 4-1 5h5l-1-4 4 3 1-1 2-1v2l6-2 6-1 2-1h-2c0-1-1-2-2-1v-1h-7l2-1-1-1c-1 2-2 2-4 2l1-1-3-2h-3l1 3h-1v1h-1v-2 1h-1v-2l-1 1 1 3-2-2v1h-1l-4-1c-4-2-9-2-13-2l-2 1h2l10 3 1 1v1l-1-1-10-3-4 1-10 7-1 1c2 0 3 2 4 4-3 0-4-1-6-3l-1 1 1 1 5 2m5 5c-2-2-2-2-4 0zm-5 9v1c2 0 2 0 1-1h-1m1-9h-1l-1 1 2-1m4 3h-3 3m3 7h-1v2l1-2m1-14h-1l1 1v-1m13-2h-3l-2 2h3l2-1v-1m5-3-1 1 1-1m-2 1h-1l1 1v-1m-14 9h-1 1m7 0-1 1h2l-1-1m-4 0h1v-1h-2l1 1m-1-10-2 2 2-2m-1 5v-1c-2 0-2 1-2 2l4-1-3 3 3-1h2v-1l1-3h-1l-1 2h-1v-2l-2 2m15 21-1 1h1l1-1h-1m8-13h-1 1m2 0-2 2-1 1 2-1 1-2 1 2 4-1h1l-2-1h-4m-2 5-1 1v-1l1 3 1-1-1-2m-3-5-1-1v1h1m-2-1-1-3-1 2 1 1h1m28 41 1-2-1 2m-3-1h1l-2-3v1l1 2m-1-1v2-2m-1 1-1-2c-1 1-1 1 1 2m-10-17v1l-1-2 1 1m-2-1h1v-1 1l1-1v1l3 1 3 1-2-3 4 1 3-1v-2l4-3-3 1 1-2-2-1-2-1-12 6-1 1 1 1 1-1v2m-7-5 2 1v-1l1 2 1-1 13-7h-1l-1-2h-1l-3-1 2 3-2-1-2 2 1-2v-1l-2 2 1-2h-1v1l-1-1c0 1 2 2 1 4l-1-2-2-2h-1l1 1h-3l1 1-4 1v1h-1l-1 2h-1l1 1 2 1h1m-21-7 2 2h1l1-1h3l-1 1h2l-1-1 3 1h1l1 1 2-1 1-3 1-1v5h1-1l1 1 2-1c-1-2-3-4-2-7l2 5c-1 0 0 0 0 0h2l-1-1v-1l-1-2v-1h-1l-1-1-1 1-1-2v1h-2l1-2c-2 0-2 1-3 2v-2l-1 2-2-1h-1l-1 2-1-2h-1v2-1l-2 2v-2h-1l1 3-2-2-3 2h-1 1l-2 1 5 1m-8 6 1 2h1v-2h-2m3-4-1-2 1 1-1-2v2l-2-3-1 2 4 2m-4-1v-1l-1 1 1-3-3 2-1 1-1-1v1c1 1 2 2 4 1h1v-1m-14-91-1-1-1 3h1l1-2m-1 68v1l1-1h-1m2-61v2-2m-2 65 2 1h5l-1 1c-2 0-4 0-5 2l1 1h2l1-1 3-2-4-4h-1l-3 2m16-82h1v-1l-1 1m2-5c-3 2-4 2-3 3l3-3m28-9 5-1-5 1m-6-3-1-1h4c2 1 3 0 4-1l-1-1-1 1v-1l-7 2 2 1m3 1-2-1h-1l2 2 1-1m-7-2-2 1 4 2 3 1 1 1v-1c-2-1-5-1-6-4m14 36 3-3 2-2-5-1h1l3-2-15-6-4-1-7 1-5 1-2-1-2 1-3 1h-1v-1l1-1-4 3 1-4h1l-2-1v3h-1v-1 2h-2l1 2 1-2c1 2 0 4-2 6l-1 1-1 1-1-1-1 2c-2 1-2 1-1 2l2-1v-1l2 1c1 0 3 0 2-2h2l3-2 1-3h3l1-3 1 1 1 1 4-3c1 1 0 2-1 2l-2 2v1l3-2 2-1c1 1 2-1 3-1v1l2-2v1h6l1 1h-2l-5 2h-1l-1 1h-1l-1 2 1 1 1-1 1 1h1v1h1l2 1v-2c1 2 2 3 4 3l2-1 1 2 7 5 4-3 3-1 2-3-3 1-1 1c-2 2-4 3-7 3l2-2m5-65 1 2 1-4 1 1 1-2h-2l-1 1-1 2m6-1v3l1-1 1-1-2-1m2 64h-2l-2 1-3 3-3 3h1l3 2 2 1c1 1 2 0 2-1l-3-2 1-1 2 1-2-3c2 1 3 0 5 2h1v-1h1l1-1h-3l1-2-4 2v-1l2-3m8 73-1-1-4-1-3-1-2-1h-3l-4-2-2-1h-3l-4 1-1 1h-2l-2 1-4-1h-2l-1 2 2-1-1 3h1v-3h1l1 2 2-1 1 1 2 1v1l2 1 2-1 7-2c4 0 8 0 12 2h6m2 2-1-2-1 1 2 1m0 40v-3h-1l1 3m7-175v-3l-3 2 3 1m-2 206 1-1-1-2v3m4-213-2-2-1 1c2 2 2 2 3 1m3 5v-2l-1 1zm4 238 1 1 1-1h-2m3 5 1-2h-3l2 2m3 4-3-1c1 0 1 2 3 1m2-2-1-1h4l1-1h-6v-1l-2 1 4 2m-1 27h-2v4l3-3-1-1m-1 14h2-2m-1 10v1-1m-1-8h2-2m-3 0 1 2 2-1-3-1m-3 1 2 2h-1c2 1 2-1 3-1l-4-1m8 20-3 3h1l3-2-1-1m2 10c2 0 2-1 2-2h-1l-1 1v-2 1l-1-1 1 3m0-14-1 2 1 1 1 1v-4h-1m2-41-2-1 1 1h1m0 14-1-1h1l1-1h-1l-2 1 2 1m1 28v1l1 1 1-1-1-1h-1l1-1c-2 0-2 0-1 1m5-47h-3 3m0-14h1l-1-1-1 1h1m1 79 1-1c1 1 0 2 2 3l4-2-3-1 1 2h-2c0-2-1-2-2-3l-1 2m3 16v5l1 1h5l-3-3v1l-3-4m2 25 2-1v-1l-2 2m4 2 4 3-1-3-5-3c0 1 0 2 2 3m3 7v3l1-2zm-1 11c0 2-2 3-1 4l2-2c1-1 0-1-1-2m-2 11v1h-1l1 2h1v-4l-1 1m-1-2h-1l1 1h1l-1-1m-2 1-1 3 2 1-1-4m4 7v-3 3m-1 7v-2 2m6-16-1-2-2 2v2h-1l1 1 3-3m0-21 1 2v-1l-1-2-2-1v1l2 1m2 40 1-1-1-1v2m2-3h2v-2l-1 1-1-3h-1l-1 3 1 1v-3c2 1 1 2 1 3m2 2 1 1c1 0 2-2 1-3-2 0-2 1-2 2m3-35 4-3v-2l-4 3-1 2h1m9-7c-2 0-2 1-3 2l-1-1v1c1 1 3 0 4-2m3-7c-2-1-3 0-3 2 2 0 2-2 3-2m0-5v3zm-9-10 2-2 1-1-1-1-2-1-1 2v-2l-2 4 3 1m1-10v2h1l-1-2m1-17 1-1h-1v1m1 2 3-1-1-1-2 1-1 1zm2 5h1l1-1v-1l-2 1v1m1-17-1 3h1l-1 1h2l-1-4m-2 7-1 1h2l-1-1m-2-7-1 1v1l2-1-1-1m-4 10 1 1v-1l1 3 1-1-1-2h-2m15-54h-3 3m2 11c-1-1-2 1-3 1l3-1m1 7h-1c1 1 1 1 2-1l-2-1c-1 1-1 1 1 2m2-2 2 1-2-4h1l2 1-1-2h-2v-1l-1 1 1 1h-1l1 3m1-12h-4v1l4-1m4-17v-1c-6 4 0 1 0 1m8 0h-1 5l-2 2 2-2 3-2h-1l-5-3v1l-2-1-1-1-1 2-1 1 4 3m7-1 3 3v-1h-1v-5l-6-3v1l3 2 1 2v1l-1 3v1c2-1 1-3 1-4m10 10-1-1-1 1h2m5 1v1l1-3-2 1 1 1m3 3 1-1 1 3h1v-2l-1-2 2 1 1-1-1-3-2-3-1 2 1 2-2 3v1m0 7 1 2 1-1-1-1h-1m4 6v3l2-2c-2-1-1-2-2-4h-1l1 3m-1 8 1 1 1-2-2 1m4-4 1-3h-1v3m-2-32 1 2 2-1-3-1m5 22 2-1-2 1m1 2 1-2-1 1v1m2 5c2 0 2 1 3 2l1 1c1-3-2-4-2-6 0 1-2 1-2 3m5-3 2-2-1-1-3 2 2 1m1 2-1-2-1 3 2-1m0 10 2 1 1-1 1 1 1-2h-3l-1 1h-1m4 7 1-2h-1zm2-10 1-2 1 1h1l-2-1 1-1h-2v1h-2c-1 1-1 1 2 3l-1-2 1 1m4-84-2 3c1 0 2 0 2-3m1 59-1-1v1h1m0 3h3l-1-1c-1 0-1-2-3-1l1 2m3 22-3 1 3-1m0 3h1v-1l-1 1m0 15 2-2v-1l-1 1-1 2m-1 4 2-1 2-1v-3l-3 2-1 3m3 4h1l-3-1 2 1m-1 9v-3l-1 2 1 1m2-7v1c2-1 2-1 2-3l-2 1v1m2 7-1-1-1 1h2m6-15-2-1v1l1 1 1-1m-2 6 1-1-3-4 4 3v-2l-1-1-4-1 3-1-3-5-1 2 1 1c0 2 0 3-2 5h-1v-1l-3 2h7l-1 2v2l3-1m3-11v-1l-1-3v1l-2-1 2 7 1-3m4-1v-1l-3-2-1 2 4 1m0 4h1l-2-1 1 1m1 0v-4c-1 0-2 1-1 2l1 2m1-5-2-1c0 2 1 2 2 1m-5-4 2 2 2-2h-4m0-3 1 2-1-2m-1-1h-3l2 1h1l1-1h-1m-6-8-1 1v1l1-2m1 1 1-2h-1l-1 2h1m2-4v-1h-2l2 1m2-14v2l3-1v2l5-1h1-2c-3-1-5-2-7-5h1v-1l-3-1h-1c3 1 3 3 3 5m4 6 1-1 3-1 1-1-3 1h-4v1l-1 1h3m-2 3c2 0 2 0 2-2h-3l1 2m1-19h-3 3m4-1 4-3-3 1h-3l-3-1v1l5 2m5-5-2-1 1-1-2-3-1-2-2 2 1 2 3 4c1 1 2 0 2-1m1-6-2-1v1l1 1 1-1m1-19-2-1 2 1m2-2h-2 2m0 26-1-2 1 2m1-18v-1l-1 1h1m4-3c-2-1-3-2-3-4-1 2 1 4 3 4m1-3 1 5 2-1h3l1-1 2 1h-3l-3 2c1 1 3 0 3 2h-1v1l2 3 1 1 1-1v-1h-1l-2-3 5 2-1-3h-1l1-1h-2l1-1c1-1 1-2-1-2h-1l-1-2 1-1-2-1h-2 2l1-3 1 1 2-3h-3 2c-2-2-3-4-6-4l3-2c-2-1-3-2-2-5l4 4v-2l-2-3-2 1c0-2 1-3 2-3l2-1h-1l-1-1-1-1h-2l2 1c-1 2-2 3-4 3l1-2h-2v1l1 3-3-2h-5l-1 1 1 1 1-1 2-1-4 4 1 1c2-2 5-2 8-1-2 2-5 3-7 2l-1-1h-1l-2 2c3-1 6 0 8 3h-4c0 1 1 3 3 2l6 1-2 1-3 2h-2v1c2 0 4 0 5 2m2 10h1l-2-1 1 1m2 7h2c-2 0-1-2-2-3v3m3-2-1-2v2h1m2 0h-1 1m1 9v-2c-2 0-1 1-1 2h1m3 2c-1 2-1 2 1 3h1l2-2h1l-1-1v-3h-3l1 2-2-1-1-1 1 3m1 5-2-2v1l-1-1c0 2 1 3 3 2m14-2v-2l-1 2-1-1v1l-1 1 3-1m1-3-2-1c0 2 1 2 2 1m-1-11h2l-3-1 1 1m3-4c0-2-2-3-4-2h2c0 1 0 2 2 2m0-3 2-2c-1-1-2-2-1-4h-1v1l-1 2v1l-1 2h2m7-34-1 1h1l1-2-1 1m3-17 1-1h-2l1 1m4-15-2-1 2-2h-4l1 1 1 2h2m5-5 1-1-2-1 1-1v-1h-1v-1h-3l3-1-2-1h2v-2h1v-1l-2 1-3-1 5-1-3-1h2v-4l-2 1 1-2-2-1 1 3-2 1-1-1-1-1 1 3c-1 1-2 2-4 1l2 1 2 3c-2 0-3-1-3-3h-1l2 4-2 1 1 1h1l-1 2 2-1c0 1 0 3-2 3h4-1l3 2v-1l1-1 2 1m1 7 3-2v-1l-1 1h-2v2m3 4 2 2h1v-2h-1l-1-2v-1l-1 3m2 4 1-1h1c-1-1-2 0-2 1m5-28v2h2v-1l-1-1-1-1v1m3-134h1l1 2-1-1h2l-4-4v4l1-1m0 52 1-2h-1v2m3-11v-1l-2-1c0 2 0 2 1 1v1h1m0 43v1h1v-1h-1l1-1v-1h-1v1l1-2-1 1-1 2v-1l-1 1h2m1 77 1 1v-1l-2-2-1 2h2m4-8-2-1h1l-1-1-1 1h-1l2 1-1 1v1l1-1 2-1m-3-31h-2l1 2v-1l1-1m-15-118c1-1 2-2 3-1v1h1v-1l1-1v-2l1-2-1-6v-11l1-3-5 15-1 11m-16 27v1h2v-3l-2 2m-2 10-3-2 3 2m-17-45-1-1-4 27h1l4-4 2-3 1-3-1-5v-1l-2-7v-3m-8 18h-1 2l6-26v-4l1-5v-2c-5 11-9 24-11 36l3 1m-18 13h1-1m-8-14v1-1m-19-6v-2h-1l1 2m-15-11h-1 1m-29-20v-2h1l3-2-1-5-4 7h-1l2 2m-2 3v-1l-2 3 2-2m-2 9 2-4-3 4h1m-5-15 1-1 1-1-1-2-2 3 1 1m-1 3v-2 2m-21 21h1v-2l-1 2m-9-4v3l1-1-1-2m-2 21c1-1 0-1-1-2l1 2m-22-11v2l2-5-2 3m-4-5 1-1v2c2-1 3-2 3-4l-1-3c-2 1-3 4-3 6m-1-9-1-3-2 5 3-2m-19-11v3-3m21 327-2-1 1 2 1-1m1-6-2-1v2l2-1m1 22 1-2h1l-1-3-2 4 1 1m3 0 1 2-2-1-1 2-1-1 2 2h1l3-1-3-3m4 6v-2h-1l1 2m8 56h-1v1h-1v3l2-2v-2m-2-5v1l1-2-1 1m1-15-1 1 1 2 2-4h1l-3 1m4-21-1-1-2 2v1l2-1 1-1m-2-8-1 2 1-1 1-3 1-1-2 3m46-102h-1v-1l3-1-1-1-3-3v-1l-2-1 1 5-2-2v-3h-1l-1 2-1 2 7 5 1-1m2 6-1-2v2h1m9 2h3-3m5 3-2 2 2-1v-1m4-3-2 1 2-1m1-7h2-2m4 11v1l1 1v-1c1-1 0-1-1-1m6-3-2-2c0 2 0 2 2 2m-2 17v1l1 1 1-1-2-1m0-6 3 2c-1-1-1-2-3-2m5-39c0-2 0-2-2-1l2 1m1 25c0-1 0-2-2-2l2 2m5 9-5-1h-1l1 2 2-1h3m1 18-1-1 2 1v-1l-1 1m0-15v1-1m2-68v1-5l-1 2v2l-1-1-1-1-1 5 2 1h2l1-1-1-3m3 54h-1l2 2-1-2m2-48-2 3h2v-3m3 46h-2l2-1v-1l-2 2v3c2 0 1-2 2-3m1 7h-2v1l2-1m-1 22h2l-1-1-1 1m0-7 3 3-3-3m5-17-2-1c0 2 1 2 2 1m0 13v1h-2l2 2v-3m2-71h-1l-3 1 2 1 2-1v-1m0-7-1 1 1-1m7 62 1 1h3l-4-1m-4-63c2 1 4 1 4-1l-4 1m9 20h-1v2l1-1v-1m4-27 1-1h-2l1 1m2 21h-2l1 1h-1l-1 2 3-2v-1m0-1 2 2h1l-3-2m3-6-1-1-1 1 2 2v-2m-4-6 2 1c0-1-1-2-2-1m4-4h-2l1 2h2l-1-2m8 9-3 1 1-1h-1v-1h-1v2l2 1 2-2m1 4 2 1 1-1h1v-1l-3-2h-1v-1l-1 3 1 1m1 3v-1 1m6 34c-2-1-3 0-3 1l3-1m-4 6h4l-2-2h-2l2 1-2 1m1 3h-1l-1 1v1l2-2m4-5-3-1v1h3m-1 5 1-2-2 1 1 1m-2-6h4l-1-1-3 1m0-4v1l1-1h3l-1-2-3 2m-1 0h1l1-2h-1l1-1v-1l-1 1-1 3m27-44h1-1m2-28h-1 1m-2-5 1 1 2-1h-3m5-27-1-1v3h1v-2m1 9v1l2-2-2 1m6 7 1 3v-2l-1-1m1-1v-3l-1 2-1 2 2-1m-5-84v2l1-1-1-1m-5-4-1 1 1-1m-24-17-1 1 4 1-2-3 2 1v-5l-5 5h2m-34-6-1 3-1 1h-2l-2-1 1 2 1 2h2-1l1-2h2v1h1l1-2-2-4m-5-5h2v-1h1-2l-1 1m-1 6h1l-1-1v1m-8-9 1 1-2 1h2v-3l-1 1m-44-27v-2l1 1v-3l-2 3 1 1m-21 246v-1 1m14-15 2-3h-1l-3 1v1h2v1m2 9-2 1 1 1 2-1-1-1m13 15h-2 2m17-36-1 1h2l-1-1m5 33-2-1zm0 6c0 2 0 2 2 3l1-1-3-2m3-7-2 1v1h1l1-1v-1m-2-33v4l1 1 1-2-2-3m2-34-1 3v3l2-3c1-1 0-2-1-3m3-3v-3l-1-4-2 3-3 4c0 2-2 2-3 4l1 3h2l1-1-1-2-1 2c0-2 0-4 2-5v3l1-4 2 3 2-2v-1m5-33v1-1m1 27 1-1v-1l1-2c-1 1-3 2-2 3-2 0-3 2-2 3l2-2m-2 5v2-2m0 2v2-2m2 19-2 3v1c2-1 3-2 2-4m-2-10 3 3c0-2-1-3-3-3m7-1 2-2 1-1-1-2c0 2-2 3-4 3l3-3h-5l-1 2-1-2-1 2 2 1h2l3 2m-1 3c2 0 2 0 2-2h-3l1 2m0 60-1 3h2l-1-3m0-3 1 3-1-3m3-55-2 1v1h2v-2m1-1h-1v1l1-1m-2-10 1-1-1 1m3-4-4 1c0 1 1 2 2 1l2-2m0 1 1 3 2 5 1-2v-3l-4-3m4-2-1-3v-1 5l2 2h3l-4-3m9-10-1-2-1 2h2m12 4-1-2-2 2h3m-2 10-2-1v1h2m1 3h-2zm39-18v1h1l-1-1m-2-9v-1l-1 2h1l-1 1h1v-2m3-25v-2l-1-1-1 4h1l2 2c1-1 0-2-1-3m11 9h1-1m-14-32 1 2h1l2-4h-1l-1 1v1l-4-1 2 1m-44-61h-1l1 1v-1m-14-5v1-1m-4 1h2v-2h-1l-1 1v1m0-7-2 1 2-1m-5 4h3-3m0-2 1-1-1-1v2m-18 176h1v-3l-2 2 1 1m4 11-2 1v1l2-1v-1m-1-18v-1l-1 1-1-1-1 2 3-1m0-12-4 2c1 2 2 3 3 2l-1-2h3l-1-2m0-18-1-2-3 7 1-2zm3-10-2 2 2-2m9-23 2-2-3 2h1m2 2v-1l-3 2 3-1m-2 11-2 1 2-1m1 9-2 1c1 2 1 2 2 1v-2m3-18-1-1h-1l-2 2c2 1 3 0 4-1m-1 24-1-3 1 3m5-3 1-3-3 1 2 2m2 3c2 0 2-2 1-3-1 2-2 3-4 2v3l3-2m1 0-1 2c1 0 2-1 1-2m-1 3v2-2m3-9-2-2h-5l3 2 1-1h1v2l2-1m0 1 1 1 1-1h-2m3-37-1 1-1-1-1 2-2-2v1l1 2 1-1-1 2 4-4m7 18v1-1m15 41-1-2 1 2m9-4-1 1h1v-1m23-48h-1l1 1v-1m0-5-1 4 1-1v-3m12-13v-2h-2 1l-1 1h1-1v1h2m-83-66 3 2 1-1v1l1-1-5-1m-34 165h-2 2m6 2-1-1-1 2c1 1 2 2 3 1l-1-2m0-9-2 2v-3l-1 2v-1l-3 1h-3v1l2-1 5 1h-3l3 3h1l-2-2h4l-1-3m6-26h1-3l3 2h1l-1-1v-1h-1m3 19 1-2-2 2h1m3-31h1-1m16-78h-1 1m5 1h1-1m3 3 1-2-2 1 1 1m-1 16 3-1-3-1v2m0 7v-2l-1 2h1m-1 3 1-1-2-1 1 2m3 35 2 1-2-1m2-17-1 1 1 1v-2m-2-16h-3l2 1 1-1m-2 12h1zm4-11h-1l1 2-2-1 1 1 2-1-1-1m12 12h-2l1 1 1-1m1 2v-1 1m-1 0h2-2m6-63h-1 1m-6 3h2-2m-16-21v1l1-1v-1l-1 1m1-5-2-1 2 1m-1 39h2-2m0 0 1-3-3 1 2 2m3 16v2h1l-1-2m14 34h1v-2h-1v2m-1-62 1 1-1-1m-7-20h-2v1l2-1m-24 14v1-1m6 10v-2h-1v1l1 1m1 2-1-1v2l1-1m-1-23h1l-2-1 1 1m-1 6h-3 3m3 2-1-1v1h-3 4m4-2h-1v1l1-1m8 15v-1 1m-2 4 1-2-2 1 1 1m4 8v1-4l-1-1v4h1m2 14-1-2v2h1m6-32-2-1 1 2h1v-1m0-16v1l1-1h-1m-13 12h1v-1l-1 1m5 18 1-1-1-1-2 1 2 1m0 1h1l-1-1h-1l1 1m1 1v-1h-1l1 1m2-21 1-1h-1v1m0 18 2-2 1 2 1-1-1-1-2-2c-1 0-2 1-1 2v2m5-4-2-1-2-2-1 2-1-1v1h2v1h2l2 1v-1l1 1v-1h-1m-1-1h1-1m-3-4h1l-1-1v1m0-9h1-1v1-1m-1 9 1 1v-1l-1-1v1m1-8h-1 1m-1-5 1-1h-1v1m-6 18v1-1m2-3-2 2h3l-1-1v-1m-2 10c1-1 2-1 1-3l-1 3m-12-3h1v-2c-1 0-2 0-2 2h1m24-29h1-1m0 67 3-1h-2l-1 1m-18-42h-2l-1 2h1l1-1h4c0-2 1-3 3-4l-1-1h-2l-1 1v-1h-1l-1 1v-1h-1v1h-1l-1-1 1 2 3 1zm-20-1v1l1-1h-1m-13 17-1 2h2l1 1h1l4 1 1 1 3-2-1-2-1-1h-6l1 2-4-2m-10 100-2 2 1 1v2l1 2 2-4-2-3m7 3-1 1h1zm8-15 1-1h-1l-1 1h1m0-5 1 1v-1 1l1-2-2 1m1-11v1-1m5-1c2-1 2-2 2-4l-2 4m8-35v-2 2m-10-41h-2v1l4 2v-1h-1l1-1h-2v-1m-4 3h2l-1-2-1 1v1m6-4 1 1v-1h-1m5 5-1-1-2-1h-2l1 1 4 1m-3 4h1l1-2h-2v2m2 3h-2v1h4l-2-3h-3l3 2m-14 2 2-1h-3l1 1m-6 88v-1h-1v1h-1 2m4-1v-1 1m2-11h-2 1l-1 1v1h1l1-2m8-12v-1 1m2-5v2-2m4-55-1 1 2-1h-1m-15-1 1 2h1l-1-2h-1m-2 75h1-1m3-5v-1l-1 1h1m7-19 1 1-1-1m-3-32v1l1 1v-2h-1m-15 63-1 1 1 1zm1 2v1-1m11-35h1l-1-1v1m-5-5-2 2 1 2h4l1-3-4-1m-5-41v1h1l-1-1m-3 38v1h2v-1l1-1v1l-1-4-3 3 1 1m-2 3h2-2m6 18h-2 2m2 7v1-1m4-3v1-1m-2-22-3 1 3-1m5-23v-1h-1l1 1m-6 12h1l1-1h-2v1m4 2h-1 1m3-2-1-1v2h1v-1m1-8v1h1v-1h-1m-13 20 1-1h-1v1m3 10 1-1h-1l-2 1h2m1 12 2-2v-1h-1l-1 2h1l-1 1m-2-4h1-1m-4-19 2 1-1-1h-1m-2 2h2-2m7-44h-1l1 1v-1m8 39c3 0 3-1 2-3h1l-2-1v1h-3l-1 1h-1v-1l-2-2-1 1v1l2 2v1l3 1h-1l3-1m-4-38-1-1h-1l1 2h1v-1m10 41h-4l2 2 2-2m-9 24h-1l-2 2h-1l1 1 3-1v-2m5-20v-1h1l-3-2 1 3h1m-6 33v-1l-1-1-2-1v2l3 1m-11 9v-1l-1 1h1m-3-1 1 1v-1h-1m-3 9v1l1-1h-1m-1-6v3h1l2-2v-1h-3m34-100 2 1-2-1m-1 61 1-2-1-1v3m-26 43v-1l-1-1v-1l-2-2-1-1h-1l2 2h-1l1 3v-2l3 3v1-1m31-72 1 1-1-1m-4 31v-1 1m-22 43-1-1v2l1-1m1-1-2-1c1 1 1 2 2 1m34-173v1l1 1-1-2m26 23-1-1-1 1h2m7 86h1-1m8 36v1-1m6 0 1-1h-1v1m5-39v-1h-1l1 1m18-15v1-1m-8-24 1 2 1-1v-1l-1 1-1-1m3 53-1-1v1h1m-11-63h-1l1 2v-2m-2 41-1-1-1-2v1h-1v1l1 1h-2v1h1l1-1h2m-12 46h2-2m43-69 2-1h-2l-1 1h1m-6-10 2 1v-1l-3-2 1 2m6 8v1l1-1h-1m0 0h1-1m2-3h-3l2 2 2-3-1 1m0-21v-2 2m-3 22v1l1 1-1-3v1m3-21h-1v2l1-1v-1m-1 19v-1l-1-1h1-1l-1 1 2 1m2-17 1 1v-3l-1 1v1m-1 27 2-1-2-2v3m-15 16h1-1m-27 52-1-1 1 1m-20-42h1-1m-4-16 1 3-1-3m2 1c0-2-1-2-3-2l3 2m-19-2v2l1 2v3l1-1 1 3h1v-1l-1-3h2l-1-1-1-2-1-2-2-1-2-1 2 2m-16 67 4-5-6 4h3l-1 1m-4 14 1-1h-1v-1 2m-11 12-1-2v1l1 1m58-144v1zm44 87 1-1v-1h-1l-2 3h2v-1m-55-26 3 1h-2l1 3 1-1v1l2-1c-1-1-2-1-2-3l2-2h-1v-1l-2 1-1 1c0-1 0-3-2-3v1l1 1v2m-17 38c0 1 0 2 2 3l-2-4v1m1-1 4 1 1-2v-1l-1-1c-2 1-3 3-6 2l2 1m-2-32h1l1-3-2 3m-1-36 1 1 2-3v1l5-2 1-1-1-1-2-2-1 3c0-2-1-2-2-3v2l-1-1v1-1l-2-1h-1 1l1 3h-2l2 2-1 2m-36-115c1-1 1-1-1-3-1 1 1 2 1 3m35 34-1-1h-1l2 1m77 27v1-1m18 18v1l-1-1v1h1v-1m-49 125h1-1m-12-23v1-1m-11 5 2 1-1-2-1 1m1-1 1-1v-3l-1-1-2-3h-1v2h-1l-3-1-1-1 1 2c2 1 4 2 4 4v-1l3 3m-22-17v3l1-1v-4l-1-1v3m-14 58h1v-1zm-6 3 1 1h3l-3-1h1l-2-3 2 1v-2c-2 0-2 0-3 2v2h1m-18 36 2-1-2 1m-24-15v-1h-2l1 1h1m89-207v1l-1 1c2 0 2-1 2-2h-1m54 91-1 1v2h2-1v-1h-1l3-1-1-1h-1m-30 118 1-1v-1h-1v2m-4 0h3l-1-1h-4l2 1m-5-22 2 1-2-2v1m0-1 4 1v1l1-1h-2l4-1v-1h-3l-1-1-1 1h2c-1 1-3 2-4 1m-17-37h1v-2c-2 1-2 1-1 2m1-11 1-2 2 1 1 1 2-1c2 0 2-1 1-2v-1l-4 1h-1l2-3 1-3-1 1h-3v1l-1 2-3-1 3 6m-6 11v2l2-2v-1l-2 1m1-2h2v-1l-1-1-1 2-2-3-1 3-2 2h-1v1l3-2 3-1m-8 8h6-1v-2l-2-2c-1-1-2 0-4 1l5 1-4 2m5 13-1-1h-1v1h2m-4 47 1-1 3-1-3 1c0-2 0-2-2-2l1 3m-7 38h1l-1-3-1 2 1 1m1-10-3-1v3l3-2m-8-6 1 2 2-1-3-1m0-2c2 0 2 2 3 3v-4l-1-1-1 1 1 1h-2m-26-4-1 1-1 2h1l1-1v-2m-63 59 1 2 1-3-2 1m1-7h-1l-3 1v1l1 2 2-2 1-2m-13 30 1 1v-1l-1-1v1m14-326-1-3c-1 1 0 2 1 3m-1-8 1-2-1 1v-3zm5-17v-3zm-1 1-2 2h1v-1h1l1 3c1-2-1-3-1-4m6-1v3-3m2-3v3-3m-1 7c-1 1 1 1 1 2 2-1 3-4 2-5l-3 3m12-8-1-2-1 2 1-1 1 2v-1m39-14 1-1v-2l-2 1v2h1m44 43h-1 1m9 7h-1v2l1-2m1 4-1-2h-1l1 3-3-3-2-2v1h-2l2 3h1l-1 4h1l1-2v-1h2l-2 1v1l1-1h2v-1h1l-1-1h1m37 6c0-11-2-21-5-31v1l1 4v14c-1 2-2 4-1 7l1 2v2l1 1 1 1 1 1 1-1-2-1h2m10-2 2 1v-2h-2v1m-423 132 2-1-2 1m-1 0-1 1h3l-1-1-1 1v-1m-2 1v1h-2l-1 1h2l2-1h-1v-1m33 54-5 2v-1l1 1h2l2-2m0-12-1 2 1-2m-5-2v1l1 2h1l-2-3m1 4-1-2c0 1-1 1 1 2m-3-3c-1 1 0 1 1 2l-1-2m-2 2h1l1 2h1l-1-2h-2m-2 1 2 4v-5l-2 1m2 11-3 2h-3l1 1 7-2-2-1m-4 5h1v1l2-2-3 1m11 6v-2h-1l1 2m-18-53 2 1-2-1m-2 0 1 3h1l-2-3m3 33 1-1-1 1m19 26 1-1-1-1-1 2 3 1-2-1m-9 3v2l1-1-1-1m8 14v1l1-1h-1m16 64v1h1v-1h-1m-3 13 1 1 1-2-2 1m10 8v2-2m8 11v-1h-1l1 1m-2-1h-1v2l1-2m-9 4v2-2m18 32-1 1 1-1m-5-8-1 2v1h1v-3m4 30v2-2m-2 3-1 1 2 1-1-2m21-20 3-2h-4l1 2m7-22 1-1v1l1-1h-2v1m3 1 1-1-2-1 1 2m3 1-1-2 1 2m1 2 1-3h-1v3m-4-26-2-1v-1h-1v2zm1 0h1l-2-2 1 2m3 1v-3h-1l1 3m5 0-2-1h-1v-1l-1 2h4m-5-27-1-1v2l1-1m8-6 1-1-1-1v2m4 4 2-2-2-1v3m3 1 2 3 1-1 1 3 1 2 2-1-1-1-2-4h-1l-3-3-1 1 1 1m-3-21 1-1h-1l-1 1h1m11-37 1-1h-2l1 1m0-18-1-2-1 1 1 1c-1 0-2-1-2 1l3-1m8 8v-1l-1-1h-1l2 2m2-2-2-3-1 1 3 2m2 5c1-1-1-1-1-2l1 2m65-52 1-1-1-1-1 2 3 2c0-2-2-1-2-2m-11 4v2l2-1-2-1m9 16v1l1 1 1-2h-2m19 74v2h1v-1l-1-1m-3 16 1 1 1-2-2 1m11 9v3c2-2 2-2 0-3m9 13v-1l-1 3 1-2m-2-1-1 2h1v-2m-10 5h-1l1 3v-3m21 37-2 1 1 1 1-1v-1m-6-9c-1 0-2 1-1 2v1l1-3m4 35 1 3c1-2 1-2-1-3m-1 3-2 2 3 1-1-3m24-23 3-2c-1-1-3-2-5-1l2 3m8-25 1-2v1l1-1h-2l-1 1 1 1m4 0v-1l-1-1v1l1 1m3 2-1-3 1 3m2 1v-2l-1 2h1m-6-29-2-2v-1l-1 3zm1 0h2l-2-3h-1l1 3m4 0 1-3h-1v1-1l-1 1 1 2m6 1-3-2v1-1l-2 1 5 1m-6-32h-1 1m10-7v-3l-1 1 1 2m5 5 1-2-2-1 1 3m2 1 3 3 1-1 2 3v3l2-1v-1h-1l-2-4h-1l-3-5-1 2v1m-3-24 1-2-1 1v1m39 11 1 2c1-1 1-1-1-2m14 22h1l1-2-2 2m1 4 1-1h-1v1m109-180v-1l1-1h-1v1h-1l1 1m2-116v1l1-1-2-1h-1l2 1m4 88v-3l-2 1 2 2m1-27 1-2h-2l1 1h-2 1l-1 1h1zm3-14h-2l-1-1 1 2 2-1m0 11h2l-1-1v1h-2 1m4-4-2-3v3l-1 2v1l3-3m-1-19 2-4-2 1-1 2 1 1m3-4-1-4-1 2 1 2h1m-4-3v1h-2l1 3 1-1v1l1-1-2-1 2-1 1-1h-2m-2-27h1l1 1-1-2 1-1-2 2m1-4-1-1 1-2-1 1-2 2 1 2 1-1-1-1 2 1v-1m4 0h-1l1-1-3 3 3-2m84 20h-2 1l-1 1h2v-1m-2 13v-2 3l1-1h-1m0-5-2 1-1-1 1 1h2zm1 11 1-2-1-1v3m3 29h-4l2 1 1 1h1v-2m3 54h-1l1 2v-2m28 104 3 2v-1l-3-1m1-10-1-1 1 1m33 19-2-1 2 1m-2-9h2l-1-1-1 1m5-37 1-1-1-1v2m27 3h3l1-2-4 2m-1-2-1 1 2-1h-1m19 8v1l1-1h-1m0 6v1h1l-1-1m12 19c2-1 1-2 2-3-2 0-2 1-2 3m-1 3v3l-2 3 3-2v-4h-1m-2-3-1-1v3l2-1-1-1m-1 14 2-1h-1l-1 1m4-4c2 0 1-1 2-2h-1l-1 2m5 12 1 3c1-1 1-1-1-3m56 18 1 2 1-2h-2m13 49h-2l2 1v-1m-1 23-2 2 3-2h-1m-2 4-1-2-3 5c-2 1-3 3-3 5v-1l-1 2 2 1 1-3 1-4 1 2 3-4v-1m16 2h-1l1 2v-2m6 32v1l-2 2h2v-3m-3 0-2 3 2-1v-2m-3-1v1h-1v3l1-3v-1m-3 2v2l-1-1-2 2 4-1-1-2m10 28-2 1v1l1-1 1 1v-2m-3 1-1 1v1l1-2m-4 4 1-3-1 3m-1-1h-1l1 3v-3m12 25 2 2 2-3c-1-1-3-1-4 1m23 27v-3 3m3 3-1-3-1 4 2-1m-3-33v-1l-1-1-1 1 2 1m5-8v-2l-1-2 1 4m3-37-1-4-1 1 2 3m1-2v-2 2m9 7v-3 3m-3-19v-3c-1 1-2 1 0 3m9-12 1-1-2-2 1 3m-3-17h1v-2l-1 2m17-83 1-1h-1v1m1-24-1-2-1 1 1 1c-1 1-2 0-3 2l4-2m8 7 1-2-2 1 1 1m48 19h-1l1 1v-1m3 16v2-2m-4 4-1 1 1 2 1-2-1-1m-2 2-3 4c-2 1-3 3-2 4h-1v1l1 1 1-2 1-4 1 2 2-4v-2m14 3h-1 1m5 28v1l-2 1h3l-1-2m-2 0-2 2v1l1-1 1-2m-3-1v1h-1v3h1v-4m-3 2v2-1l-2 2 4-1-2-2m9 25h-2l1 1v-1l1 1v-1m-2 0-1 1v1l1-2m-4 3 1-2-1 2m-1 0v-1 3-2m11 21 2 2 2-2h-4m19 24 1-2-1 2m3 2-1-2-1 3 2-1m-2-28v-1l-1-1-1 1 2 1m4-7v-2l-1-2v1l1 3m3-32-1-3v-1l-1 1 2 3m1-2v-2h-1l1 2m7 6 1-2h-1v2m-3-16 1-3c-2 1-2 1-1 3m9-11 1-1-2-1 1 2m-3-15h1v-1l-1 1m15-71 1-2h-1v2m0-21v-2l-1 1 1 1c-1 0-2-1-2 1l2-1m8 5v-1l-1 1h1m70 47 2-1-2 1m0-2h-2v1l2-1m-2 7v1-1l1 1-1-1m3 15-1 2 1-2m-4-20-3 3c2 0 4-2 3-3m-6 10h1l1-1-2 1m-1 3c0 1 1 3-1 3h2c1-1 1-2-1-3m-2 0v2h1l-1-2m-2 8v1h1l-1-1m-1-3-1 1 2 1v-1l-1-1m0 10h-1v-1l-1 3 2-2m46 58-1 3v-3l-3 2v-2h-1v3c1 2-1 3-2 5-1-3 0-5 2-8h-1v1l-2 1-2 2c0-2 1-3 2-3l2-1-3 1-3-1v-1l3-1v-3h-4l2-3c-1 0-2 0-3-2h2-7l2-1h1l-2-3h-1v4c-2-1-2-3-1-5h-3l2-2 1-1v-1h-2c0-1 1-2 3-2l-2-4-1 1c1 1 0 3-1 4-1-2-1-3 1-5l-3-1 5-1v1c1-1 1-2 3-2l-1-1h4v-1l3 1 1-4-2 1-3 1 2-3h-2v-2h-1l-1 4-2 3 1-5v-1h-1l-2 1 2-3-4-2h1l4-1-2-1h1l-1-1c-1 0-3-1-3-3l-1-2v2l-1 2-2 2c-1-5 0-5 1-6l-1-1h-2c1-2 3-3 6-2l-3 2h4l1-2 2-2v-1c0-2-1-3 1-5h-3v1h-1c-2 0-3-1-3-2l-1-2-1-1-2 6c-1-2-1-4-3-5v3l-2-1h-2l-1-1-1 1-1 1v2l-2-2v1h-2l3 2h-5l-2-1c2 1 1 3 1 5-2-1-3-3-2-5l-3 1 2-4c2 0 2-1 1-2l3-4v-1l-5 4c1-2 1-3 3-3l1-1c-2 1-4 0-6-1l3-1 1-1 1-1 1-2h2c-2 1-3-1-5-2h5l1-1 1-2v-1h-1c0-2 2-1 3-1l-3-2 3-1 1 1 1-5 4-2-1-1-3-1-2-1 6-1c1 1 2-1 2-2h-3c1-2 3-3 6-3l-2-1h-8c3-2 5-2 8-1l-4-3h4l-1-1h-4l-1 1-2 1 1-2v-1h-2l1 1-4-2 2-1h-2l-1 1-3 1-1 1v2c-1 1-1 3-4 2l3 3c-3 1-5 0-7-2h1l-2-1 1 2-1 3-3 3v-4l2-3h-2l-1 2-1 3-1-6-3 3c0-2 1-3 2-3l2-1h-6l1-1-3-3h-1v5c-1-1-2-3-1-5h-3l3-2v-1l3-4v-1h-1l-2 1-1 1c-1 3-4 4-7 4 2-3 3-5 6-5l3-2-3 1-4-1c1 0 2-2 3-1h1v-1l-2-4 4 1v-4l3-4-2-2-4 1c1-3 3-4 4-5l-3-1v1c-1 0-3-1-3-3l-1-3 1 4-2 4-2-2v-1 2l-1-3v3l-3-5v2c-1 0-1-2-2-1v-3h-1v1h-1c0-1 0-2-2-3 0 0-1-1-1 1v-1l-3-1v-2l-2 2v-3c-2 0-2 1-3 2v-3l-1 2-2-3-1-1v4l-2-3-2 2-1-1-1-2v-1h-1l1 2v1l-1-1-3 2 1 2 1 1 2-3v3l1-2 3 4 1-3 1 5 3-2c0 2-1 3-3 3l1 1v1h1c0-2 1-3 2-3l1 5v2l1-2 1 3v1c2 2 3 3 3 6v1c0-2 1-3 3-4-1 1 0 2 1 3v5l-2-5-3 3v-3l-2-4-1-1 1 3-1 1-2-1c-1-1-1-2-2-1v-2 1h-1l-1-1c-1-1-3-3-5-3h-3l1 1h-5 1l-1 1c2 1 3 3 6 3h-1l2 3h3l-1 1 4-1-2 3h1v1l2 3-2 2c1 0 2 0 3 2l-5-2 2-2-2 1v-2h-1l-1-1-1 1-2-2-2-1 1 2-3-2h-1l2 3h-3l-2-1h-4l-1-1h-1c1 1 1 3 3 2l2 1 2 1h1c1 3 3 4 4 5l4 4v1l-5-4-1 1 1 1v1h-1c-2-3-5-4-8-4l-1 1 1 1 1 2h1v-1l2 2v1l1-1 1-1 2 3v2l1-3 1 3 1-1 2 3 1-2-1 5h-1l-1-3-1 1v1h-2l-1-1h-2v2c-1-1-1-3-3-2l1 3c-1-1-2-2-3-1h-2l1 1h-1l2 1-2 1-1 1v-1l-4 1v1h4l1 1v1l3-1-1 2h1l-2 2 2 1 2-2-1 3h2l1-1v3l1-2 2 3c2 1 2 3 3 6l-1-1-1 3 2-2v2l-3 3v-3 2l-4-4v1l-4-1-1-1-1 1v-1h-1v1-1h-1l-2 3v1h3v2l1 2v1l1-3 1 5v-3h1l1 4 1-2v1l2 2 1 2c1 1 2 2 3 1l1 2v1l-1 1-1-1h-1v-1l-6-4 3 4-2 1 2 4-3-2 1-3v-2l-1-1-1 1 1 4v1h-1l-2-1-1 1 1 1 1 1 2 1 1 1h1l3 4 2-3v5l4-2-1 3-1 2 4-3v4l1 2v2l1-3h1l-1 4v1l1 1h1l-1 2v-1l-2-2v3c1 0 2 1 1 3l-1-2c0-3-2-3-3-5h-1c0-2-2-3-3-3l-1 1v-1l-1-1-1-1-2-1-2-2-1 1v-1l-2-1v1l-1-1-3-2v2l1 2 2 2 1-1-1 2 9 8 2 2v2l-5-4c-1 1 0 2 1 2l1 3 1-1-1 3c0-2-2-3-3-5v1h-1v-2l-1-2v2h-1l-1-2v-1l-2-1-1-1-2 2 1 2v1l-3-2h-2l-1-1v3l-2-1 2 5 3-4v3l1-2 1 2v1h3l-1 1 2 1 3 2h2l-1 2 1-1 1 2h1v2l2 1-1 3c1-2-1-2-2-4l-1 1 1-2-1-1-1 2v-2h-2l-1-2v2l-2-3-1 1v-1l-2 3-3-3 1 2-3-3h-1v2h-1l5 4 2 2v1l-5-3-5-3h-1v3h1v1l2-1 2 2-2 4v-1 1l-1 2 1 2-1-1h2v-4l1-3 1 1h1v1l1 1-1 3 2 1 1-4v4l-1 1 4-4v5-2l1-2v2h1c1 1 1 3 3 3 0 1 0 2 1 1l3 4c1 0 2 2 1 3h1l1-1v1l-1 1-4-4v1l-1-1v-1l-1 2c0-2-2-2-2-3v1c-1 0-2-2-3 0l-1-2-1 2-3-4 1 4-3-3-2 4h-2 1l-2 4h4l1-1v1l2 1 4 3v1h-1c-1-2-3-3-5-3l-1 1-1-1v3l-1-3-2 4v-3l-1 1v4l2-2h1v-1h3l1 1-1 1h-2v2l-1-2-2 3v-1l-1 3-1-1-4 5 1 1v-2h2l2-2 1 1c0-1 0-2 1-1l1 1v-1l1-1v2l1-2c1 1 1 1 2-1v5l-1-2-2 2v1l1-1-1 4-1 2-1-2v2l-1-3-1-1v1l1 3v1l-2-2 2 3c3 2 6 5 8 9l1 4-3-3-1 1 1-3-1-1v3h-1l-1-2v-2l-1 3-1-1-1-1-2-1v1l-1-1-1-2v2-1l1 3 3 4v-1l1-1v5l-1-1-1 3v1l1-1c1 2 0 4-1 6v-3l-1 1v-2l-2 1 2 4h1v3c2 1 2 3 2 4h-1l1 3v1l1-1 1 1v2h-1v-1l-1 1-1-3-1 1h1v4l1 2h1l-1 3v-1l-1-3-1-1-1-3v1l-1-2-1-1-1 2 1 2 1 1-1 1h-1v-1l-3-7-1-1v6l1-1v5l1 1v2l1-1-1 3v3h-1v-1l-1-1v-1l-1-2v4l-1 2-1-3v-4l-1 1 1-1h-1v2l-1 1-1 1v-2l2-6v-2l-1 1-1 1-1 1-1 3-1-3-1 1-1-2-1 3-1-1 1-2 1-1v-2l1-4h1l-1-1-3-4c2 0 3 1 4 3l1 2v-3h1l-2-1-1-4 2 2v-4h1c1-1 0-3-1-4l-4 6-1-1c0 1-2 2-1 3l-1-1 1 3-2-1-1 3v-7 1-4l1 1 1-2v-2l2 2c0-2-1-4 1-5v3l1-1-1-4 2 2h1v-5l1 3v1h1l-1-8-1 3v-1l-1 1v-1l-1 1-3-3v5l-1-4-1 2 2 2-3-1 1 3-1-1-1 2-1-1h1l1-2c0-3 1-5 3-6l2-3v-1l-1 2v-2l-1-1h-1l-1 1c0-1 1-2-1-2l-1-1-1 1v-1l-5 1 1-2-1 1-1-1h1l1-2 1 2v-2l1 1h1l1-1s0 2 1 1h4l1 1 1-1 2 2h2v1h1l-4-5-1 1h-1v-2 1l-2-3-1 1c0-2 0-2-2-2h-1l1-1h3c-4-2-7-2-10 1l1-2-1 1v-3l-3 2v-2c2-3 5-5 8-6h4l-2-3h-1l-2 1v-2c-2 0-1 2-2 3l-1-3-2 2-1-1-1 1v-1l-2 2v1l-1-2v2h-1v-1l-4 3v-2l1 1v-2l2-1 1-1v-1c2 0 2-1 2-2l1 2v-2h3v-1h2v1l1-1v-1h1l3-2v2l2-1h1l1 1h2v1h2l3 1h1l-5-5-1 1v-3h-1v1h-1l-1-2h-1l-6 1h-2l1-1 11-4v-1l-9-1c-3 0-6 1-8 3l-1-1 2-1 1-3-2 3v-3l-1 3-1-1-2 2v-2h1l1-1c2-3 4-4 6-5l1-1 2 1v-2l1 1v-2l1 1v-1l3 2v-1l3-1 1 2h2l1-1-2-1v1h-1l-1-2-2-1 1-1-1-1-1 2v-2h-3l-3 2h-1l1-1 1-1 1-4c-2 0-3 1-3 2v-1h-1v2-1l-2 3v-1l-2 3v-2l-1-2v-1l1 2 1-4v2h1l-1-3h1l1 1v-1l1-1 2-2 1-1v2l1-2h3l-1-1h1l1-1 1 1v-1l1 1v-4l1-3v-1l-1 1-1 1 1 1-1 2-1 2v-5l-2 3v-6l-1 1h1-1v5l-1-2-1 1-1-3-1-1v1h-1l-1 1-1-1-2 2-1-2v-1l1 1c1-1 2-1 2-3h2l1-1 1-1c1 2 2 1 3 0v1-1l1 1 2-2c1 2 1 2 2 1l2 2 1-2v-1l2 1v-1h1l-2-1h-8v-1 2c-1-1-1-2-3-2l1 2-2-1h-1l-1 1v1s0-2-1-1l1 1h-2c-1-1-2 0-2 1h-1l-1-1-1 3-1-1v3l-1-1v1l-1-1 1 2-2-1-2 4-1-2-1 4v1c-2 0-2-1-2-3l-1 1v-4l1 1 2-4 1-1v-2l1 1 3-5v2l3-2 1-2-1-2h1l2 2 1-1c-1-1-2-1-2-3l3 3-1-2-1-3h3l-1-2h2l1-2 2-1-3-3-2 2 1-3h-1v4h-1l-1-2-1-1-1 1v2c-1-1-1-3-3-3l1 3-3-2-1-1v5l-1-3v1h-1c1 1-1 1-1 2l-1 1v-1l-2 3v-2c1-1 2-2 1-4h1l1 2 1-4 1 1-1-1c2-1 2-3 2-5l1 1 1-3v1l3-3h1l1-1h2l-2-3h1l-1-2 2 1 2 1v-1l-1-1 4-1-3-2v2c0-2-2-1-3-3h2v-1l-1 1v-2l-2 3 1-2h-3v-3l-2 2v-2l-3 1v2l-1-2h-1v-1h-1v2l-1-1-1 2-1-1v1h-1l-1 2-1-1-1 1v-1l-3 4c-1-1-2 0-2 2l-1 1v1l-1-1v3l-2-5 2 1 2-3-1-3 2 1 1-1c1-1 2-2 1-4l2 1 2-4 1 2 2-4v3l4-5c0 2-1 3 1 4v-1l-1-3 1-3 2-2-8 6c0-2 5-7 10-10v-1h4l-2-2h1c1 1 1 1 2-1l1-1-2 1-2 1-1-1-1 1h-6l2-3-3 2 1-1h-2l-2 2h-1l-3 1 1 1-2-1v1l1 1c-1 1-2 3-4 2l3-2-2-2 3-4-2-2-1-4h-1v3h-1v-1l-1-1v1h-1l-1 2v2l-1-1v1l-1-1-1 3h-1v1l-1 2-2 2v1l-1-1v-1l1 1 1-4v-3l1 1-1-3 1-1 2 2v-1l-1-3 3 1v-4l-2-2v3h-1l-1-6v3l-2-1-2 2 1-3v-1l-1 1v1c-1-2-2-2-3 0v-1l-1-1v2l-1 1v-3l-1-3v1c-2-1-2-3-4-3 0 0 0-1 0 0h-1v3l-2 3c0-2 0-5 2-6h-2l-3 4 1 2h-3l3 1v1h4l-3 2 5-1-2 3h4l-1 2 3-1-1 3 1 2v1l-2-2-4 2v3l1-3 1 3 1 2 3-1-1 2h2l1 6 3-3v6l3-3-1 5h1l2-2v4l1-1 2 4 1 4-2-4-1 2-1-2v2l-3-5-1 3-1-3v-3l-1 1-1 1v-1l-1 1-1-4-1 1h-1v-1l-4-1v-2l-2 2v-4c-2 0-3 2-4 3l1-3c-2 0-2 0-2 2l-2-4-1-1v4l-1 1-1-4-2 3-2-2-1-2v-1h-1l2 3-1-1v2l-1-2-4 2 1 3 2 1 2-3v3l1-2 3 5 1-4c2 2 1 4 2 6l1 1v2l1-1v1c0-2 2-3 3-3-1 2 0 3 1 5v3l1-2 1 3v1c2 2 3 4 3 7v1c1-2 2-4 4-4-1 1 0 2 1 3v5l-2-5-3 3c1-2 0-2-1-3l-2-5-1-1 1 3-1 2-2-2h-3l1-2h-2l-1-1-6-3-3-1 1 2h-6 1l-1 1c2 1 4 3 7 3l-1 1 3 3h2v1l4-1-2 4h1l3 4-4 2 4 2c-2 1-3-1-5-2l2-2-2 1v-2h-1l-2-1v1c-2 0-3-1-3-2 0-2-1-2-2-1l1 1-4-2 2 3v1h-4l-3-1h-1l-2-1-2-1h-1c1 2 1 4 4 3 0 1 1 2 2 1l2 1 1 1 5 5 4 5v1l-6-5v2l1 2h-1l-1-1c-2-3-5-4-9-4l-1 1 2 1 1 3v-2c1 1 2 1 2 3h2l1-2 2 4 1 2 1-3 1 3v-1h1l2 3 1-2 1 1-1 5h-2l-1-4-2 1 1 2h-3s0-2-1-1h-1l-1-1-1 3c-1-1 0-3-2-3v4c0-1-1-2-3-1l1 3-2-3h-1l-1 1 3 2h-2l-1 2-1-1-3 1v1h4v1l1 1 3-2v1l-1 2h2l-3 3h2l3-2-1 4h1l2-2v4l1-2 2 4v-1c3 1 3 4 4 7l-4-4c0 2 1 3 2 3v4l1-3 1 1v1l-4 4 1-1v-2h-1v2l-4-4-5-1-1-1-1 1v-1h-1v1l-1-1h-1l-1 3-1 1 2 1 2-1v3l1 2v2-4c2 2 2 4 2 5l1-2v-1l1 5 2-3v1l1 3 3 2c0 1 1 2 3 1l1 3v1l-1 1-1-1h-2v-1c-1-2-6-5-6-4l2 3-1 2 2 4-3-3v2-6l-1-2-1 1 1 5v1h-1l-2-1-1 1 1 1 1 1 2 2 1 1h2l3 4 2-3v2l1 4 4-2-2 2v3c1-1 2-3 4-3v4l1 3v1l2-2v5l1 2 1-1c0 2 0 2-2 3l1-1-2-2v2c1 1 2 2 1 4l-2-2c0-3-2-4-4-6v1c0-3-2-4-4-5v2l-1-2h-1l-1-2-2-1c-2 0-2-1-3-2v1l-1-1-2-1h-1l-4-2v1l2 3 1 2 2-1-2 2 1 1 10 9 2 3v1l-5-4c-1 1 0 2 1 3l1 3 1-2-1 4c0-3-2-4-4-6v1l-1-2-1-2v2h-1l-1-3-1 1v-1l-1-2-2 3v-3l-2 2 2 2v1l-1-1-4-1h-2v-1 3l-2-3-1 2c2 1 2 3 3 5l2-4v3l2-2 1 2v2l2-1h1v1l2 1 3 3 2 1v1h1l1 2v-1c1 0 0 2 1 1v2l2 1h-1 1l-1 3c1-2-1-2-2-4l-1 1 1-2-1-1-1 2-1-3-2 1-1-2v1l-3-2v-1l-3 3-3-3v3l-3-4v-1l-1 3h-1l6 5 2 2 1 1h-1l-5-3-6-3-1-1-1 4 2 1 2-1 2 2-2 5v-1l-1 1v4h1l1-1v-4l2-3v1l2-1-1 1 1 2 2-1-1 3-1 1 2 1c0-2-1-4 1-5v2c1 1 0 2-1 3v2l4-5v5-2l2-2v2h1c0 2 1 3 3 4v-1c0 1 0 3 2 2 0 2 1 4 3 4 1 1 2 3 1 4l1-1h1v1l-1 2c-1-3-2-4-5-5 1 0 0 0 0 0h-1v-2l-1 2c0-2-2-2-3-3l1 1c-1 0-2-2-3 0l-1-2c-2 0-2 1-2 3-1-2-1-4-3-5l1 4c-1-1-3-1-3-4l-2 5h-1v-4l-2 4h1l-2 5h4l1-2v3h2l5 3v2l-1-1c-2-2-4-2-6-2h-2v2l-1-2-2 4h-1v-3l-1 1v4l3-2 1-1h3l1 1-1 1h-2v2l-1-1-3 3v-1 3l-1-2-6 7h1l1-1v-1l2 1h1l1-3 2 1c0-1 0-2 1-1l1 2v-2l1-1 1 2 1-2c0 1 1 1 2-1v3l-1 2v-2l-3 2-1 2 1 3-2 2v-2l-1 2-1-3v-2c-2 1-2 1-1 2l2 3v2l-3-3 3 4c3 2 7 6 9 10l1 4-3-3-2 2 2-4-2-1v4l-1-3-1-3-2 4v-2h-2c0-2-1-1-1-1l-1 1-1-2-1-2v2l1 3 3 4 1-1 1-1v3l-1 3v-1l-1 4-1-1 1 2 1-2c1 3 0 5-2 7v-3l-1 1v-3l-3 2 3 5 1-1 1 4 2 4-1 1v2l1 2 1-1 1 1-1 2v-1l-1 1-2-2 1 1v4l1 2h1l-2 3v-4l-1-1-2-4v1l-1-2c0-1 0-2-1-1l-1 2 1 2 1 1-1 1h-1l-1-1-3-7v-1c0 2-2 4-1 6l2-1v1l-1 3 1 2 1 1-1 2h2l-1 3-1 1 1 2-1 1-1-1v-1l-1-1v-1l-1-3v5l-1 2-1-3v-4l-1-1-1 2-1 2s0 1 0 0h-1v-2l2-6 1-2h-2v1l-1 2-2 3-1-4h-1l-1 2v-2c-2 0-1 2-1 3h-1v-3l1-2-1-2h1c2-2 2-3 1-5l2 1v-1l-2-1-2-4c2 0 3 1 4 3l1 2v-3l2 2-1-2-2-2-2-3 3 1v-4l1 1c1-2 0-4-1-6-4 4-4 4-4 8l-2-2c0 1-2 2-1 4v2l-2-1-1 3-1-4v-3h1v-4l1 1 1-2v-3l2 3c0-2-1-5 1-6l1 3 1-1c-1-1-2-3-1-5l2 3 1-6 1 4v1h1l-1-10-1 4v-2l-1 2v-1l-1 1c-2 0-3-1-4-3v5l-1-4-1 2 2 2v1l-3-2 1 3-1-1-1 3-1-1v-1h1l1-2c-1-3 1-5 3-7 2-1 2-1 2-3h1l-1-1-1 1v-2h-2l-1 1-1-3-2-1v2l-1-2-5 1 1-2-1 1-1-1 1-2 2 2v-2l1 1h1l1-2c0 1 1 3 2 2h4l1 1 1-1 2 2h3v2s1 1 1-1l-1-1-4-4-1 1v-3h-1v1l-2-3-1 2v-1c0-2-1-2-2-2h-1v-1h3l1-1c-4-1-8-1-11 2v-2 1h-1v-4l-3 3v-2c2-4 6-6 9-7l4-1-1-3h-2l-2 2v-3c-2 0-1 2-2 3l-2-3-1 2-1-1-2 1-2 1-1 1v-1h-1v1l-1 1v-1l-4 3v-2h1v-1l2-1c1 0 1-2 2-1v-2l1-2 2 2-1-2h5v-1h3l-1-2h1l1 1 3-3v2l3-1v1-1c1 1 1 2 2 1h2v2h2l5 1-6-7v1l-1-2h-1v1-1h-1l-1-1-2-1-6 2h-1l-1-1 1-1 12-5h1l-11-1c-3 0-7 0-10 2l1-2c2 0 2-1 2-3l-3 3 1-2-2 3v-2l-3 2v-2l1 1 1-1 1-1c1-3 3-4 6-5l2-2 2 1-1-2 1 1 1-2 1 1v-1l3 2 4-2 1 2v1l2-1 2-1-2-1-1 1c0-2 0-2-2-2l-2-1 1-1-2-1-1 2v-3l-1 1h-2l-3 2h-1v-1l1-1c2-2 2-2 2-5-2 0-3 1-4 3v-1l-1 2v-1c-2 1-2 1-1 2h-1l-2 2v-2l-2-2v-1c2 1 2 2 2 3 0-2-1-3 1-5v2-4h1l1 2v-1l1-1 2-3h1l1 1 1-1c1-1 1-2 2-1h1v-1h2l1-1 1 1v-5l1-3v-1l-1 1-1 2v3l-1 1-1-5-2 4v-7h-1l1 1h-1v5l-1-2-1 1-2-3-1-2v2h-1l-1 1-1-2-2 3-2-2v-2l2 2c0-1 2-1 2-3h2l1-2 1 1 1-1c1 1 2 0 3-1v1l1-1 1 1 1-1 3 1 2 1 1-2v-1l2 2 1-2 1-1h-11v-1l-1 2-3-2 1 2-2-1h-1c-1-1-1-1-1 1v1c-1 0-1-2-2-1l1 1h-2c-1 0-2 0-2 2l-2-1-1-1-1 4-1-1v3l-1-1v1l-1-1v2l-1-1h-1c0 1-2 2-2 5l-1-2-1 3v2c-2 0-3-2-3-3l-1 1v-2l1-2v-1l1 1 2-4 1-2 1-2v1l3-5 1 2 3-3 2-2-1-2 3 2 1-1-3-3c2 0 3 1 4 3l-1-3-1-2 3 1v-2l-1-2h2l1-2 2-1-3-3-2 1 1-3h-2v4l-1-2-2-1v1l-1 3c-1-2-1-4-3-4l1 4-5-4 1 2v3l-2-2v1-1c0 2-2 2-2 3h-1v2l-1-2-1 3h-1l1-2 1-4 2 2 1-4 1 1v-2l1-6 1 1 1-3 1 1 3-3h1l2-1 2-1-3-3h1l-1-2 3 1 2 1-1-2 5-1v-1l-4-1v1c0-2-3-1-3-2l2-1h-1v-1l-2 2v-2c-1-1-1-1-3 1l1-4c-2-1-2 1-3 2v-2c-1-1-2 0-3 1v-1 3h-1l-1-2h-1v-1h-1v2l-3 2v-2l-1 2v-1 2l-2-3v4l-1-1-1 1v-2l-6 7-1 1v2c-1-1 0-2-1-1v3c-1-2-3-3-2-6l2 2 1-6 1 2 2-2v-1l1-1c1-1 2-2 0-4l3 1 3-4v1l2-4 1 3 4-5 1 4v-1l-1-3v-1l1-3 3-2-1-1-9 7c0-2 6-7 13-11l-1-1h4l-1-2c2 1 2 1 3-1l1-1h-2l-2 1h-3l-4 1h-2l2-3-5 2 2-2-2 1-3 2v-1l-4 1 1 2-2-1-1 1 2 1c-1 1-2 3-5 3 1-2 1-2 4-2l-3-3 3-4-1-4 4 2-1-2h3l2-3-1-1c3 1 5-1 8-3l-1-1h-5v-1l-2 3-1-3c-2 1-2 1-2 4l-1-2-3 2h-2v2c-1-1-1-1-2 1v-1l-2 2-1 3-1-1 1 2-2-1 1 1h-1l-2 3v-1l-1 2-1 2-2 3v1l-2-2h1l2-5-1-2 2 1v-1l-1-3v-5h-1l-2 3c2 1 2 2 2 3h-2v1l1 2 2 2h-4c1 2 0 3-2 5v-2l1-3h-1l-3 2 1 1 2 1c-2 1-3 1-5-1-1-1-2 0-3 1h3l-5 1 2 3h-4v3l2 2v1h-3l-4-2 2 2c2 1 2 2 2 4l-2-2-1-3h-1c1 3 2 6 0 9-1-2-2-4-1-6l1-2-1-2h-1v3l-3-3-1 3v-4c-1 3-2 3-4 3l1-1h-1l1-1c-1-1-2-2-1-4l1 1 1 2v-1l1-3 1-2-1-1v-1l-1-1c1 0 3 0 3-2h-5l1-3h2v-4l2 2 1 3 1 1-1-1v-1h1l1-2 2-4-3-1v-1h4l2-2v-1l-2 3c-1-2-1-2-3-2v1l-3-4v1l-1 2v1l-1 3-2-2v-1l-3 3-4 1c2 0 4 1 4 3l-4-2-1-1-1-1v4l-1-2-2 1v-1h-4l2-2h3c0-2-1-1-1-1l1-4 2 2 2-1v-2l-1 2 1-4v-3l-1-2h1v-2l1 1 1 1 1-1 1-1 2-1v-1h-2l3-3-6-1 1-2-3 2c1 1 2 2 1 3l-2-1-1 1-1-2c-2 3-3 2-6 1l2-1h1c-2-2-3-3-2-5l2 4 1-1v-10h-1c-2-2-3-4-2-6 1 1 1 2 3 2l2-2 1-1c1 0 2-1 1-2v-2l2 1c0 1 1 1 0 0v-4l-1-3-1 2-1 2c0 2-3 3-5 3 0-2 2-3 3-5h-1c-2 1-4 0-6-1l-2-1v1h1l3 2 1 5-3-2-2-2c1 2 0 4-2 5l1-3v-2l-1-1-2 4-5 2c1-3 3-5 6-6l1-3h-1v1c-2 1-3 0-3-1h2l-1-1-3 1 2-3 1-2c2-1 2-2 2-3 0-3 0-5 2-6v-2h3l-1-1-2-4-1-2-1 5-1-3v-3l-1 2c-1 2-3 2-4 2h-1v5l-2-3-2 2-2 2-4-2c2 2 4 3 4 6-2-1-3-3-3-5-1-1-2-2-3-1l2 2c-3-1-4-1-5-3h3c-1-2 0-3 2-5v2h4c-2 0-3-1-3-3l4 3-1-3-2-2 2-1 1-1h-1l3-4h-4l4-1h-4l-1-3h1l-1-1h3-3l-1-2-2 2h-1l2-3h1c-2-1-1-2 0-3l1-1v2l1-1v-3l1 2h1l2-2 1-1-2-3-3-1 2-1v-1l-1 1-2-1v4l-2-3-2 2v-1l-4 1-1-4-1 2-1-2v-2l-1 1v2c0 2 1 3-1 5h4v1l-2 2h-4c1 2 2 2 3 2-1 1-3 2-4 1h-3l-3 1 1 1 3-1v3l2 1-4 1 2 2v1l-2-2v2l1 1 2-1-2 2 2 2-5-1v3l-2-3c0 2-1 3-2 3l-2-2-1 3 2 2h3l-3 1h-1l1 1 1 1c0 1-1 2-3 2h3v1h-1 1v1l2 1h-2c0 1 0 2 1 1l4 1-4 1h-1l1 1 1 1h-1l-1 2h3c-1 2-2 3-5 3l2-2h-2l-1 2-2 2v1l-1 1h-1 2c2-1 3-2 5-1l-5 2 4 1-2 1v1l-3-1v1l-1-1v2h-2l-1 2v2c2 0 2 1 2 3l2-1 1 4v1l-1-1h-1v1l2 1 3 3h-1l-2-1v1l-2 2v3l4-4c1 2 0 4-2 6l3 2c-2 0-4 2-5 4h2c-1 1-2 2-3 1l2 3 1 2h2c0 1-1 2-3 2l1-2-1 1v1l-1 3v1l-1-1c-1 1-2 1-1 2l1 1h-1v2h-1v4l4-3-2 3-1 1c1 1 1 2-1 3l3 1-5 1 2-2c-1-1-2 0-2 1l-2 2c2-1 4 1 5 2-2 1-4-1-6-1l2 3h-1v3h2c0 1-1 2-4 2l2-2-2 1-1 3v2c2 0 2 1 3 2-2 0-3 0-3-2h-1v3-1l1 1-2 2 2 1-2 2 2 1-2 1 2 2h-3l1 1 3 1h-3l1 2-2-1v2l-1 1h3-2l1 1h-1v2l-1-1h-1v1h2l-2 1v1h1l-1 3h-1v-1l-1-1 1-1v-1h-1l1-2v-1l1-1h-2l1-1h1l-1-1v-1h-1l1-3h-1v-1l1-1h-1l1-1h-1c1-2 1-2-1-3v-1h-5l4-1-2-2v1c-1-1-2-2-1-4h-2l2-2-1-2v-1h1l2-1-4-1h1l1-1 1-2-1-1-2-2 2-3-2-1-1 1-3 2c0-4 3-5 5-7l-6 2c1-2 2-2 4-2l2-1h-3l-3-2v-1h2v-3l2-2h-3l-2-1 4-3-1-1-1 1-1 1c-1-1 0-2-2-2l2-3-5 2 3-4 1-2h-1l-2-1 1-3 1-1h-1l-1 1v-2h-4l4-2-3-1h3v-3 1l1-1 1-2-4 2-4-1c3-2 5-1 8-1l-5-2v-1h3c0-1-2-3 0-4h-3l6-5-1-1 2-1h-4l-1-1h2l-2-4-2 2v-5l-1-1-3-1 4-1 2 1-4-2 2-1-2-1 1-1h-2c1-2 3-2 5-2v-1l-1-4h-1l1-1c-1-1-2-1-2-3l-3 2v-2l-1-3-1-1-1 4v-4h-3v-6l-4 3v-1 1l-1 1 2-1v1h-2l1 1h-2v1h1-1v1h1l-1 2-1-1h1l-1-1h1v-1h-1l1-1-1-1h1-1l1-1v-1h-1l1-2h-1v-1l1-1h-1 1l-1-1c1 0 1-1-1-1l1-1h-4l3-1-1-1v1l-1-3h-1l1-1v-2h-1l1-1h1l-2-1h2v-2l-2 1 1-2-1-1 1-2h-1l-2 1c0-2 1-3 3-4l-4 1 2-1h2l-2-1-2-1v-1h1v-2l2-1h-2l-2-1 3-2h-1l-1 1c0-1 0-2-1-1l1-2-3 1 2-3 1-1h-1l-1-1 1-1v-1h-1v-1h-3l3-1-2-1h2v-2h1v-1l-2 1-3-1h5l-3-2h2v-3h-2l3-2-1 1h2v-3h1v-1h-3l1-1-1-2-1 1v-3l-2 1 1-2h-2l3-1 1 1-3-2h2l-1-1v-1h-1l3-1-2-1h2v-2h-1l-1-3-2 1v-3h-1v2l-1-3h-1v-3l-3 1c1-1 1-2 3-2l-2-1h3l1 1h1v-1l1 1 1 1 2-1h1v-1l2-2h-2v-1h1l-1-1v-1l1-2h-1l-2 2 2-2 1-1-3-1v-2l-1 2v-4l-2 2-1-2v-2l-1 1v-1h-1v-1h-1l3-1h1l-3-2 3-2h-1 2l-1-1-1-1-1-1v2-3h-2l2-1h1l1-1-1-1h1l-1-1 3-3h-1l1-1-3-1 3 1-1-2h1v-1l-1-1h-1l2-2-1-1-1 1 1-3h-4l2-1v-1h-2l1-2 1-1-4 1c1-1 2-2 3-1h2l-2-3 2 2 1-1 1 1v-1h2l1 2 1-2-2-1 1-1 1-1h-2v1l-2-1-1-1v2c-1 0-2-1-1-2h-1l1-1v-2l-2 2 1-3h-2l1-2v-1c0 2-1 2-2 2l1-2h1l-2-1-1 1v-2l1-1h-3l3-1h3l-2-1 2-3-2 2h-1l1-3 1-1-2-2v-1l-1 2-1 1v-4h-1v-1l4-1-1-1c1-1 2 0 3 1h-2l2 1h2l1-1h-1l3-1 1-1h-2l-1-1v-1l1-2h-2c0-1 1-2 3-2l-1 2 2-1v-4l3-2h2l1-1-2-1h3v-2l1 1c1-5 2-11 5-16l1-3v-2l1-3v-9l1-3v-5l-1-4v-7l-1-5-17-2h-66l-43 5v12l1 4-1 4v3l1 2-1 1v2l-1 6-1 1v4l1 3 1 2 3 3h1l1-2h-1l1-3h-1l2-1v-1l3 1v-3l1 1h1v1l-1 1h2l-1 2h2v2h-1 1l1 1v-1l1 2h-1l3 2v-1 1l1 1 1 1 1-3 1 2h1l1 1-1-3 2 2h1v-1l2 1v1h1l2 1-2 3v-2l-1 1h-1l-1 1v-1l-1 1-1 2h-1l1 1-1 1h-1 2l1 1-1 1v1l1-1v1l1 1v2l2 1v1l-1-1-1 3v-1 1l-1-1v1h-1v-1l2-1-1-1v-1h-2v2h1v1h-1v-1h-1v-1h-2v2l1 1 1-2v1h2-1v2l-3 2h1-1l3 1v1h1v-2l1 2h1v2h-1l3 1-1 1v1h1l-1 1-2 1 1 1 1-1c1 1 0 2-1 4v-2 2l1 3 2-1-3 2v-1l-1 1v1l-1 2-2 1v1l2-1v3l1-2 1 2v1l2 1h-4l1 1 1 2h1l-1 1h1l-2 1-2 1 3 1h-1l1 2-2-1 2 2c1-1 2 0 3 1h-2l-2-1h-1l1 3h-1l-1 3 1 2 1 1v3h5c-2 2-4 1-5 1l3 2-3-1-1-1 1 2 1 2-2-2h-3l1 2v1l-1 1h-1 1l2 5-2-1-1-2v3h1l1 4c-1-1-2-1-2-3l-2 3 2-1-1 2 1-1-1 1h1v2l2-2v2l1-1c1 1 2 3 0 4l3 1-2 1-2 1 2 1-3 1h-4l1 1 1-1v3h2l-2 1 1 1-1 1-1-2v2h2l-1 1 1 2-3-1v2l-1-2-2 2-1-2-1 3 2 1h1l-2 1 1 1-2 2h2-1 1v1h2l-1 1h-1s0 1 0 0l3 1-2 1h-1l1 1-1 2h2l-3 1 1-1h-2v2l-1 1-1 1h-1l2 1c1-2 2-2 3-2l-3 2 2 1h-1v2l-2-2-1 1v1h-1l-1 1v1l1 2 1 1 1-1v3h-1v1h1c2 0 2 1 2 2h-1l-2 2v2l2 1 2 1-4 3h1l-2 1 2 2v-1l1 3 1-1-2 2 1-1h-1v1l-1 2h-1v1l1 1h-2l1 1v1h-1v2l3-2-2 2v1l-1 2h2c-1 1-2 2-3 1l1-1h-1l-1 2 3 1c-2 1-3 0-5-1l2 3h-1v2l-1 1 1-1-1 1-1 2v1l2 2-2-2-2 3 2 1-1 2h1l-1 1 1 1-2 1h3l-2 1 1 1h-2v1l-1 1h1l2-1-2 1h1-1v1h-1l1 1-1 1h1-1v2h-1v-5h1-2l1-1v-1l-1-1 1-2v-1h-1l1-1h-1c1-1 1-1-1-2l1-1h-4 3l-1-1h-1v-2h-2l2-2v-2h-1 1l1-1h-2v-1h1v-2l-2 2c0-2 1-2 2-3l-1-1 1-2h-2l-2 1c0-2 2-3 3-4l-4 1c1-1 1-2 3-1l1-1h-2l-2-2h1v-2l2-2h-4l-1 2-1-3h-1l-1 3 1 1-3-1-2 2v1h-1l-1 3h3l-3 1c2 0 4 0 6 2h-2v1l-2 1h2l-3 2h5l-2 1-2 1v4c-1 0 0-2-2-2v2l2 2h-2l-3 1h-2 2v1c3 0 5 2 7 5l-5-1c2 2 0 3 0 4h3l-4 2c2 0 5 0 7 2h-4l-3-2v2h2l-1 3 3-1v1l-2 1 4 1h-5l1 1h-2v1l1 2-2 1v2c2 0 2 2 3 3l-5-1 2 2-2 2v-1l-1-1-2 1 5 3h-6l2 2 1 3h1l-2 2h-4l3 1c1-1 2 0 3 1l-6-1c3 1 5 3 5 6l-3-2h-2l1 3-2 1c2 0 3 1 3 3l-4-2 1 2h1l1 1h-3l1 1h2l-1 1v2l2 2h-3c1 1 1 2-1 3v-1l-2 1 4 1h-5l1 1c-2 1-2 2-1 3h-2l1 1v1h-1l1 3h-1v2l1 1h-1l1 1h-1v1l1 1h-1v1h1l-1 1h1v1h-2l-1-2h1v-2h-1 1v-1l-2 1v-1h-1l2-1-3-1 3 1-1-2v-1l-2 1c0-1 2-1 1-2h-3l3-1h1l-2-1 1-1-2-1 2-1-2-1 3-2-3-1 2-1h-1v-1l-3 1 2 3h-3c0 2 0 4-2 5v-5l-2 1-2-2h-2v-1l-3 2v-2c1-1 0-1-1-1h-1c2 1 2 3 2 5l-2-4-2-2 1 1-1 1-1-1-2 2v-3c-3 1-3 3-3 5-3-3-3-4-3-6l-1 1-1 2c0 2-1 2-3 2l-1 1v-1h-3v5l1 2 2 1 2 2h4l-4-2c3-1 6 0 7 2h-2l-2 1c2 1 3 2 2 7l-2-2-1-3v-1l-1 2c-1 2-2 3-4 3l-1 1 1 1-1 1h5v1l-4 2 3 3-3-1h-1v1l1 1 1 4-3-2-2-4-1 2-1-1v1l2 3-3-1-3-1 2 4 3-1v1h5l-2 1 4 2c1 2 2 2 3 1l-3-2 5 1-2 1 1 5c-1-1-3-2-2-4h-1l-1 3 3 3h-3l1 1 1 1 2 2-3 1c1 2 1 3-1 5v-4l-1-1v1l-3 2 2 1 2 1h-5c-1-1-2 0-3 1h3c-1 1-2 2-4 1l3 3-5 1 1 3 3 2-3 1h-4l2 1c2 0 3 1 3 3l-2-2-2-2h-1c1 3 3 5 2 9-1-2-3-4-2-6v-2l-1-1h-1v2l-3-1v2l-1-3-3 4v-1l-1-1 1-1c-1 0-2-1-2-3l1 1 2 1v-6l-1-1v-1h-2c1-1 3-1 3-3h-1c-1 2-2 2-4 1l2-2-2-1v-1l2 1-2-5 3 2 2 3h1v-1l-1-1h1v-2l1-4-3-1 3-1 2-3h-1l-1 2-3-1v1l-4-2 1 1-1 2 1 4h-1l-2-2-1-1-1 4-4 1c2 0 4 1 5 3l-5-1-1-1-1-1-1 1c2 0 2 2 2 3h-1l-1-1-1 1h-1 1l-1-1h-1l-2 1 1-2 3-1c-1-2-1-1-2-1l1-4 2 2 2-2-1-2-1 2v-7l-2-1h1v-2h1l1-1v2l1-1 1-2 2-1-2-1 1-3h-6v-2l-1 3 1 2h-2l-1 1-1-1c-2 3-3 2-6 2l1-1 1-1c-2-1-3-2-3-4l4 3v-2l-1-2c-1-2-2-3-1-5l-1-1h-1c-2-2-3-3-3-5l3 1v-3c0-2-1-2-3-2l-1-1v2l-3-2-3-2c2 3 1 5 0 6v-3l-1-2v-1l-2 4-3 4c-1-3 0-6 3-8v-2 1c-2 1-3 0-4-1h2l-1-1-2 2v-3l-2 2v-2l-3-1-1 2c-1-1 0-2-2-2v3h-3v2l-2-2v1l-1-1v1h2c0 2-3 1-3 3l-1-1-4 1 6 1-2 2h1l2-1 3-1-1 2h1l-3 3h2l2 1 2 1 3 2h1l1 2h1c0 2 0 3 2 5l-1 1 1-1 2 4 1-2 2 4v1l-2-2-1 1-1-1c0-1-2-1-1-2h-1v-1l-2 2v-2l1-3-2 2-3 2 1-3c-3 0-3 2-4 3v-2l-1-1h-2l-1 2h-1v-3h-1l-2 1-3 3 3 1v2h3l-1 1v2l3-1-1 3-1 2c1-2 2-3 4-3 0 2-2 2-3 3l1 1 4-2-2 2 2 2 4 2 1-1 3 4 1-1 1 2 1 1 2 4 1-1v3l1 2-2-1-2 3-1-2-1-3-1 2c0-2-1-3-3-5v1l-2 1 1-2h-1l-1 1-1-3v1l-2-3h-1l-2 1c0-2-1-2-2-2l-3 1v-1l2-1-2 1v-1l-1-1h-2l-1 1v-1c-1-1-2 0-3 1l-1-1h-7l-3 1h-2l-2 1 3 1 2-2 1 1 2 2 2-1 2-1 2 1 1-1 1 2v-2c1 1 2 2 4 1l1 1v-1l2 2h2l2 2 2-1v2-1 1l-2 1-2-2-2 1v-1l-2 1v-2l-1 2-2 3-1-1-1 1v-5l-1 1v-1c1 0 1-1 0 0v1c-1 0 0 0 0 0v5l-3-3v4l-1-1-1-2v-1l-1-2h-1v1l1 3v4h1v-1l1 1 1-1 1 1h1l-1 1h4l1 2 1-2 1 1v-1l2 3 1 1 1 1 1-2 1 1-1 3h1v-2c2 1 1 3 1 4 0-1 0-2 2-2v1l-2 2v2l-2-3-1 1c1-1 1-1-1-3l-1 1v-2l-1 1-4-2c0 3 0 3 2 4l1 1 1 1h-2l-4-2-2 1v-1 2l-2-2-2 1 2 1-2 1c-2 0-2 0-3 2l-1-1-2 1 2 1 2 1v-1l1-2 4 1 1 1 3-2v1l1-1 1 2 1-1v2l3 1c3 0 6 2 8 4v1l2 1v-1l1 2h-1l-2-2-1 2-2-3 1 2-3-3c0 2 0 3 2 3l1 2c-4-2-7-2-11-2l-12 1h1l13 5 1 1h-1l-8-2-2 1-1 1-1 1v-1h-1l-1 2v-1l-6 6 5-1h2v-1h2v-1h3v-1l2 1 1-1 3 2 2-1v1l-1 1 2 1v-1h2v1h5l-1 2 2-2 1 2v1l2 1 2 2 1 1 1-1v2l-5-2h-1v-2l-1 2-1-1-2-2v1l-2-1-1 1-2-2-2 3c-1-1 0-3-2-3v2l-2-1h-2l-2 3h4c5 1 8 3 11 6v3l-3-3-1 4-1-2 1 2-1 1c-3-3-7-3-11-2h3l1 1h-1c-2 0-2 1-2 2l-1 1-1-2-2 3v-1h-1v3l-1-1-5 4-1 1h2v-1h2l3-2h4v-1h3c1 1 1 0 2-1v1l1 1 2-1v2l2-2 1 2h1l-1 1-1-2-1 1 2 1h-6l-1 1v-2l-3 2-1 2v-1h-3l-1 2v-1l-1 1 3 2c2 2 4 4 4 7l1 2 1 1h-1l-2-2v1h-1l1-3-2 1h-1l2-2-1-2-1 4v-5c-1 2-2 3-4 3l-1-1v1l-1-1-1 1c-1-1 1-2-1-4v9l1-1v-3c2 2 2 3 1 5v1l3-3c1 1 0 3-1 4l1 1 1-3c2 2 1 3 1 5l2-2h1l-1 3 1 2 2-1-1 3h1v3l-1 4-1-4-2 2 2-3-2 1c1-2-1-3-1-4l-2 2c-1-4-1-4-4-7-2 1-3 4-2 5l1-1v4l4-1-2 3-3 2-1 1 2-1v2l2-1c0-2 2-3 4-4 0 2-1 3-3 4l-2 1v1h1l1-1c0 2 0 3 2 5l1-1v1l-1 2 1 1v3h-1c0-1 1-2-1-3l-1 2-1-1-1 3-2-3-2-1v-1l-2-1v2l3 6v2h-1l-1-2-1-2v1l-1-1v4l-1 3h-1v-2l-1-4v2c-2 0 0 1-1 2h-1v1l-1 1v-4l-2-3 2 1-1-2 2-1v-4l-1-1h2v-5l-1 1-4 6v2h-2v-2l2-2-1-2c-1-1-2 0-2 1v1h-1l-2 3v1c-1 1-2 2-1 3v1l-2-3h1l1-2v-1l1-2v-1h1l-1-1-2 3-1-2v2h-1v-2l1-1 1 1 1-2v-2h-1l3-4v-4l1 1 3-4-2-2-1 2-1-1v3c-1-2-3-3-2-6l2 2v-2l-1 1v-3h-1l-1-2v-3l1 1 1 1 3-4 1-3 1 1v-3c-1 1-2 1-1 3-2 0-1 1-1 1l-1-1-2 1c-1-1-1 0-2 1v1l-2-4-1 3-1 2-1-3-1 1 1 3-1-1-4 3 1-4c3-4 6-7 11-9l3-3-1-1-3 3v-2l2-3v-1l-1 2v-1l-1 3-1-1v2l-2-3-2-4 2 2v-2l-3-1v1l-2-2 1-2 2 1 1 1 1-2 1 2v1l1-2 1 1 2-1 2 3h1l2-1v1l1 1h1l-7-4-1-3v1l-3-3-1 1v-2h-2l-1-1h1l1-1h2l1 1 3 2v-3l-1-2v3l-4-4h-1v1l-1-1c-3 0-5 1-7 3h-1v-1c1-2 3-3 5-3l2-1 1-1 1 1h4l-2-4 2-1-3-3v4h-1l-2-5c0 2-2 3-4 4l2-4-4 4c0-1 0-2-2-2l-1 2c-1-2-2-1-3 0v-1c-1 1-3 0-3 2l-1-1-1 2-1-1-4 4-2-1v-1h1l1 1c0-1 0-3 2-3 2-1 3-2 3-4 2 1 2-1 2-2l1 1 3-4 1 1v-2l1 1 1 2v-4c2 0 2 2 4 4v-1c-1-1-2-2-1-4v-1c2 1 1 3 2 5l2-2h-2l-1-3h2l1-2 2 1v-1l1 3c1 1 2 2 1 3l1 1h1v-4l-1 1-2-4 2-2h2l1-1h1v-3h-1l-7 4-6 2h-1l1-1 2-1 7-5h-1l-1-2v1l-4 2 1-2-4 3-3-3v1h-1l-2 2v-1h-1l-1 2-2-1-1 3-1-2h-1l1 3-1-1c-1 1-3 1-3 3v-3 1-1l2-1-1-2h2l1-1h1v-1l2-1 4-2 2-1-1-1h4v-1l1-2 2 2v-3l3 3 3-4-1-2-2 3v-3l-1 1h-2l-4 1-1 1v-1l2-2-2-2-1 4-1-3-2 1v1l-2 2h-1l1-2-2 2-1 2v-1l-5 5v-3l1 1 1-3c1 0 2-1 1-2l-6 4v-2l3-2 11-8v-1l-2-1 1-1 1 1 2-2 2-2v-1l-4 1h-1v1h-1c-1 0-2 0-2 2v-1 1l-1-1-3 1-2 1-1 2h-2l-1 2v-2c-2 1-4 2-4 4l-1-1c-1 2-4 3-4 6l-2 2 1-3v-3l-2 2 1 1-2-2h1l1-2v-4l2 2v-1l1-3v-3l5 2-1-2-1-2 4 2 1-4v-1l2 2 4-4h1l2-1 2-1 1-1 1-1-1-1-2 1h-1v-1l1-4c1-1 0-1-1-1l-1 1v5l-1-1v-1l-2-1 3-4-7 4v1h-2l-1 1-1-1v-1l1-2c2 1 3 0 4-1l2-2 2-2v-1l1 2 3-4v3c0-2 0-4 2-5v3h1v-3c1-1 2-2 1-3l2 1 2-1-1-1-2-2v-1l-1 1v1h-1v-2l-1 1 1 1-1-1h-2l-6 1h1l-5 3v-1l-1 1 1 2-4-4v1-2l2 2h1l-1-4c1 1 2-1 2-2l-4 3c1-2 1-5 4-6v1l3-3v1-3l2 1h2l-1-3 3 2h2l-3-3h2l-1-2v-1l4 2v-1l1-1h4v-1l-4-1v1l-2-1-2-1 3-1h-1v-1l-3 2 1-2c-2-1-3 0-3 1v-3c-2-1-2 1-3 2v-3l-2 1h-1l-1 1h-3l1-1-2-1-1 3h-2l-1-5 2 1 1-2 1-1 1 2 1-3 1 3 1-3c1 0 3-1 3-3l1 2h2c0-2 1-2 2-3v2l2-3c-1 0-1 0 0 0h1l-1-1c-4 0-7 1-10 3l-1 1h-1l1-2 1-1h-1l-7 4 1-1 4-4 6-5 1-1h2l2-2c3 1 3-1 5-2h-2l-2 1-2 1-2-1-2 1h-5l2-3-4 2-4 1h-4l1 2h-3l2 1c-2 1-3 3-6 2l4-2-3-2c1-1 1-3 3-3v-1h1l-2-3 4 1v-1h3l2-3h-1 1c3 0 5-2 7-3l1-1h-7l1-2c-2 1-3 2-4 1l-7 3-1 1h-1v-1 1l1 1h-4l-2 2-1-1 1-3-1 1-2 4c-1 1-2 1-1 3l-4-3-2 5v-5c1-1 2-2 1-3 2 1 4 2 4 4l1-1c0-3 1-5 3-6v-1l1-3 1 2v-3c1-1 2-3 1-4v-1l4 4v-1h1v-1l-3-3 4 2c1-2 0-4 2-5l1 3 3-4 1 2v-4l3 4 2-2 1-2-4-2-1 1v-1l-1 1 1-3-1 1-1 2-2 2-2-3-2 3v-4l-1 1-3 4-1-2v3c-1-2-2-3-4-3v3l-2-2v2l-4 1v1h-2v-1c-2 1-2 2-2 4l-1-1v1l-1-1-1-1v3c-2 0-1 1-2 2l-1-2-3 5v-3l-1 2-1-1-2 3v-4l3-3 1 1v-4h1l2 2-1-5h1l2 3 1-6 3 3 1-5h2l-1-2 3 1 1-2 1 1 1-3-4-2-1 2h-1v-1l1-2-1-3 3 1-1-2h4l-1-2 5 1-3-2 5-1h-1l3-1h-3l1-1-3-4h-2c2 1 2 3 2 5l-2-3-1-2v-1 1l-4 2h-1l-1 3-1-2c-2 1-2 1-1 3-1-2-3-2-4 0v-2 4l-2-2-2 1v-3l-1 3v2h1l2 5-4-4 2 3 3 3 1-1c1 1 1 3-1 4 0-1 0-2-2-3l-1-1-1 2-2-5-4 2 1-3 2-2h-1l-1 1-1 2v1l-1-1-1 1v-2l-1-1-2 4v-2h-1l-1 4-1-2v3h1v1l1-1c0 2 0 4 2 5l1-1v1l-1 2 1-1 1 1-1 1-1 1v-2l-1 1v-3l-1 2-1-3-3 1v1-2l-2-1-1-1-1 1v-2l-5 2-2-5v6l-2-4-2 1 1 4c-1-2-3-3-3-5l-1 2-2 4-1-3-2 2v1h-2 3l9 1c3 1 5 2 7 5l1 1-1 2 2 1h3l-1 1 2 2h-4c1 2 0 4-1 6 1 1 1 1 2-1 0-2 1-3 2-3 1 2-1 3-2 4v1h1l1-1 2-2c0 2-2 2-3 4h1c-1 1 0 2 1 2h1l1 1-2 1 2 2-3-1h-1v-1l-3 2 1-2-2-1v-1h-2l1-1-3-1-1 1-1-1v1c0 2-1 3-3 4l3-4-2-1c0 2-2 3-3 4l1 1h-3l3 1h-1l4 1-2 1h4l-1 1 3 1-1 1h3v3l1 1h-1l-1-1-3 1-1 1-1 2 1-2h1v2l3 2h1c-1 1-2 1-1 3l2-1 2 3 1-1 1 4 1-1 1 2 1 1v2l1 3-1 1v-2l-1-1-1 1c1-3-2-4-2-6l-2 2c1-2-1-3-2-4l-3 1v-2l-1 1-1-3-2 2v-2l-2 2v-3l-3 2-3-4-3 3 1-3-2 3v-3c-1 0-2 0-1 2l-1-1-1 1-1-1-2 1 1 2 1 2 2-3 1 3 1-2 2 3 1-2 1 3 1 1 3-2c0 2 0 2-3 3l1 2h1c0-2 1-3 3-3l-1 1v1l2 3v1l2 2 1 4 2-1v4l2-2v3l1-1 1 1-1 2 1 3h2l-2 2v-1l-2-2-1-2-1-1-2-2h-1l1-1-2 1 1-1h-1c0-1 1-2-1-2l-1-1-1 1c0-2 0-2-2-2l1-1h-2l-3-2-2 2c1-2 1-2-1-3l-1 2-2-2v1h-5v1l7 2-1 1 2 2h2v1l2 2 3 3c0 1-1 2-3 2l4 1c-2 1-3-1-5-1l2-2-2 1v-1l-3-1-3-1-2-1 2 1-2 1h-7l-1-1-1 1-2-1-2-1 1 1c1 2 1 2 2 1h1l-1 2c1 1 2 0 3-1v2c6 2 11 6 11 8l-8-5h-1l3 2 1 2v1l-1 2v1l1-3 4 4 1-2 1 3 1-1 3 3 2-1c-1 1 0 2 1 3v1h1l2-1-1 3 1-1 2 4 1-1c1 2-1 3-2 4v-2h-1v-1l-1-1c0-1-1-2-2-1l-3-4v2l-1-1h-1l-1-2-1 2v-2 1l-1-1v1l-2-2-1 1v-2h-1v1h-1l-1 1v-2h-1v1l-3-1v2l-2-2v3c-1-2-1-2-2-1v2l-2-2h-1l1 1h-1l2 1c-1 1-3 0-3 2v-1l-4 1 5 1-1 1h1l3-1-1 2h2l-3 2h2l1 1h2l2 2h1l1 2h1c0 1 0 3 2 4l-1 1 1-1 1 4 1-2h1l1 3v2l-2-2v1-1h-1c0-1-2-1-1-2h-1v-1l-1 2-1-2 1-2-2 1-2 2v-3c-2 0-2 2-3 3v-2l-1-1-1 1-1 1h-1v-2l-1-1 1 3-2-2-3 3h2l1 2 2 1-1 1v1l2-1 1 1-2 1v3l3-3-2 3h1l3-2v1l-1 1 1 2 4 2v-1l3 3h1v1l1 1 2 3h1v2l1 1h-1l-3 3v-2l-1-3-1 2-2-4-2 1v-2 1l-1-1v1l-1-2v1l-2-3-1 1h-1c0-2-1-2-2-1h-2l1-1c-1-1-1 1-2 1v-1c0-1 0-2-1-1h-1l-1 1v-2l-3 2v-2 1h-11l-1 2 2-1v1l2-1 1 1 1 1 2-1 2-1 2 2 1-2v2l1-2 4 2v-1l1 2h2l2 2 1-1v1l-1 2-2-2-1 1-1-1h-1v-1l-1 1-2 3-1-1v1c-1-1-2-2 0-4h-1l-1-1v6l-2-3v4l-1-1-1-2v-2l-1-1v2l1 2v4-2l1 1 1-1 1 1h1l-1 1h3l1 2 1-2 3 3 1 1v1l1-2h1l-1 3h1v-1l1 3 1-2v1l-1 2v1l-2-2-1 1c1-1 1-1-1-2l-1-1v1c-1-2-2-2-4-2 0 2 0 2 2 3l1 1v1h-1l-3-2-2 1v-1h-1v2l-1-2-1 1 1 1-2 1-2 1v1l-3-1 2 1 1 1v-1h1l1-2 3 2 3-2v2l1-1 1 1h1l-1 1 2-1 2 2 9 6h-1l-2-1v1l-2-3v2l-2-2 1 2 2 2c-3-2-7-2-10-2l-10 1h1l11 4 1 1h-2l-6-1h-1l-1 1-2 1v-1l-1 2v-1l-6 5h1l4-1h1l1-1h1c1 1 2 0 2-1l1 1v-1l2 1v-1l3 2 2-1-1 1 1 1 1-1h1v1h4v2l1-2c1 1 0 2 2 1v2l1 1 2 1 1 1v1l-4-2h-1v-1l-1 1v-1l-2-1v1l-2-1h-1l-1-1-2 2c-1-1 0-2-2-2l1 2-3-1h-1l-2 2 4 1c3 0 7 2 9 5v2l-3-3v4h-1v-2 2c-3-2-6-2-10-1h3l1 1h-1c-2 0-2 0-2 2l-1-1-3 2v2l-1-1-4 3-1 1h1v-1h3l1-2 3 1h1l1-1h1c2 1 2 0 3-1v1l1 1 1-1h1l-1 1 2-1 1 2v-1l-1 1-1-1v1l1 1-5-1v1l-1-1-2 1v2l-1-1h-2v1l-1 1h-1l2 2c2 1 4 3 4 6l1 1v1l-2-1v-2l-2 1 2-2-2-2v4-4l-4 2-1-1v1l-1-1v1l-1-3-1 7h1v-1l1-2 1 4 2-2c1 2 0 3-1 4h1l1-2 1 5 2-2v2l1 2 1-1-1 3h1v5l-1-2h-2l1-2-1 1c1-2-1-2-1-3l-2 1c-1-3-1-3-4-5-1 1-2 3-1 4l1-1v4l1 1-2 1-1 2 2-2v3l1-2 4-2-2 3-2 1h2c-1 1-1 2 1 4l1-1-1 2 1 1v3h-1c0-1 1-2-1-3v2l-2-1-1 2-1-1-2-2v-1h-2l1 2 2 4v2h-1l-1-1-1-2v1l-1-1v3l-1 3v-2l-1-4v2l-1 2-1 1h-1v-3l-1-2h1v-2 1l1-1v-4h1v-4h-1l-3 6v1h-1l-1-1 1-1 1-1-1-2c-1-1-1 0-2 1v1l-2 3-1 1v2l-2-2h1l1-2 1-2v-2l-2 2-1-1v1l-1-1 1-1 1 1 1-2v-2h-1l2-3v-1l1-2h1l2-3-2-2-1 2v-1 3c-2-2-3-3-2-6l1 2 1-2-2-2v1l-1-2v-3l1 1 1 1 2-3 1-2h1v-2c-1 1-2 1-1 2l-1 1-1-1-1 1h-2v2l-2-3v2l-1 2h-1v-3l-1 1 1 3-1-1-4 2 1-3c3-4 6-6 10-8l2-3-3 2v-1l2-3-1-1v1l-1 3-1-2v2l-2-2-1-3 2 1-1-1-2-2-1 2-1-2 1-2h2l1 2 1-2v2l1-1 1 1 2-1 1 2h3v1h2l-7-4v-2 1l-2-3-2 2v-2l-2-1h-1l1-1h4v1l3 1v-2l-1-2v3h-1l-1-3-2 2v-2h-2c-2 0-4 0-6 2h-1l1-1 4-3h2v-2l2 2h3l-2-4h2-3l-2-4-4 3 2-3-3 3-2-2-1 2c-1-2-2 0-3 0l1-1c-1 1-3 1-3 3l-1-2v1l-6 3v-1l1 1 1-3c2 0 3-2 3-3 2 1 2-1 2-1l3-3h1v-2l1 2 1 2v-5l3 4v-1l-1-3 1-1 1 4 2-1h-2v-3l1 1 1-2h1l1-1 1 3v3h2v1-4l-1 1 1-6 1 1 1-1h1l-1-3-1 1-5 2-5 3h-1v-1l2-2 6-3v-1h-1v-2h-1v1l-3 3h-3l-2-2v1l-1-1-2 2v-1l-1 2-2-1-1 2-1-1 1 2h-2l-2 2v-2l1-1h1l-1-2h2v-1h1v-1l2-1 3-2h2v-1h3v-1l1-1 1 1v-2l3 3c1-2 1-4 3-4l-2-2-1 2v-2l-1 1h-2l-3 1h-1l2-2-2-1-1 2-1-2-1 1-1 1-1 2h-1v-2l-1 2-1 1-4 4v-3l1 1c-1-1 0-1 1-2l1-2-6 3 1-1 2-2 9-7-1-2h1l2-1 1-2v-1l-3 1v1l-1-1-2 2v-1 1l-1-1-2 2-2 1-1 1h-2v2l-1-2c-1 1-3 2-3 4l-1-1c-1 2-3 2-3 5-1-1-1 0-2 1l1-3v-2l-2 2v-1l1-1v-4l2 2v-3c1-1 2-2 1-3l3 2v-2l-1-2 4 2v-5h1l1 2 3-3h2l1-1 2-1 1-1 1-1h-4l1-4-1-1-1 1v5-1l-3 2 2-3-1-1 2-3-6 3h-1l-1 2-1-1v-1l1-2c1 1 2 0 3-1l2-2 1-2h1l1 1 2-3v2c0-1 0-2 2-3v2-1l1-2v-2l2 1 2-1-1-1-1-2h-1l-1 1v-1h-1v1l-1-1h-1l-5 2v-1l-3 3-1-1v2l-3-3v-1l2 2-2-2c1-3 1-5 4-5l2-3v1-2l2 1h1v-3l2 2 2-1-2-2h1l-1-2 3 2 1-1v-1h3l1-1-4-1v1l-1-1-2-1 3-1h-2 1l-1-1-2 2 1-2-3 1v-3l-2 2v-2l-2 1h-4l-1-2-1 3h-2l-1-4h1l1 1 1-2h1l1 1 1-3 1 3v-2c1-1 3-1 3-3l1 1 1 1v-1l2-2v2l2-2c-1 0-1 0 0 0l1-1-1-1c-4 0-6 1-9 3l-1 1v-2l1-1h-1l-5 4v-2l4-3 5-4 1-1h1l3-1c2 1 2-1 3-2h-1l-2 1h-9l2-2-4 2 1-2-2 1c-1 1-1 2-3 2v-1l-2 1h-1l1 1h-3l2 1-5 2 4-2c-2 0-2-1-3-2 1 0 1-2 3-2v-1l-2-3 4 2v-2h2l3-2h-1v-1c3 1 4-1 7-2h-1l1-1h-6l1-1h-3l-6 3-1 1h-1v-1 2h-2l-3 1-1-1c2 0 1-1 1-2v1l-2 3c-1 1-2 2-1 3l-3-3-2 4v-4c1 0 2-1 1-2 2 0 3 1 3 3h1v-1c0-2 1-4 3-5v-3l1 2 1-3v-4c2 1 3 1 3 3h1v-1h1v-1c-2 0-3-1-3-3l4 2c0-1-1-3 1-4l1 3 3-4v2l1-3 3 2c1-1 0-2 2-2l-4-2-1 1v-1l-1 1 1-3-1 1-1 2-1 1-2-2-1 3h-1v-4l-1 1-2 3-1-2v3c-1-1-1-2-3-2v2l-2-1v1l-4 1v1h-1l-1-1-1 3h-1l-1-1-1 1 1 2c-2-1-2 1-2 1l-1-2-3 4v-2 2l-1-1-2 3v-4l3-3 1 1v-3l2 2-1-4h1l2 2v-5l3 3 1-5h2l-1-1 3 1v-2h1l1-2-3-2-2 1v1-1l1-1-1-3 3 1-1-2h3l-1-2 4 1-2-2h4l-1-1h3v-1l-2 1v-2l-3-3h-1c2 1 1 3 2 5l-2-3-1-2-4 2-1 2-1-1c-2 0-2 0-1 2h-3v-1h-1v1l1 2-2-2-2 1v-2l-1 5-1-3-2 2-1 1-1 2v-1l-2 1v-4l-1 2-2 2c1 0 0 0 0 0v3l-2-1-1 1-1-2v1-2l1-1 1-1 1-1v-2l1 1 3-3-1-5 4 2v-1l-2-4 6 3-1-5 1 1v-4l1 1 2-3h1v-1c2 1 3 0 4-1v-2h2v-1l4 1h2v-1l-1-2 3 1 3 1-2-3 4 1 2-1v-1l4-2h-3l1-1-2-2h-2l-9 5-15 7-1 1v-1l25-14h-1l-1-2h-3l1 2-4-2h-4l1 1h-3l1 1-3 1 1 1-2-1-1 2-2-2-2 3v-2l1-1 1-2v-1c1 1 2 2 1 3l1 1 1-1c-1-1-2-3-1-5l1 4h2v-1l-1-1-1-2v-1l4-2 5-1h1-2l-1-1h-3s0 1 0 0l-2 1-5 2-1 1h-1l1-1 7-5 6-1c4 0 7 0 10 2h6l-2-1-3-1-2-1h-3l-1-1-4-1-2-1h-3l-3 1h-2l-2 1h-5l-1 1-2 1v1c-1-1-2 1-3 1h1c-2 1-3 2-5 1l2-1 1-2-1-1h2l-1-2h1l1-3v-2l-2 4h-1v-1l2-4 1-2 1-1v4-1c-1 1 1 1 1 2 2-1 0-2 1-3l1 2 4-3 2-3c1 1 0 3-1 4h3c-1-2-2-3-1-4l2 3v-2l3 2v-1h1l1-1v1l6-1 5-1h1v-1l-3-1-3-1-3 1v-1h1v-1l-4 2 1-2-2-1-6 1-4 1v-1l-2-2c1 1 3 0 4-1h3l-1-1h4l2-1h1v-1h3l1-1h1l3-2-2-1-11-4h-2l1-1h-4l1-1h-5l-2 1-4-1h-2l-2 1h-3l1-1h-1v1c-2-1-2 1-2 2v-5h4l1-3 1 3 3-4v2l4-3-1 4 2-3 3-1-2 3 2-2 1-2-2-1-2 2 1-3h-1v2l-2-2v-1l-1 1-1 1v-2l-3 1v-2 2l-1-1h-4l-2 1c-3 1-4 2-6 1l3-2h-2v-1c-5 8-10 15-13 16-10 3-50-11-58-14-5-2-15-18-23-31v-273h1197v318l-1 2 1-1v3c-1-1-2 0-3 1h-1l2 4h1c-1-2 0-3 1-5v8h-2l2-2h-2l-2 3h4v16l-2 1h-2v2l3-2h1l-1 1-3 2h-1v3h3l2-4v39c-11-7 1 3-1 6h1v30l-1 1 1 1v68l-2 2-1-3-1 1 2 2 2 1-1 1 1 4v7h-1l1 1v4z" transform="matrix(1.33333 0 0 -1.33333 -13 3649)"/></svg>