<svg xmlns="http://www.w3.org/2000/svg" xmlns:xlink="http://www.w3.org/1999/xlink" xml:space="preserve" viewBox="0 0 1600 898.8"><defs><linearGradient id="e"><stop offset="0" stop-color="#3ccfc8"/><stop offset=".7" stop-color="#062d36"/><stop offset="1" stop-color="#062d36"/></linearGradient><linearGradient id="d"><stop offset="0" stop-color="#79ed87"/><stop offset=".4" stop-color="#0d4645"/><stop offset=".7" stop-color="#03363f"/><stop offset="1" stop-color="#03363f"/></linearGradient><linearGradient id="c"><stop offset="0" stop-color="#c1e554"/><stop offset="1" stop-color="#09647f"/></linearGradient><linearGradient id="b"><stop offset="0" stop-color="#6454e5"/><stop offset="1" stop-color="#0d538f"/></linearGradient><linearGradient id="a"><stop offset="0" stop-color="#fbfbbe"/><stop offset=".3" stop-color="#fdfdd6"/><stop offset=".9" stop-color="#ffe876"/><stop offset="1" stop-color="#ffe876"/></linearGradient><linearGradient xlink:href="#b" id="f" x1="-1967" x2="-1967" y1="137.1" y2="-963.8" gradientUnits="userSpaceOnUse"/></defs><g clip-path="url(#clipPath58)" transform="matrix(.4134 0 0 -.4134 -193 1025)"><path fill="url(#f)" d="m0 0-29-16-359 18-520-86-783-82-596 43 20-13-920 172-419-35-256 71v-1188H0Zm-1964-88-3-1-4 5 3 2 14-2-10-4m-319 78-1 1 17 8 1-8-17-1m-91 15-12 15 10 6 3-20zm-425 75-1-3c-2 5-3 10-12 8 3 2 6 3 9 2l12-5-8-2m-305 42-1 1-1-5-3 6-4-1-1 2 15 3 1-1zm-599 78 9 3c1-4-3-6-9-3m1828-317c-6 3-11 6-18 7l-1 2 4-1 3 5 4 1-4 2 4 6c-5-4-8-3-10 2l-3-5-12 3 9 2v1h-5l2 6-2 1-8-9c-2 4-3 11-11 12v-6l-7 4-10 2 6-5c-6-5-8 1-12 4l-5-6-2 16-1 1-2-6c-9 6-17 0-26-5 4 7 9 11 6 18-8-3-5-9-4-14-9 7-9 7-19 7l7 5-1 1-6-2-1 8-2 1-5-13-4 6-7 5 1-7-16 9 2-5-8-1 1 2-6 4 4 5-2 2-11-7-2 8-2 2-5-6-5 4-3-1-3 7-7-6c-5-1-8 9-14 2l-4 7-7-8-1 11-20-3-4 8-6-11-5 19-5-4-3 7-6-10c-4 3-6 7-10 2l-9-3 3 10-7-1-7-6c-8 3 0 6-1 11l-16-8 2 10-6-6-9 5 1-12-4 3-5 7c-5-1-9 1-12 5-4 4-9 5-14 5v-3c-5 0-9 1-10 7l-8 7v-1c-5 2-11 1-15-3v16c-8-5-12-10-10-17l-4 2c-4-5-6 0-9 1-5 2-10 5-14 0l-3-3-19 7 12 4v1l-12 1 4 12c-13-2-16-9-15-18l-8 8-4 8-4 15h-2l-3-4h-1l3 10-12-1-3-4-6 3-10 9-1-1 4-8c-8-1-12 3-18 6l-2-9-3 2-5-7-4 6-8-12-7 2 3-8h-3l-4 10 11 8-2 2-14-8 3 8-16 2-1-4-2-1-7 6-1-1-3 4-3-8a37250 37250 0 0 1-9 5l3-5-10-4-3 8c-5-3-9-6-14-7-4-2-7 2-10 6l-2-14-14 11-7 3c-5-5-7 0-10 2l-7 5c0-5-2-4-6-2l2-7c-7 4-3 9-3 12l-21 8c-3-4 5-7-3-10l-7 16c-3 4-8 6-12 10l-1-2 5-14-6-3 1 2-19 9 1-11-7 11-2-1 3-9-12 2-2 11h-2l-2-10-5 4 1-6-8 3-5-6-5 12h-1l-1-4-11 2v-6l-11 10-1-1 1-4v-1l-11 4 8 3-30 8v-6l-8 10-2-7-5 1 4 8-2 1-13-6-6 9h2l-11 2-3-2-20 5 4 8-14-6-2 5-4-6-8 5-1-4-10-2-20 6-2-14c-3 3-5 8-9 10-6 3-9-2-12-7l-3 3-7-2-1 6-9-7v7l-4-5c-8 10-10-2-16-3l-4 9-2-1 1-3-2-1-3 5-9-3 1 4-2 1-3-4-3 7-4-9-5 4 5 3c-6 2-10 3-11-3v15h-3l-2-11-7 7-2-5-10 12-9-9-3 1-5-4-1 2c5 2 3 7 2 10-1 2-5 4-9 2l4-5-14 2v2a13945 13945 0 0 0 8 0l-9 6-4-7-4 9 4 3-7 2v6l-4-3h-15c-2 3-5 7-5 11-1 5-5 5-9 5l-1 1 4 4c-9-4-3 3-8 3l-3-7-2 10h-2l-1-7-4 2 1-2-17-8-4 5c-3-5-11-8-19-7l-4-7-9 5-3-5-2 1 3 6-6 2 4 9c-7-4-14-6-21-3l13 6h-11l2 10-3 2-10-8 2-1-13 2v-6c-4 6-10 8-17 7l1-5-13-5 2 3-5 7-16-2-1-3 5-1-2-2c-8 6-15 13-26 7l-1 9-3 1-6-14h-2l1 8-17-3 7 10c-9 1-13-3-16-9-3 4-6 10-8 10-7 0-6 5-9 8l-3 6-4-11-2-5-4 3 11 17v1l-17-6 6 8-2 2-4-5-4 7c-6-6-1-10 2-14l-16 3v-5l-15 13 1-7-6-2-2 6-4-2-6 9-3-7-2 5 11 14c-13-3-18-9-18-18l-5 6 4 2 1 11-5-5-3 5 6 3h-11l3-3-1-1-12 7v-2l-9-3 3-9c-4 6-9 3-13 1l4-1-7-10h-4v1l5 3-3 8 5 3-11 1v-1l4-3-1-2-16 8-1-15-5 3 3 5h-17l-1-4-4 4 3 8-5-1 4 6-13 5-8 7c-4-5-4-5 1-13-5 5-11 9-18 3l-2 6h-1l-3-9c-5 1-11 6-15-2l-12 10-6-7-2 5c-4-6-8-2-12-1l-1 8h-2l-4-10 3-2-7-2v6c7 4 7 4 2 16h-2v-3l-7 1-1-2 10-6c-5-2-5-2-15-1l-1 5h-2l-5-8-11 4-1-5-6 2v-3c-2 4-4 8 2 12 3 2 5 6 7 10l-17-3c-1 4-11 0-9 7l-4-5c-10 4-19 1-28-1l-11 6 1-6-4 1-3-6h-1l-1 6-3-4-4 3-8-18-7-1 7-5-6-1 1-4c-4 5-7 10-15 11l7-10h-8l7-4-12-2c0-8 8-9 13-12h-4c-6 2-13 3-17-3l-7-1c-2 0-3 2-5 3l-6-10-3 4-3-3-5-2-5-5-1 7-4-4-6 4-9-11-3 6-2-5-7 2-1-2 9-8c-5-3-8 4-13 2l1-5-16 6-2-9-4 3-5-3-1 8h-1l-9-12-8 8-6-12-5 5V-62h8c72-1 145-6 217-15l199-24 205-25 307-36c88-9 175-16 263-22 172-12 344-18 516-36l48-5 45-3 11 1h96c16 0 34 2 47 12l44 37c12 9 22 19 25 32l2 3v5l-46 21m1712 217 10-4c-7-3-11 0-10 4m-585-46-5 1-3-6v5l-2-1-6 5 2 2 14-5v-1m-317-29v4l-8 2c5 2 8 4 12 4 3 1 6 0 9-2-9 3-10-2-13-8m-431-46h-1l5 20 10-6-14-14m-91-11-17 3 1 8a67361 67361 0 0 1 16-11m-321-60-4 1-10 5 15 1 3-2-4-5M0 41l-4-4-5 13-9-7-8 12h-1l-2-8-4 4-4-4-2 9-16-5 1 6c-4 2-8-5-13-1l10 7-1 1-7-1-2 6-3-6-9 11-6-4-3 5-1-7-5 5-5 2-3 3-3-3-5 10-6-3-6 1c-4 7-11 6-18 5h-3c5 3 13 3 13 11l-11 2 7 4-8 1 8 9c-9 0-12-6-16-10l1 4-5 1 7 5-7 2-6 18-5-3-3 4-1-5-1-1-2 6-4-1v7l-11-6c-8 3-17 6-28 3l-3 5c1-7-9-2-10-6l-16 3c2-3 3-7 6-9a3209 3209 0 0 0 1-9l-6-3v6l-12-3-4 8h-2l-2-6c-10 0-10 0-14 3l10 5-1 2-7-1v4h-2c-5-12-5-13 1-16l-1-6-7 2 4 2a48271 48271 0 0 0-5 10l-2-8c-4-1-8-5-12 1l-3-4-5 8-13-10c-3 8-9 4-14 3l-2 9h-2l-2-6c-7 6-13 3-18-2 6 8 6 8 2 13l-9-7-13-4 3-6-5 2 3-9-5-4v4l-17 2 2-5-5-3 1 15-17-7-1 2a5712 5712 0 0 0 4 3h-11l5-3-4-8 5-3v-2l-4 1-6 11h4c-4 2-9 6-13 0l4 8-9 4v2l-12-6-1 1 3 3h-11l6-3-4-5-4 6v-12l4-2-6-5c1 8-4 15-16 18l9-14-2-5-2 7-7-8-4 2-2-6-7 2 2 7-15-12-1 6-16-3c4 4 10 8 4 14l-5-7-4 5-2-1 6-9-17 7v-1l10-17-5-3-1 5-3 11-3-6c-4-2-3-8-11-7-2 0-4-6-8-9-3 5-6 10-15 9l6-10-16 4-1-8h-2l-4 14h-3l-2-10c-10 7-18 0-27-5l-1 2 5 1-1 3-16 2-5-6 1-3-12 6 1 5c-7 1-13-1-17-6v6l-13-2 2 1-10 8-3-1 2-10h-11l13-6c-8-3-14-1-21 4l2-9-5-2 2-6-2-1-2 5-9-4-5 7c-8-1-15 2-18 8l-4-5a159598 159598 0 0 1-16 11l-4-2v8h-2l-2-11-3 8c-5 0 0-7-9-3l5-4-1-1c-5 1-8 0-10-5l-6-10-15 1-3 3-1-6-7-2 3-3-4-9-4 8-9-6 1-1 7 1v-2l-14-1 4 4c-4 3-8 1-9-1-1-3-3-7 1-11l-1-1a15121 15121 0 0 0-16 13l-11-12-2 6-7-7-1 11h-3l-1-15c-1 7-5 6-11 4l5-3-6-4-3 9-4-7-3 4h-1v-5l-9 4-3-5-1 1a4683 4683 0 0 1-1 4l-6-8c-5 1-7 13-15 4l-3 4-1-6-9 7-1-5-7 2-3-3c-2 5-5 10-12 7-4-2-6-6-9-8l-1 13-21-5-9 3-1 4-9-5-3 7-2-5-14 7 3-9-20-3-2 1h-11l1-1-6-8-13 7-2-2 3-7-5-1-1 7-8-10v6l-31-6 7-3-10-4-1 1 2 4-1 1-11-9v5l-12-1v4h-1l-6-11-4 6-9-3 2 7-6-5-1 11h-2l-2-11-12-1 3 9-2 1-8-11 2 11-20-8 1-2-5 4 6 14-2 1-12-9c-4-5-6-10-8-16-9 3 0 6-2 10l-22-7c-1-3 3-7-4-11l2 7c-3-2-6-3-5 2l-8-5c-3-1-6-6-10-1l-7-2-15-10V2c-4-3-7-7-12-5l-13 8-4-8-9 4 3 6-1 1-8-6-3 8-3-4-1 2-7-7-2 2-1 4-16-2 3-7-14 9-2-3 11-8-5-10h-4l4 9-7-3-7 13-5-6-3 8-4-2-2 9c-5-3-10-7-17-5l4 8-1 1-10-9-7-2-3 4-11 1 2-9-1-1-3 5h-2l-5-15-5-8-8-8c1 10-1 17-14 20l3-13h-12v-1l11-5-18-6-3 4c-5 4-10 2-14 1-3-2-6-6-9-1l-5-2c3 7 0 12-8 18l-2-16c-4 4-9 6-15 4l-8-6c-1-6-5-6-11-7l1 3c-5 1-11 0-14-4-4-4-8-5-13-3l-5-7-5-3 2 12-9-5-6 6 1-9-15 8c-1-5 7-8-1-11l-7 7-7 1 2-10c-4 2-7 2-8 4-5 4-7 1-11-2l-4 10-5-6-4 4-7-19-5 12-4-9-20 5-2-11-6 9-5-8c-5 8-9-1-14-1l-6 7-4-7-3 2-5-4-5 5-2-1-2-8-11 8-2-2 3-6-6-3 1-2-8 1 3 5-17-8 1 7-7-4-4-6-4 13-3-1-1-7-6 2-1-1 6-6c-10 1-10 1-19-6 2 6 5 11-3 14-3-6 1-11 4-18-8 5-15 12-25 7l-1 5h-2l-3-16-5 6c-3-3-5-8-11-3l6 4-10-1-8-4 1 6c-9 0-10-7-12-11a59405 59405 0 0 1-9 9l1-6h-4l-1-1 9-3-12-2-3 5c-2-5-6-6-10-1l4-6-4-2 3-1 3-6 4 2-1-2c-7-1-12-4-18-6l-49-19v-5l2-3c2-13 12-24 22-34l41-39c13-11 30-13 47-14l95-6 11-1h45l49 2c172 8 345 4 517 6 88 1 176 3 264 7l309 18 206 13 201 13a2295 2295 0 0 0 242 1z" transform="translate(4332 1421)"/></g></svg>