<svg xmlns="http://www.w3.org/2000/svg" xml:space="preserve" viewBox="0 0 1600 899">
  <linearGradient id="a" x1="325" x2="325" y1="-721.8" y2="-48.6" gradientTransform="translate(366 962) scale(1.3333)" gradientUnits="userSpaceOnUse">
    <stop offset="0" stop-color="#79ed87"/>
    <stop offset=".4" stop-color="#0d4645"/>
    <stop offset=".7" stop-color="#03363f"/>
    <stop offset="1" stop-color="#03363f"/>
  </linearGradient>
  <path fill="url(#a)" d="m1594 229-4 1 1-4h1l3-1-1 4m-2 3-2 1 1-1 3-2-2 2m0 14v2c-1 2-2-2 0-2m3 4-3 2 3-2m-4 311v-1l1 2h-5v-1l3-1 1 1m1 4v3h-5v-2c3 2 4 0 5-1m-70-44h-3v-3l3 3m4 0 1 4 1 1-4-1 2-4m-2-7-1 3-1-1 2-2 3-1-3 1m3 6h-3l2-2 1 2m0-6 1-1v1h-1m-40 67c1 0 3 0 1 1l-1-1m-1-5h-3l1-2h2v2m0-23-3-1h4l-1 1m6 13v3c3-3 3-3 7-1l-5 1h1c-4 0-7 1-9-1l5-2v3l1-3m-17 3-1 1-2-1v-1l3 1m3-20-3-3-1 3-2-1 2-2 5 2-1 1m-4 1 1-2 3 4-4-2m5 20c-1 3-3 3-4 0h4zm0-20 1-1v4l-1-3m0 15v1h-3v-1h3m29 40v-1 2-1m2 1c1 2 0 3-3 4l3-4m84-36-2 14-1 5 1 9c0 5 2 9 4 13-6 11-13 20-22 22-18 2-39-2-55 2h-1v-4l-2 3-1-1-1-1 1 4-3-3 2 3-4-2-2 3-1 1v-2h-3l-1 2h-3l-1-2v4h-1l-3-4v4l-4-4v-2l-3 3-5-4v3l-3-4 16-8-2 1h-3l-1-3 2-1h6c-2-3-4-3-8-3l1 2-8 1-5-1h5v-2h1v2l4-3v-1l4-2 3 2 1-2v2l2-2 1 2-3 1h-3c2 1 4 4 7 3l-1-2 3-2h1l5-2 3-1-3-1 1-2v2l2-6 1 4-1-5-2-3 2-1 2 7v-4l2 3v-3l1-3v-5h-1l1 4h-1v-3l-2 4v-3l-1 4-1-2c3-2 3-3 3-4l-6 4 2-2v-1l-4 1-2 2-2-2-6 2-6 1-6-1-14-8v-2l2-1-4-1 3-3 3-4 1-3c-3 0-5 2-7 4l-1 2-3 1 2-4 1-1h3l4-3 6 5 2 3 1-1c3 0 4 1 5 4v-3l4 3v-3l1 3 3-6 3 6 3-4 2 2-1-2 1-3v5c3-1 2-4 2-5l1-1v5l7-8h-3l-1 3v-3l-3 1 1-1v-1l-1 1c-4 1-8 3-13 1l-2-1v1l-4-2v1c-2 0-2-1-2-3l5 1-4-5-1-1 1 1h1c1 3 3 3 5 3l-1-1h5l4-2 2-2c1 2 4 1 6 2v-1l-2-1c1-3 2-3 4-3v1-4l1 2v1c1 0 1-4 3-3v-3 2l-3-2 4-2c-3-2-4-2-8 1h1l-2 1h-4l-2-1v3l-1-4-3 2-1-4-1 3v1l-2-1-1-4v4h-1v-5l-1 4-2-3v-2l3-3-3 5 4-3 3-4-1 6 4-4v2l4-5 1 4 1-4h6v-8c-2 1 0 4-3 3v1h-1l-2-1-4 3h-1l-5-3-3 1-1 1h-4v-1h-4l1-1h-3l-2-1-11-7-3-1 3-2h1l3-1 1-1h2v-1h1l3-2h4v-1l2-1 6-2-3-1v-1l-4 1h-8l-3-1 1-3-5 3 1-2h-4l-2-1-3-1h-1v-2h1l7-1 6-3v3l2-3 1 1v-1l4 3v-4l3 5-2-5 4-2-2 7c2-1 2-3 2-5h2c0-3 2-3 4-4l1 3c1-2-1-3 1-4 0 1 3 1 2 2v5-1l1-4 3-5v-3h-2l-1 7v-3l1-5v1-3h2l-2-2 2-3h2l2 1-2 2 7 2-4 3 5-1 2 1h6v1l2-1 1 1 3-1 2-1 6 9h-6l3 3-3 1 4 1-1 2h-3l-1-2c-3-2-5-2-8-1 3 3 7 3 9 4h-4l-4 1h-2l2 4-1-1h-1c-3-1-6-3-8-1 2 4 6 2 10 2l-4 2-2 2 5-1 1-3-2 4v6c2-2 4-3 4-6h4l-4 6 8-2-4 3h2c0 1 2 4-1 5l-1-4v6h4l1 2h-1l4 2-3 2c3 2 4 0 4-1l1-3v3h2l1 1 4-1c-1 1-3 4-1 5h-3l3 3 2 1-1 2-1-2h-3l3 2h1-1l-2 2h6l-3 3h4l1-1v4c2 1 3 2 6 1 0 3-2 3-3 4l5-1h3c3 0 4 0 5-3l-2 4c2 0 5 1 6-1l3 4 1-3 2-1 1-2 1 6h1l2-2 1-2 3-2v2l1-2-1-1h2l2 3v3h-4c1 2 2 4 5 4l1 4h-1c0-3-1-3-4-4 0 2 1 4 3 4l2 1-5 3c1 0 4 1 5-2l2 3 1-5-1 2v-4l1 2 3 1c0-3-3-4 0-7l2 1m-294 103c0 3-1 3-2 3-2-3 1-3 4-4l-2 2 2-1h-2m-16 52-38-5-26-2-1-14v-54l4 2-3-6v-1l-1-3h3c4 8 8 18 13 24l-4-13 3 5v-9l2-3c-1 3-2 4-1 7l3-4 1-4 1-3 4 7 2 4 6 9c4 6 8 11 14 14l1 1-3-4-6-11 1-3 3-1 1 1 1 2v5l5-5 3 1v1l-1 7 4-4 5 3-4-6-1-2h1l1 1 2-3 1-1v1l-1 4 2-2 3 4v-2l-1-2v-3l1 4 3 1v2-2l1-1v4l4-3v2h-3l2 1-3 1 3 1 2-1-2 4 4-4 4-1 4-4 1 1-5 7-2-3c0 3-2 3-4 4l-1 1 1 2h3c1 1 1 2-1 4v-1l-3 1-1 2-5 1-2 1v1h7l1 2 2-3 1 1 3-2 2-2 3-1h1l-2 3-2 4 4-4h3v1c1-1 0-3 3-4h4v-3l4-4h2v-2l2 1v-2l1 1-1 3h1l3-2h1l-3 3-1-1v1l-3 3-2 8 2-3 2 3-3 5 1 5 3-2 3-2 1-1 3 1-2-1 2-1 1-3v-3l-1 2v-4l1 2 3 6v-2l1-4 4-4 1-1 1-3v4l-5 10v2l1-1 6-7v3c1-3 2-3 4-1l1 1-1 4h1l11-16v3l2-3v3l2-4v-3l1 1-1 6-2 2-1-1v8l3-1h1l-1-2 3 2h1c-3-3-1-4 0-6l1-4h3l3 3c-15 15-39 32-39 32l-51 16zm-113-9v-2c1-4 3-8 1-12l-2-17-6-13 3-3v7l3-1 1-2c1 2 3 3 1 4v4-4c3 3 6 2 7 0-1-1-4-2-5-1l1-1 3-4h1v-6c0-3 1-3 3-4l1 3h3v-2l2 3 2-4v-1l2 3 2-4v1h4l1 1v-1l3-1-3-2v-1h5v1l2 23v12l1 21 1 4h-17l-20-1zm-61 1c-12 4-22 0-27 0h-47l-58 4h-12v-3l1-5v-9l1-6-1-2v-15l1-7v-20l-1-4-1-10-2-2v-8l2-5 2-5 6-6h1l1 4c0 2-1 4 1 6l-2 1 5 1-1 2c1 1 3 0 5-2v4l2 2v-2c1-1 1-2 2-1l-1-3h3c1-1 0-2-2-4l4 2v-4l-1-2 3-1v-1 2c3 0 3-1 3-4h-2l4-2 1 1v-1l2-2 2-1 2 3 2-3v1l-1 2-3 1 3 4-3 3c4 0 6-2 7-4h1l-2 6-4-1 5 8c-4-3-8-5-13-4 1 3 5 4 8 4h4l2 3h-8l6 4c-3 1-4 4-4 7l5-3c0 5 4 5 7 8l-2-3c0-3-1-5-4-7l3 2c1 2 4 2 7 2l-2-1 4-3v4l6-6v2l2-6 2 2-3 4 5-2-1 2h1l2-1 1 4 4 3v-5c0-3-1-3-3-4 4 1 5 4 5 9l2-1c0 2 1 2 2 2v2l2 2h4l-2 4 4-4v-4h-5c3 0 4-2 7-4h-5l1-1 1 1c3-1 3-1 4 2h-1l1 1c-1 1-3 4-1 7h1l1-3 2 3-3 1s3 0 3 3h-2l3 1v1l-3-1-2 1 2 1 4 2 2 1 2 3-4-3 2 3h-3l4 2c-3 0-4 3-5 6 2 0 5-2 6-4l2-2h4l-3 3h4l-1 5 5-2 1 4 3-7v1l1 4v4h3l1 2 3 1 3 3v-4l1-2h3l1 2h-4c3 2 5 4 8 2l-3-1-1-1 4-3h3l1-1c-1 4 1 6 4 8 0-3 0-7-3-8h3l4 2-1 3 2-1-1 3 3-2-1 6c1-2 2-3 4 0v-3l5 3 7 4 9 4 4 4 5 9v1l-1 5-12-1s-17 0-29 4m-171 4-12 1v-10l1-4-1-2v-9l1-5-1-4 3-6 5-16 1-5v-1h2v4-1l2-2-1-1h3l-3-3h3l1-3h-1 1v-1 1c1 0 3-1 1-2 0 0 0 1 0 0l3-2 1-2v-2h2l1 4 1-2h1l2-2-2 4 3-2h1l-1 1 3-1 1 5v36l-1 7v4l-1 10-2 10-17 1m-19-61-1 1-4-15h3l-2-1h2v1l1 2 1 2v10m-14-83-2 1v-4l2 2v-2 3m-3-17v-2l3 2v-2 2h-2v2l-1-2m-1-3-2-3 2-1v4m1-8 1 3v2l-1-1h1c-2-1-2-3-1-4m-1-28-4-1 1-3h-1 4v3h-2l3 1h-1m4-71 2-2 2-2-2 3v1l-1 3-1-3m2-5 2 1h1l-3-1m10-29h4l-3 4 4-2 4-2 1 1v1l2-2 2-2 4 2 2 1-6 1h4l3-1c-3 1-4 3-4 5l4-2-1 4h1v2l-1 2 1 5c0-3-3-4-4-4-1 1 0 3 3 4l1 1-5 1 1 6-1-2-2-2-1 2v4l-4-2v1l-1-1 3-2-4-1 1 1h-1l-2-1 3-3-4 2 1-3h-1v-3h3l-4-1 1 1-3-1v-4l3-1-3 1-1-3v2l1-2-2-1 2-1-1-2 1-1h-1v-2h-1 1m0-3v1h-2l2-1m12-1v1h-3l1-1h2m2-4h6l1 5h-3l4 3h-3l-5-3 3-4-3-1m3-3h1v1h-1v-1m3-20 1 1h-3l2-1m0-11 2 2h-1l-1-2m2-1c2 1 0 1-1 1l1-1m2-4h2l-2 1v2-3m2 51h-1l3 1-2 3h-1v-4h1m3 34c-3 0-3 0-3-2l3 2m3 4-3-2c3-2 3-2 3 2m-2-150 4-3 2-1v4h-2l-1 4v1l-3-5m3-8c3 0 3 0 4 2h1c-2 2-4 0-5-2m1-8h3l1 2-4-2m2-18c2 0 2 0 2 3l-2-3m1-4 4-1-1 1v2l-2-2-1 4v-4m-7 368 2-1 1 1v-1 1l1 2-4-2m0 4h3v2h-1v1l1 1h-3l-1-4 1-1h2l-2 1m-24-197-1 1-1 2-2-2 3-1h1m7 4v-1h1l-1 1m3 3-2 1 2-3v2m-2 14v2h-1l3-3-4-1h4c1 1 1 1-2 2m6 3h-2l-1-3v-2l3-2v7zm2-17c2 0 3 0 3 2l-3-2m4 9-1-4c0-1 0-3 3-3-3 3-2 4-2 7m2-1v1h-2v-1h2m2 0h-2l1-3 1 3zm2 8h-2l-1-2 3 2m1-140c0-3 0-3 3-2l-3 2m-27 321h2l-2-3 3 2v1h3l-6 5v-5m4-197h-1l1-2v2m2 18v-1h1l-1 1m16-4h-2l2-1 1 1h-1m9 138 1 1-1 1v-2m-1 1v-1 1m-14-137 2-2v2h-2m-2 1 1 3-1-3m1 3 3 2v-2l1 2h-3v3l-2-3 1-2m20 152-1 2v2-2l-2-2v1-1h-1v1-1l-1 1 2 1-1 2v1h-3v-3h2v-1h-2v1h-1 1l-1 2h-3l2-3h-2l3-1v2-1h3-2v-3l-4-1 2-1 2-2v-1l2 1v2l1-3h1v-1l-1-2 4-1h-1v-3h1l-1-1-3-1v-2l1 2h2l1 2v14m-3-316v-2h2v3l-2-1m-17 97c0-1 0-3 1-1l-1 1m3 1h-2c3-1 3 0 4 2l-2 4-2-4 2-2m0 55-2 5v-2l-1-2h1l-2-4 4 3m-8 200v5l-7 18v-6l-1-1-2-8v-1l-1-6 1-2 2-4 4-4 1 1 1 1h-1l1 4h-1l3 2v1m21-17-3-4 3 2v2m1-2-1-1-1-1v-2h1l-1-1-3-1h4v-3l1-3v-1h2v12h-2v1m14-360 2-1-1 4-1-3m4 14h2l-4 2-1-2h3m0-3 2 1h-4l2-1m5 5c-1 3-3 3-5 2l5-2m1 14-2-2 2 2m4 5h-1l-3-1 2-2 2 3m0 1-1 3 1-3m-5 2h1v1l-2-1-4-2 5-1-3-1 1-2v2l6 1-4 3m-1 28 1 1h-1v-1m0 9 1-3 1 4-2-1m9 36h1v1l-1-1m16 48 1-3 3 3v-4l4 5-3 2-5 5-3-5 4 1-2-3 2 2-1-2v-1m4-15-3 2v-3l3 1m0 6 1 1-1 1h-1l1-1v-1m5 13-1 1-1-2 2 1m-2 4 1-3 1 2-2 1m8-5-3 1 3 3-3-2-3-1 6-1m-2 26 3-1h-1l-2-1 3 2h-3m4-16h3l-3 6-1-2 1-4m6 6c0 2-3 2-3 2-1-1 0-1 3-2m0 8h1v4l-1-4m5 13-1 3c2-2 4-3 6-2-2 2-5 0-8 3v-3l3-1m1-21-1 4-1-4h2m2 20h-3v-3l3 3m0-8 1 2-4 2c0-3 1-3 3-4m2-35-1 3h-3l4-3m0-11v3l-2-3m0 0h2m-9-4 3-1h1v1h-4m12 43 1 1h-4l3-1m3-35 2 2-4 2 2-4m1-9-1-1c1-2 1-2 1 1m4 1h3v2l-3-2m4 4 1 3-1 1-1-2 1-2m7-9-3 3h-4l7-3m-6-21 3 1v1l-4-1 1-1m4 6 2-1-2 4h-1l1-3m4-33-1 1-4-1h5m-5 41 3 4-4-1h1v-3m7 7 1 1h-3l-1 2h-3l4-4 2 1m2-44-2 1c1-2 1-2 2-1m-1-7 4 2v1l-4-1v-2zm0 10 3-2v2h-3m5 45h2l-3 3h-1l-3-3h5m2 7v1m0 0v3l-2 1-1 3-1 1 1-4-1 1-4-5h3c2 1 4 0 5-1m1 8v1l-5 3h-2l7-4m1-67 2 3-3-2 1-1m2-23 2 2h-4l2-2m0-1 2 1h-1l-1-1zm4-12 1-1v8l-4-3 3-4m1-9 3-3 2 1v-1l3 1-4 2-3-2v4l-1-2m4-11v3l-1-3h1m7 12 1 3v-3h1l-1 3-1 1v-1l-3 1c-1-3-1-3 1-5l-1 2 3-1m4 8v1l-3-1v1l3-1m2 24c-1 1-4 0-6 3v-3h6m-2-55-2-2 4 1v1h-2m-4-8 2 2h3l1 4c-1-2-2-3-4-2l-2-4m0-4 2-2h2l-4 2m-3-12 1-1 2 3-3-2m-3 8h2l1 2-3-2m-1-4v-1h1v1h-1m9-6v1l-2-1h2m4 10h-4v-1h2l2 1m6 0 1 2c-1 0-3 1-3 5 2-1 4-3 4-5v2l-1 2c-1 0-3 1-3 4l4-2-4 8v-4c0-2-1-4-4-5h-1v1l-4-1c3-1 5-4 9-3l-2-2-2-2h6m4 7-3 1 1-2 2 1m2 31h-2v-3l2 3m-1-28 3 2v2l-2 4-1 1v-9m8 4-4 4-1-2 5-2m-3-6 2-1-2 3v-2m3-1 1 5-2-1v-4h1m3 7c-2 0-2 2-3 1 0-1 0-3 3-1m1 8 4-2h4-4v-6l3-2-2 7 2-1v1l2-3 2 8v-1l2 4 2 1 1 6v1l-1 3c2 0 4-3 5-6l1 3c-2 3-4 3-4 5l6-2v1l1 5 1-4 4 7 1-4v5h2l2-5 2 3 1 2 1 2-4 1v-1l-2 1-2-1c2 2 0 2-1 4v-6l-3 4 2-4-6 4-4-6-2 2-2-4v-1l-1 3v1l-1 1 1-5-4 4-1-5-2 2v-2h2v-2l-6-1 3-5-4 2h-1v-9l-3 5v6h-1l-1-4v-3l-2 1v-2h-1l1-2h6l-2-1 3-5m12-2 3 3-2 1c0-1-2-2-1-4m8 12-3 2-1-4 4 2m-3-6 3 2c-1 0-3 0-3-2zm16 12c0 2-2 1-2 2l1 2-1 1-2-4 4-1m7 5 1 1v2l-2 1 1-4m11-49c-6 0-8-2-12-4l-2-2 4-2 3-3-3 3h6v1l4 3v1c4 1 8-1 12-3l-2 2c3 1 4-2 6 1-2 3-3 0-6 1l2 2h-12m20-27h-3 3m10-67-1-1 1 1m-5 2v-7h1l-1 1h1l-1 6m5-92 2-3 4-4 1-1-1 4-6 4m-1 1v-1c-1 1-1 2-4 2 1-2 4-4 5-1h-1m-8 12c3 0 3-3 4-3 0 4-1 4-4 3m0 8v-4l4 1c0 2-1 3-4 3m32-67v4-4m1-10c2 1 2 1-1 2l1-2m-1 17 1 1-1 2v-6l1 3h-1m3 5h-2v-2l2 2m2-6v4l-2-6 2 2m-8 36-1-2 1-2v4zm4 10c2 2 3 3 2 4l-6-4v-4l4 4m4 3-1 4-1-3 2-1m2 29h1v8l-3-6v1l-4-3c2-2 3-2 3-1 3-1 4 0 3 1m1 28v2c3 0 1 2 3 4l1-2-1 3c-2-1-3-1-3-4h-1c0 4 0 3-3 0l4-3m9 100h-4 4m2-72v2h1l-1 2v-2l-2 1 2-3m4-17 1 4h-1v1-4l-2 2v1c-1-3 0-3 2-4m5 11-4 5v-3l4-2m-7 10v-5h2l1 3-1 1-2 1m4 28h-2 2m0-16 2 2-2-2m6 11 1 3-4-2 3-1m2-3h-1l3 4c-3 0-3-1-4-2 0 0 0-3 2-2m-8 6h3-3m0 17 2 4v3h-3l-1-2 2-5m20 101 2 4c-3 0-2-1-3-2l1-2m6 107 2 1-2-1m10 3c4 2 10 2 15 2l8-2 7-6 1 2-1 2 1 2c1 4 4 5 7 6h-3l-5-1-3 3h-3l-4 1-1-3v3l-1 1v-5l-2 1v-1h-1l-1 3-5-2-3-1h-1l-3-1-3-2-4-1-3-1c3 0 6-3 8 0m-2-99-2 1v-5l2 4m16 11 1 2h-4l-4 3-4-1 11-4m-4-4 1 1-3 1 2-2m-3 22 3 6c-2 0-2 2-4 1v-4l1-3m4 34 3 2v-5h1l7 1v-2l2 1v-5c2 0 4-3 6 0l1-3 3-4 2 1v-2l2 2v3l1-3h1l-1 3-1 1-4 2-2-2v6l-16 9-13 9h-3l-2-3 1-4-4 2 5-3v-3l4-2 4 2 2-1-3-4c1 0 3-1 4 2m8-32c3 1 1 2 0 4v-4m5-3v-1 1m16 11-1 2-3-5v3-4l4 4m0-22h2l-2 2v-2m7 0v2h-1l1-2m3-5v3l-2-2 2-1m6-5v1l-1 1 1-2m2 9v1l8 4v2h-7v1l-3-4v4c-2-1-2-1-2-5l-2 2h-1l3-4 1-2v-2h1l2 3m8 24-2 1v-4l2 2v1m2 19h-2v-2l2 2m-1 270v-2 2m-3 4v-1l2-1h1l-3 5v-3m-5-17 3-5v1l-3 4m1 4-1 4-1-1 2-3m-10 1c1 2 2 3 1 4l-1-4m-55-16 1 2-1 1h-1l1-3m-5 6h1-1m-8-11v-4c1 1 2 0 4 3l-4 1m-6-1 2 2h-2l-1-2h1m-5 6 1 4c-2-1-2-1-1-4m-24-17 1 5 4-2-2 8c-3-3-4-7-3-11m-3-9h2v2l1-1c0 4 0 7-3 9l-1-4 1-6m-4-3-1 1 1-1m-20 28h-1 1m-1-3v-1 1m-32 19 1-3v7l-1-3v-1m-3-5 2-2 2 3c-1 1-2-1-4-1m3 2-3 3 3-3m-5 0 5-1v1l-5 2v-2m-36 15 2-3h2l2 2v-4l2-3 6 5h2l5 3c3 3 5 5 5 8l2 8-3 7-4-7-7-7-16-5-3-1 5-3m-6 1 2 2-2-3v1m-1-12 1 2 2-3 1 1-1 1v2-4l-3 2v-1m-9 0c0 2 0 4-3 4l3-4m-4 3 1-1c0 2-1 4-3 4l2-3m-10 3 2-2h1l-3 4v-2m-12-27 3 1 1 2-4 1 4 1 3-1-3 4 4-4v4h-1l-1 1-4 1-3-2v-4l-3 1-1-1 5-4m-6 1 1-1v-1l1 1-1 1-1 2v-2m-2 6v4h-1v-4h1m-10-15 1 3h-3l2-3m-3-19-1-1 2 1c2 3 3 3 6 3l1 1 5 6-6 2 2-2-4-2h-1l-3-6-1-2m-1 20 1-4 1 3-2 1m-2 4c3 0 4 2 3 3l-3-3m3 10v2l-3-1 3-1m-3-3h3l-3 3v-3m-1-23 3 3 1 3-4-6m-8-1h3l-2 1-1-1m-1-12-3-1 7-2-4 3m-4 9-2-1h2l5 3h-1l-4-2m2 14h2v1h-3v-1h1m-12-60h2l-3 2 1-2m0-10v3-3m4 52-4 2v-3h4v1m0-30-2-3 4-4v4h-2v3m-10-31-3 4v-1l1-2v-5l4-1h3c0 1 0 2-3 4l-2 1m2 31v1l-1-1-1-2v-1l2 3m-4-26 3-1-1 3-2-2m-2 4v-1l4 4-4-3m0 47v1h-2l2-1m-2-3 2 2c-2 1-2 0-2-2m-1-21v-1h1l-1 1m-7 41 4-2 3-3-1 4h-2l-4 3h-1l1-2m-5-1h3l-2 1h-1v-1m-1 4-4 3 1-4 3 1m-12-185v-2l1 2h-1m13 4-3-2h-2v-1l2-4h3v3h-3c2 1 4 2 3 4m0 4v-2h1l-1 2m9 26 2-2 2-3v1l-4 4m4 28 2-1h1l-1 3-2-2m2 2v4l-2-2h-1l3-2m-7 32v-3h1l-1 1v2m1 1h-2 2m0 80-2 1v-1h2m0-7-4 2 3-2h1m-21-16v-2l1 1 2 1h-3m7-140v3h-2l-1-3h3m1 11h1v3h-1v-3m3 20-2 1v-1h2m-2 1 2-1h1l-3 1m8 11-1 1-1 2h-2v-3h2l1-1-4-2 1-4 3 4h3l-2 3m-5 75h1v1h-1v-1zm-9-116 1-2-1 3v-1m6 30h2-2m7 23-1-3v-1h1l1 3-1 1m-3 39v-2h2l-2 2m-4-19-1-3 3 2-2 1m0 1 2-1v1h-2m-6-8 1 2h1v-2l2 2-3 2h1-1l-3-1 2-3m-2-9v1l-1-1h1m4-17h-1v-2l1 2m2 0v1l-2-1h2m4 25v-1l1 1-1 1v-1m-3-23h-1l1-1v1m-4 23c-3-1-3-1-1-3l1 3m7 3-3-3h-1l-3-3v-1l3-1v1l2 7 2-2v2m2-14 3-1v3l-3-2m2-22-2 2s-1-2 2-2m-10-7 2 1h-3v-1h1m2-21h1m12 118-1-1h-2l2-3 1 3v1m-4-76-1-1 1-1 4 1-4 1m4 2-1-2 2-1-1 3m4 1-1 1-2-5 3-1v5m-12-41v1h-1v-1h1m-1-12v-2 2m-3-6c1 0 3 2 1 3l-1 3-1-2 2-1-1-3m-12 147 1-1v1h-1m29-15-2-2c2 0 2 0 2 2m-2-25v1h-4v-1h5c1-1 3 0 3 3v1l-4-4m6-8-1-1-1 8-2-2v-2c-1-2-1-3-4-3l-1-3v-2l-3 4-1 1v-1h-1v-3h1l-1-1h-3l5-2-2-2v-2l1-1h-1l-2-1h7c-3 1-3 4-3 7l2-2h2v2c3 0 3 1 3 2v3c1-1 4-3 3-5h1l1 2v4m0-33 2 1m0 0h-2v4l-4-1h-2l1-3-1-1-4 2c0-2 2-2 4-5h-3l-1-1-2-1h2v2l2-2h2l-2 1h4l3 1c3 0 3 0 3 3m5-40h-3l-1 1h3l1 5v2l1 5-1-1-1-2-2-2h-1v-2l-4 4-3-8 7-2h4m-1-8v6l-2-2-1-3 3-1m13-2-1 6-2 4h-1l1-3h-1c0-3 3-7 4-7m0-32v-1h1l-1 1m3 100-3 4 1-4h2m2-120 4 4-1 2h-1l-2 1-1-8 1 1m4 7v-3l3 2-3 1m2 7-2-6 4 4-2 2m4 10c0-1 0-4-3-5h1l3 4-1 1m2-5h3v3l-3-3m6-16-2-4c3 3 3 3 2 4m2-7c0 3-1 2-1 2h-1l2-2m-1-41v-3h3l-3 3m4-33h1l-1 1v-1m0 18h1l-1 3v-3m-1 54 2-3c0 3-1 3-2 3m4-78 1-1-1 1m4 4-6-1 2-3 4 3v1m0 28c-2-2-2-2 1-4l-1 4m14 31c2 3 0 4-1 3l1-3m3-67-3 3v-3h3m1-17-2-1 1-2h1v3m0 12v-4l3 1-3 3m4 3-1 1-1-1h2m0-10 3 3h-1l-2-1v-2m3-5v-1h1l-1 1m25 39v-2l-2-1-3-1h-3l1-2 6 2 5 1v1l-4 2m4-11c3 0 3 4 4 5h-2l-2-5m71-264v3l-1 2-2 2v-2l3-5m9 61v-1h-1v-1l1 2m8 3c-1 1-1 0-2-1v4l-3-3v4l-3-5 3-2h1l4 3m-2 11v-4h1v-3h1l-2 7m6 18-1-1v-3l1 3v1m-102 498 1-3 4 4v3l-5-4m-2-8 2 1-2 4h-1l1-5m-48-44 3 1 1 1h-1l-1-1h-2v-1m-1 6-3-1c2-1 3 0 3 1m-8-25 3-4c1 1 4 1 2 3l-2 1h-3m-3 15-1-2c1-1 4 0 5 2h-4m3 6-4-2c3 0 3 0 4 2m-5 6v1h-2l2-1m-2-7v-1h2v1l-2 3-1 1 1-4m2-23 1-1v1h-1m-3 11 1-3c2 2 0 3-1 3m-8-55v3l-1-1 1-2m1-8-1 3-1-1 2-2m3-101-3-1v-2l3 2v1m4 4h-5l2-3 2 2 1-3v4m9-9c3 0 4-3 7-2 0 3-3 3-7 2m11-2v2l-1 1 1-1c-3 0-4 2-5 1l5-3m0-9 4 3h-3l-2-3h1m8 11-1 2-2-2h3m13-98-1-1v-1h-3l4-4 2 4-2 2m2 10-3 2v-2c0-2 1-3 3-2v2m1 57h1l2 1-2 4h-1v-5m1-44 2 1-2 2v1h-1l1-4m4-37v1h-1l1-1m4 17v-3l-2 2h-2l3-3c3 3 3 3 1 4m4-11h-1v-1l1 1m6 15v-3l1-1v1h1l2-4v4l-3 2-1 1m22 320v1l-1-1h1m-66-52 1 3-3-2 2-2v1m-6-27v3l2-1h2v2h2l1 6-1-2-6-2v-2l-4-4h4m-12-6 3 1 1 3-5-3 1-1m-1-78 1-1 2 3h-2v-2l-1 2v-2m5-9-4 1c0-2 3-4 4-5l-1 3 1 1m10-51v-1c-3-1-2-3-3-4 3 1 4 4 3 5m4-4h-4v-1l4 1m13 11h-4l1-3 3 3m5-21 2 1h-2v-1m4-15 2 1v3l-4-3 2-1m-1-4v1l-1-1h1m-1-3v3l-2-1 2-2m1-53-1-1h2l-1 1m1 45-2-1h2v1m8-34h-1v-2l1 2m2-8h-3v-2l3 2m2 5-2-4h1l1 4m2-1v1h-2v-1h2m6-7v1h-1v-1h4m4 3-4 1 1-1h3m8 304h1v2l-1-2m-48-43h1l-1 1v-1m-15-68-1-1v-2l1 2v1m0 3c0-2-1-3 2-3h1c0 3-1 1-3 3m11-3 1 3-2 1 1-4m4-84-1 1 1 3v1l-4 2-1-6 5-1m7-12-2 1-2 2v1l-4-3 1 3-4-3 7-1h4m6 0-1 1h-1l1-2v1l1-1v1m38 203h1v1l-1-1m-43-71h-3l3-3v3m-5 4h4l-2 1v-1h-2m4-29v-2h2v3l-1 1-1-2m-19-66v-1l1 1 2 2h-3l-1-2h1m17-28v-2l2 1-2 1m2 8-2 4 6-2 4 1v4l-4-4c-2 4 1 7 5 9l-4 3h5l-2 4 1-3-3 2-3-4h-5c3-4-1-8-3-11l-1 1-1-1-1-1 2-4 6 2m4-12-3-1h1v-1l2 2m-2 10-1-3h4l-3 3m11 78 1 2h2v1h-3v-3m-11 4v3l-1-1 1-2m-5 0h3l-2 2-1-2m-4 0 1 3c-1 0-2-1-1-3m-9-29v1h-2l2-1m2-24 2-1 4-2-3 3h1l-3 5-2-1-3-4h4m7-11-1-1 1-1 1 1-1 1m1 2-1-2 1-1v3m19-2-1 2v-2h1m-4-6 3 1c-2 1-3 0-3-1m0-4 1 1 3 1-3-1h-2l1-1m-3-14 2-1 1 3-3-2m8-2h-2v-4l2 4m-9 89v1c-1 2-3 2-4-1h4m-7-7h4l-2-2h1l3 4v-2 3h-8l2-3m10-44-2 2h-1v-2h3m2-26 3-4 1 1v3l-5 2c-1-1 0-2 1-2m7-7v-3l1 3h-1m-1-4v1l-2 2 2-3m-11 44h1-1m4 31 1-2v3-1h-1m1-35v-1h2l-2 2 3-1 1 1-1 2v-2l-3 3h-4v-1l4-3m8-39 2 2v1l-3-1 1-2m-2-9v-1h1l-1 1m6-1 2 1 1 1v-1l1 3v-3h3l1 4v5l-3-1-1-1-4-4h-1l1 4-4-4 4-4m-4 0h2l-2 1m-24 43 2 1h-3l1-1m16 58c-1 0-2 0-1-2l1 1v1m0-12v3l-2-4 1 1h1m-8-57v1l-1 2 1-3m-4 92v-3h2v2-2h1v3h-3m-1 1v2l-3-2 2-1 1 1m-4 4-1-1 4-1-3 2m13-130 2 1v7h-2v-8m-14 4c1-2 1-2 2 1l2 1 1 2h-1l-4-3 1-1h-1m-3 138h3v2l-2 1-1-1v-2m40-240 3-1v1h1-4v3h-1v-4l1 1m-4-13-1-1h1v1m-13 76 1 1-1 2-2-3v3c-2 0-1-2-2-3h4m-43 155-1 1h-2v-1h3m-1-22h-2v-1l3 1h-1m17-13-1 1-2-1 2-1 1 1m67 121-2-1 2-1 1 1-1 1m-31-321v-3l4-1v-1h1l2 1c-2 1-4 4-4 7h-2v1l2 1-3 2h-1c2-3 2-4 1-7m4-11-1 4v-1h-3l4-3m-40 115h4l-1-3v-2l4 1-2 3 2-2 2 2-1 4c0-3-1-4-4-6l1 8h-4l2-1-4-3 2-1h-1m-11 60-1-1 1 5-1-3-1-1h-2l-1-3-1-1 1-3-3 2v-4c3 1 4 2 7 0 0 4 3 5 1 9m-13 27h3l-2 1-1-1m0 46 1 3-1-1v-2m0-33v1l-1-1h1m12 3h-3l3-2-3-1v-4l3 4v-3l7-1c2 0 5 1 6 4v1l-2 3c1-1 2-4 0-5v4c-3 0-3-3-4-4l-3-1c0 2-3 3-4 5m1 40-2-2 1-1 1 3m-1-34-1-2v-3c2 1 1 4 2 7l-1-2m15 64-3-2 1-2 2 2v-2h1l-1 4m42 55 2-1 1 1h-3m-1 0h1l-1 1v-1m47-15v-1 1l1-2 1-2-1 4-1 3v-3m-39-313-3-1-1-2 1-2 3 5m3-5v5l-3-5h3m-42 82-1-4h1l4 3-1 1h-3m-14-5v3l-2 1 2-4m2-9-1 2v3l-3-3 4-2m-6 14c2 0 4 0 5-2h-1 2l3 2v3l-1-3h-1l-2-1 2 3h-11v-2h4m-2-1h2l-4 1c1-1 1-2 2-1m2-16h2l-1 1-3-1h2m-3-1 1-2 2 2h-3m-20 182v-1l-4-4h4c0 1 1 3 4 3l-3 2h-1m-12-33 1 3h-1v-3m4-69-5-2 1-1 5 3h-1m-1 52v2l-2-1 2-1m2 25h2l-2 3v-3m3 4-1 5v2l-3-4h1c0-2 0-3 3-3m1 27c-2-2-2-3-1-4l-1-4 4 1c-2 1-3 4-2 7m-1-62-3 3v-1h-1l1-3-4-1h3l3 1-2 1h3m-11-46v1c3 1 4 3 7 1v2l-4 1-3-3v-2m4 68h2v1l1 1 1 3-1 1-1-1 1-1-3-4m4 58c2-2 2-2 3-1l-3 1m-1 0h1l3 4-1 2-3-6m5-4-2 2 1-3-3 1 3-3c-3-1-1-2-1-4-2 0-2 3-3 2l3-3 5 7-4-2 1 3m6-14c0-3 2-2 2-3-2-1-1-4-1-5l4 1h5l-1 1 4 4-1 3v-1c-3-2-4-3-8-2l1-1-5 3m16 49h1l-1 3h-3l3-3m0-3v2h-2l2-2m1-6v-2h4v3l-4-1m68 34 3-1h-3l1-1 3 1-1 1h1v2l-4-2m9 3v3l-2-3 1-3 1 2v1m18-12h-2l2-1v1m132-191 1 3 1-3 2 2v-2l2 3h2l1 1-1-2 1-2v2l1 1v1h1v2h2l-2 1-8-4 2 1 5 5 1 2-1 1h-4l-4-4v4l-1-4h-2l-4-3 2 4v-1l-2-3-1-2 6-3m-3-14h-1 1m0 1 1-1-1 1m20 5v2h-1v-2h1m3-1v-1h-2v1l-1 1v-1l-1-1h4v1m-3-13h5l4 1h-4l2 1-3 2-5-3v-1h1m-20-6 7-1 4-1-2 4h-10l1-2m7-4c-2 0-3 0-3-2l3 2m5-2-1-2 1-1 1 3 2 2h-3v-2m-3-3v5l-2-5h2m3-7h-1 1m0 2h1-1m-1 4-2-2v-1h3l-1 3m2-3 2-1v4l-2-3m2 9 1-4-1 4 1-1-1 1m2-5-1-1 1-2h2l-2 3m10-5h-2l-2-2h2l2 2m2-22 4 2-2 1-4-3h-4l1-1 5 1m0-2h-2v-4l2 4m3-4v4l-3-4h3m15 9-6-1 6-2c2 0 4 0 4 3h-4m-56 67v1l-2-3 2 2m25 5h1l-2 1 1-1m4-4c0 1 0 3-1 1h-3c0 2 0 0 0 0 1-1 3-2 4-1m-5-9 1 1-1 3v-4m8-2-2 2v-3h2v1m13-10 3 1h-2v1l-4 3v-4h-1l-3 8v-4l2-5h5m-5-28-4-2 2-2 2-4v8m4-3-2 1-1 2 1-4 2 1m9 5h-1l1-4v4m-43 63v-1h2l-2 1m7 1v2l-3-2h3m12-9h-1 1m11-3-2 3v-1l-1 1-1 1-1-2 5-2m-10 8v-2 2m3-4-1-2 1 2m9-1c-1-3-1-3 2-4l1 3-3 1m7-5v2l1-1v1l-2-1 1-1m0-51v3l-1-2 1-1m-55 119h2l1 1-1 1h-2l2-1h-3l1-1m12-52v-2 2m-1 2-4-1 3-1 2 2v2l-1-2m4 23-1 1v-1l1-1v1m4-7h5l-1 2-4-3-1 3 1-2m-15 35v3h-2l2-3m19-29-4-2v-2l4 4m9 0h2l-2 1-2-1 1-2 1 2m4 0v2l3-1 4 1v2h-4v-3l-1 3h-2l-1-2 1-2m-29 30-1 2v-3l1 1m16-8h-3 3m13-2-4-2h2l2 2m7 22 3-1 1 3-5 2h-3l1 2h6l-2 2 4-1-4 4-1-1-5-5 5-5m-9-1 1-1v1-1h1l-1 2-1-1m0 0c-3 3-3 3-4 0h4zm-4-4h2-2m-16 8 1-1v1h3l2-3-2 4v2l5-3-3 4v-1l-6-3m2-4v-1l3 1h-3m-1-1h-3l2-2 1 2m8 0h-3 3m1 8h-1l1-3v3m11-27h-1l-2-1h2l1 1m-3 5h3v2h-1l-2-2m18 12 1 2-1 1v-3m-42-17 3 1 3 3 1 1-3 3v-1l-1 2h-3l-1-1 1-3-4-4c2-1 2-2 4-1m32 35c-1-4-4-6-6-6l4 6h-2l-5-2-3-1 2-1 5-4 5 4 3 3-3 1m-13-60v2l-1 3-2-4 3-1m-19-31 2 1h-2v-1m-8 53h3l-3 2v-2m52-97h2l1-1v1h-3m-4-3v2h-2l2-2m3-9-4 1v-1l4-3v3m0 3v-3h3l-3 3m-5 21h2l-1-1 4 1h-5m8 0c-2 1-2-1-3-1l3-2-2 2 2 1m-12 9v3h-2l2-3m-11 24 1 2v1h-1v-3m-5 19 2-5v4l4-4v1h2l1 3v-3l7 3 8 1-2 1h-1l-1 2h-7v1l-4-1 1 1-4 1v-2l-4 1-1-1 1-2h-5l-7-4 2-4c1 3 1 6 4 6 1-3-2-4-4-7l-3 4h-1l1-5-1 1v-1l1-2 1 4 2-2c1 1 4 1 4 4h1c0 2 0 4 3 5l-3-7 4 2-1 5m-8-13 2 1v1l-1-2v2l-1-2h1-1m37-91 1 3h-1v-3m-7-1 4 5h-2l-2-5m3 8h5l2 4-7-3-1 1-2-1 3-1m-12 50 3-1h2l-2 3-2-2v3h-1l-1-1h3l-2-2m-28 15h1v5h-1l-3-1v1c-1-2 2-2 2-4l1-1m47-88-2 1-1-4h4l-3 2 2 1m-16-5 1 2 3 3v-1l1 1v-1l3-2v2l1 4 1-4 4 6 2-4v4l4-1 1 3-3 1-3 1v-1l-2 3 1-4-3 2 2-2-6 2-2-5-4 3v-3l1 1-1-2-2-6-1-2h2m5-3-1 1v-2l1 1m-1 3 1-3h1v3l-2 2v-2m-4 9-2 1 2-1m-10 20 3-1-1 2h5l-3 3h6l-3 3h5l-1 1h4v1l-3-1v3l-3 5h-2c2-3 2-5 2-8-1 3-4 4-2 7l-2 1v-1l-2 1v-1 1l-2-1v-2l-2-1-2-1v-3l-4 1-1-1-1-1 9-7m-21 24h-4v-1l-3-3 18-12 2 3h-2l1 2h1l1 3v1l-2 3-2 1v2l-2-2v2h1l-4 1h-3l-5-3 3 3m-148-87 1 2v1h-1v-3m-33-34h-2l-2 1v-1l1-2h1l2 2m1-4-1 2c-2-1 0-1 1-2m-3-2 3-2 1 1-4 1m-4 10h2v2l-3 3c-1-1 1-3 1-5m-9 4-3-2 3-1 1 3h-1m-3 30c2-1 2 0 2 2l-2-2m2 19 2 3h-4v-2l2-1m-3 3-3 1 3-3v2m-1-8c-2-3-2-3 1-4l1 1-2 3m-3 45 1-1 4-2-2 3-2 4 3-1v2l-3-1-2-3h1v-1m-19 21v-2h2l2 4 6 1-4 3h-6v-6m-17 108v3l-1-1 1-2m-13-94 2-3c0 1 0 3-2 3m-7 22 3 2 4 2h1l5 3-1 1-1-1-7 3 11-2-7 4-3 4v-5l-2-1 1-2c-1 0-3 0-1-1l-3-5v-2m-12 19 3 3h-3v-2h-7l6 2v1h-2l2 1v-1h5v4l-4-1 1 4-3 1v-4l-1 3c-3 0-3-2-3-4l-1-3c0 1 0 3-1 1l-1 4v-4l-2 2-2-7 1-4 1-1 5 4-2-6 2 2 4-4v1l2 4v4zm-1-12 2 1h-2v-1m-14-25v1l-2 4-2 1h-1v-1l3-1h-2l2-2 2-2m-28 173-1 1 1-1m-9-321 1-2-1 2m1 6 3-1-1 1h-2m4-4c-1 0-1 3-4 3l-1-3 4-1h3l-2 1m0 4v2h-1l1-3h-1l3-3v-1 1l-2 4m-9 299 4 3-1 1c1 0 2-1 2 1l-6 7v-8l2 1-1-5m45 8-4 1 2-1h2m2 4 2 1-1 2-1-3m25-53v-4c0 1 3 2 1 4h4c-1 2 2 5 3 6h-4l-3 3c2-1 3-4 2-5l-2 3-1-3v-4m4 70-3-1h2l1 1m-1-6h-2l6-6 2 3-1 1h-3l-2 2m5 6v3l-3-3h3m4 2h-3v-2h3v2m-4-7-3 3v-2l4-4 3 4v2l-4-3m11-11c1 3 1 4-2 6l2-3-2-3 2-4 2 1h-1l-1 3m16 47-2-1 2-2v3m-2-4-1-1 1-4 4 2-1 2-3 1m18 16 1-3c1 2 1 3-1 3m84-3v-1l1-1-1 2m17-18 1-2v4-2h-1m79-2v-1l2-4c2 1 4 1 4 4l-2-3 1 6h-1l-2-3 2 4v1l-3-3v-2l-1 1m54 30 2-2 2 3v3l-4-4m-2-3 1-4-1 5v-1m1 5 1 3-2 1v-1l1-3m7-18v-4 4m4 6-2 4-1-1 1-3h2m4-8-2 4v-4l2 2v-3 1zm21-318 1-2 2 2h-3zm7 321v1l-3-1v-1l1 2 2-1m-8-325c-4 0-7-2-10-4l-1-2 3-1 3-3-2 3h4l4 4h-1c4 1 7-1 11-1v1h4c-2 3-3 0-4 1v2h-11m8-8-3 1s1-3 3-1m1-20v-2h4l-4 2m-3-14 3 2-1-6h1l1 4-1 3 1-1h-2l-2-2m7-5h-1l1 3-3-3h3m7 363v4-4m-3 4v4-4m0-8 1 2-4 4 3-6m-3-7v3-3m8 16 2 3-7 8v-2h1l1-5v-1l3-3m2 1v2-4l1 2h-1m2-5v-1h2l-2 2-2-5 2 4m-1-8-1-3h1v3m3 11h1l-1 1-2-1h2m1-414 1-1v1h-1m-3 12-1-1h3l-2 1m-2-10h1v2l-1-2m-2 12v-7 3h2l-2 4m-1-22 1-1h2v1l-3 2v-2m5 6-1 1-1 1-2-1 4-1m2 4h-3l1-2 2 2m-2-27 2 1v2l-2-3m0-5v-3l2-1h1l3 1-3 4v-3l-1 3h-2v-1m2-36v-2l4-4 1-1-1 4-4 3m-2 1-1-1-3 2c2-2 3-2 4-1m-6 11 2-3c0 3-1 4-2 3m0 6v-4l2 2-2 2m13-70h1l-1 4v-4m4 2 1 6v-4 4h-1l-1-3v1l-2-2 3-2m3-4v4l-2-2 2-2m1 50v2l1 3h2l-3-1-1-2 1-2m1-2v-2 2m-1-22 4-4v1l-1 3-2 2-1-2m5-12v4-4m2-8v1-1m-2 14 2 2-2 1 2-4v1h-2m3 4h-1v-1l1 1m3-5-2 4-1-4h3m-7 16-1-1 2-3-1 4m0 16h-1v-1l1-3v4zm3 8c1 1 2 3 1 4l-4-4h-1v-3l4 3m4 3-2 2-1-1 3-1m1 25 1 1v6l-4-6v2l-2-3c1-1 1-3 2-1l3 1m1 25 2 4 1-1-1 3c0-2-3-2-3-4h-1l1 2-3-1 4-3m3 104h3l-3 2v-2m5-80 2 2-2 2v-2l-1-2h1m2 39h1l1 1-2 2v-2l1-1h-1m2-53 2 2h-2v2-3h-1v1c-1-1 0-2 1-2m4 9h2c-2 0-4 1-4 4v-1l2-3m-5 8v-4h1l2 3-2 1h-1m3 25s-2 2-2-1l2 1m1-14 1 1-1 3v-4m7 8h-2l3 2-4-1c0-1 0-3 3-1m-7 18v7h-3v-1l3-6m1 43-2 3 1-3c-3 1-4 3-7 1v-1h4v-1l4 1m2-4v1l-3-2c1-2 1 1 3 1m2 8-4-1 2-3 2 4m0 3v1h-1v-1h1m12 38v4l-1-2 1-2m4 92 3 2-1 1-2-1v-2m2-50 1 2v2l-1-2v-2m8 134v-2h2l-2 2m-56-345v-1l-2-2h2v3m1 0 1-1h2l2 2m0 0h-1v3l-3-1m3 9v-5s1 0 0 0l1-2v-1l2 1-3 7m5 15-1-2v-1l3 3h-2m0 98v-1l3 3-3-2m-10-140v2l-2-3v-1l2 2m-11 4 1-2v-2 3l-2 3 1-2m1-14v1l-1 1h-1l1-1 1-1m3-28v1l-1 3-3 1v-1l4-4m0-16-1 1 1-3v2m0-8-1 2-2-1v-3l3-1v3m-5 98 1-2 1 2-1 2-3 1 2-3m100 394 1-3v3h-1m-18-16 6-2-6 2m8 4h4v-2l2 2-7 2v-1l-1 1-2-1c2-1 3-3 4-1m2-6v-1l1 1 4 2 3 2-2 2c-1-4-4-4-6-6m0 2 1 2-3-1 2-1m-14-71 2-1v2l-2-1m-5-32 1 1 2-1 1 1 4 2c-3 0-5 0-8-3m-1 55h2v-2l-2-2c0-2 1-3 2-2l3 2 3 2h1l-4 4-4 4-1 2h-1l1-4-4 1 1-3-3 2v-3h2v-1l1 1 5 1-2-2m-4-87c4 3 8 3 12 3l8-2 1-1h8l-1 5h-3l-1 2h-3v1l-4 1h-4l-1-1-6-3h-2l-3-1-3-1-4-2-1-1h7m-4-72 2-1c3 0 3 0 3 2h-1v-1l-5 3-2-2 3-1m1-12h-1v-4l1 4m15 8 1 1h-4v2l-4 1h-3l10-4m-4-4 1 1-3 2 2-3m57 55-3 4v-4h3m-11-16h2l1 1-3-1zm-2-24 2 6h-1v-1l-1-4v-1m-12-4v1h-2v-1h2m6 6-1 2h-1l-2-3 4 1m-6 6v-3l1-1v4h-1m1 12-1 1 1-1m-1-4-2-2 3-1v3h-1m-3 4 3 2h-6l3-2m-3-14h2v2l-2-2m-29 6h-3l-1-3h1m3-1v-3l3 5-3 2v-4m-5 8-3-3h1l2 3m54 52-1 1-1 1-2-1c2-1 2-3 4-1m-4 1v-3 3m-1-4 3-3c0 3-2 3-3 3m-1 0 1 1h-3l2-1m-2 0-1-3c3 2 3 2 1 3m-4-13v-2l2-2 1 2-3 2m0 10v2-2m2 0-2-1v1l-2-1c1-1 2-1 4 1m1-17 1-1v2l-5 2h1l3-3m3-3v2h-2l2-2m-2-1h-1v-1l1 1c2 0 0 0 0 0m-9 25h-1v-1h2l-1 1m-9-6 1 2-3-1 2-1m-7-6h-1l-2-1h2l1 1m3-4v3h-2l-1-1v-3l3 1m1 3v-1l1 1h-1m-4 4h-1v-1h1v1m7-5h1l-1 2v-2c0-3 1-2 2-3l2 1-4 2m-2-7 2 1-2 2v-3m-1 1v3l-1-1 1-2m-9 10 2 1c-1 1-2 0-2-1m2 4 6-3v-1h2l-1 4-1-2v2l-3 2h-9l1-1 5-1m7 2-3 2 3-3v1m7 10h-2l-1-2 3-5 1 1 1 3h-1l-1 3m-2 6-2 2 2-2m0 0-1-2h4l-1 2v-1l-2 1m4-1h-1l1-1-1-2 3-1h2l-2 3-2-2v3m23-8-3 3v-2l3-1m4-29-1 5c1-3 0-4-2-5v4l2 2h-6l6 3c0 3-2 3-4 3l-2-2h-2l-2-2-1 1-1-1v-3h4l-3-4h-3v-3l-2-1v1l-3-1 3 5h-4 1l-5-1-2 1v-5l-2 3-2 1-2-1 2 4-4-3-1 4h-1v1l-4-1 1 4-3 1 2 2h-2l-2-2v2h1l-3 1h-2l-6-3 3 3h-3l-1-1-1-3h-2l31-21h-1l-17 12-12 6h-3l-3-2 1-3-2 1 4-2v-3l4-1 4 1 1-3 3 2v-4h1l5 1v-1h3v-4c1-2 3-3 4 0l1-3 3-4 1 1v-2h2c2 2 1 4-2 5 6 1 8 1 10-1l2 4c2-2 3-4 2-7l1-1h-4l4-2h1c0 3 3 3 4 4l1 3-5 4v1h13v3l3-4 3 1-4 3c3 0 4 1 4 4l-3-3c0 3 1 3 3 4h-5l1 2m-49-56 1 2v-4l1 2v-3l4 1-1-2h3l1-7 3 4v-8l4 4v-5l1 2h5c2 3-1 4-1 6l7-6 1 2c1 2 3 4 5 4h2l1 1c-4 0-4 3-7 4h11l3-3h1l1 2-1 1-4 1h7l-2 1-2 2 1 1 3 3v1l4-4v3c2-2 4-3 2-6l6 2 1-2c1-2 3-4 4-2l-1 1-2 4v3l4-3 2 1v3l-6 3c0-2 0 0 0 0v1h-4l-5 1 3 2-4 4v-3l-2 1-2-5-3 7-3-3h-1l3-3h-2v-2l-5 4v1l-1-4-1 2-2-2h2l1-1v-3h-3l-1-2-1 4v-2l-2 2-1 1v3-2h-1v-2l-2 2v-1l-6 1 4 2v1l-3 3-1-4-2 8v-4l-2 1-2-3v4-1c-1 3-2 1-5 0v4l-3 1v-1l-4 4h-1v-4l-3-3c0 3 0 6 3 7h-3l-2-5h-2l2-3-3 1 4-1-1-1h4l-3-3 7 1-3-2 4-2-1-1 4 1v-8l-2 3-5-3v-2m20-18 1-2 1 1 2 4-6-3v-1l2 1m8 2 5 1 3 3 1 2c-1-1-1-2-4-2l-5-2v-1l-4 3c0-4 1-6 4-4m-3-3 1-1 3-3 1 3-5 4-1-2 1-1m12 7-3-4h2l1-3v7m0-10h1v2l-1-2m5-8-1-1h1l2 3-4 1h-3l1 4-3-1-1-4c3 1 6-2 8-2m-6-32 2 2-2-2m0 23-4-3 4 2v1m-6-9 3-2h1l-4 2m4-10 2 2-3-3h1l-3-3 4 2-1 1 1 1h-1m2-5c1 1 2 0 4-1l1-2v2l3 1-2 3h-1l-4-2h-1v-1m1 27 1-2v4l-1-2m5 4-1 1h-4c1-3 4-4 5-1m3-16v1h-3l3-1m3-14-3 2h1v2l-1-1v-1c0-2 1-3 3-2m1 50h-3v-3l3 3m1-26-1-1c1-1 1-1 1 1m2 2 1 1h-3l2-1m2 34-1 2v-2l1-1-1 1h1m4-41c-1 1-2 3-4 1l4-1m0-27h-1 1m6 7-2 1 2 2h-4v-2h-3v-2l7 1m1 7 3 1v1l-2 3-4-4 2-1h1m0-3h1v1h-1v-1zm5 7 3 2v2h-5l-2-3 4-1m8-8 3 2-3-1v-1m3 0 4-2-1 3-2-1 2 2-3-1v-1m8-7h1v1h-1v-1m1-43 2 2v1l-2-1v-2m3-6 4 5v1c1 2 0 3-1 3l-2-3-1-4h-1 1l-3-2h3m4-4 7 1v1l-4-1h-4l-3 1v-1l4-1m9-2-4-1 4 1m-6-14-3-2h7v2h4v2c0 3-2 4 1 6v1l-4-3v-1h1l-6-5m-3-3h1l3-1 1-2 4 2-1 1h-4l-4 1v-1m8-5 1 1h-2l1-1m5 6 3 2v1h-1l-2-1v-2m0-12h3l-1 2-2-2zm3-5h1l-1 3h-1v-2l1-1m3-1-2 2 2-2m0 314 4-2-4 2m-32-6h-2l3-2h1l-2 2m2 1-1 1h-4c1-2 3-2 5-1m-5-4v4l-4-4h4m-9-13v1l-2 1 2-2m33-251-1-1v-2l-4 2 4-2h1v3m-27 248c3 0 2 1 3 3l-3-3m6 0v3l-2-3h2zm32-281 1 1v1l-1-1v-1zm0-12v-3h1v1l-1 2m1 6c3 4 0 3-3 3l3-3m-24 36h4l1 2-5-2m-21 123-2-4h2l1 1-1 4c-3 0-3 0-3-2l3 1m-4-7h1l-1 2v-2m0-45 2 3c-1 0-2 0-2-3m-6-3 6 7-4-3-3-1c0-1 0-3 1-1v-2m0 10-4-2 2-1 1 1h7l-6 2m2 36-3-2c1-1 1 0 3 2m-7-34 1-1h2c-2 3-2 3-3 1m7 34v-3h1l-1 3m-6 49v1l-1-1h1m4 85-1-2 1 2m-1-16h1v3l-1-1v-2m5 16v2l-1-2v-1l1 1m0-33h-2v-1l-4-7v-1l2-2v6c2-3 3-2 4-2l3 2h-3 6l-3 4-4-3-1 1 2 3m6 48v-1 1m4 0c-2 1 0 1-2-3h2l-4-2v2l-2-1-1-1 1-2 4-1v1h-2l4 2-2-2 2-1 2-1-2 5h1c0 1 0 3 3 4h-4m12-7-3 2h-1l-3 4-1-4v-2l1-2 3 2c-2-2 1-2 2-4v2l2 2m2-4h-1l-1-2h4v1h-3l1 1m7 22-1-2v-2h2l-1 1v3m9-4v1l-1-1h1m11 9 1 3-1 2v-4l-3-2c2-2 3 0 3 1m-4-341h3c-2-2-2-3-4-3l-2-1 2-2 2 3c0-3 0-4-2-4l1-1 4-2v2l-1 2c2-1 5 2 8 2l-3 2-1-2-2 1c-1 1-2 3-1 5v2l-1 1-3-5m-3-2 2-1 1 1h-3m2 11-2-1v1l-1-4-1-1 3-3c1 3 2 5 1 8m-2 8-2-1h-2l2-2h1l3 2-2 1m-4-3-1-1c1 0 3 0 1 1m-4-2 3-3 1 3h-4m-1-7c3 0 3 0 3 3l-3-3m1-5h2l1 2-3 3v-5m7 8-1 1-4-4 5 3m-4-8v1l-1-1h1m15-11h1v1l-4 2c0-3 1-3 3-3m2-8-2 1v-1h2zm3 12-4-1h1l3 1m-1-12-2 3 2-3M723 713l-15 9h-6l1-1 1-5-3-11v-9l-1-3v-7l-1-9v-5l1-7 2-7c5-13 8-28 8-42l1-2 3 3h1v-4l3 1v2h-2l3 1h-1l-2 3-1 1v-1l-3-3v3l2 1v1l-2 2 6 1-3 3 4-3h4v1h4v1h-1l-2 3v4h-2l5 3-3-3 3 1 1 2v5l4 1 3 2v2l3 14c1 9 4 18 9 26v8l1 4-1 7v5l-1 3v4l-10-1-13-4zm-103-52h2v3h-2v-3m-6 23-2-3c4 1 7 3 6 5l-3-2-1-2v2m42 36c-6-3-52 5-62 4l-12-2 1-21 1 1 6 3 1-7-4-5h1l1-1 2-3 4-7 1 3c3 1 3 1 1 3l2 1h4c2 0 1 3 2 4l2-1 1-2 7 4-2-2-5-3 3-1 2 1 4 3c2-2 3 1 4 2v-2l4 2v-1l6 1 4-1v-1h-2l-8-3h-1l-3-3-1 2-1-4h5l1-2-1-1h-1c-3-1-5-1-5-4l-2 3-6-7 1-1c3 1 3 4 5 4v-2h2-2l10 7-3-4 4 1h-1 1l4-1h-1l-2-3h-4l3-5 3 5 1-6v6l4-4 1-2v1l-1 4v1l3-4h1l1 3h2l-2-4-1-3 3 3 1 3 3-2v-1l2 1-1-2 1 1 4-4-1-1-1 2v-4l-1 3-3-3 1 6-3-6-1 4-5-2v1l-4-1v1l-3-4v3h-1l-1 4v-7l-2 3-1-2v3h-1v-5l-2 1 3-3h-7l-3-4h2l-4-2-4-3h18l3-1 4-4v-2l1 4 2-1v-1l2-3h2l5 1c-1-1-3-1-3-4h3l3-1v-5l2 1c0 1 3 3 4 1l-2-2 2-2 3 2h1v-4h-4l3-2 3-2h-4l1-2h1l4 2-1 1c0 1 0 3 3 3v-2h1l1 2h-1l1 4 3-2c-1 2-3 3-1 4h2l-1 3h3l1 1 3 14c4 13 8 25 14 36v20l2 4 1 10h-17l-22-2m-152 5h-5l1-13 2-11v-20l2-8h3c-3 1-3 4-4 7h1l4-4v8l3-3 3 3-2-6v-4l3 3 1 1 2 6h1v4l7-4h1l3 4v1c1 1 2 3 0 4h1l3-1v2l1-1 3 3v-9l-2 1-1-3c-1-1-3-3-1-5v-2l1 3 1 4v-3l3 3 1-3c4 6 7 12 14 16h1l-3-2 3-2c1-1 3-2 5 0v-2l5 6 2 2v1l-4 23-11 1h-48m-141-52-1-3 1 3m9-24h-1c-1-1 0-3 1-4v4m78 76h-66s-33-35-53-43c-21-8-4 23-33-16l-34-44v-12l2-17c0-3 0-5 2-7h2l-3 6 4-3v7l3-3 2 3-2-6v-2l4 2 1 6h1v4l6-6 1 2 3 2v6l2-2 2 2 2 1v-7l-1 1-1-2-2-6v-1l2 3 1 4v-3h3c4 4 6 11 12 13h1l-1-2 1-2c1 0 3-1 4 2v-3l5 7h2v-2l-6-8v-1l2-3v3h1l4 4c3 0 3 1 3 3v1l2-4 2-3v2l1 2h-1l-2-1v3l2 1 1 1-1 3 2-1h3l1 1 4 3 2-1-2 1h2l1-1-1 4h1l3-8 1 2-3 3v4l2-3 1 6v-2l1 2-2 1 2 1 8 1 4 3-1 1c4 2 7-1 9-4l-4 2-4-2 3-2 1 2 2-1 1 1c0-2 1-2 3-1l4 1h1l5 4-1-1h3v1h5l-5 2-10-2v-1c-4 0-8 0-9 3h7l4 1-3 3h-3l-2-1h-2l20 8-2 4h-2v-3l-5 5-4-4v3l-5 3v-4l-6 5 2-4-4 4-3-4-3 4-1-5-1 2-3-2-4 1 1-4h-1l-3 3 2-4-2 1-1 1-1-1v5l-2 2 3-2 3 4h1l5 6 2-4v1l4 3 1 1v1l3-4 2 4 2-3v-4h1l3 6 2 1-1-4h1l2 1 1 3h1v-1l2 1c0 2-2 3-4 3l-4 3h2l-4 2h-1l-4 2 1 1-1 5v-4l-1 3-3-3v4l1 2h-1l-1-4v1-3h-2l-1 4v-3l-4 3v-3l-5 3-2-3-2 4-2 2v1h2l1 1c1-1 1 0 1 2l3-3 1-4 2 1-2 3-1 4 3-3 1 2 3 1-2-4v-3c0 4 3 7 4 7v-4l2 1 1 3 1-3v-1l4 4-4 1 2 1-4 2 4 1v-1l2-2-2 4 10-4-1 4h-1l5 6-1-4 1-8 1 1v9l2-1 2 3v-4l2 1 2-3v-4l6 3v-1c0-2 1-3 2-2l3-4 3 3v-4l4-1 1 3 1-6 2 2v4l-2-3v3l-1 4-1 1v-1l-4-1c1 2 4 6 8 6l-2-2-1-2c1-1 1-1 5 3v-3l4 3 2-4 2-1 2-3 2 4h2v-5l1-1 1 2c3-1 6-2 6-6l-3 2c0-3 3-3 4-4l4 4-1 1-2-1v3l-4 4-1-3v1l-1 6-3 2v2l4-3 4 4v-7l3-3 5 6h1l-1-6 3-1h4l1 3-8 11-3 2h2c6-4 10-8 14-13l7-8 3-4 4-5 2 2 2 3c0 3 1 3 2 4l-2-5 4 1v8l4-4-7 12c7-7 12-13 16-21h3l-2 3-2 5h4v49h-36M239 597l11-16h1v3l-3 5 3-1v20l-12-11m-12-9 1-2 3-4 1 2 3 2 1 4c2-2 0-4-1-5l3 1v7l4-3-3 6-11-7-1-1m-97-88v-3l2-1-1 4h1c2-2 3 0 4 1l-2 1v2l8-2 1 2h-1l4 1h5v1c3 0 4 0 7-2h1-1l-4 4 5-2 1 2c-1 0-1 2-4 1l-4 1v-1l-2 3-14-3-8-12 2 3m22 2-1-1 3 1v-1l5 1h-9 1l-5-1c4-1 4-1 6 1m7-16 3 2-3 1-1-3h1m1 23v-3l2 2-2 1m4 8v-3l8-5 6 3 2 1 3 4-4-1-1-2-7-4 1 3 4 4 2 1-4 2v1l4 1-18 8h-5l-7-1-5-13 1 2 3-4 4 6v-3h1v3c2-3 3-3 4-3v1l6-2 2 1m0-32 3 1-1 3-2-3v-1m3 13 3 2h-4l1-2m0-14h7v1l-2-3-4 3-1-1zm1 4 4-4v2l-4 2m3 16c-1 2-3 2-4 0h4zm3-2-2 2-1-2 3-1v1m2 6 4-3 3-1 3 1-3 3h3l-3 2 5-1h3-1l1 1 1 2-2 1-4-1 1 4h-1l-3-2-3-2-4-4m0-20 2 1h-2v-1m-1-26h5l2-1h2c-2 3-6 1-9 1m15 39v3l-3-3h3m9-71-1 2v-2h1m0-45v3h-1l1-3m7-36v1l-2 2 2-3m14-40 2 3h-4l2-3m4-5-4 1c2 0 2-3 4-1m3 4h-1 4l1 1h-7v1l-2-1 5-1m-1-32h-3v-6l3 4v2m-3-27v-1l1 2c-2 0-2 0-1-1m-1 9c1-1 1-2 2-1l-2 1m-4-1 1-1 3 1h-4m-3-1 3-2-2-1 3 1c-1 2-1 3-4 2m9-22-2-4 4 3-2 1m3-12 1 3-1-1v1h-1l1-3m-1 15v-1l1-2h1l-1 4-1-1m2 48-1 1v-1h1m0-16v1h2v2h-2l-1-2 1-1zm2-32v-1h2l-1 1v1c-1 0-3 0-1-1m-2 333-1-1 1-1v2m-8-21 2-1v2l-2-1m-1 19-1 4c-2-2 0-3 1-4m-79-52-1-2 1-1v3m92 48-1 1h-1l1-1h1m7 18 1-5c2 4 2 7-1 8l-3-5 3 2m-3-365h2c1 0 0-3 2-3v-1l4 3-2 1v-1h-2l-2 2-2-1m4-19v-5l2-1h5l-4 2v-1l-3 5m3-28h1v2l-1-2m4-2 4-4v4h-1l-6 2 3-2m3-8v-4l1 2v2h-1m0-14c0-1-3-2-2-4l3 3c1 1-1 0-1 1m-3-12v-2h1v2h-1m0 3h-3l2-1h1v1m-4-1v-4h3l-3 4m5-8v2-2m-1-8v1-1m7 17v3l-3-2-1-4v2-2l4 3m-2 21v-4 4m2 3 1-1v1l-1 1-3 2h1l2-3m2-45 2 1-2 1v-2m3 4h1v2l-1-1-1 3-2-3 2-1v4l1-4m3-3v-1c1 1 2 2 1 4-1 0-3-2-1-3m2 40 4 4 2 1-6-2-1-3h1m11 8c-3 0-4-1-4-3l-1 2c1-2 4-2 5 1m3 8c-3 1-3 0-4-3 2 0 2 3 4 3m0 5-3-1 3-1v2zm-11 12h1l2 2 1 2h-1l-2 2-1-3v3l-3-4 3-2m3 11-2-1h2v1m0 20 1 1h-1v-1m1-3 3 2v1l-3-1h-1l1-2m3-5 1 1h-1v-1m0 20-2-4h2v-1h1l-1 5m-2-9-1-2h3l-2 2m-2 8h-2v-2l3 2h-1m-4-20 1-2v3l-1-1m-4 6 1-2 1 1 2 3-4-2m0-86-2 1-1-1v-2l-1-2 2 1 2 3m-3 5 1 3-1-3m1 17-1-1v-1l3 4 1 1-3-3m4 36-1 2-1-4v-3 3l1 2h1m0-12-1 2-1-2v-1l1 1h1m-13 18h1v1l-1 1v-2m0-11 1-1 2 1-3 3v-3m-7 381v-2l3 5-3-3m-2 7v-3c2 0 2 3 2 6l-1 2-3-6 2 1m-2-352-1 1 1-2v1m3-19h1v3h2l-2 4-1-5v-2m3 0v-2h-3l3-2h1l3 2-3 4 1-3-2 1m20 19v-1l1 1 1-3h2l-3 3h-1m2 348h-1v-1 2-4l1 3m2-16v3l-2-2 2-1m2 24-1-3h1v3m-1 8-3-1 2-2v2h1l1-3c2 1-1 3-1 4m15-323h1l-1 2v-2m2 2h3l-3 4 3-2 1 2-1 1h-3v1l-1-1 1-1h-1l1-4m0 14h-4v-1l4 1m-5 295 1 1h-1v-1m-4 9c-1-1 1-1 1-2l3 5-4-3m13 8-1 3v-3 2l1-2m7-288-1-1 5-3-1-1h5l-3-1h2l2 1 3 3h-1c-3 2-7 4-11 4h-12l1-2h-5c1-2 4-1 5-1v-1l11 2m-5-4-3-1c1-1 1 0 3 1m4 10h-3l1-2 2 2m6 49-2 3-3-2 5-1m4-15v-1l2 4-3-1 1-2m2 263h-2l-1-4v-1l1 1 2 1v3m2-247 6 2-6 2-4-1c0-1 2-3 4-3m7-2 1-2v3h-1v-1m-4 24v-3l1 4-1-1m1 213-1 1-1-4 2 3m8-233 2 2h-2v-1l-8 3 2-4h6m2-7v4h-4l4-4m1 7h4l5-3 2 3h-3l-5 1-3-1m4-7-3 4v-4h3m3 0 1 3h-1l-3 1 3-4m-4 25c-2 2-3 0-3-1l-1-3h1l1 4h2m0-8 1 4 3 2-4 1v-7m10 26h3c-3 2-7 4-11 4l-2-4h10m3-16h4l-1 2v-1l-2 1-2-1 1-1m4 8h-3l2-4 1 2h-1l1 2m-24 12 5-2 4 2h-9m-3 0h3l-3-3 4 1c-1 2-1 3-4 2m4-19-2-3h1l1 3m6 7v1l-3-1h3m-2-8c-1 1-2 0-4-2v-2l4 4m-8 10v-1h2l-2 1m2 34v2h-3v-1l1 1-1-2h3m-2-46v3l-1-1 1-2m-1 2c-1-3-1-3 1-3l-1 3m3 212-2-4 2 1v-1 4m2-98h3l-3 2v-2m2-69c1 0 2 0 1 3l-3-2 2-1m10 1-2 3-2-1v1l-1-3v3l-1-3h6m-4-13 2 1-3-1h1m6 13 1 2-1 1v-3m8-1 1 1h-3v2l-2 1-2-1v-2l6-1m0-3s0 2 0 0h-3c-1 2-1 2-1-1h-2c3-1 4 0 6 1m-2-8 3-1c-1 1 1 3-1 4l-2-3m4 4c2 0 3-1 2-2h1v2l1-1v1h2l-7 4v-2l1-2m6-5v3h-2l2-3m0-5v1-1m2 14-4 4v-1 3l-5-3 1-1 6-4h1l1 2m8 0-1 2v-2l1-2v2zm-6 14s-2 0 0 0l2-2-1 2v-2l-1 2m5-2-1 2-2-2h3m5-1-2 4v-1l1-2 1-1m-22-1h-2v-2h2v2m-16 21 2 1v-1h2l1 1 5 2c-4 0-8 0-10-3m49-1h1v2c3-2 6-1 7 0v4h3v2l5-2v3l-4-1 1 2h-1v-1l-1 1v-1l-2 1-14-8h-3l15 10v1l-2-1v1-1l-2 2v-1l-3 1v-1 3h-1l-2-3-1 1-3 3v-4l-4 4 2-3-4 3h-2v-3l-4 3-2-1 1 2-4-4-1 2v1l-4-3-4 3-6-3h3l15-2 1-2 1-1h-2c-8 1-16 3-24 1h-2l4-2h3l5-2 2-1 5-1 4-3h5l-4-1v-2h-1l-1 2h-6l-8-2 2-2-6 2 2-1h-4l-4-1h-2l-2-2 8-1 8-3v2l1-2 1 2v-3l6 4-2-3v-1l3 5v-5l3-1 1 1c-3 1-3 3-3 5 3-1 3-2 3-5h1c0-3 3-3 4-3l2 2 1-3h1v1-1c-1 3-1 5 2 7v-3c4-1 6-3 8-5l-2 8h2v5l2-1 3 4m13-19 2 3c-3-2-3-2-2-3m6 25h-2 2m10-20 3-4v4h-4 1m-1-20-5-1v-1h-4l1-2 12 4h-4m-5-6 1-2 1 3-2-1m13 5 4 1 3 2v1l-8-3v2l1-3m3-16v5l-2-1 2-4m-3 268 1 1c-2 3-2 3-4 2l3-3m-11 7v-2l2-2c1 1 2 2 0 5l-2-1m-66-78 1 3-1 1v-4m0 8 1 3-1 1-3-2 3-2m-3-4 1 2-4 4-1-3 4-3m61-73c3-1 4-3 6-1l2-2v2l3-2c-4 3-7 3-11 3m-14-5v1-1m-3 8 1-4c2 1 2 1-1 4m13 44h-1l4-2-3 2m-17 13h-1l2-1-1 1m-5 4h-2v-1h2v1zm-6-3 2 2-2-2m-26-76h1l11 7-12-7m34 43-1-3 3 2-2 1m20-5-2 2v-1h4l1 1h-1l-2-2m-4 6 2-1v-1l2-2 2 2-6 2m3 14h-5l1-2 4 2m-19 13v-3l2 2-2 1m-8 4v3l-1-2 1-1m-5-24v1h-1v-1h1m9-1h-1l1-3v3m2 12 1-2h1l-1-1 7 1-8 2m6 1-2 1 1-1 1-1h2l-2 1m-14 8h-2l2-1 1 1h-1m28-7-2-1v1l-1-1-1-1h6l-2 2m-23-25 1 4-1-1v-3m-19-9 2-2 2 3-4-1m4 2h2l-2 2h-1l-3-2h4m10 50-2-2v-1c4 1 6 1 4 4l-2-3h-2l2 2m37-36h-1v-2l1 2m-11-15-2 1h-4l1 2h-5l1 1h-5l-3-1-4-2-5 3h-3l-3-1h2c-2-4-4-4-8-6l1-1 1 1 3 2 7 1-3-3 3-1h5c-1-3-5-3-8-3l1 2-4 1h-4l-5-1h4l3-2v2l4-3 4-1c1-2 2-2 2 1l2-3 1 3v-3l3 1c-2 2-2 3-4 2h-3c3 1 4 4 8 2l-1-1h1l5-3 6-1-2-1v-1l2 1v-4h1v1h8l3 1v2h4l2 1 2 1 4 2-4 1-14 7m26 29-2 2-1-2h3m-47-66 1 1 2 3 1-3h1l3 1 1 3 2-1 2 6c2-2 0-5-1-6h7l-2 5 6-4 1 1 3 2v-3l8 3 8 1 2 1h-2c0 2-2 3-3 2v1h-9l2 1-1 1c-1-2-3-2-5-2l1 1-4 3h-4l1-4h-1v-2h-1v3-1h-2v3l-1-2 1-4-2 3v-1h-2l-5 1c-5 3-12 3-17 3l-3-2h3l13-4 1-1v-1l-1 1-13 4-6-1-13-10-1-1c2 0 4-3 5-5-4 0-5 1-8 4l-1-1 1-2 7-3m0 0 5 3c1 1 4 3 3 5l2-2c3 0 4 1 6 4v-3l4 3v-3h1v3l1-2 2 3v3c2-3 2-5 1-8m-19-12c-2 2-2 2-5 0h5zm-6-12v-2c2 0 2 0 1 2h-1m1 12h-1l-2-2 3 2m9-14h-1v-2l1 2m2 19h-2l2-1v1m17 3h-4l-3-3h4l3 1v2m4 2h-1l1-1v1m-9-12-2-1h3l-1 1m-6 0h2v2h-3l1-2m-2 7v1c-3 0-3-1-3-2l5 1-4-4 4 1h3v2l1 4h-1l-1-3h-2v3l-2-3m20-28-2-1h2l1 1h-1m10 17h-1 1m3 0-3-2-1-2 3 2 1 2 1-2 6 1h1l-3 1h-5m-3-6-1-2v2l1-4 2 1-2 3m-4 6-1 2v-2h1m-2 2-2 4-1-3 1-1h2m33-54h1l-2 4v-1l1-3m-3 0-1 3c-1-1-1-1 1-3m-13 23v-1l-1 2 1-1m-3 1h2v2-2l1 2v-2l4-1 4-1-3 4 6-2 4 2v2l5 4-4-1 1 3-3 1-2 1-16-8-2-1 2-1 1 1v-3m-9 7 3-1v1l1-3 1 2 18 9h-2l-1 3h-1l-4 1 2-4-2 1-3-2 1 2v2l-2-3 1 3h-1v-2l-2 2c0-2 3-3 2-6l-2 3-2 3h-2l2-2h-4l1-1-5-1v-2h-2l-1-2h-1l1-2 3-1h1m-28 9 3-2h1l1 1h4l-1-1h3l-2 1 4-1h2l1-2 3 2 1 4 1 1v-7h2-2l2-1 2 1c-1 3-4 6-2 10l2-7c-1 0 0 0 0 0h3l-1 1v1l-2 3v1h-1l-1 2-2-2-1 3v-1h-3l2 3c-3 0-3-2-4-3v3l-2-3-2 1h-2l-1-2-1 2h-2v-2 1l-2-3v3h-2l2-4-3 3-4-3h-1 1l-3-1 7-2m-11-8 2-2h1v2h-3m4 6-1 2 1-1-1 3v-3l-3 4-1-3 5-2m-5 1v1l-1-1 1 4-4-3-1-1-2 1v-1c2-1 3-3 6-1h1v1m-19 121-1 2-1-4h1l1 2m-1-90v-2l1 2h-1m0-6 3-1h6l-1-1c-3 0-5 0-7-3l2-1h2l2 1 4 3-6 5h-1l-4-3m21 110h2v1l-2-1m3 6c-4-2-5-2-4-4l4 4m37 12 7 2-7-2m-8 4-1 2h5c3-2 4 0 6 1l-2 1-1-1v1l-9-2 2-2m4-1-2 1h-2l3-2 1 1m-9 3-3-2 6-2 4-2 1-1v1c-3 2-7 2-8 6m19-48 4 4 2 2-6 2h1l4 2-20 8-5 2-10-2-6-1-3 1-3-1-4-1h-1v1l1 1-5-4 1 6h2l-3 1v-4h-1v1-2h-3l1-3 2 3c1-3 0-6-3-8l-1-2-2-1-1 1-1-2c-3-2-3-2-2-3l3 1v1l3-1c1 0 4 0 2 3h3l4 3 1 4h4l2 4 1-2 1-1 6 4c1-1 0-3-2-3l-2-2v-2l4 3 2 1c2-1 3 2 4 2v-2l3 3v-1h8l1-2h-2l-7-2h-1l-2-2h-1l-1-2 1-2 1 2 2-2h1v-1h1l3-1v2c1-2 3-4 5-4l3 2 1-3 10-7 5 4 4 2 3 4-4-2-2-1c-2-3-5-4-9-4l3 3m6 86 2-2 1 5 1-1 2 2h-3l-1-1-2-3m8 2v-4l2 1 1 1-3 2m3-86h-3l-2-1-4-4-4-4h1l4-3 3-1c1-1 2 0 2 1l-4 3 2 1 2-1-2 4c2-1 4 0 6-3h2v2h1l1 1h-4l2 3-6-3v1l3 4m11-97-2 1-5 2-4 1-3 1h-4l-5 3-3 1h-4l-5-1-1-1h-3l-3-2-5 2h-3l-1-3 3 1-2-4h2v4h1l1-2 3 1 1-1 3-2v-1l3-1 2 1 10 3c5 0 10 0 16-3h8m2-3-1 3-1-1 2-2m0-53v4h-1l1-4m10 233v4l-4-2 4-2m-3-274 1 1-1 3v-4m5 284-2 2-2-1c3-3 3-3 4-1m4-7v3l-1-2 1-1zm6-317 1-2 1 2h-2m4-7 1 3h-4l3-3m4-5-4 1c1 0 1-3 4-1m2 2-1 2h5l2 1h-8v1l-3-1 5-3m-1-36h-3v-5l4 4-1 1m-1-18h2-2m-2-14v-1 1m-1 11h3-3m-4 0 1-3 3 2-4 1m-4-1 3-3h-2c3-1 3 1 4 1l-5 2m11-27-4-4h1l4 3-1 1m2-13c3 0 3 1 3 2h-1l-2-1v3-2l-1 2 1-4m0 18-1-2 1-2 2-1v5h-2m3 55-3 1 2-1h1m0-19-1 2h1l1 1h-1l-3-1 3-2m1-37v-1l2-2 1 2-1 1h-2l2 1c-3 0-3 0-2-1m7 81h1l-1 2-1-2h1m1-105 2 1 2-4 6 3-4 1 1-2h-3l-2 4-2-3m4-21v-7l2-1h6l-4 4v-2l-4 6m3-34 3 2v1l-3-3m5-2 6-4-2 4-6 4c0-2 0-3 2-4m4-10v-4l2 3-2 1zm-1-14c0-3-3-4-1-6l2 3c2 1 0 1-1 3m-3-15v-1h-1l1-3h2v5l-2-1m-1 3h-1l1-2h1l-1 2m-3-2-1-4 3-1-2 5m6-9v4-4m-2-9v2-2m8 21-1 3-3-3v-3h-1l1-1 4 4m0 28 2-3v2l-2 2-2 2v-2l2-1m3-53 1 1-1 1v-2m3 4h2v2l-1-1-1 4h-2l-1-4 1-1v4c3-2 2-3 2-4m2-3 2-1c1 0 2 2 1 4-3 0-3-2-3-3m4 47 6 4v2l-6-4-1-2h1m12 9c-2 0-2-1-4-3l-1 2v-2c1-1 4 0 5 3m4 9c-2 2-4 0-4-2 3 0 3 2 4 2m0 7v-4 4zm-12 13 3 3 1 1-1 2-3 1-1-3v3l-3-5 4-2m2 14v-3h1l-1 3m1 22 1 2h-1v-2m1-2 4 1-1 1-3-1-1-1h1zm3-7h1l2 1v2l-3-2v-1m1 23-1-4h1l-1-2h3l-2 6m-2-10-2-1h3l-1 1m-3 10-1-2v-1l2 1-1 2m-5-14 1-1v1l1-4 2 2-2 2h-2m22 58c-1 1-2-2-4-2l4 2m2-10h-2c2-1 2-1 3 2l-3 1c-1-1-1-1 2-3m2 3 3-1-3 5h2l2-1-1 2h-3v2l-1-2 1-1h-1l1-4m2 16h-6v-1l6 1m5 23v1c-8-5 0-1 0-1m11 0h-2 7l-3-3 3 3 4 2h-1l-7 4v-1l-3 1-1 2-1-3-1-1 5-4m9 1 4-4v1h-1v7l-8 4v-1l4-3 1-3v-1l-1-4v-1c2 1 1 4 1 5m13-13-1 1-1-1h2m7-2v-1l1 4-2-1 1-2m4-4 1 2 2-4h1v2l-1 3 2-1 2 1-2 4-2 4-2-3 2-2-3-4v-2m0-9 1-3 2 2-2 1h-1m5-8v-4l3 3c-3 1-1 2-3 5h-1l1-4m-1-11 1-1 2 3-3-2m5 6 2 4h-2v-4m-2 42 1-2 3 1-4 1m8-32 1 3-1-1v-2m2-6c3 0 3-2 4-3l2-1c1 4-3 5-3 8 0-2-3-2-3-4m7 4 3 2-2 2-4-3 3-1m1-3-1 3-1-4 2 1m0-13 3-2 1 2 2-2 1 3h-4l-1-1h-2m6-10 1 3h-1v-3zm2 14 2 2 1-1h1l-3 1 2 2h-3v-2h-3c-1-1-1-1 3-4l-1 3 1-1m6 112-3-4c1 0 3 0 3 4m1-79-1 1v-1h1m0-4h4l-1 1c-2 0-2 3-4 2l1-3m4-33h1v1l-1-1m0-20 3 2v2l-2-2-1-2m-1-6 2 2 3 1v4l-4-3-1-4m4-5h1l-4 1 3-1m-2-12v4l-1-3 1-1m3 9v-1c3 1 3 1 3 4l-3-1v-2m3-9-2 1-1-1h3m8 20-3 1v-1l1-1 2 1m-3-8 1 1-4 6 6-4v2l-2 2-5 1 4 1-4 7-1-3 1-1c0-3 0-4-3-7h-1v2l-4-3h9l-1-3v-2l4 1m4 15v1l-1 4v-1l-3 1 3-9 1 4m5 1v1l-4 3-1-3 5-1m0-5h2l-3 1 1-1m2 0v5c-2 0-3-1-2-3l2-2m1 6-3 2c0-3 2-3 3-2m-7 6 3-3 3 3h-6m-1 5h-4l3-1h1l1 1h-1m-8 11-1-2v-1l1 3m1-2 2 3h-2l-1-3h1m3 6v1h-3l3-1m3 18v-2l4 1v-3l6 2h2-3c-4 1-7 2-9 6h1v2l-4 1h-1c4-1 4-4 4-7m5-8 1 2 4 1 2 1-4-1h-6v-1l-1-2h4m-3-4c3 0 3 0 3 3h-4l1-3m7 27 5 4-4-1h-4l-4 1v-1l7-3m7 7-3 1 1 1-2 4-2 3-2-3 1-2 4-6c1-1 3 0 3 2m1 8-3 1v-1l2-2 1 2m5 17v1l-1-1h1m6 4c-3 1-4 3-4 5-2-2 1-5 4-5m1 4 1-7 3 2h4l1 1 3-1h-4l-4-3c1-1 4 0 4-3h-1v-1l2-4 2-1 1 1v1h-1l-3 4 7-2-2 4h-1l1 1h-2l1 1c1 2 1 3-1 3h-2l-1 3 1 1-2 1h-3 3l1 4 1-1 3 4h-4 3c-3 3-4 5-8 5l4 3c-3 1-4 3-3 7l5-6v3l-2 4-3-1c0 2 1 4 3 4l2 1h-1l-1 1-2 2h-2l2-2c-1-2-2-4-5-4l1 3h-2v-1l1-4-4 2h-7l-1-1 1-1 2 1 2 1-5-5 1-1c3 2 7 2 11 1-3-3-7-4-9-3l-2 2h-1l-3-3c4 1 8 0 11-4h-5c0-1 1-4 4-3l8-1-3-1-4-3h-3v-1c3 0 6 0 7-3m3-13h1l-3 1 2-1m2-10h3c-3 0-1 3-3 4v-4m4 3-1 3v-3h1m3 0h-1 1m1-12v3c-2 0-1-2-1-3h1m4-3c-1-2-1-2 2-4h1l3 3h1l-1 1v4h-4l1-2-3 1-1 1 1-4m2-6-3 2v-1l-1 1c0-2 1-4 4-2m18 2v3l-1-3-1 2v-2l-2-1 4 1m2 4-3 2c0-3 1-3 3-2m-2 15h3l-4 1 1-1m4 5c0 3-2 4-5 3h3c0-1 0-3 2-3m0 4 3 3c-1 1-3 3-1 5h-2v-1l-1-3v-1l-1-3h2m10 46-2-2h2l1 3-1-1m4 22 1 2h-3l2-2m5 20-3 2 3 2h-5l1-1 1-3h3m7 7 1 1-3 2 2 1v1h-2v2h-4l4 1-2 1h2v3h2v1l-3-1-4 1 7 2-4 1h2v5l-2-1 1 3-3 1 2-4-3-1-1 1-2 1 2-4c-2-1-3-2-6-1l3-1 3-4c-3 0-4 1-4 4h-2l3-6-3-1 2-1h1l-1-3 2 1c0-1 0-4-2-4h5-1l4-2v1l1 1 3-1m1-9 4 2v2l-1-2h-3v-2m4-6 3-2h1v2h-1l-2 3v1l-1-4m3-5 1 1h1c-1 2-2 0-2-1m6 37v-2h3v1l-1 1-2 2v-2m4 179h2l1-3-1 2h2l-5 5v-5l1 1m0-69 2 2h-2v-2m4 14v2l-2 1c0-3 0-3 1-1v-2h1m0-57v-1h2v1h-2l2 1v2h-2v-2l2 3-2-1-1-3v1l-1-1h2m2-103 1-1v1l-3 3-1-3h3m5 11-3 1h2l-2 2-1-2h-1l2-1-1-1v-2l1 2 3 1m-4 41h-3l2-2v1l1 1m-20 158c1 1 3 2 4 1v-1h1v1l2 1v3l1 3-1 8v14l1 4-7-20-1-14m-21-36v-2h2v4l-2-2m-26 46-1 2-5-36h1l5 5 3 4 1 4-1 7v1l-3 9v4m-10-24h-2 3l8 35v5l1 7v3c-6-15-12-32-14-48l4-2m-60 10v2h-2l2-2m-59 41v3h1l4 2-1 7-5-9h-2l3-3m-3-4v1l-2-4 2 3m-2-12 2 5-4-5h2m-7 20 1 1 2 2-2 2-2-4 1-1m-29-32h1v3l-1-3m-12 5v-4l1 2-1 2m-3-28c1 2 0 2-1 3l1-3m-29 15v-3l2 7-2-4m-6 7 2 1v-3c2 2 4 3 4 6l-2 4-4-8m-1 12-1 4-3-7 4 3m-25 14v-4 4m28-436-3 2 1-3 2 1m1 8-3 2v-3l3 1m1-29 2 3h1l-1 4-3-6 1-1m4 0 2-3-3 2-1-3-2 1 3-2h1l4 1-4 4m6-8v3h-2l2-3m10-75h-1v-1h-1v-4l2 3v2m-2 7v-1l1 2-1-1m1 20-1-1 1-3 3 5h1l-4-1m5 28-1 1-3-2v-2l3 2 1 1m-2 11-2-3 2 1 1 4 1 2-2-4m61 136h-1v1l4 1-2 2-4 4v1l-2 1 1-6-3 2v4h-1l-1-2-2-3 10-7 1 2m3-8-2 2v-2h2m18-7-2-3 2 2v1m12-1v-2l2-1v1c1 2 0 2-2 2m8 4-2 2c0-2 0-2 2-2m-2-23v-1l1-2 1 2-2 1m0 8 4-3c-2 2-2 3-4 3m6 52c0 3 0 3-2 1l2-1m2-33c0 1 0 2-3 2l3-2m6-12-6 1h-2l2-3 2 2h4m2-24-2 1 3-1v1l-1-1m2 110v-1 7l-1-3v-3l-1 2-2 1-1-7 3-1h3l1 1-2 4m4-72h-1l3-2-2 2m3 64-3-4h3v4m4-61h-3l3 1v2l-3-3v-4c3 0 2 3 3 4m1-9h-2v-2l2 2m-1-30h3l-2 2-1-2m7 32-3 2c0-3 1-3 3-2m0-17v-1h-3l3-3v4m2 95h-1l-4-2 3-1 2 1v2m10-74 1-1h4l-5 1m-6 84c3-1 6-1 6 2l-6-2m12-26h-1v-3l1 1v2m6 36 1 1h-3l2-1m2-28h-2l1-2h-1l-2-2 4 2v2m0 1 3-3h1l-4 3m4 8-1 1-1-1 2-3v3m-5 8 3-1c0 1-2 2-3 1m5 5h-2l1-2h3l-2 2m11-12-4-1 1 1h-1v2h-1v-3l2-1 3 2m1-5 3-1 1 1h2v1l-4 3h-2v1l-1-4 1-1m10-49c-3 1-4 0-4-2l4 2m-6-8h6l-3 2h-3l3-1-3-1m2-4h-2l-1-2v-1l3 3m5 6-4 2v-2h4m-1-6 1 2-3-1 2-1m-3 8h5l-1 1-4-1m0 5v-1l1 1h4l-1 3-4-3m-1 0h1l1 3h-1l1 1v1l-1-1-1-4m38 96h-1 1m-2 7 1-2 3 2h-4m6 36-1 1v-4h1v3m2-12v-2l2 3-2-1m8-10 1-4v3l-1 1m1 2v4l-1-3-2-3 3 2m-7 112v-3l2 1-2 2m-38 28-2-2 6-1-3 4 3-1v7l-7-7h3m-46 8-1-4-1-2h-3l-3 2 2-3 1-3h3-2l2 3h2v-1h2l1 2-3 6m-5 8-1-2m0 0h2v2m-4-10h2l-2 2v-2m-10 12 1-1-3-1h3v4l-1-2m-59 36v3l1-1v4l-2-4 1-2m-9-308 2 4h-1l-4-1v-1h3v-2m2-12-2-1 1-1 3 1-2 1m40 28-1-1h3l-2 1m7-52c0-2 0-2 3-4l1 2-4 2m4 10-3-2v-1h2l1 1v2m-3 44v-6l2-1 1 3-3 4m3 45-1-4v-4l2 4c2 1 0 3-1 4m4 4v4l-1 5-3-4-4-5c0-3-3-3-4-5l1-4h3l1 1-1 3-1-3c0 3 0 5 2 7v-4l2 5 2-4 3 3v1m8 8 1 1v2l2 2c-2-1-4-2-3-4-3 0-4-2-3-4l3 3m0-35-3-4v-1c3 1 4 3 3 5m-3 14 4-4c0 2-1 4-4 4m10 1 2 3 2 1-2 3c0-3-2-4-5-4l4 4h-7l-1-3-1 3-2-3 3-1h3l4-3m-2-4c3 0 3 0 3 3h-4l1-3m0-80-1-4h3l-2 4m4 77-2-1v-1h2v2m2 2h-2v-2l2 2m1 18-5-1c0-1 1-3 2-1l3 2m0-1 1-4 3-7 1 3v4l-5 4m5 3-1 4v1-7l3-2h4l-6 4m12 13-1 3-1-3h2m16-5-1 2-3-2h4m-2-14-3 2v-2h3m1-4h-3 3zm52 24v-1h1l-1 1m-3 12v2l-1-3h1l-1-1h1v2m4 34v2l-1 2-1-6h1l3-2c1 1 0 2-2 4m15-12h1-1m-19 42 2-2h1l3 5h-2l-1-1v-2l-5 2 2-2m-58 82h-2l2-2v2m-24 5h2v3h-1l-1-2v-1m-7 7 1 1-1 1v-2m-24-235h1v4l-2-3 1-1m5-15-2-1v-1l2 1v1m-1 24v2l-1-2-2 2-1-3 4 1m0 16-5-2c1-3 2-4 4-3l-2 3h4l-1 2m0 24-1 3-4-9 1 2 4 4zm16 44 3 3-4-3h1m3-2v1l-4-3 4 2m-2-27-2-1c1-3 1-3 2-2v3m4 24-1 1h-1l-3-2c3-2 4 0 5 1m6-28 1 4-4-1 3-3m2-4c3 0 3 3 2 4-2-3-3-4-6-3v-4l4 3m2 0-2-3c2 0 3 2 2 3m2 8-2 3h-7l4-3 1 1h2v-2l2 1m0-1 2-2 1 2h-3m46-24-2-2h2v2m30 64h-1l1-2v2m0 6-1-5 1 1v4m16 18v2h-2 1l-1-1h1-1v-1h2m-110 88 4-3 1 1v-1l1 1-6 2m-38-223-1 1-1-2c1-2 2-3 4-2l-2 3m0 12-2-3v4l-2-2v1l-4-1h-4v-2l3 2 7-2h-4l4-4h1l-3 3h6l-2 4m8 35h2-4l4-3h1l-1 1v2h-2m4-26 2 3-3-3h1m4 42h2-2m32 98 2 3-3-1 1-2m-1-21 4 1-4 2v-3m0-9v2l-1-2h1m-1-4 1 1-3 1 2-2m6-24-1-2 1-1v3m-2 21h-4l2-1 2 1m2-1h-1l1-3-2 1 1-1 3 1-2 2m16-16h-2l1-2 1 2m-21 105v-1l1 1v1l-1-1m0-45h3-3m0 0 1 4-4-2 3-2m4-22v-2h1l-1 2m19-45h1v3h-1v-3m-11 109h-3v-1l3 1m-24-32v3h-1v-1l1-2m1-2-1 1v-3l1 2m-1 30h1l-2 2 1-2m8-8h-1v-1l1 1m8-25 1 3-2-2 1-1m5-11v-1 5l-1 2v-6h1m3-18-1 2v-2h1m8 42-3 2 2-3h1v1m0 22v-2l1 2h-1m-17-16h1v1l-1-1m6-24 2 1-2 1-2-1 2-1m0-2h2l-2 2h-1l1-2m2-1v1h-2l2-1m2 28 2 1h-2v-1m0-24 3 3 1-3 2 1-2 2-2 2c-2 0-3-1-2-2v-3m7 5-3 2-2 2-2-2-1 1v-1h3v-2h2l3-1v1l1-1v1h-1m-5 7h1l-1 1v-1m-2 0 2-1v1l-2 1v-1m0 17 2 2h-2v-2m-5-20-3-2h4l-1 1v1m-3-13c2 1 3 1 2 4l-2-4m-16 4h2v3c-2 0-3 0-3-3h1m32 39h2-2m0-90 4 2h-2l-2-2m-24 56h-2l-2-2h2l1 1h5c0 3 1 4 4 5l-1 1h-3l-1-1v1h-1l-2-1v1h-1v-1h-1l-2 1 2-2 4-2-2-1zm-26 2v-2l1 2h-1m-18-23-1-3h3l1-1h1l6-1 1-2 4 3-1 3-2 1h-8l2-3-6 3m-13-133-3-3 2-1v-3l1-3 3 6-3 4m9-4-1-2h1v2zm11 20 1 1h-1l-1-1h1m0 6 1-1v1-1l2 3-3-2m8 16c3 2 3 3 3 6l-3-6m-3 102h-2v-2l5-2v1h-1l1 1h-3v2m-5-4h3l-2 2-1-1v-1m8 5 1-1v1h-1m7-7-2 2-2 1h-3l1-1 6-2m-4-5h1l1 3h-2v-3m2-4h-2v-1h5l-3 4h-4l4-3m-18-3 2 2h-4l2-2m-8-117v1h-2v-1m10 16h-3 1l-1-1v-2h1l2 3m18 96-1-1 3 1h-2m-20 1 2-2h1l-1 2h-2m-2-100h1-1m4 7v1l-2-1h2m5 68v-1l1-2v3h-1m-20-84-1-1 1-2v3zm16 44h1l-1 1v-1m-7 7-2-3 1-3h5l1 4-5 2m-6 54v-1h1l-1 1m-4-50v-2h2v2l2 1v-1l-2 5-4-4 2-1m8-38v-1 1m2 34-4-2 4 2m7 30v2h-1l1-2m-8-16h1l2 2h-3v-2m9 0-1 2v-3h1v1m2 11v-1h1v1h-1m-18-27 2 2h-2v-2m4-13 2 1h-2l-2-1h2m2-16 2 3v1h-1l-1-3h1l-1-1m-8 31 2-2-1 2h-1m6 56h-1l1-2v2m11-52c4 0 4 1 3 4h1l-3 1v-1h-4l-1-2h-1v2l-3 2-1-1v-1l2-3v-1l4-2h-1l4 2m-5 50-2 2h-1l1-3h2v1m13-54h-5l2-3 3 3m-12-32h-1l-3-3h-1l1-1 4 1v3m7 26v2h1l-4 2 1-4h2m-8-44v2l-2 1-2 1v-2l4-2m-15-12v2l-1-2h1m-4 2 1-2v2h-1m-4-12v-2l1 2h-1m-1 8v-4h1l3 2v2h-4m45 133 3-1-3 1m-1-81 1 2-1 2v-4m-35-58v2l-1 1v1l-3 3-1 1h-2l3-2h-1l1-4v2l4-4v-1 1m7-2-2 1v-3l2 2m1 1-3 1c2-1 2-2 3-1m45 231v-2l2-1-2 3m35-31-1 1-2-1h3m28-163 1 2h-1v-2m7 52v2h-2l2-2m24 20v-1 1m-11 32 1-2 2 1v1l-2-1-1 1m4-70-1 1v-1h1m-15 84h-1l1-3v3m-2-55-2 1-1 3v-1h-1v-2l1-1h-3v-1h2l1 1h3m41 31 3 1h-3l-1-1h1m-8 13 3-1v1l-4 3 1-3m8-11v-1l1 1h-1m0 0h1-1m3 4h-4l2-2 3 4-1-2m-4-1v-1l1-2-1 4v-1m4 28h-2v-3l2 2v1m-2-25v1l-1 1h1-1l-1-1 2-1m3 22 1-1v4l-1-1v-2m-1-36 2 2-2 2v-4m-20-21h1-1m-66 7c0 2-1 2-4 2l4-2m-25 2v-2l1-3v-4l2 1 1-4h1v2l-1 4h3l-2 1-1 3-1 2-3 2-3 1 3-3m-21-89 5 7-8-6h4l-1-1m-6-19 2 2h-2v1-3m-14-16-2 3v-1l2-2m136 76 1 2v1h-1l-3-4h3v1m-74 35 4-1h-2l1-4 1 1v-1l3 1c-1 1-3 1-3 4l3 3h-1v1l-3-1-1-2c0 2 0 4-3 4v-1l1-1v-3m-22-51 2-4-2 6v-2m1 2 5-2 2 3v1l-2 2c-2-2-4-4-8-3l3-1m-3 42h2l1 4-3-4m-1 48 1-1 3 4v-1l7 2 1 2-1 1-3 3-1-4c0 2-2 2-3 4v-3l-1 1v-1 1l-3 2h-1 1l1-4h-2l2-3-1-3m-48 154c1 1 1 1-1 4-2-2 1-3 1-4m47-46-2 2h-1l3-2m126-60v-1l-1 1v-1h1v1m-65-166h1-1m-31 24 3-2-1 3-2-1m2 1 1 1v4l-1 2-3 4h-1v-3h-2l-4 1-1 2 1-3c3-1 6-3 6-5v1l4-4m-30 23v-4l2 1v5l-2 2v-4m-18-78h1v2l-1-2zm-8-4 1-1h4l-4 1h1l-2 4 2-1v3c-2 0-2 0-4-3v-3h2m-56-28v2h-3l1-2h2m118 276v-1l-1-1c3 0 3 1 3 2h-2m72-121-1-1v-3h3-2v1h-1l4 2-1 1h-2m-40-157 2 1v1h-2v-2m-5 0h4l-1 1h-6l3-1m-7 29 3-1-3 2v-1m0 1 6-1v-1l1 1h-3l5 1v2h-4l-1 1-1-1h3c-2-2-4-3-6-2m-22 50h1v2c-3-1-3-1-1-2m1 14 1 3 3-1 1-2 3 2c3 0 3 1 1 2v2l-5-2h-1l2 4 2 4-2-1h-4v-1l-1-3-4 1 4-8m-8-14v-3l3 3v1l-3-1m1 2h3v2l-1 1-2-3-2 4-2-4-2-2h-2v-2l4 3 4 1m-10-10h8-2v2l-2 3c-2 1-3 0-6-1l7-2-5-2m6-18-1 2h-1v-2h2m-4-61c0 3 0 3-2 3l1-4m0 0 1 1m-10-52h1l-1 4-2-3 2-1m1 13-4 2v-4l4 2m-11 8 2-2 2 1-4 1m0 3c3 0 3-3 4-4v5l-1 2-1-2 1-1h-3m-34 5-2-1-1-3h1l2 2v2m-84-78 1-3 1 4-2-1m1 9h-1l-4-1v-2l1-2 3 2 1 3m-17-40 1-1v1l-1 1v-1m18 435-1 4c-1-2 0-3 1-4m-1 10 1 3-1-1m5 20-2-3h1v1h1l2-4c1 3-2 4-2 6m10-4c-2-2 1-2 1-3 3 1 4 5 3 7l-4-4m16 10-2 3-1-3 1 2 2-3v1m52 19 1 1v3l-3-1v-3h2m70-67h-1v-2l1 2m2-5-2 3h-1l1-4-4 4-2 2v-1h-3l3-4h1l-1-5h1l1 2v2h3l-3-2v-1l2 1h2v2h2l-2 1h2m49-8c0 15-3 28-7 41v-1l2-5v-19c-2-3-3-5-2-9l2-3v-3l1-1 1-1 1-2 2 2-3 1h3m13 3 3-2v3h-3v-1M156 444l3 1-3-1m-1 0-1-2h4l-2 2-1-2v2m-3-2v-1h-2l-2-1h3l3 1h-2v1m44-72-6-2v1l1-1h3l2 2m-6 19v-1l1-3h1l-2 4m1-5-1 2c0-1-2-1 1-2m-4 4c-1-2 0-2 1-3l-1 3m-3-3h2l1-3h1l-1 3h-3m-2-1 2-6v7l-2-1m2-15-4-3h-4l2-1 9 3-3 1m-5-7h1v-1l3 3-4-2m15-8v3h-2l2-3m-27 71 1-4h2l-3 4m29-79 2 2-2 1-1-3 4-1-3 1m-12-4v-2l2 1-2 1m11-18v-2l1 2h-1m21-86v-1h2v1h-2m-4-17 2-1 1 2-3-1m14-11v-2 2m10-14v1h-1l1-1m-2 1h-2v-3l2 3m-12-5v-3 3m24-43-2-1 2 1m-7 11-1-3v-1h1v4m5-40v-3 3m-2-4-2-2 3-1-1 3m28 26 4 3h-6l2-3m9 30 1 1v-1l2 1h-3v-1m4-2 1 2-2 1 1-3m4-1-1 3 1-3m1-3 2 4h-2v-4m-5 35-3 1v2h-1v-3h4zm1 0h2l-3 3 1-3m4-1v4h-1l1-4m7 0-3 1h-1v1l-1-2h5m-7 36-1 1v-3l1 2m11 8 1 1-1 1v-2m5-6 3 3-3 1v-4m4-1 3-4 1 1 2-4 1-2 3 1-2 1-2 6h-2l-4 4-1-2 1-1m-4 28 2 1h-2l-1-1h1m15 49 1 2h-2l1-2m0 24-1 3-2-1 2-2c-2 0-3 2-3-1l4 1m11-10v1l-2 1h-1l3-2m2 2-2 4-2-1 4-3m3-6c1 1-1 1-1 2l1-2m87 69 1 1-1 2-2-3 4-3c0 3-2 2-2 3m-15-5v-3l3 1-3 2m12-22v-1l1-1 2 2h-3m25-98v-3h2v1l-2 2m-4-22 2-1 1 3-3-2m15-12v-4c3 3 3 3 0 4m12-17v1l-1-4 1 3m-3 1-1-2h1v2m-13-6h-1l1-4v4m28-50-3-1 2-1 1 1v1m-8 12c-1 0-3-1-1-2v-2l1 4m5-46 2-4c1 2 1 2-2 4m-1-4-3-3 4-1-1 4m32 30 4 3c-1 1-4 3-7 1l3-4m11 34 1 2v-1l1 1h-2l-2-1 2-1m5 0v1l-1 1v-1l1-1m4-3-1 4 1-4m3-1v2l-2-2h2m-8 38-3 3v1l-1-4h4zm1 0h3l-3 4h-1l1-4m5 0 2 4h-2v-1 1l-1-1 1-3m8-1-4 3v-2 2l-2-2 6-1m-8 43h-1 1m14 9v4l-2-1 2-3m6-7 2 3-3 1 1-4m3-1 4-4 1 1 3-4v-4l3 2v1h-2l-2 5h-2l-4 7-1-3v-1m-4 32 1 3-1-2v-1m52-15 1-2c2 1 2 1-1 2m19-29h1l1 3-2-3m1-5 1 1h-1v-1m145 240v1l2 1h-2v-1h-1l1-1m3 154v-1l1 1-2 2h-2l3-2m5-117v4l-2-1 2-3m2 36 1 3h-3l2-2h-3 1l-1-1h3zm4 19h-3l-1 1 1-3 3 2m0-15h2l-1 1v-1h-3 2m5 5-3 4v-4l-1-2v-2l4 4m-1 26 2 5-2-1-2-3 2-1m4 5-2 5-1-2 1-3h2m-6 4v-1h-2l1-4 1 1v-1l1 1-2 1 2 2 2 1h-3m-2 36h1l1-1-1 2 1 2-2-3m1 5-1 2 1 2-1-1-3-3 1-2 2 1-2 1 3-1v1m5 0h-1l1 2-4-4 4 2m112-26h-2 1l-1-2h2v2m-2-18v3-4l1 1h-1m0 7-3-1-1 1 1-1h3v1zm1-15 1 3-1 1v-4m4-38h-5l2-2 2-1h1v3m4-72h-1l1-3v3m37-139 4-3v2l-4 1m2 13-2 2 2-2m44-25-3 1 3-1m-3 12h3l-2 1-1-1m7 49 1 2-1 1v-3m36-4h4l1 3-5-3m-2 3-1-1 3 1h-2m26-11v-1l1 1h-1m0-8v-1h1l-1 1m16-25c2 1 1 3 2 4-2 0-2-1-2-4m-2-4v-4l-2-4 4 3v5h-2m-2 4-2 1v-4l3 2-1 1m-2-19 3 2h-1l-2-2m6 6c2 0 1 1 2 2h-1l-1-2m6-16 2-4c1 1 1 1-2 4m75-24 1-3 2 3h-3m17-66h-2l2-1v1m-1-30-3-3 4 3h-1m-3-6-1 3-4-7c-3-1-4-4-4-6v1l-1-3 2-1 2 4 1 5 1-2 4 5v1m22-2h-2l2-3v3m8-43v-1l-3-3h3v4m-4 0-3-4 3 1v3m-4 1v-1h-2v-4l2 4v1m-4-2v-3l-2 1-2-2 5 1-1 3m13-38-3-1v-1l2 1 1-1v2m-4-1-1-1v-2l1 3m-5-5 1 4-1-4m-2 1h-1l1-4v4m16-33 3-3 3 4c-2 1-4 1-6-1m31-36v4-4m4-4-1 4-2-6 3 2m-4 44v1l-1 1-2-1 3-1m7 10v3l-2 3 2-6m4 50-2 5-1-1 3-4m1 2v3-3m12-9v4-4m-4 25v4c-1-1-3-1 0-4m12 16 1 2-2 2 1-4m-4 23h1v3l-1-3m23 111 1 1h-1v-1m1 32-1 2-2-1 2-1c-2-2-3 0-4-3l5 3m11-10 1 3-3-1 2-2m64-25h-2l2-1v1m4-21v-3 3m-6-6-1-1 1-3 2 3-2 1m-2-2-4-6c-3-1-4-4-3-5h-1v-1l1-2 1 3 2 5 1-2 3 5v3m18-4h-1 1m7-38v-1l-3-1h4l-1 2m-3 0-2-2v-2l1 2 1 2m-4 2v-2h-1v-4h1v6m-4-3v-3 2l-2-3 5 1-3 3m12-33h-2l1-2v2l1-2v2m-2 0-2-2v-1l2 3m-6-4 2 2-2-2m-1 0v1-4 3m15-28 2-3 3 3h-5m25-32 1 2-1-2m4-3-1 3-2-4 3 1m-3 37v2l-1 1-1-1 2-2m6 10v2l-2 3v-1l2-4m4 42-2 4v2l-1-2 3-4m1 3v3h-1l1-3m9-8 2 3h-2v-3m-4 21 2 4c-3-1-3-1-2-4m12 15 2 1-3 2 1-3m-4 20h2v1l-2-1m20 95 2 2h-2v-2m0 28v2l-1-1 1-1c-1 0-2 1-2-2l2 2m11-7v1l-1-1h1m93-63 3 2-3-2m0 3h-2v-1l2 1m-2-9v-2 2l1-2-1 2m4-20-2-3 2 3m-6 26-4-4c3 0 6 3 4 4m-8-13h2l1 1-3-1m-1-4c0-1 1-4-1-4h2c2 1 2 3-1 4m-3 0v-3h2l-2 3m-2-11v-1h1l-1 1m-2 4-1-1 3-1v1l-2 1m0-13h-1v1l-1-4 2 3m62 188v-4m0-231-3-2-1 4-2-2 3-2 3-2-1-1 1-5v-10h-1l1-1v-9l-1-4v4l-4-3v3h-2v-4c2-3-1-4-2-7-2 4 0 7 2 11h-1v-2l-3-1-2-3c0 3 1 4 2 4l3 2-4-2-4 2v1l4 1v4h-5l2 4c-1 0-2 0-4 3h3-9l2 1h2l-3 4h-1v-5c-3 1-3 4-2 7h-4l3 2 1 2v1h-2c0 1 1 3 4 3l-3 5-1-1c1-2 0-4-2-6-1 3-1 4 2 7l-4 1 6 2v-2c2 2 2 3 4 3l-1 1h5v2l4-2 2 6-3-2-4-1 3 4h-3v3h-1l-2-6-2-4 1 7v1h-1l-3-1 3 4-6 3h2l5 1-3 1h2l-2 2c-1 0-4 1-4 4l-1 2v-2l-1-3-3-3c-1 7 0 7 1 8l-1 2h-3c2 2 4 4 8 2l-4-2h6l1 2 3 3v1c0 3-2 4 1 7h-4v-1h-1c-3 0-4 1-4 2l-2 3-1 1-3-8c-1 3-1 6-4 7v-4l-2 1h-3l-1 2-2-2-1-1v-3l-3 3v-1h-2l4-3h-7l-3 1c3-1 2-4 2-6-3 1-4 4-3 6l-4-1 3 5c2 0 2 2 1 3l4 5v2l-7-6c1 3 1 4 4 4l1 2c-2-2-5 0-8 1l4 1 2 2 1 1 1 3h3c-3-2-4 1-7 2h7l1 2 2 2v2h-2c0 2 3 1 4 1l-4 3 4 1 2-1 1 6 5 3-1 1-4 2-3 1 8 1c1-1 3 2 3 3h-4c1 3 4 4 8 4l-3 1h-11c4 3 7 3 11 2l-5 4h5l-1 1h-5l-2-1-2-2 1 3v1h-3l1-1-5 3 3 1h-3l-1-1-4-2-1-1v-3c-2-1-2-4-6-2l4-4c-4-2-6 0-9 2h1l-2 2 1-3-1-4-4-4v5l2 4h-2l-2-2-1-4-1 8-4-4 2 4 3 1h-8l1 1-4 4h-1v-6c-1 1-3 4-1 6h-4l4 3v1l4 6v1h-1l-3-1-1-2c-2-4-6-5-10-5 3 4 4 7 8 7l4 2-4-1-5 1c1 0 3 3 4 2h1v1l-2 5 5-1v5l4 6-3 2-5-1c1 4 4 5 5 7l-4 1v-1c-1 0-4 1-4 4l-1 4 1-6-3-5-2 3v1-3l-2 4v-4l-4 7v-3c-1 0-1 3-2 2v4h-2v-2h-1c0 2 0 3-3 4 0 0-1 2-1-1v1l-4 2v2l-3-2v4c-2 0-2-2-4-3v4l-1-3-3 4-1 2v-6l-3 4-2-2-2 1-1 3v1h-1l1-3v-1l-1 1-4-2 1-3 1-1 3 4v-4l1 2 4-5 2 4 1-7 4 3c0-3-1-4-4-4l1-1v-2h2c0 3 1 4 2 4l2-6v-3l1 3 1-4v-2c3-2 4-4 4-8v-1c0 3 1 4 4 5-1-1 0-2 1-4v-6l-2 6-4-4v4l-3 6-1 1 1-4-1-1-3 1c-1 1-1 3-3 1v3-1h-1l-1 1c-2 1-4 4-7 4h-4l1-1h-6 1l-1-2c2-1 4-4 8-4h-2l3-4h4l-1-1 5 1-3-4h2v-1l2-4-2-3 4-2-7 2 3 3-3-1v2h-1l-2 2-1-2-3 3-2 1 1-2-4 2h-1l2-4h-4l-2 2h-6l-1 1h-1c1-1 1-4 4-3l2-1 3-1h1c2-4 4-6 6-7l5-5v-2l-7 6-1-2 1-1v-1h-1c-3 4-7 5-11 5l-1-1 1-2 2-2h1v1l3-3v-1l1 1 1 2 3-4v-3l1 4 2-4 1 1 3-4 1 3-1-7h-2l-1 4-1-1v-1h-3l-1 1h-3v-3c-1 2-1 4-4 3l1-4c-1 1-2 3-4 1h-2l1-1h-1l2-1-2-2-2-1v1l-5-1v-1h5l2-2v-1l4 1-2-2h2l-3-3 3-1 2 2-1-4h3l1 2v-4l1 2 3-4c3-1 3-4 4-8l-1 2-2-4 3 2v-2l-4-4v4-3l-5 5v-1l-6 1-1 2-1-2v2h-1v-2 2h-2l-2-4v-2h4v-2l1-3v-1l1 4 1-7v4h2l1-5 1 2v-1l3-3 1-2c2-2 3-3 4-2l2-2v-2l-2-1-1 1h-1v2l-8 5 4-5-3-2 3-5-4 3 1 4v2l-1 2-2-2 2-5v-1h-2l-2 1-2-1 2-2 1-1 3-1 1-1h1l4-6 3 4v-6l5 2-1-4-1-2 5 4v-6l1-3v-2l2 4h1l-1-6v-1l1-1h1l-1-3v1l-3 3v-4c2 0 3-1 2-4l-2 3c0 4-2 4-4 6h-1c0 3-3 4-4 4l-1-1v1l-2 2-1 1-3 1-2 3-2-1v1l-2 1v-1l-2 1-4 3v-3l2-2 2-3 2 1-2-2 12-11 3-3v-3l-7 6c-1-2 0-3 2-3l1-4 1 1-1-4c0 3-3 4-4 7v-1h-1v3l-2 2v-2h-1l-1 2v2l-3 1-1 1-3-2 1-3v-1l-4 2h-2l-2 2v-4l-2 1 2-7 4 6v-4l2 2 1-2v-2h4l-1-1 2-1 4-3h3l-1-3 1 2 1-3h2v-3l2-1-1-4c1 3-1 3-3 5l-1-1 1 3-1 1-1-3v3h-3l-1 3v-3l-3 4-1-1v1l-3-4-4 4 1-3-4 4h-1v-2h-1l6-6 3-2v-2l-7 4-6 4h-2v-4h2v-1l2 1 3-2-3-6v2-2l-1-2 1-3-1 1h3v6l1 4 1-2h2v-1l1-1-1-4 2-2 2 6v-6l-2-1 6 5v-6 2l1 3v-3h1c2-1 2-4 4-4 0-1 0-2 2-1l4-5c1 0 2-3 1-4h1l2 1v-1l-2-2-5 6v-2l-1 2v1l-2-3c0 3-2 3-2 4v-1c-2 0-3 3-4 0l-2 3-1-3-4 5 1-5-4 4-2-5h-3 1l-2-6h5l1 2v-2l3-1 5-4v-1h-1c-1 2-4 4-7 4l-1-2-1 2v-4l-2 4-2-6v4l-2-1v-5l3 3h1v1h4l2-1-2-2h-2v-2l-2 2-2-4v2l-2-4-1 1-5-7 1-1v3h3l2 2 2-1c0 1 0 3 1 1l1-1v1l2 2v-3l1 3c1-2 1-2 3 1v-7l-2 3-2-3v-1l1 1-1-5-2-3-1 3v-3l-1 4-2 1v-1l2-4v-1l-3 2 3-4c4-2 8-6 10-12l2-5-4 4-2-1 2 4-2 1v-4h-1l-1 3v2l-2-4-1 2-1 1-3 1v-1l-1 1-1 3v-3 2l1-4 4-6v2l1 1v-7l-1 2-1-4v-2l1 2c1-3 0-6-1-8v4l-2-2v3l-2-1 2-6h2v-4c2-1 2-4 2-5h-1l1-4v-1l2 1 1-1v-3h-1v1l-2-1-1 4-1-1h1v-6l1-2h2l-2-4v1l-1 4-1 1-2 4v-1l-1 3-1 1-1-3 1-2 1-2-1-1h-1v1l-4 10-2 1v-8l2 1v-6l1-2v-2l1 1-1-4v-4h-1v1l-2 1v2l-1 2v-5l-1-3-2 4v6l-1-2 1 2h-1v-3l-1-1-2-2v3l3 8v3l-1-2-1-1-2-1-1-4-1 4-2-1-1 2-1-4-2 2 2 2 1 2v2l1 6h2l-2 1-4 5c3 0 4-1 6-4l1-2v4h1l-2 1-2 5 3-3v6h1c2 1 0 4-1 5l-5-8-2 1c0-1-2-2-1-4l-1 2 1-4-3 1-1-4v9-1 5l1-1 2 3v2l2-2c0 2-1 5 2 6v-4l1 2-1 5 2-3h2v7l1-4v-1h1l-1 11-1-4v1l-2-1v1l-1-1-4 4v-7l-1 5-2-2 3-3-4 1 1-4-1 2-1-3-1 1h1l1 3c0 4 1 7 4 8l3 4v1l-1-3v3l-2 1h-1l-1-1c0 1 1 3-2 3l-1 1-1-1v1l-7-1 1 3-1-2-1 2h1l1 2 2-2v2l1-1h1l2 1s0-2 1-1h5l1-1 2 1 2-3h3v-1h1l-5 7-1-2h-1v3-1l-3 4-1-2c0 3 0 3-3 3h-1l1 1h4c-5 3-9 3-13-1l1 3-1-1v4l-4-3v3c2 4 6 6 10 8h6l-3 4h-1l-3-2v3c-3 0-1-3-3-4l-1 4-3-3-1 2-1-2v2l-3-3v-1l-1 2v-2h-2v1l-5-4v3l1-2v3l3 1 1 2v1c3 0 3 1 3 3l1-3v3h4v1h3v-1l1 1v1h2l4 3v-3l2 1h2l1-1h3v-1h2l4-2h2l-7 7-1-1v4h-2v-2h-1l-1 3h-2l-8-1h-2l1 1 15 5v2l-12 1c-4 0-8-1-11-4l-1 1 2 2 2 4-3-4v4l-1-4-2 1-2-3v3h1l1 1c3 4 6 6 8 7l2 1 2-1v3l2-2v3l1-1v1l4-3v2l4 1 1-3h3l1 2-3 1v-1h-1l-1 2-3 2 1 1-1 1-1-2v2h-4l-4-2h-1l1 1 1 1 1 5-4-2v1h-1v-3 2l-3-4v1l-2-4v3l-2 2v2l2-3 1 5v-2h1l-1 4h1l2-1v1l1 1 3 3 1 1v-2l1 2h4l-1 2h1l2 1 1-1v1l1-1v5l1 4v1l-1-1-1-1 1-2-1-2-1-3v7l-3-4v8l-1-2h1-1v-6l-2 2-1-1-1 4-2 1v-1h-1l-1-1-2 1-2-3-2 3v1l2-1c1 1 2 1 2 4h3l1 1 2 2c1-3 2-2 4 0v-2 2l1-2 3 3c1-3 1-3 2-1l3-3 1 3v1l3-1v1h1l-2 1h-11v2-3c-1 1-1 3-4 3l1-3-2 1h-2l-1-1v-1s0 2-1 1l1-1h-3c-1 1-2 0-2-2h-2l-1 2-1-4-2 1v-4l-1 1v-1l-1 1 1-2-3 1-2-5-2 2-1-5v-1c-3 0-3 1-3 4l-1-2v6l1-2 3 6 1 1v3l2-2 4 7v-3l4 3 1 3-1 2h1l3-2 1 1c-1 1-3 1-3 4l4-4-1 3-1 4h4l-2 2h3l1 3 3 1-4 4-3-2 2 4h-2v-6h-1l-1 3-1 1-2-1v-3c-1 2-1 4-4 4l2-4-4 3-2 1v-6l-1 4v-2h-1c1-1-2-1-2-2l-1-2v2l-3-4v2c2 2 3 3 2 6h1l1-3 2 5 1-1-1 1c2 2 2 4 2 7l2-1 1 4v-2l4 4h1l1 2h3l-3 4h2l-2 2 3-1 3-1v1l-1 1 5 2-4 2v-2c0 2-3 1-4 4h3v1l-2-1v2l-2-4 1 3h-4v4l-3-3v3l-4-1v-3l-1 3h-1v1h-2v-3l-1 2-1-3-2 1v-1h-1l-1-3-2 2-1-2v2l-4-6c-1 2-3 0-3-2l-1-2v-1l-1 1v-4l-3 7 3-1 3 4-2 4 3-2 1 2c2 1 3 2 2 5l2-1 3 5 1-3 3 6v-4l5 6c0-2-1-4 2-5v1l-2 4 2 4 2 3-10-8c0 3 6 9 13 13v2h5l-3 2h2c1-1 1-1 2 2l2 1-3-1-3-2-1 2-1-2h-8l2 4-4-2 2 1h-3l-3-3h-1l-4-1 1-1-2 1v-1l1-2c-1-1-3-4-5-2l4 2-3 3 4 5-3 3-1 5h-1v-4h-2v2l-1 1v-1h-1l-2-3v-3l-1 2v-2l-1 2-1-4h-2v-2l-1-2-3-3v-1l-1 1v1l1-1 2 5v4l1-1-1 4 1 1 3-3v2l-2 4 4-2v6l-2 2v-4h-2l-1 8v-4l-3 2-2-3 1 4v1l-1-1v-1c-2 3-3 3-4 0v1l-2 2v-3l-1-1v4l-1 4v-2c-3 2-3 4-6 4 0 0 0 2 0 0h-1v-4l-3-4c0 3 0 7 3 8h-3l-4-5 2-3h-4l4-1v-1h5l-4-3 7 1-3-4h5l-1-2 4 1-1-4 1-3v-1l-3 3-5-3v-4l1 4 2-4 1-3 4 2-1-3h2l2-8 4 4v-8l4 4-2-7h2l2 3v-5l2 1 2-5 2-6-3 6-1-3-2 3v-3l-4 7-1-4-1 4v4l-2-2-1-1v1l-1-1-2 5-1-1h-1v1l-5 2v2l-3-2v5c-3 0-4-3-5-4l1 4c-3 0-3 0-3-3l-3 6-1 1v-5l-1-2-1 6-3-4-3 2-1 3v1h-1l2-4-1 2v-3l-1 3-6-3 2-4 2-1 3 4v-4l1 2 4-6 2 5c2-3 1-5 2-8l2-1v-3l1 1v-1c0 3 3 4 4 4-1-3 0-4 1-7v-4l2 3 1-4v-1c3-3 4-6 4-10v-1c1 3 3 5 5 5-1-1 0-2 1-4v-6l-2 6-4-4c1 3 0 3-2 4l-2 7-2 1 2-4-2-2-2 2h-4l1 3h-3l-1 1-8 4-4 2 1-3h-8 2l-2-1c3-2 6-4 10-4l-2-2 4-4h3v-1l5 1-2-5h1l4-5-5-3 5-3c-3-1-4 2-7 3l3 3-3-2v3h-1l-3 1v-1c-2 0-4 1-4 3s-1 2-2 1l1-1-5 2 2-4v-1h-5l-4 1h-1l-3 2-3 1h-1c1-3 1-5 5-4 0-1 2-3 3-1l3-2 1-1 7-7 5-6v-2l-8 7v-3l1-2h-1l-1 1c-3 4-7 5-12 5l-2-1 3-1 1-4v2c2-1 3-1 3-4h3l1 3 3-5 1-3 1 4 2-4v1h1l3-4 1 3 1-1-1-7h-3l-1 5-3-1 2-3h-4s0 3-2 2h-1l-1 1-2-4c-1 1 0 4-2 4v-5c0 1-2 2-4 1l1-4-3 4h-1l-1-1 4-3h-3l-1-3-2 2-4-2v-1h6v-1l1-2 4 3v-1l-1-3h2l-4-4h3l4 3-1-6h1l3 3v-5l1 3 3-6v2c4-2 4-6 5-10l-5 6c0-3 1-4 2-4v-6l2 4 1-1v-2l-5-5 1 1v3h-1v-3l-6 6-6 1-2 1-1-1v1h-1v-1l-1 1h-2l-1-4-1-1 2-1 3 1v-4l1-3v-2 5c3-3 3-5 3-7l1 3v1l2-6 2 4v-2l2-4 4-2c0-2 1-3 4-2l1-4v-1l-1-1-2 1h-2v1c-2 3-8 7-8 6l2-4-1-3 3-5-4 4v-3 8l-2 3-1-2 1-6v-2h-1l-3 2-1-2 1-1 2-1 2-3 2-1h2l4-6 3 4v-2l1-6 6 3-3-3v-4c1 2 3 4 5 4v-5l2-4v-1l2 2v-6l2-3 1 1c0-2 0-2-3-4l2 2-3 2v-2c1-2 3-3 1-6l-3 3c0 4-2 5-5 8v-1c0 4-3 5-5 6v-2l-1 2h-2l-1 3-3 1c-2 0-2 2-4 3v-1l-1 1-3 1h-1l-5 3v-1l2-4 2-3 2 1-2-2 1-2 13-12 3-4v-1l-7 5c-1-1 0-2 2-4l1-4 1 3-1-5c0 4-3 5-5 8v-2l-2 3-1 3v-3h-1l-2 4-1-1v1l-1 3-3-4v4l-3-3 3-3v-1l-1 1-6 2h-2v1-4l-3 4-1-3c2-1 2-4 4-6l2 5v-4l3 3 1-3v-3l3 1h1v-1l3-1 4-4 3-1v-2h1l1-2v1c2 0 0-3 2-1v-3l2-1h-1 1l-1-4c1 2-1 2-3 5l-1-1 1 2-1 2-1-3-1 4-3-1-1 2v-1l-4 3v1l-4-4-4 4v-4l-4 5v2l-2-4h-1l8-7 3-3 1-1h-1l-7 4-8 4-1 1-2-5 3-1 3 1 2-3-2-6v1l-2-1v-6h2l1 2v5l3 4v-1l2 1-1-1 1-3 3 1-1-4-1-1 2-1c0 2-1 5 2 6v-2c1-2 0-3-2-4v-3l6 7v-7 3l2 2v-2h2c0-3 1-4 4-6v2c0-2 0-4 2-3 0-3 2-5 4-5 2-2 3-4 2-6l1 2h1v-2l-1-2c-1 4-3 5-7 6 1 0 0 0 0 0h-1v3l-1-3c0 3-3 3-4 4l1-1c-1 0-3 3-4 0l-1 3c-3 0-3-1-3-4-1 3-1 5-4 7l1-6c-1 2-4 2-4 6l-3-7h-1v5l-3-5h2l-3-7h5l2 3v-4h2l7-4v-3l-1 1c-3 3-6 3-8 3h-3v-3l-1 3-3-5h-1v4l-2-2v-5l4 3 2 1h4l1-1-1-2h-3v-2l-1 1-4-4v1-4l-2 3-8-9h2l1 1v1l3-1h1l1 4 3-1c0 1 0 2 1 1l2-3v3l1 1 1-2 2 2c0-1 1-1 2 2v-4l-3-3v3l-4-3-1-3 1-4-3-2v2l-1-2-1 4v2c-3-1-3-1-2-2l3-4v-3l-4 4 4-5c4-3 9-8 12-14l1-5-4 4-2-3 2 6-2 1v-5l-2 4-1 4-3-6v3h-2c0 3-2 1-2 1l-1-1-1 3-2 2v-2l2-4 4-6 1 2 1 1v-4l-1-4v1l-1-5-2 1 2-2 1 2c1-4 0-6-3-9v4l-1-1v4l-4-3 4-7 1 2 2-6 2-5-1-1v-3l1-3 2 2 1-2-1-2v1l-2-1-2 2 1-1v-5l1-3h1l-2-4v5l-2 2-2 5v-1l-1 2c0 2 0 3-2 2l-1-3 1-3 2-1-2-1h-1l-1 1-4 9v2c0-3-3-6-2-8l3 1v-1l-1-4 1-3 1-1-1-3h3l-2-4-1-1 1-3-1-1-1 1v1l-1 2v1l-2 4V6l-1-2-1 4v5l-2 1-1-2-1-3s0-1 0 0h-2v3l3 8 1 2h-2v-1l-2-3-2-4-2 6h-1l-1-3v3c-3 0-1-3-1-4h-2v4l2 2-2 3h2c2 3 2 4 1 7l3-2v2l-3 1-3 5c3 0 4-1 5-4l2-2v4l2-3-1 3-3 2-2 4 4-1v5l1-1c1 3 0 5-1 8-6-5-6-5-6-11l-2 3c0-1-3-3-2-5v-3l-2 1-2-4-1 6v4h1v5l2-1 1 2v4l3-4c0 3-2 7 1 8l1-4 2 2c-2 1-3 4-2 6l3-4 1 8 2-5v-1h1l-1 13-2-5v3l-1-3v1l-1-1c-3 0-4 1-6 4v-7l-1 5-1-2 3-3v-1l-4 2 1-4-1 2-2-4-1 1v1h1l2 3c-2 4 1 7 4 9 2 1 2 1 2 4h2l-2 1-1-1v3h-3l-1-1-1 4-3 1v-3l-2 3-7-1 2 2-2-1-1 1 1 3 3-3v3l1-1h2l1 2c0-1 1-4 3-2h5l1-2 1 2 3-3h4v-3s1-1 1 2l-1 1-5 5-1-1v4h-2v-1l-2 4-2-3v1c0 3-1 3-2 3h-2v1h4l2 1c-6 2-11 2-15-2v2-1h-1v5l-4-4v3c2 5 8 8 12 9l5 2-1 4h-3l-3-3v4c-3 0-1-3-3-4l-2 4-2-3-1 2-3-2-2-1-2-1v1h-1v-1l-1-1v1l-5-4v3h1v1l3 1c1 0 1 3 2 2v2l2 3 2-3-1 3h7v1h4l-2 3h2l1-1 4 4v-3l4 1v-1 1c1-1 1-2 3-1h2v-3h3l7-1-8 9v-1l-1 3h-2v-2 2h-1l-1 1-3 1-8-2h-1l-2 1 2 1 16 7h1l-15 1c-4 0-9 0-13-2l1 2c3 0 3 2 3 4l-4-4 1 3-2-4v3l-4-3v3l1-2 1 2 1 1c2 4 4 5 8 7l3 2 3-1-1 3 1-2 1 3 1-1v1l4-3 6 3 1-3v-1l3 1 2 2-2 1-2-1c0 2 0 2-2 2l-3 2 1 1-2 1-2-2v4l-1-2h-3l-4-2h-1v1l1 1c3 3 3 3 3 7-3 0-4-1-5-4v1l-2-3v2c-2-2-2-2-1-3h-1l-3-3v3l-3 3v1c3-1 3-3 3-4 0 3-1 4 1 7v-3 5h2l1-2v1l1 1 3 4h1l2-1 1 1c1 2 1 3 3 2h1v1h3l1 1 1-1v7l1 4v1l-1-1-1-3v-4l-1-1-2 6-2-5v9h-2l2-1h-2v-7l-1 3-1-1-3 4-1 2v-2h-2l-1-1-1 2-3-4-3 3v3l3-3c0 1 3 1 3 4h3l1 3 1-2 1 2c2-2 3 0 4 1v-1l2 1 1-1 1 1 4-1 3-2 1 3v1l3-2 1 2 2 2h-15v1l-1-3-4 3 1-3-3 2h-1c-1 1-1 1-1-2v-1c-2 0-2 3-3 1l1-1h-2c-2 0-3 0-3-3l-3 2-1 1-1-5-2 1v-4l-1 1v-1l-1 1v-2l-2 1h-1c0-1-3-3-3-7l-1 3-1-4v-3c-3 0-4 3-4 4l-1-1v3l1 2v2l1-2 3 6 1 2 1 3v-1l4 6 2-2 4 4 2 2-1 3 4-3 1 2-4 4c3 0 4-2 6-4l-2 4-1 2 4-1v3l-1 2h3l1 3 3 1-4 4-3-1 1 4h-3v-5l-1 3-3 1v-1l-1-4c-1 2-1 5-4 5l1-5-6 5 1-3v-4l-3 3v-1 1c0-3-2-3-2-4h-2v-3l-1 3-1-4h-2l2 2 1 6 3-3 1 5 1-1v3l2 8 1-2 1 4 1-1 4 4h2l2 1 3 2-4 4h1l-1 2 4-1 3-1-1 2 6 2v1l-5 1v-1c0 3-4 1-4 3l3 1h-2v1l-2-2v2c-2 2-2 2-4-1l1 5c-3 2-3-1-4-2v2c-1 2-3 0-4-1v1-4h-1l-2 3h-1v1h-1v-2l-4-3v3l-1-3v1-2l-3 4v-6l-1 2-2-2v3l-8-9-1-2v-2c-1 1 0 2-1 1v-4c-2 3-4 4-3 8l3-3 1 8 1-2 3 2v2l1 1c2 1 3 3 0 5l4-1 4 5v-1l3 5 1-4 6 7 1-5v1l-1 4v1l1 4 4 3-1 1-12-9c0 3 8 9 17 15l-1 1h5l-1 3c2-2 2-2 4 1l1 1h-3l-3-1h-4l-5-1h-3l3 4-7-3 3 3-3-2-4-2v1l-5-1 1-3-2 1-2-1 3-1c-1-2-3-4-7-4 2 2 2 2 6 2l-4 4 4 6-2 5 6-3-2 3h4l3 4-1 1c4-1 7 2 11 4l-2 2h-6v1l-3-4-1 4c-3-1-3-1-3-5l-1 2-4-2h-3v-3c-1 1-1 1-3-1v1l-3-3-1-4-1 2 1-3-3 1 2-1h-2l-2-4v1l-2-2-1-3-3-4v-1l-2 2h1l3 7-2 3 3-2v2l-1 4v6h-1l-3-4c3-1 3-2 3-4h-3v-1l1-3 3-2h-5c1-3 0-4-3-7v3l1 4h-1l-4-3 1-1 3-2c-3-1-4-1-7 2-1 1-3 0-4-2h4l-7-1 3-4h-5v-4l3-3v-1h-4l-6 3 3-3c3-1 3-3 3-5l-3 2-1 4h-2c2-4 3-8 0-12-1 3-2 6-1 8l1 3-1 3h-1v-4l-4 4-2-4v5c-1-4-2-4-5-4l1 1h-1l1 2c-1 1-2 2-1 5l1-1 2-3v1l1 4 1 3-1 1v2l-1 1c1 0 4 0 4 3h-7l1 4h3v5l3-3 1-4 1-1-1 1v2h1l2 2 2 6-4 1v1h6l2 3v1l-2-4c-2 3-2 3-4 3v-1l-4 5v-1l-2-3v-1l-1-4-3 2v2l-4-4-5-2c3 0 5-1 5-4l-5 3-1 1-2 2v-6l-1 3-3-1v1h-5l3 3h4c0 2-1 1-1 1l1 5 3-2 2 1v3l-1-3 1 5v4l-1 3h1v3l2-2 1-1 1 1 1 2 3 1v1h-3l4 4-8 1 2 3-4-3c1-1 2-2 1-4l-3 2-1-2-1 3c-3-4-4-3-8-1l2 1h2c-3 3-4 4-3 7l3-5 1 1v13h-1c-3 3-4 5-3 8 1-1 1-3 4-3l3 3 1 1c1 0 3 2 1 3v3l3-1c0-2 1-2 0 0v5l-1 4-2-3-1-3c0-2-4-4-7-4 0 3 3 4 4 7h-1c-3-1-5 0-8 1l-3 2v-2h2l4-2 1-7-4 3-3 2c2-2 0-5-2-6l1 4v2l-1 2-3-6-7-2c2 4 4 6 8 8l2 4h-2v-2c-2-1-4 0-4 2h3l-1 1-4-1 2 4 2 2 2 4c0 4 0 7 3 8v3h4l-1 1-3 6-1 2-2-6-1 4v4l-1-3c-1-3-4-3-5-3h-2v-6l-2 4-3-3-3-2-5 2c3-2 5-4 5-8-3 2-4 4-4 7-1 1-3 3-4 1l3-2c-4 1-5 1-7 4h4c-1 2 0 4 3 6v-2h5c-3 0-4 1-4 4l5-4-1 4-3 2 3 2 1 1h-1l4 5h-5l5 2h-5l-1 4h1l-1 1h4-4l-2 3-2-3h-2l3 4h1c-2 1-1 3 0 4l2 1v-3l1 2v4l1-3h1l3 3 1 1-2 4-4 1 2 2v1l-1-1-3 1v-5l-2 4-3-3v2l-5-2-2 6-1-3-1 3v2l-1-1v-3c0-2 1-4-2-6h6v-2l-3-2h-5c1-3 2-3 4-3-2-1-4-3-6-1h-4l-4-2 2-1 4 1v-4l2-1-5-1 3-3v-1l-3 2v-2l1-2 3 2-3-3 3-3-7 2v-4l-2 4c0-3-2-4-3-4l-3 2-1-4 3-2h4l-4-2h-2l2-1 1-1c0-2-1-3-4-3h4v-1h-2 1v-2l3-1h-3c0-1 0-3 2-1l5-2-5-1h-2l2-1 1-1h-1l-2-3h4c-1-3-2-4-6-4l2 3h-2l-2-3-2-3v-1l-2-1h-1 3c2 1 4 2 6 1l-6-3 5-1-3-1v-2l-4 1v-1l-1 1v-2h-3l-1-3v-3c3 0 3-1 3-4l2 2 2-6v-1l-2 1h-1v-1l3-1 4-4h-2l-2 1v-1l-3-3v-4l5 5c2-2 0-5-2-8l4-2c-3 0-6-3-7-6h3c-2-1-3-2-4-1l2-4 2-3h2c0-1-1-2-4-2l2 2-2-1v-1l-1-4v-2l-1 2c-2-2-3-2-2-3l2-1h-2v-3h-1v-5l5 4-2-4-2-2c2-1 2-2-1-4l4-1-7-1 3 2c-1 2-3 0-3-1l-2-3c2 2 5-1 6-2-2-2-5 1-8 1l3-4h-1v-4h2c0-1-1-3-5-3l3 3-3-1-1-4v-3c3 0 3-1 4-3-3 0-4 0-4 3h-1v-4 1l1-1-3-3 3-1-3-3 3-1-3-1 3-3h-4l1-1 4-2h-4l1-2-2 1v-3l-2-1h4-2l1-1h-1v-3l-2 1h-1v-1h3l-3-1v-2h1l-1-4h-1v2l-2 1 2 1v2h-2l2 2v2l1 1h-3l2 1h1l-1 2v1h-2l2 4h-2v1l2 1h-2l2 2h-2c2 2 2 2-1 4v1h-7l6 1-3 3v-1c-1 1-3 3-1 5h-3l3 3-2 3v1h2l2 1-5 2h1l2 1 1 3-1 1-3 3 3 4-3 1-1-1-4-3c0 5 4 7 6 9l-8-2c2 2 3 2 6 2l2 2h-4l-4 2v2h3v4l3 2h-4l-3 2 5 4-1 1-1-1-2-2c-1 2 0 3-2 3l2 4-6-3 4 6 1 2h-1l-3 2 1 4 2 1h-2l-1-1v2h-5l5 3-4 1h4v4-1l1 1 2 3-6-3-5 2c4 2 7 1 11 1l-7 3v1h4c0 1-3 4 0 5h-4l8 7-1 1 2 2h-5l-1 1h2l-2 5-3-3v7l-1 1-4 2 5 1 3-1-6 2 3 2-3 1 2 1h-3c1 3 4 3 7 3v1l-2 6h-1l1 1c-1 1-2 1-2 4l-4-3v3l-2 4-1 1-1-5v5h-4v8l-6-4v2-2l-1-1 3 1v-1h-3l1-1h-2v-2h1-1v-1h1l-1-3-2 2h2l-2 1h2v1h-2l2 2-2 1h2-2l2 1v1h-2l2 3h-2v1l2 2h-2 2l-2 1c2 0 2 1-1 1l1 2h-5l4 1-1 1v-1l-2 4h-1l1 1v3h-1l1 1h2l-3 2h3v2l-3-1 1 3-1 1 1 3h-1l-3-2c0 3 2 4 4 6l-5-1 3 1h2l-2 2-3 1v1h1v3l3 1h-3l-2 2 4 2h-2l-1-1c0 1 0 3-1 1l1 3-4-1 3 4 1 1h-1l-2 1 2 2v1h-2v1h-4l4 2-2 1h2v3h2v1l-3-1-4 1h7l-4 3h2v4h-2l4 2-2-1h3v4h1v1h-4l2 2-2 2-1-1v4l-3-1 2 2h-3l4 2 1-2-4 3h3l-1 1v2h-2l4 1-2 1h2v3h-1l-1 4-3-1v4h-1v-3l-2 4h-1v4l-4-1c1 1 1 2 4 2l-3 2h4l2-2h1v2l1-2 1-1 3 1h1v2l3 2h-3v2h2l-2 1v1l2 3h-2l-2-3 2 3 2 1-4 2v2l-2-2v5l-2-3-2 3v3l-1-2v2h-1v1h-1l4 1h1l-4 3 4 3h-1 2l-1 1-1 1-2 2v-3 4h-2l2 1h2l1 2-1 1h1l-1 1 4 4h-2l2 1-4 2 4-2-2 3h2v1l-2 2h-1l3 2-2 2-1-2 1 4h-5l3 2v1h-3l1 3 2 1-6-1c2 1 3 2 4 1h3l-3 4 3-3 1 2 2-2v2h2l2-3 1 3-3 1 1 1 2 2h-3v-2l-3 2-1 1v-3c-1 0-3 1-1 3h-2l2 1v3l-3-3 1 4h-2l1 3v1c0-3-1-3-2-3l1 3h1l-3 1-1-1v3l1 1h-4l4 1h4l-2 2 2 4-2-3h-2l2 4 1 1-3 3v1l-1-2-1-1v5h-1v2l5 1-1 1c1 1 2 0 4-1h-3l3-1h2l2 1h-2l4 1 2 1h-3l-1 2v1l1 3h-3l4 2-1-2 3 1v6l4 2h2l2 2-3 1h4v3l1-2c2 7 3 15 7 22l1 4v2l2 4v12l1 4v7l-1 5v10l-2 6-22 3h-88l-58-7v-16l2-5-2-5v-4l2-3-2-1v-3l-1-8-1-1v-6l1-4 1-2 4-4h2l1 2h-1l1 4h-1l2 2v1l4-1v4l2-2h1v-1l-1-1h2l-1-3h3v-3h-2 2l1-1v1l1-2h-1l4-3v1-1l1-1 2-2 1 4 1-2h1l2-2-2 4 3-2h1v1l3-1v-2h1l3-1-3-4v3l-1-1h-1l-1-2v2l-2-2-1-2h-1l1-2-1-1h-1 2l2-1-2-2v-1l1 1v-1l2-2v-2l2-2v-1l-1 1-1-4v2-2l-2 2v-2h-1v2l3 1-2 1v1h-2v-2h1v-1h-1v1h-2v1h-2v-2l1-2 1 3v-1h3-1v-3l-4-3h1-1l4-1v-1h1v2l1-2h2v-3h-2l4-1-1-2v-1h1l-1-1-3-2 2-1 1 1c1-1 0-2-1-5v3-3l1-4 3 1-4-2v1l-2-1v-2l-1-2-3-2v-1l3 1v-4l1 3 2-3v-1l2-1h-5l1-2 2-2h1l-1-2h1l-3-1-3-1 4-1h-1l1-3-2 1 3-3c1 2 2 0 4-1h-3l-3 1h-1l1-4h-1l-1-4 1-2 1-2v-4h7c-3-2-5-1-7-1l4-3-4 2-1 1 1-3 2-2-3 2h-4l1-2v-2l-1-1h-1 1l3-7-3 2-1 2v-4h1l1-5c-1 1-2 1-2 4l-3-4 3 1-2-2 2 1-2-1h2v-3l2 3v-3l2 1c1-1 2-4 0-5l4-1-3-2-3-1 3-1-4-1h-5l1-2 1 2v-4h3l-3-2 1-1-1-1-1 2v-3h3l-2-1 2-3-4 2v-3l-2 3-2-3-2 3-1-4 3-2h1l-3-1 2-1-3-3h3-2 2v-1h2l-1-2h-1s0-1 0 0l4-1-3-1h-1l1-2-1-2h3l-4-2 1 2h-3v-3l-1-1-2-2h-1l3-1c1 3 2 3 4 3l-4-3 2-1h-1v-3l-3 3-1-2v-1h-1l-2-1v-2l2-2 1-2 1 2v-4h-1v-2h1c3 0 3-1 3-2h-1l-3-3v-3l3-1 2-1-5-4h1l-2-2 2-2v1l2-4 1 1-3-2 2 1h-2v-1l-1-3h-1v-1l1-2h-3l2-1v-1h-2v-3l4 3-2-3v-1l-2-3h3c-1-1-3-3-4-1l1 1h-1l-1-3 4-1c-3-1-4 0-7 1l3-4h-2v-2l-1-2 1 2-1-2-1-2v-2l3-2-3 2-3-4 3-1-1-3h1l-1-1 1-1-3-2h4l-3-1 2-1h-3v-2l-1-1h1l3 1-3-1h1-1v-1h-1l1-2-1-1h1-1v-3h-2v7h2-3l1 1v2l-1 1 1 3v1h-1l1 1h-1c1 2 1 2-1 3l1 1h-5 4l-2 2h-1v2h-3l3 3v3h-1 1l1 1h-2v1h1v3l-3-3c0 3 1 3 3 4l-1 2 1 2h-3l-3-1c0 3 3 4 4 5l-5-1c1 1 1 3 4 1l1 2h-2l-3 2h2v3l2 3h-5l-1-3-2 4h-1l-1-4 1-1-4 1-3-3v-1h-1l-1-4h4l-4-1c2 0 5 0 8-3h-3v-1l-3-2h3l-4-2h7l-3-2-3-1v-5c-1 0 0 2-2 2v-2l2-3h-2l-4-1h-3 3v-2c4 0 6-2 9-6l-7 1c3-3 0-4 0-5h4l-5-3c3 0 7 0 9-3h-5l-4 3v-3h3l-2-4 4 2v-2l-2-1 5-1h-7l2-2h-3v-1l1-3-2-1v-3c2 0 2-2 4-4l-7 2 3-3-3-3v2l-1 1-3-1 7-4h-8l2-3 2-4h1l-3-3h-5l4-1c1 1 3 0 4-1l-8 1c4-1 7-4 7-8l-4 3h-3l1-4-2-2c2 0 4-1 4-4l-6 3 2-3h1l1-1h-4l1-1h3l-1-2v-2l3-3h-4c1-1 1-3-2-4v1l-2-1 5-1h-7l1-2c-2-1-2-2-1-4h-3l2-1v-1h-2l2-4h-2v-3l2-1h-2l2-2h-2v-1l2-1h-2v-2h2l-2-1h2v-1h-3l-1 2h1v3h-1 1v1l-2-1v1h-2l3 2-4 1 4-1-1 2v2l-3-2c0 2 3 2 1 3h-4l4 1h2l-3 2 1 1-3 1 3 2-3 1 4 3-4 1 3 1h-1v2l-4-2 3-4h-4c0-2 0-5-3-6v6l-3-1-2 3h-3v1l-4-3v3c1 1 0 1-1 1h-2c3-1 3-4 3-6l-3 5-2 3 1-2-1-1-2 1-2-2v4c-4-2-4-4-4-7-4 4-4 5-4 8l-2-1-1-3c0-3-1-3-4-3l-1-1v1h-4v-6l1-3 3-1 2-3h6l-6 3c4 1 8 0 10-3h-3l-3-1c3-2 4-3 3-10l-3 3-1 4v1l-1-2c-2-3-3-4-6-4l-1-2 1-1-1-1h7v-2l-5-2 4-4-4 1h-2v-1l1-2 2-5-4 3-3 5-1-3-2 2v-2l3-4-4 2-4 1 3-5 4 1v-1h7l-3-2 5-2c1-3 3-3 4-2l-4 3 7-1-3-2 1-6c-1 1-4 2-2 5h-2l-1-4 4-4h-4l1-1 2-2 2-2-4-2c2-2 2-4-1-6v5l-1 1v-1l-4-3 3-1 2-1h-6c-2 1-3 0-4-2h4c-2-1-3-2-6-1l4-4-6-1 1-4 4-3-4-1h-5l2-2c3 0 4-1 4-4l-2 3-3 3h-1c1-4 4-7 2-12-1 3-4 5-2 8v3l-2 1h-1v-3l-4 1v-2l-1 4-4-6v2l-2 1 1 1-2 4 1-1 3-1v8l-2 1v1h-2c1 2 4 2 4 4h-2c-1-2-2-2-5-1l3 3-3 1v1l3-1-3 7 4-3 3-4h1v1l-1 2h1v2l1 6-4 1 4 1 3 4h-1l-2-2-4 1v-1l-5 2 1-1-1-3 1-5h-1l-3 3-1 1-1-5-6-2c3 0 6-1 7-4l-7 2-1 1-1 1-2-1c3 0 3-3 3-4h-1l-1 1-2-1h-1 1l-1 1h-2l-2-1 1 3 4 1c-1 3-1 1-3 1l2 6 2-3 3 3-1 2-2-2v9l-2 1h1v3h1l2 1v-2l1 1 1 3 3 1-3 1 1 4h-8v3l-1-4 1-3h-2l-1-1-2 1c-2-4-4-3-8-3l2 2 1 1c-3 1-4 3-4 5l5-4v3l-1 3c-1 3-3 4-1 7l-2 1h-1c-3 3-4 4-4 7l4-2v4c0 3-1 3-4 3l-1 1v-2l-4 2-4 3c2-4 1-7 0-8v4l-2 3v1l-2-5-4-6c-2 4 0 8 4 11v3-1c-3-2-4 0-6 1h3l-1 1-3-3v4l-3-2v2l-4 2-1-3c-1 1 0 3-3 3v-4h-4v-3l-2 3v-2l-2 2v-2h3c0-2-4-1-4-4l-1 2-6-2 8-1-2-3h1l3 2 4 1-2-3h2l-4-4h2l3-1 3-1 4-3h1l1-3h2c0-2 0-4 2-6l-1-2 1 2 3-6 1 3 3-5v-2l-3 3-1-1-1 1c0 1-3 1-1 3h-2v1l-3-3v3l2 4-3-3-4-2 1 4c-4 0-4-3-5-4v2l-1 2h-3l-1-3h-2v4h-1l-3-1-4-4 4-2v-2h4l-1-2v-2l4 1-1-4-2-3c2 3 3 4 6 4 0-2-3-2-4-4l1-1 5 3-2-3 2-3 6-2 1 1 4-5 1 1 1-3 2-1 2-5 2 1v-4l1-3-3 2-2-4-2 2-1 4-1-2c0 2-2 4-4 6v-1l-3-1 1 2h-1l-1-1-1 4v-1l-3 4h-1l-3-2c0 3-1 3-3 3l-4-1v1l3 1-3-1v1l-1 2h-3l-1-2v2c-1 1-3 0-4-2l-1 2h-10l-4-2h-2l-3-1 4-1 3 2 1-1 3-3 2 2 3 1 3-1 1 1 1-3v3c2-1 3-3 6-1l1-2v2l3-3h2l3-3 3 2v-3 1-1l-3-1-3 2-2-1v1l-3-1v3l-1-3-3-4-1 1-2-1v7l-1-2v2c1 0 1 1 0 0v-2c-1 0 0 0 0 0v-6l-4 4v-6l-1 2-1 2v2l-2 2h-1v-1l1-4v-5h2v1l1-1 1 1 1-1h2l-2-2h6l1-2 1 2 2-1v1l2-4 2-1 1-1 1 2 1-1-1-4h1v3c3-1 2-4 2-5 0 1 0 2 2 2v-1l-2-3v-3l-3 4-1-1c1 1 1 1-1 4l-2-1v2l-1-1-5 3c0-4 0-4 2-6l2-1 1-1h-3l-5 2-3-1v1-2l-2 2-3-1 3-1-3-2c-3 0-3 0-4-2l-1 1-3-1 3-2 2-1v1l2 3 5-1 1-2 4 3v-1l2 1 1-3 1 2v-3l4-1c4 0 8-3 11-6v-1l3-1v1l1-3h-1l-3 3-1-3-3 4 1-2-4 4c0-3 0-4 3-4l1-3c-5 3-9 3-14 3l-16-2h1l17-6 1-2h-1l-11 3-2-1-2-2-1-1v1h-1l-1-2v1l-8-8 6 1h3v2h3v1h4v1l2-1 2 1 4-2 2 1v-1l-1-2 3-1v1h3v-1h6l-1-3 3 3 1-3v-1l3-1 2-3 2-1 1 1v-3l-7 3h-1v3l-2-3-1 1-3 3v-1l-2 1-2-1-2 2-3-4c-1 2 0 4-3 4v-2l-2 1h-3l-3-4h6c6-1 10-4 14-8v-4l-4 4-1-5-1 2 1-2-1-2c-4 4-10 4-15 3h4l1-1h-1c-3 0-3-2-3-3l-1-1-1 2-3-4v2h-1v-4l-2 1-6-5-2-2h3v2h3l4 2h5v2h4c1-2 1 0 3 1v-1l1-2 3 2v-3l3 3 1-3h1l-1-1-1 2-2-1 3-1h-8l-2-2v3l-4-3-1-2v1h-4l-1-3v2l-1-2 4-2c2-3 5-6 5-10l1-2 1-2h-1l-3 3v-1h-1l1 4-2-2h-2l3 3-1 3-2-6v7c-1-3-2-4-5-4l-1 1v-1l-1 1-2-1c-1 1 1 3-1 5v-12l1 2v4c3-3 3-4 1-7v-1l4 4c2-2 0-4-1-6l1-1 2 4c2-3 1-4 1-7l3 3h1l-1-4 1-3 3 2-2-4h2v-4l-2-6-1 6-3-3 3 4-3-1c2 2-1 4-1 5l-3-3c-1 6-1 6-5 10-3-2-4-6-3-7l2 1v-5l5 1-3-4-4-2-1-2 3 2v-3l2 1c0 3 3 4 6 6 0-3-2-4-4-6l-3-1v-1h1l2 1c0-3 0-4 2-7l2 2v-2l-2-2 2-2v-4h-2c0 2 2 3-1 4l-1-2-2 1-1-4-3 4-2 1v1l-3 2v-3l4-8v-2h-1l-2 2-1 3v-1l-1 1v-5l-2-4h-1v2l-1 6v-3c-3 0 0-1-2-3h-1v-1l-1-1v5l-3 4 3-1-2 2 3 2v5l-1 1h2v7l-1-1-5-8v-3h-3v3l3 2-2 3c-1 1-2 0-2-1v-1h-2l-2-4v-2c-2-1-3-3-2-4v-1l-2 4h1l1 2v2l2 2v2h1l-1 1-3-4-1 3v-3h-2v3l2 1 1-1 1 2v3h-1l4 5v6l1-2 4 6-2 2-2-2-1 1v-4c-1 3-4 4-3 8l3-3v3l-1-1v4h-2l-1 2v4l1-1 2-1 4 5 1 4 1-1v4c-1-2-2-2-1-4-3 0-1-2-1-2l-2 2-2-2c-2 2-2 0-3-1v-1l-3 5-1-4-1-3-2 4-1-1 1-4-1 1-5-4 1 6c4 5 8 9 15 12l4 4-2 1-4-4v3l3 4v1l-1-3v2l-2-4-1 1v-3l-3 4-2 6 2-3v3l-4 1v-1l-2 2 1 3 3-1 1-2 1 3 2-3v-1l1 3 1-2 3 2 3-4h1l3 1v-1l1-2h1l-9 6-1 4v-2l-4 4-2-1v3h-2l-2 1h2l1 1h3l1-1 4-3v4l-1 3v-4l-6 5h-1v-1l-1 1c-4 0-7-1-10-4h-1v2c1 2 4 4 7 4l2 1 2 1 1-1h5l-2 5 2 2-4 4v-6h-1l-3 7c0-3-2-4-5-5l3 5-6-5c0 1 0 2-2 2l-2-2c-1 2-2 1-4 0v1c-1-1-4 0-4-3l-1 2-1-3-2 1-5-5-3 1v2h2l1-2c0 2 0 4 3 4 2 2 4 3 4 6 2-2 2 1 2 2l2-1 4 5 1-1v3l1-2 2-2v5c2 0 2-3 5-5v1c-1 1-3 3-1 5v2c2-2 1-4 2-7l3 3h-3l-1 4h3l1 2 3-1v1l1-4c1-1 3-2 1-4l2-1h1v5l-1-1-3 5 3 3h2l2 1h1v4h-1l-10-5-8-3h-1l1 2 3 1 9 7h-1l-1 2v-1l-6-3 2 3-6-4-4 4v-1h-1l-3-3v1h-1l-1-2-3 1-1-4-2 3h-1l1-4-1 1c-1-1-4-1-4-4v4-1 1l3 1-2 3h3l1 1h2v2l2 1 6 3 2 1-1 1h5v2l2 2 2-2v4l4-4 4 5-1 3-3-4v4l-1-2h-3l-5-1-1-1v1l2 3-2 2-2-5-1 4-3-1v-2l-2-2h-2l2 2-3-2-1-3v1l-7-6v4l1-2 2 4c1 0 2 2 1 3l-8-5v2l4 3 15 11v1l-3 1 1 2 2-2 2 3 3 3v1l-5-1h-2v-1h-1c-1 0-3 0-3-3v1-1l-1 1-4-1-3-2-1-2h-3l-1-3v3c-3-2-5-3-5-6l-2 2c-1-3-5-4-5-8l-3-3 2 4v4l-3-3 1-1-2 3h1l1 2v6l3-3v1l1 4v4l7-2-1 2-2 3 6-3 1 6v1l3-3 5 6h1l3 1 3 1 1 1 1 2-1 1-3-1h-1v1l1 5c2 2 0 2-1 2l-1-2v-6l-2 1v2l-2 1 4 5-10-5v-1h-2l-2-2-1 2v1l1 3c3-2 4 0 6 1l2 3 3 2v2l1-3 4 5v-4c0 3 0 6 3 7v-4h1v4c2 1 3 3 2 4l2-1 3 1-1 1-3 3v1l-1-1v-1h-2v2l-1-1 1-1-1 1h-3l-8-1h2l-7-4v1l-1-1 1-3-5 5v-1 3l2-3h2l-2 5c2-1 3 2 3 3l-5-4c1 3 1 7 5 8v-1l4 4v-2 4l3-1h2l-1 4 4-3h3l-4 4h2l-1 3v1l5-2v1l2 1h5v2l-5 1v-1l-3 1-3 1 4 2h-1v1l-4-3 1 3c-2 1-4 0-4-1v4c-2 1-2-2-4-3v4l-2-1h-2l-1-2h-4l1 2-2 1-2-4h-2l-2 7 3-2 1 3 2 1 1-2 1 4 2-4 1 4c1 0 4 1 4 4l1-3h3c0 3 1 3 3 4v-3l2 4c-1 0-1 0 0 0h2l-2 2c-5 0-9-2-13-4l-1-2h-2l2 3 1 1h-1l-10-5 2 1 5 6 8 6 1 2h3l3 2c4-1 4 2 6 3h-2l-3-1-3-2-2 2-3-2h-7l3 4-5-2-6-2h-5l1-2h-4l3-2c-3-1-4-4-8-2l5 2-4 3c2 1 2 4 4 4v1h2l-3 4 5-1v1h4l3 4h-1 1c4 0 7 3 9 4l2 2h-10l2 2c-3-1-4-2-6-1l-9-4-1-1h-2v1-1l2-2h-6l-2-2-2 1 2 4-2-1-2-6c-2-1-3-1-2-4l-5 4-3-6v6c2 2 3 3 2 4 2-1 5-2 5-5l1 1c0 4 2 7 4 8v2l2 4 1-3v4c1 1 3 4 1 5v2l5-6v2h2v1l-4 4 5-3c1 3 0 6 3 7l1-4 4 5 1-2v5l4-5 3 2 1 3-5 3-1-2v2l-2-2 2 4-2-1-1-3-3-2-2 4-3-4v5l-1-1-4-6-2 3v-4c-1 3-2 4-5 4v-4l-3 3v-3l-5-1v-2h-3v2c-2-2-2-3-2-6l-2 2v-2l-1 2-1 1v-4c-3 0-1-1-3-3l-1 3-4-7v4l-1-2-2 1-2-4v5l4 4 1-1v5h1l3-2-1 6h1l3-4 1 8 4-4 1 7h3l-1 3 4-2 1 3 1-1 2 4-6 2-1-2h-1v1l1 3-1 4 4-2-2 3h6l-2 3 7-2-4 3 7 1h-2l4 2h-4l2 1-4 5h-3c3-1 3-4 3-6l-3 4-1 2v2-2l-6-2h-1l-1-4-2 2c-2-1-2-1-1-4-1 3-4 3-5 0v3-5l-3 2-3-1v4l-1-4v-3h1l3-6-5 5 2-4 4-4 2 1c1-1 1-4-2-5 0 1 0 3-2 4l-2 1-1-2-3 6-5-2 1 4 3 2h-1l-1-1-2-3v-1l-1 1-1-1v3l-2 1-3-5v2h-1l-1-5-2 3v-4h2v-2l1 2c0-3 0-6 3-7l1 1v-1l-1-3 1 2 1-2-1-1-1-1v2l-2-1v4l-1-3-1 4-4-1v-1 2l-3 2-1 1-2-1v2l-6-2-3 6v-8l-3 6-2-2 1-5c-1 3-4 4-4 7l-1-3-3-5-1 4-3-3v-1h-3 4l12-2c4-1 7-2 10-6l1-2-1-2 2-2h4l-1-1 3-3h-6c2-2 0-5-1-8 1-1 1-1 3 2l2 4c2-3-1-4-2-6v-1h1l1 1 3 3c0-3-3-3-4-5h1c-1-2 0-3 2-3h1l1-1-2-2 2-2-4 1h-1v1l-4-2 1 2-2 2v1h-3l1 1-4 2-1-2-1 2v-2c0-2-2-4-4-5l4 5-3 2c0-3-3-4-4-6l1-1h-4l4-1h-1l5-2-2-1h5l-1-1 4-2-2-1h4v-4l2-1h-2l-1 1-4-1-1-2-2-2 2 2h1v-2l4-3h1c-1-1-2-1-1-4l3 1 2-4 2 2 1-6 1 2 2-3 1-1v-3l1-4-1-1v2l-1 2-2-2c2 4-2 6-2 8l-3-2c1 2-1 4-3 5l-4-1v2l-1-1-1 4-3-3v3l-3-3v4l-4-2-4 5-4-4 2 4-3-4v4c-1 0-3 0-1-3l-2 2-1-2-1 2-3-2 1-2 2-3 2 4 2-4 1 3 3-4 1 2 1-4 2-1 4 3c0-3 0-3-4-4l1-3h1c0 3 1 4 4 4l-1-1v-2l3-4v-1l2-3 2-5 2 1v-5l3 3v-4l1 1 2-1-2-3 2-4h2l-2-3v2l-3 2-1 3-2 1-2 3h-2l2 1-3-1 1 1h-1c0 2 1 3-1 3l-2 1-1-1c0 3 0 3-3 3l2 1h-3l-4 3-3-3c2 3 2 3-1 4l-1-3-3 3v-1h-7v-2l10-2-2-2 3-2h3v-2l2-2 4-4c0-2-1-3-4-3l6-1c-3-2-4 1-7 1l3 3-3-2v2l-4 1-4 1-3 2 3-2-3-1h-9l-1 1-2-1-2 1-3 2 1-2c2-2 2-2 3-1h1l-1-3c1-1 3 0 4 2v-3c8-3 15-8 15-11l-11 7h-1l4-3 1-2v-2l-1-2v-2l1 4 5-5 2 3 1-4 1 1 4-4 3 1c-1-1 0-2 1-4v-1h2l2 1-1-4 1 2 3-6 1 2c2-3-1-4-2-6v3h-2v1l-1 2c0 1-1 2-3 1l-4 5v-2l-1 1h-1l-2 3-1-3v3-2l-1 2v-2l-3 3-1-1v2h-2v-1h-1l-1-1v2h-2v-1l-4 1v-2l-2 2v-4c-2 3-2 3-3 2v-3l-3 3h-1l1-2h-1l3-1c-2-1-4 0-4-3v2l-6-2 7-1-1-1h1l4 1-1-3h2l-4-2h3l1-2h3l3-2h1l1-3h2c0-1 0-4 2-5l-1-2 1 2 2-6 1 3h1l2-4v-3l-3 3v-1 1h-1c0 1-3 1-2 3h-1v1l-1-3-2 3 2 3-3-2-3-2v4c-2 0-2-3-4-4v2l-1 2-1-2-2-1h-1v3l-1 1 1-4-3 3-4-4h3l1-3 3-1-1-2v-1l2 1 2-1-3-1v-4l4 4-3-4h2l4 2v-1l-2-1 2-3 5-3v2l4-4h1v-2l2-1 2-4h2v-3l1-1h-1l-4-4v3l-2 4-1-3-3 5-2-1v3-2l-2 2v-2l-1 3v-1l-3 4-1-2h-1c0 3-2 3-3 2h-3l2 1c-2 1-2-1-3-1v1c0 1 0 3-1 1h-2l-1-1v3l-4-3v3-2h-15l-1-2 3 1v-1l2 1 2-1 1-2 3 2 2 1 3-3 1 3v-3l2 3 5-3v2l1-3h3l3-3 1 2v-2l-1-2-3 2-1-1-2 1h-1v2l-1-2-3-4-1 2v-2c-2 2-3 3 0 6h-2l-1 1v-8l-3 4v-5l-1 1-1 3v2l-2 2v-3l2-3v-5 3l1-2 1 2 2-2h1l-1-1h4l1-3 1 3 4-4 2-1v-2l1 3h1l-1-4h1v1l1-4 2 3v-1l-2-3v-1l-2 3-2-2c2 2 2 2-1 3l-1 1v-1c-1 2-3 2-5 2l2-4 2-1v-1h-2l-4 2-2-1v1h-2v-2l-1 2-1-1 1-1-3-1-2-2v-1l-4 1 2-1 2-1v1h1l1 3 4-3 4 3v-3l2 1 1-1h1l-1-1 3 1 2-3 12-8h-1l-3 2v-2l-2 4v-3l-3 3 1-3 3-2c-4 2-9 2-13 2l-14-1h2l14-5 2-2h-3l-8 2h-1l-2-2-2-1v1l-2-2v1l-8-7h2l5 2h1l2 1h1c1-1 3 0 3 1l1-1v1l3-1v1l4-2 2 1-1-1 1-2 2 2h1v-2h5v-2l2 2c1-1 0-2 2-1v-3l2-1 2-1 2-2v-1l-6 3h-1v1l-1-1v1l-3 1v-1l-3 1h-1l-1 2-3-3c-1 1 0 3-3 3l2-3-4 1h-2l-2-2 5-2c4 0 9-2 12-6v-3l-4 4v-5h-1v2-2c-4 2-8 2-14 1h4l2-1h-2c-2 0-2 0-2-3l-2 1-4-2v-3l-1 1-5-4-2-1h2v1h4l1 3 4-1h1l2 1h1c3-1 3 0 4 1v-1l1-1 2 1h1l-1-1 2 1 2-3v2l-2-2-1 2v-2l1-1-6 1v-1l-2 1-2-1v-3l-2 2h-2v-2l-2-1h-1l3-3c2-1 5-4 5-8l1-1v-1l-2 1v3l-3-2 3 3-3 3v-6 6l-5-3-2 1v-1l-1 1v-1l-1 4-2-9h2v1l1 3 1-6 3 3c1-3 0-4-1-5h1l1 2 2-6 2 2v-2l2-3 1 1-1-4h1v-6l-1 2h-3l1 3-1-1c1 2-1 2-1 4l-3-2c-1 4-1 4-5 7-2-1-3-4-2-5l2 1v-5l1-1-3-2-1-2 3 2v-4l1 3 5 3-2-4-3-2h3c-2-1-2-3 1-5l1 1-1-3 1-1v-4h-1c0 1 1 3-1 4v-3l-3 2-1-3-2 1-2 3v1h-3l1-3 3-5v-3h-1l-2 2-1 2v-1l-1 1v-4l-2-4v3l-1 5v-2l-1-3-1-1h-2v4l-1 3h1v2-1l1 1v6h2v5h-2l-4-8v-1h-1l-1 1 1 1 1 1-1 3c-1 1-1 0-3-1v-1l-2-4-2-2v-2l-2 2h1l1 3 2 3v2l-3-2-1 1v-1l-2 1 2 1 1-1 1 3v2h-1l3 4v2l1 2h1l3 4-3 3-1-3v2-4c-3 2-4 4-3 8l2-3 1 3-3 2v-1l-1 3v4l1-2 2-1 2 4 2 3h1v2c-1-1-3-1-1-2l-2-2-1 2-1-2h-3v-2l-3 4v-3l-1-3h-1v4l-2-1 2-4-2 1-5-2 1 4c4 5 8 8 14 10l2 4-4-2v1l3 4-1 1v-1l-2-4-1 3v-3l-3 3-1 4 3-2-1 2-3 2-1-2-2 2 2 3h2l2-3 1 3v-3l1 2 1-2 3 2 1-3h4v-1h3l-9 5v3-2l-3 4-3-2v2l-2 2h-2l2 1h5v-1l4-2v3l-1 3v-4h-2l-1 4-3-3v3h-2c-3 0-6 0-8-3h-2l2 1 5 4h3v3l2-3h4l-2 6h2-4l-2 5-6-4 3 4-4-4-3 3-1-3c-1 3-3 0-4 0l1 1c-1-1-4-1-4-4l-1 3v-1l-8-4v1l1-1 2 4c2 0 4 2 4 4 2-2 2 1 2 1l4 4h2v3l1-3 1-3v7l4-5v1l-1 4 1 1 2-5 2 1h-2v4l1-1 1 3h1l2 1 1-4v-4h3v-1 5l-2-1 2 8 1-2 1 2h2l-2 4-1-2-7-2-6-4h-2v1l3 3 8 4v1h-1v3h-1v-2l-4-4h-4l-3 3v-1l-1 1-3-3v2l-1-3-3 1-1-2-2 1 2-3h-3l-3-3v3l2 1h1l-1 3h2v1h2v2l2 1 4 3h3v1h4v1l1 2 2-2v3l4-4c1 3 1 5 4 5l-3 3-1-3v3l-2-1h-2l-4-2h-2l3 3-3 1-1-2-1 3-2-2-1-1-1-3h-2v3l-1-3-1-1-6-5v4l2-2c-2 2 0 2 1 3l1 3-8-4 2 1 2 3 12 9-1 3h1l3 1 1 3v1l-4-1v-2l-1 2-3-3v1-1l-1 1-3-2-2-2-2-1h-2v-3l-2 3c-1-1-4-3-4-5l-1 1c-1-3-4-3-4-7-1 2-1 0-3-1l2 4v3l-3-3v1l1 2v5l3-3v4c1 2 3 3 1 4l4-2v2l-1 3 5-3v7h2l1-3 4 4h3l1 2 3 1 1 1 1 2h-5l1 5-1 1-1-1v-7 1l-4-2 2 4-1 1 3 4-8-4h-2l-1-3-1 2v1l1 3c1-2 3 0 4 1l3 3 1 2h1l2-1 2 4v-3c0 2 0 3 3 4v-2 1l1 3v3l3-2 3 2-1 1-2 3h-1l-1-2v2h-2v-2l-1 2h-2l-6-3v1l-4-4-2 2v-3l-4 4v1l3-2-3 2c2 4 2 7 6 7l2 4v-1 2l3-1h1v4l3-3 3 2-3 2h1l-1 3 4-3 1 2v1h4l2 1-6 2v-2l-1 2-3 1 4 1h-2 1l-1 1-3-2 1 3-4-2v4l-2-2v2l-3-1h-5l-2 3-1-4h-3l-1 5h1l2-1 1 2h1l2-1 1 4 1-4v3c1 1 4 1 4 4l1-2 2-1v1l2 3v-3l3 3c-1 0-1 0 0 0l1 1-1 2c-5 0-8-2-12-4l-1-2v3l1 1h-1l-7-5v3l6 4 6 5 2 1h1l4 2c3-2 3 1 4 2h-1l-3-1h-12l3 3-6-3 2 3-3-2c-1-1-1-2-4-2v1l-3-1h-1l1-2h-4l3-1-7-3 6 3c-3 0-3 1-4 3 1 0 1 2 4 2v2l-3 4 5-3v3h3l4 2h-1v2c4-2 5 1 9 2h-1l1 2h-8l1 1h-4l-8-4-1-1h-1v1-3h-3l-4-1-1 1c2 0 1 2 1 3v-1l-3-4c-1-2-2-3-1-4l-4 4-3-6v6c2 0 3 1 2 2 2 0 4-1 4-4h1v2c0 2 1 5 4 6v4l1-2 2 4v5c2-1 4-1 4-4h1v1h1v2c-3 0-4 1-4 4l5-3c0 1-1 4 2 5l1-4 4 6v-3l1 4 4-3c2 2 0 3 3 3l-5 3-2-2v2l-1-2 1 4-1-1-1-3-1-1-3 3-1-4h-2v5l-1-1-3-4-1 2v-4c-1 2-1 3-4 3v-3l-3 2v-2l-5-1v-1h-1l-2 1-1-4h-1l-2 1-1-1 1-3c-2 2-2-1-2-1l-2 3-4-6v3-3l-1 2-3-4v5l4 4 2-1v4l2-3-1 5h1l3-2v6l4-4 1 7h3l-1 1 4-1v3h1l1 2-4 3-2-1v-2 2l1 1-1 4 4-1-2 2h4l-1 3 5-1-2 2h5l-1 2h4v1l-3-1v2l-4 4h-1c2-1 1-4 2-6l-2 4-2 2-5-2-1-3-2 1c-2 0-2 0-1-2h-4v1h-1v-1l1-3-3 3-2-2v3l-2-7-1 4-3-2-1-2-1-2v1l-3-1v5l-1-3-3-2c1 0 0 0 0 0v-4l-3 1-1-1-1 2v-1 3l1 1 1 1 2 2v2l1-1 4 4-1 7 5-3v1l-3 6 8-4-1 6 1-1v5l2-1 2 4h2v1c2-1 4 0 5 2v2h3v2l5-2h3v2l-2 2 4-1 4-1-2 4 5-2 3 2v1l5 3h-4l1 1-2 3h-3l-12-7-20-9-1-2v2l33 18h-1l-2 3h-4l2-3-6 3h-5l1-1h-4l2-2-4-1 1-1-3 1-1-3-3 3-2-4v3l1 1 1 3v1c1-1 3-3 1-4l2-1 1 1c-1 1-3 4-1 7l1-5h3v1l-2 1-1 3v1l5 3 7 1h1-2l-1 1h-4s0-1 0 0l-3-1-7-3-1-1h-1l1 1 9 7 8 1c6 0 10 0 14-2h8l-3 1-4 1-3 2h-4l-1 1-5 1-3 2h-4l-4-2h-3l-2-1h-7l-1-1-3-2v-1c-1 1-3-1-4-1h1c-2-2-4-3-6-2l2 2 2 2-2 2h3l-1 2h1l1 4v3l-2-5h-2v1l3 5 1 3 2 1v-5 1c-2-1 1-1 1-2 3 1 0 2 1 4l2-3 5 4 3 4c1-1 0-4-2-5h4c-1 2-2 4-1 5l3-4v3l4-3v1h1l1 2v-2l8 2 7 1h1v1l-4 1-4 2-4-2v2h2v1l-6-3 2 3-3 1-8-1-5-1v1l-3 3c1-1 4 0 5 1h4l-1 2h5l3 1h1v1h4l2 2h1l4 2-3 2-14 5h-3l1 1h-5l1 1h-6l-3-1-5 1h-3l-3-1h-4l2 1h-2v-1c-2 1-2-1-2-3v7h5l1 4 2-4 4 5v-2l5 4-1-5 2 4 4 1-2-4 2 3 2 2-3 2-3-3 1 4h-1v-3l-3 3v1l-1-1-1-1v2l-4-1v3-3l-1 1h-6l-2-1c-4-1-6-3-8-1l4 2h-3v2c-7-11-13-20-17-22-14-4-67 15-78 19-6 3-20 24-30 41v364h1596V474"/>
</svg>
